<svg width="20" height="20" viewBox="0 0 20 20" fill="none" xmlns="http://www.w3.org/2000/svg">
<g id="Frame">
<g id="Group">
<path id="Vector" d="M15.6 3.6H14V2.4C14 2.29391 13.9579 2.19217 13.8828 2.11716C13.8078 2.04214 13.7061 2 13.6 2C13.4939 2 13.3922 2.04214 13.3172 2.11716C13.2421 2.19217 13.2 2.29391 13.2 2.4V3.6H6.8V2.4C6.8 2.29391 6.75786 2.19217 6.68284 2.11716C6.60783 2.04214 6.50609 2 6.4 2C6.29391 2 6.19217 2.04214 6.11716 2.11716C6.04214 2.19217 6 2.29391 6 2.4V3.6H4.4C3.76348 3.6 3.15303 3.85286 2.70294 4.30294C2.25286 4.75303 2 5.36348 2 6V15.6C2 16.2365 2.25286 16.847 2.70294 17.2971C3.15303 17.7471 3.76348 18 4.4 18H15.6C16.2365 18 16.847 17.7471 17.2971 17.2971C17.7471 16.847 18 16.2365 18 15.6V6C18 5.36348 17.7471 4.75303 17.2971 4.30294C16.847 3.85286 16.2365 3.6 15.6 3.6ZM4.4 4.4H6V4.8C6 4.90609 6.04214 5.00783 6.11716 5.08284C6.19217 5.15786 6.29391 5.2 6.4 5.2C6.50609 5.2 6.60783 5.15786 6.68284 5.08284C6.75786 5.00783 6.8 4.90609 6.8 4.8V4.4H13.2V4.8C13.2 4.90609 13.2421 5.00783 13.3172 5.08284C13.3922 5.15786 13.4939 5.2 13.6 5.2C13.7061 5.2 13.8078 5.15786 13.8828 5.08284C13.9579 5.00783 14 4.90609 14 4.8V4.4H15.6C16.0243 4.4 16.4313 4.56857 16.7314 4.86863C17.0314 5.16869 17.2 5.57565 17.2 6V7.6H2.8V6C2.8 5.57565 2.96857 5.16869 3.26863 4.86863C3.56869 4.56857 3.97565 4.4 4.4 4.4ZM15.6 17.2H4.4C3.97565 17.2 3.56869 17.0314 3.26863 16.7314C2.96857 16.4313 2.8 16.0243 2.8 15.6V8.4H17.2V15.6C17.2 16.0243 17.0314 16.4313 16.7314 16.7314C16.4313 17.0314 16.0243 17.2 15.6 17.2ZM14.4 11.2C14.4 11.3061 14.3579 11.4078 14.2828 11.4828C14.2078 11.5579 14.1061 11.6 14 11.6H6C5.89391 11.6 5.79217 11.5579 5.71716 11.4828C5.64214 11.4078 5.6 11.3061 5.6 11.2C5.6 11.0939 5.64214 10.9922 5.71716 10.9172C5.79217 10.8421 5.89391 10.8 6 10.8H14C14.1061 10.8 14.2078 10.8421 14.2828 10.9172C14.3579 10.9922 14.4 11.0939 14.4 11.2ZM14.4 14.4C14.4 14.5061 14.3579 14.6078 14.2828 14.6828C14.2078 14.7579 14.1061 14.8 14 14.8H6C5.89391 14.8 5.79217 14.7579 5.71716 14.6828C5.64214 14.6078 5.6 14.5061 5.6 14.4C5.6 14.2939 5.64214 14.1922 5.71716 14.1172C5.79217 14.0421 5.89391 14 6 14H14C14.1061 14 14.2078 14.0421 14.2828 14.1172C14.3579 14.1922 14.4 14.2939 14.4 14.4Z" fill="#07170D"/>
</g>
</g>
</svg>
