<svg width="26" height="26" viewBox="0 0 26 26" fill="none" xmlns="http://www.w3.org/2000/svg">
<path d="M3.46039 14.2945C2.55186 12.7629 2.23369 10.9524 2.56562 9.20285C2.89754 7.4533 3.85674 5.8851 5.26308 4.79272C6.66943 3.70033 8.42618 3.15892 10.2035 3.27014C11.9807 3.38136 13.6563 4.13756 14.9155 5.39674C16.1747 6.65592 16.9309 8.33147 17.0421 10.1088C17.1533 11.886 16.6119 13.6428 15.5196 15.0491C14.4272 16.4555 12.859 17.4147 11.1094 17.7466C9.35988 18.0786 7.54933 17.7604 6.01777 16.8519L6.01779 16.8518L3.49219 17.5734C3.3877 17.6033 3.27712 17.6046 3.17192 17.5774C3.06672 17.5501 2.97073 17.4952 2.89389 17.4184C2.81704 17.3415 2.76215 17.2455 2.73489 17.1403C2.70763 17.0351 2.709 16.9246 2.73885 16.8201L3.46045 14.2945L3.46039 14.2945Z" stroke="url(#paint0_linear_632_8112)" stroke-width="1.5" stroke-linecap="round" stroke-linejoin="round"/>
<path d="M9.34961 17.865C9.70908 18.8855 10.2904 19.8136 11.0517 20.5824C11.813 21.3512 12.7353 21.9417 13.7523 22.3111C14.7692 22.6806 15.8554 22.82 16.9327 22.7191C18.0099 22.6183 19.0514 22.2799 19.9821 21.7281L19.9821 21.728L22.5077 22.4496C22.6122 22.4795 22.7228 22.4809 22.828 22.4536C22.9332 22.4263 23.0292 22.3714 23.106 22.2946C23.1828 22.2178 23.2377 22.1218 23.265 22.0166C23.2923 21.9114 23.2909 21.8008 23.261 21.6963L22.5394 19.1707L22.5395 19.1707C23.1806 18.0895 23.5323 16.8612 23.5605 15.6044C23.5888 14.3476 23.2926 13.1048 22.7007 11.9958C22.1087 10.8868 21.2409 9.94912 20.1811 9.27316C19.1212 8.59719 17.905 8.20579 16.6498 8.13672" stroke="url(#paint1_linear_632_8112)" stroke-width="1.5" stroke-linecap="round" stroke-linejoin="round"/>
<defs>
<linearGradient id="paint0_linear_632_8112" x1="5.60083" y1="-7.05568" x2="18.6568" y2="-2.93515" gradientUnits="userSpaceOnUse">
<stop stop-color="#0DBA48"/>
<stop offset="1" stop-color="#009B51"/>
</linearGradient>
<linearGradient id="paint1_linear_632_8112" x1="12.4251" y1="-2.17155" x2="25.181" y2="1.74367" gradientUnits="userSpaceOnUse">
<stop stop-color="#0DBA48"/>
<stop offset="1" stop-color="#009B51"/>
</linearGradient>
</defs>
</svg>
