<svg width="60" height="60" viewBox="0 0 60 60" fill="none" xmlns="http://www.w3.org/2000/svg">
<g id="Frame" clip-path="url(#clip0_518_5808)">
<g id="Group">
<path id="Vector" d="M4.52588 9.70181C5.01111 9.70181 5.40429 9.30863 5.40429 8.82339V5.56447C5.40429 3.46494 7.11041 1.75683 9.20736 1.75683H29.2437C29.4409 1.75683 29.634 1.78061 29.8219 1.82265V13.1248C29.8219 15.36 31.6357 17.1783 33.8652 17.1783H45.1309C45.1723 17.3652 45.1957 17.5573 45.1957 17.7534V22.5514C45.1957 23.0366 45.5889 23.4298 46.0741 23.4298C46.5593 23.4298 46.9525 23.0366 46.9525 22.5514V17.7534C46.9525 16.5818 46.4972 15.4799 45.6705 14.6508L32.3513 1.29022C31.5217 0.458182 30.4181 0 29.2437 0H9.20736C6.14158 0 3.64746 2.49622 3.64746 5.56447V8.82339C3.64746 9.05636 3.74001 9.27979 3.90474 9.44452C4.06948 9.60926 4.29291 9.70181 4.52588 9.70181ZM43.958 15.4215H33.8652C32.6044 15.4215 31.5787 14.3911 31.5787 13.1248V3.00371L43.958 15.4215ZM14.3842 52.4826H9.20736C7.11041 52.4826 5.40429 50.7746 5.40429 48.6751V12.9227C5.40429 12.4374 5.01111 12.0442 4.52588 12.0442C4.04064 12.0442 3.64746 12.4374 3.64746 12.9227V48.6751C3.64746 51.7432 6.14158 54.2395 9.20736 54.2395H14.3842C14.8694 54.2395 15.2626 53.8463 15.2626 53.361C15.2626 52.8758 14.8694 52.4826 14.3842 52.4826Z" fill="#07170D"/>
<path id="Vector_2" d="M11.2447 18.4502H25.7223C26.2076 18.4502 26.6007 18.057 26.6007 17.5718C26.6007 17.0865 26.2076 16.6934 25.7223 16.6934H11.2447C10.7595 16.6934 10.3663 17.0865 10.3663 17.5718C10.3663 18.057 10.7595 18.4502 11.2447 18.4502ZM11.2447 37.7801C10.7595 37.7801 10.3663 38.1733 10.3663 38.6586C10.3663 39.1438 10.7595 39.537 11.2447 39.537H25.7223C26.2076 39.537 26.6007 39.1438 26.6007 38.6586C26.6007 38.1733 26.2076 37.7801 25.7223 37.7801H11.2447ZM38.1055 24.6007C38.1055 24.1155 37.7123 23.7223 37.2271 23.7223H11.0107C10.5255 23.7223 10.1323 24.1155 10.1323 24.6007C10.1323 25.086 10.5255 25.4792 11.0107 25.4792H37.2271C37.4601 25.4792 37.6835 25.3866 37.8482 25.2219C38.013 25.0571 38.1055 24.8337 38.1055 24.6007ZM32.2536 31.6297C32.2536 31.1445 31.8605 30.7513 31.3752 30.7513H11.0107C10.5255 30.7513 10.1323 31.1445 10.1323 31.6297C10.1323 32.1149 10.5255 32.5081 11.0107 32.5081H31.3752C31.6082 32.5081 31.8316 32.4156 31.9964 32.2508C32.1611 32.0861 32.2536 31.8627 32.2536 31.6297ZM56.3434 55.0886C56.2856 54.2815 55.915 53.0938 54.4791 52.0143L46.8993 46.0316L48.6156 44.3189C49.7579 44.8568 51.1146 44.4615 52.0251 43.5483C53.2275 42.3412 53.3688 40.518 52.3398 39.4832L46.9526 34.076V26.6504C46.9526 26.1651 46.5594 25.772 46.0742 25.772C45.5889 25.772 45.1957 26.1651 45.1957 26.6504V32.3128L43.4503 30.5608C42.3411 29.4436 40.4659 29.7584 39.3899 30.8751C38.3984 31.8704 38.1291 33.2844 38.6419 34.3301L30.7676 42.1878C29.7242 41.6855 28.3203 41.9579 27.3304 42.946C26.2163 44.0211 25.9021 45.8983 27.0165 47.0065L32.5021 52.4824H18.4835C17.9982 52.4824 17.6051 52.8755 17.6051 53.3608C17.6051 53.846 17.9982 54.2392 18.4835 54.2392H34.2619L35.9316 55.9058C37.0795 57.0088 38.8689 56.7112 39.9953 55.5897C40.9125 54.6732 41.3047 53.3063 40.7561 52.1618L42.4239 50.4975L48.4061 58.091C50.555 60.6984 52.7422 60.4358 54.8881 58.5002C55.9108 57.4766 56.4276 56.2649 56.3434 55.0886ZM40.6351 32.1141C41.0894 31.6965 41.6938 31.4008 42.2049 31.8001L51.0946 40.7227C51.4298 41.0598 51.2857 41.7958 50.7869 42.3017C50.32 42.7451 49.6281 43.0572 49.14 42.553L45.8468 39.2476C45.6818 39.0853 45.4595 38.9948 45.2281 38.9955C44.9968 38.9963 44.775 39.0883 44.6111 39.2516C44.4472 39.4149 44.3543 39.6362 44.3526 39.8676C44.3509 40.099 44.4406 40.3217 44.6022 40.4873L47.2772 43.1723C44.9696 45.4726 41.9129 48.5249 39.606 50.8273L32.1024 43.3371L39.7942 35.6616L41.7067 37.5811C41.8712 37.7461 42.0944 37.839 42.3274 37.8395C42.5603 37.8399 42.7839 37.7478 42.949 37.5835C43.114 37.419 43.2069 37.1958 43.2074 36.9628C43.2078 36.7299 43.1157 36.5063 42.9513 36.3412L40.418 33.7986C39.9571 33.4364 40.0899 32.6797 40.6351 32.1141ZM38.7536 54.3468C38.2484 54.8507 37.5093 54.9976 37.1723 54.6619L28.2571 45.7626C27.8587 45.2503 28.1535 44.6445 28.5719 44.1887C29.1271 43.651 29.881 43.5127 30.2377 43.958L39.0685 52.773C39.467 53.2851 39.1713 53.892 38.7536 54.3468ZM53.6453 57.2586C52.325 58.5742 50.9001 58.5403 49.7928 57.0122L43.6762 49.2479L45.647 47.2812L53.3991 53.4C54.926 54.5086 54.9616 55.9384 53.6453 57.2586Z" fill="#07170D"/>
<path id="Vector_3" d="M11.2447 18.4502H25.7223C26.2076 18.4502 26.6007 18.057 26.6007 17.5718C26.6007 17.0865 26.2076 16.6934 25.7223 16.6934H11.2447C10.7595 16.6934 10.3663 17.0865 10.3663 17.5718C10.3663 18.057 10.7595 18.4502 11.2447 18.4502ZM11.2447 37.7801C10.7595 37.7801 10.3663 38.1733 10.3663 38.6586C10.3663 39.1438 10.7595 39.537 11.2447 39.537H25.7223C26.2076 39.537 26.6007 39.1438 26.6007 38.6586C26.6007 38.1733 26.2076 37.7801 25.7223 37.7801H11.2447ZM38.1055 24.6007C38.1055 24.1155 37.7123 23.7223 37.2271 23.7223H11.0107C10.5255 23.7223 10.1323 24.1155 10.1323 24.6007C10.1323 25.086 10.5255 25.4792 11.0107 25.4792H37.2271C37.4601 25.4792 37.6835 25.3866 37.8482 25.2219C38.013 25.0571 38.1055 24.8337 38.1055 24.6007ZM32.2536 31.6297C32.2536 31.1445 31.8605 30.7513 31.3752 30.7513H11.0107C10.5255 30.7513 10.1323 31.1445 10.1323 31.6297C10.1323 32.1149 10.5255 32.5081 11.0107 32.5081H31.3752C31.6082 32.5081 31.8316 32.4156 31.9964 32.2508C32.1611 32.0861 32.2536 31.8627 32.2536 31.6297Z" fill="url(#paint0_linear_518_5808)"/>
</g>
</g>
<defs>
<linearGradient id="paint0_linear_518_5808" x1="16.1854" y1="0.580455" x2="40.0865" y2="9.81762" gradientUnits="userSpaceOnUse">
<stop stop-color="#0DBA48"/>
<stop offset="1" stop-color="#009B51"/>
</linearGradient>
<clipPath id="clip0_518_5808">
<rect width="60" height="60" fill="white"/>
</clipPath>
</defs>
</svg>
