<svg width="50" height="50" viewBox="0 0 50 50" fill="none" xmlns="http://www.w3.org/2000/svg">
<g clip-path="url(#clip0_518_5511)">
<path d="M47.2979 18.0094C47.36 18.078 42.0366 13.9308 42.0366 13.9308V5.10499C42.0366 4.8911 41.9516 4.68598 41.8004 4.53474C41.6491 4.3835 41.444 4.29853 41.2301 4.29853H30.0479L25.3438 0.198535C25.1929 0.0669239 24.9984 -0.00379358 24.7982 0.000157022C24.598 0.00410762 24.4064 0.0824434 24.2608 0.219906L19.9342 4.29853H8.77005C8.33053 4.29853 7.96118 4.66991 7.9636 5.10942L8.01561 14.3901C8.01561 14.3901 2.95715 17.7663 2.91642 17.8082C2.61078 18.1251 1.61279 19.236 1.61279 20.2272V46.5364C1.61279 48.4461 3.39384 50.0001 5.58295 50.0001H44.4168C46.6059 50.0001 48.387 48.4461 48.387 46.5364V20.1881C48.387 19.2864 47.5563 18.2961 47.2979 18.0094C47.5563 18.2961 47.3596 18.0776 47.2979 18.0094ZM42.0362 15.9679L45.2426 18.4437L42.0362 20.2602V15.9679ZM24.835 1.8945L27.5926 4.29813H22.2854L24.835 1.8945ZM8.0265 16.3203L8.04868 20.2542L4.98578 18.3457L8.0265 16.3203ZM46.7741 46.5364C46.7741 46.8731 46.6571 47.188 46.4563 47.4602L33.4011 38.0594C33.2273 37.9396 33.0134 37.8927 32.8054 37.9287C32.5974 37.9648 32.4117 38.0809 32.2884 38.2523C32.165 38.4236 32.1137 38.6365 32.1455 38.8452C32.1773 39.0539 32.2896 39.2418 32.4583 39.3687L44.9221 48.3437C44.7591 48.3719 5.55594 48.386 5.54223 48.386L17.7725 39.459C17.9402 39.3311 18.0512 39.1425 18.0816 38.9337C18.1119 38.725 18.0592 38.5126 17.9349 38.3422C17.8105 38.1718 17.6242 38.0569 17.4161 38.0222C17.208 37.9875 16.9946 38.0358 16.8217 38.1566L3.74989 47.6969C3.42287 47.3792 3.2257 46.9755 3.2257 46.5364V20.2276C3.22973 20.0844 3.40957 19.7643 3.65392 19.434L12.1733 25.0042C12.3488 25.1265 12.5657 25.1741 12.7763 25.1366C12.9869 25.099 13.1739 24.9793 13.2963 24.8038C13.4186 24.6283 13.4662 24.4114 13.4286 24.2008C13.391 23.9902 13.2713 23.8031 13.0959 23.6808L9.66763 21.2897L9.58134 5.91103H40.4237V21.2219L24.9753 31.9671L17.7579 26.9332C17.5825 26.8109 17.3656 26.7633 17.155 26.8008C16.9444 26.8384 16.7573 26.9581 16.635 27.1336C16.5126 27.3091 16.465 27.526 16.5026 27.7366C16.5402 27.9472 16.6599 28.1343 16.8354 28.2566L24.5136 33.6118C24.6492 33.7052 24.8098 33.7552 24.9744 33.7552C25.139 33.7553 25.2997 33.7054 25.4354 33.6122L41.6604 22.3268L46.4858 19.5933C46.6515 19.8437 46.77 20.0776 46.7745 20.1881L46.7741 46.5364Z" fill="white"/>
<path d="M35.988 12.3277H14.6283C14.4144 12.3277 14.2093 12.2428 14.0581 12.0915C13.9068 11.9403 13.8219 11.7352 13.8219 11.5213C13.8219 11.3074 13.9068 11.1023 14.0581 10.951C14.2093 10.7998 14.4144 10.7148 14.6283 10.7148H35.988C36.2019 10.7148 36.407 10.7998 36.5583 10.951C36.7095 11.1023 36.7945 11.3074 36.7945 11.5213C36.7945 11.7352 36.7095 11.9403 36.5583 12.0915C36.407 12.2428 36.2019 12.3277 35.988 12.3277ZM35.7828 17.6838H21.061C20.8471 17.6838 20.642 17.5988 20.4907 17.4476C20.3395 17.2963 20.2545 17.0912 20.2545 16.8773C20.2545 16.6635 20.3395 16.4583 20.4907 16.3071C20.642 16.1559 20.8471 16.0709 21.061 16.0709H35.7828C35.9966 16.0709 36.2018 16.1559 36.353 16.3071C36.5043 16.4583 36.5892 16.6635 36.5892 16.8773C36.5892 17.0912 36.5043 17.2963 36.353 17.4476C36.2018 17.5988 35.9966 17.6838 35.7828 17.6838ZM16.8001 17.6838H14.3719C14.158 17.6838 13.9529 17.5988 13.8016 17.4476C13.6504 17.2963 13.5654 17.0912 13.5654 16.8773C13.5654 16.6635 13.6504 16.4583 13.8016 16.3071C13.9529 16.1559 14.158 16.0709 14.3719 16.0709H16.8001C17.014 16.0709 17.2191 16.1559 17.3704 16.3071C17.5216 16.4583 17.6066 16.6635 17.6066 16.8773C17.6066 17.0912 17.5216 17.2963 17.3704 17.4476C17.2191 17.5988 17.014 17.6838 16.8001 17.6838Z" fill="white"/>
</g>
<defs>
<clipPath id="clip0_518_5511">
<rect width="50" height="50" fill="white"/>
</clipPath>
</defs>
</svg>
