<svg width="60" height="60" viewBox="0 0 60 60" fill="none" xmlns="http://www.w3.org/2000/svg">
<g id="svg-gobbler - 2023-04-04T160113.502">
<g id="Group">
<path id="Vector" d="M4.53254 43.5146C4.69761 43.5146 4.85591 43.449 4.97263 43.3323C5.08935 43.2156 5.15492 43.0573 5.15492 42.8922V12.4265C5.15492 10.4394 6.77141 8.82289 8.75855 8.82289H51.2422C53.2293 8.82289 54.8458 10.4394 54.8458 12.4265V22.5716C54.8458 22.7366 54.9114 22.8949 55.0281 23.0117C55.1448 23.1284 55.3031 23.1939 55.4682 23.1939C55.6333 23.1939 55.7916 23.1284 55.9083 23.0117C56.025 22.8949 56.0906 22.7366 56.0906 22.5716V12.4265C56.0906 9.75313 53.9156 7.57812 51.2422 7.57812H8.75855C6.08516 7.57812 3.91016 9.75313 3.91016 12.4265V42.8922C3.91016 43.0573 3.97573 43.2156 4.09245 43.3323C4.20917 43.449 4.36747 43.5146 4.53254 43.5146ZM55.4681 31.982C55.303 31.982 55.1447 32.0475 55.028 32.1642C54.9113 32.281 54.8457 32.4393 54.8457 32.6043V42.8921C54.8457 43.0572 54.9113 43.2155 55.028 43.3322C55.1447 43.4489 55.303 43.5145 55.4681 43.5145C55.6332 43.5145 55.7915 43.4489 55.9082 43.3322C56.0249 43.2155 56.0905 43.0572 56.0905 42.8921V32.6043C56.0905 32.4393 56.0249 32.281 55.9082 32.1642C55.7915 32.0475 55.6332 31.982 55.4681 31.982ZM56.0905 28.0173C56.0905 27.8522 56.0249 27.6939 55.9082 27.5772C55.7915 27.4605 55.6332 27.3949 55.4681 27.3949C55.303 27.3949 55.1447 27.4605 55.028 27.5772C54.9113 27.6939 54.8457 27.8522 54.8457 28.0173V30.1023C54.8457 30.2673 54.9113 30.4256 55.028 30.5424C55.1447 30.6591 55.303 30.7246 55.4681 30.7246C55.6332 30.7246 55.7915 30.6591 55.9082 30.5424C56.0249 30.4256 56.0905 30.2673 56.0905 30.1023V28.0173Z" fill="#07170D"/>
<path id="Vector_2" d="M59.2521 44.7575H30.945V43.5383C30.945 42.6342 30.2093 41.8985 29.3048 41.8985H28.997V40.0665C28.997 38.8818 28.033 37.918 26.8485 37.918H15.7314C14.5467 37.918 13.5829 38.882 13.5829 40.0665V41.8984H13.2746C12.3705 41.8984 11.6348 42.6341 11.6348 43.5382V44.7574H0.748359C0.583293 44.7574 0.424988 44.823 0.308268 44.9397C0.191549 45.0564 0.125977 45.2147 0.125977 45.3798V49.2623C0.125977 51.0043 1.54336 52.4213 3.28523 52.4213H56.7152C58.4572 52.4213 59.8746 51.0043 59.8746 49.2623V45.3798C59.8745 45.2147 59.8089 45.0565 59.6922 44.9398C59.5754 44.8231 59.4172 44.7575 59.2521 44.7575ZM14.8276 40.0665C14.8276 39.5681 15.233 39.1627 15.7314 39.1627H26.8485C27.3469 39.1627 27.7522 39.5681 27.7522 40.0665V41.8984H14.8276V40.0665ZM12.8796 43.5383C12.8797 43.4335 12.9214 43.3331 12.9955 43.2591C13.0695 43.185 13.1699 43.1434 13.2746 43.1432H29.305C29.4097 43.1433 29.5102 43.185 29.5843 43.259C29.6584 43.3331 29.7002 43.4335 29.7004 43.5383V44.7575H12.8796V43.5383ZM58.6297 49.2624C58.6297 50.3178 57.7709 51.1767 56.7151 51.1767H3.28523C2.22949 51.1767 1.37063 50.3178 1.37063 49.2624V46.0023H58.6297V49.2624Z" fill="#07170D"/>
<path id="Vector_3" d="M44.5557 43.0803C44.5804 43.1582 44.6203 43.2305 44.6729 43.2931C44.7256 43.3556 44.79 43.4071 44.8626 43.4447C44.9352 43.4823 45.0145 43.5052 45.096 43.5121C45.1774 43.5191 45.2595 43.5099 45.3374 43.4851C45.4153 43.4603 45.4875 43.4205 45.55 43.3678C45.6125 43.3151 45.6641 43.2507 45.7016 43.1781C45.7392 43.1055 45.7622 43.0262 45.7691 42.9448C45.776 42.8633 45.7669 42.7813 45.7421 42.7034C45.4073 41.6502 45.6333 42.3397 28.9626 25.5452L32.392 22.1158C32.6746 22.3801 33.0489 22.5241 33.4357 22.5174C33.8226 22.5106 34.1916 22.3537 34.4648 22.0797L35.6588 20.8861C36.2437 20.3019 36.2443 19.3537 35.6588 18.7688L28.2753 11.3857C27.6922 10.8016 26.7418 10.8016 26.1581 11.3857L24.9644 12.5793C24.3944 13.1491 24.3852 14.0659 24.9283 14.6521L14.5965 24.984C14.0103 24.4405 13.0935 24.4503 12.5237 25.0201L11.3294 26.2138C10.7463 26.7976 10.7463 27.7473 11.3294 28.331H11.3298L18.7133 35.7145C19.2975 36.2993 20.2456 36.3 20.8305 35.7145L22.0242 34.5205C22.5942 33.9507 22.6035 33.0339 22.0603 32.4477L25.4873 29.0206L39.8046 43.332C39.8624 43.3899 39.931 43.4357 40.0065 43.467C40.082 43.4983 40.1629 43.5144 40.2446 43.5144C40.3264 43.5144 40.4073 43.4983 40.4828 43.467C40.5583 43.4357 40.6269 43.3899 40.6847 43.332C40.7425 43.2743 40.7884 43.2057 40.8197 43.1302C40.8509 43.0547 40.8671 42.9737 40.8671 42.892C40.8671 42.8103 40.8509 42.7293 40.8197 42.6538C40.7884 42.5783 40.7425 42.5097 40.6847 42.452L26.3683 28.1414L28.0833 26.4262C45.0978 43.5 44.39 42.5591 44.5557 43.0803ZM25.8444 13.4595L27.0381 12.2659C27.0854 12.2186 27.1497 12.192 27.2166 12.192C27.2836 12.192 27.3478 12.2186 27.3951 12.2659L34.7787 19.649C34.8771 19.7475 34.8771 19.9077 34.7787 20.0061L33.5846 21.1998C33.4862 21.2982 33.3263 21.2982 33.2279 21.1998L25.8444 13.8163C25.7973 13.7688 25.7708 13.7047 25.7708 13.6379C25.7708 13.5711 25.7973 13.5069 25.8444 13.4595ZM25.8043 15.5363L31.5078 21.2398L21.1842 31.5635L15.4807 25.86L25.8043 15.5363ZM21.144 33.6404L19.9503 34.8344C19.903 34.8817 19.8387 34.9083 19.7718 34.9083C19.7048 34.9083 19.6406 34.8817 19.5933 34.8344L12.2097 27.4509H12.2101C12.1629 27.4035 12.1363 27.3393 12.1362 27.2724C12.1362 27.2055 12.1626 27.1413 12.2097 27.0938L13.4038 25.9002C13.5022 25.8017 13.6621 25.8017 13.7605 25.9002L21.144 33.2837C21.2422 33.3821 21.2422 33.542 21.144 33.6404ZM50.1362 17.0653C50.1362 13.6917 47.3917 10.9473 44.0182 10.9473C40.6465 10.9473 37.9035 13.6918 37.9035 17.0653C37.9035 20.437 40.6465 23.18 44.0182 23.18C47.3917 23.18 50.1362 20.437 50.1362 17.0653ZM44.0181 21.9352C41.3328 21.9352 39.1481 19.7505 39.1481 17.0653C39.1481 14.3782 41.3328 12.192 44.0181 12.192C46.7052 12.192 48.8913 14.3783 48.8913 17.0653C48.8914 19.7505 46.7052 21.9352 44.0181 21.9352Z" fill="url(#paint0_linear_518_5463)"/>
<g id="Group 91">
<path id="Vector_4" d="M43.3852 19.3242V15.2377H44.7474C45.0365 15.2377 45.3138 15.3525 45.5184 15.5569C45.7227 15.7612 45.8371 16.0384 45.8371 16.3274C45.8371 16.9292 45.3495 17.4172 44.7474 17.4172H42.8403" stroke="url(#paint1_linear_518_5463)" stroke-width="0.6" stroke-miterlimit="10" stroke-linecap="round" stroke-linejoin="round"/>
<path id="Vector_5" d="M44.7474 18.5078H42.8403" stroke="url(#paint2_linear_518_5463)" stroke-width="0.6" stroke-miterlimit="10" stroke-linecap="round" stroke-linejoin="round"/>
</g>
</g>
</g>
<defs>
<linearGradient id="paint0_linear_518_5463" x1="19.384" y1="-12.0242" x2="53.0538" y2="0.780732" gradientUnits="userSpaceOnUse">
<stop stop-color="#0DBA48"/>
<stop offset="1" stop-color="#009B51"/>
</linearGradient>
<linearGradient id="paint1_linear_518_5463" x1="43.4888" y1="22.2067" x2="46.2822" y2="21.5602" gradientUnits="userSpaceOnUse">
<stop stop-color="#0DBA48"/>
<stop offset="1" stop-color="#009B51"/>
</linearGradient>
<linearGradient id="paint2_linear_518_5463" x1="43.253" y1="19.2132" x2="44.6278" y2="18.3857" gradientUnits="userSpaceOnUse">
<stop stop-color="#0DBA48"/>
<stop offset="1" stop-color="#009B51"/>
</linearGradient>
</defs>
</svg>
