<svg width="60" height="60" viewBox="0 0 60 60" fill="none" xmlns="http://www.w3.org/2000/svg">
<g id="svg-gobbler - 2023-04-04T160059.088" clip-path="url(#clip0_518_5475)">
<g id="Group">
<g id="Clip path group">
<mask id="mask0_518_5475" style="mask-type:luminance" maskUnits="userSpaceOnUse" x="0" y="0" width="60" height="60">
<g id="a">
<path id="Vector" d="M59.2498 59.25V0.750175H0.75V59.25H59.2498Z" fill="white" stroke="white" stroke-width="1.5"/>
</g>
</mask>
<g mask="url(#mask0_518_5475)">
<g id="Group_2">
<path id="Vector_2" d="M24.981 0.878924H44.8756C45.5234 0.878924 46.0486 1.40416 46.0486 2.05208V2.69779C46.0486 6.63246 48.7082 10.0698 52.5169 11.0576C52.7684 11.1228 52.9912 11.2698 53.1502 11.4753C53.3092 11.6809 53.3954 11.9334 53.3954 12.1932V20.0527" stroke="#07170D" stroke-width="1.5" stroke-miterlimit="10" stroke-linecap="round" stroke-linejoin="round"/>
<path id="Vector_3" d="M53.3952 24.238V34.7856C53.3952 37.4356 52.754 40.0463 51.5263 42.3947C50.2985 44.7431 48.5208 46.7596 46.3448 48.272L31.3388 58.7014C30.9458 58.9747 30.4785 59.1211 29.9998 59.1211C29.5211 59.1211 29.0538 58.9747 28.6608 58.7014L13.6549 48.272C11.4789 46.7596 9.70115 44.7431 8.47342 42.3947C7.2457 40.0463 6.60448 37.4356 6.60449 34.7856V12.1934C6.60448 11.9335 6.69075 11.681 6.84976 11.4755C7.00877 11.27 7.23151 11.1231 7.48305 11.0578C11.2917 10.0699 13.9512 6.6326 13.9512 2.69792V2.05222C13.9512 1.40429 14.4764 0.879059 15.1243 0.879059H20.8259" stroke="#07170D" stroke-width="1.5" stroke-miterlimit="10" stroke-linecap="round" stroke-linejoin="round"/>
<path id="Vector_4" d="M20.8473 47.5568L16.333 44.4192C14.7789 43.3387 13.5093 41.8983 12.6324 40.2209C11.7554 38.5435 11.2972 36.6789 11.2969 34.7861V14.6108C14.8785 12.8133 17.4689 9.48342 18.3314 5.57206H41.6683C42.5308 9.48342 45.1207 12.8131 48.7027 14.6107V34.7861C48.7023 36.6789 48.2441 38.5435 47.3672 40.2209C46.4903 41.8983 45.2207 43.3387 43.6667 44.4192L29.9998 53.918L24.3246 49.9736" stroke="#07170D" stroke-width="1.5" stroke-miterlimit="10" stroke-linecap="round" stroke-linejoin="round"/>
<path id="Vector_5" d="M33.6958 22.7575L38.9233 17.53C40.1191 16.3342 42.0578 16.3342 43.2536 17.53C44.4494 18.7258 44.4494 20.6647 43.2536 21.8606L28.2121 36.9021C27.928 37.1869 27.5905 37.4127 27.219 37.5665C26.8474 37.7204 26.4491 37.7994 26.0469 37.7988C25.6447 37.7994 25.2464 37.7204 24.8748 37.5665C24.5033 37.4127 24.1658 37.1869 23.8818 36.9021L16.8436 29.8641C15.6478 28.6682 15.6478 26.7293 16.8436 25.5337C18.0394 24.3379 19.9781 24.3378 21.1739 25.5335L26.0469 30.4065L30.7925 25.6608" stroke="url(#paint0_linear_518_5475)" stroke-width="1.5" stroke-miterlimit="10" stroke-linecap="round" stroke-linejoin="round"/>
</g>
</g>
</g>
</g>
</g>
<defs>
<linearGradient id="paint0_linear_518_5475" x1="22.0497" y1="52.7282" x2="45.5846" y2="42.8306" gradientUnits="userSpaceOnUse">
<stop stop-color="#0DBA48"/>
<stop offset="1" stop-color="#009B51"/>
</linearGradient>
<clipPath id="clip0_518_5475">
<rect width="60" height="60" fill="white"/>
</clipPath>
</defs>
</svg>
