<svg width="11" height="11" viewBox="0 0 11 11" fill="none" xmlns="http://www.w3.org/2000/svg">
<g id="material-symbols:arrow-back-ios-rounded">
<path id="Vector" d="M4.19414 9.88854L8.0556 6.03854C8.10143 5.99271 8.13382 5.94306 8.15277 5.88958C8.17202 5.83611 8.18164 5.77882 8.18164 5.71771C8.18164 5.6566 8.17202 5.59931 8.15277 5.54583C8.13382 5.49236 8.10143 5.44271 8.0556 5.39687L4.19414 1.53542C4.0872 1.42847 3.95352 1.375 3.7931 1.375C3.63268 1.375 3.49518 1.43229 3.3806 1.54688C3.26602 1.66146 3.20872 1.79514 3.20872 1.94792C3.20872 2.10069 3.26602 2.23438 3.3806 2.34896L6.74935 5.71771L3.3806 9.08646C3.27365 9.1934 3.22018 9.3251 3.22018 9.48154C3.22018 9.63829 3.27747 9.77396 3.39206 9.88854C3.50664 10.0031 3.64032 10.0604 3.7931 10.0604C3.94588 10.0604 4.07956 10.0031 4.19414 9.88854Z" fill="#07170D"/>
</g>
</svg>
