<svg width="16" height="16" viewBox="0 0 16 16" fill="none" xmlns="http://www.w3.org/2000/svg">
<g clip-path="url(#clip0_661_16284)">
<path d="M9.98636 8.13478L10.8951 7.22603C10.9612 7.47341 11 7.73203 11 8.00003C11 9.65428 9.65424 11 7.99999 11C7.73199 11 7.47336 10.9613 7.22599 10.8952L8.13474 9.98641C8.61507 9.95378 9.06732 9.74823 9.40775 9.4078C9.74818 9.06736 9.95374 8.61512 9.98636 8.13478ZM15.937 7.75716C15.8755 7.64653 15.0032 6.11816 13.2982 4.82291L12.5706 5.55053C13.8139 6.46466 14.6016 7.53078 14.9117 8.00078C14.3191 8.90316 11.9944 12 7.99999 12C7.40099 12 6.84399 11.9234 6.31986 11.8012L5.49824 12.6228C6.25361 12.8544 7.08386 13 7.99999 13C13.2341 13 15.8291 8.43703 15.937 8.24291C15.9783 8.16863 16 8.08503 16 8.00003C16 7.91503 15.9783 7.83144 15.937 7.75716ZM13.8535 2.85353L2.85349 13.8535C2.75586 13.9512 2.62786 14 2.49999 14C2.37211 14 2.24411 13.9512 2.14649 13.8535C2.10003 13.8071 2.06317 13.752 2.03803 13.6914C2.01288 13.6307 1.99994 13.5657 1.99994 13.5C1.99994 13.4344 2.01288 13.3694 2.03803 13.3087C2.06317 13.248 2.10003 13.1929 2.14649 13.1465L3.54599 11.747C1.28349 10.3812 0.133861 8.37053 0.0629858 8.24291C0.0216782 8.1686 0 8.08499 0 7.99997C0 7.91495 0.0216782 7.83134 0.0629858 7.75703C0.170861 7.56303 2.76586 3.00003 7.99999 3.00003C9.35336 3.00003 10.5256 3.30878 11.5277 3.76528L13.1465 2.14653C13.3419 1.95116 13.6582 1.95116 13.8535 2.14653C14.0487 2.34191 14.0489 2.65828 13.8535 2.85353ZM4.29161 11.0014L5.55749 9.73553C5.20786 9.24503 4.99999 8.64691 4.99999 8.00003C4.99999 6.34578 6.34574 5.00003 7.99999 5.00003C8.64686 5.00003 9.24499 5.20791 9.73549 5.55741L10.7591 4.53378C9.95036 4.20991 9.03136 4.00003 7.99999 4.00003C4.00561 4.00003 1.68086 7.09691 1.08836 7.99928C1.46461 8.56953 2.54611 10.013 4.29161 11.0014ZM6.28336 9.00953L9.00949 6.28341C8.71211 6.10778 8.36974 6.00003 7.99999 6.00003C6.89724 6.00003 5.99999 6.89728 5.99999 8.00003C5.99999 8.36978 6.10774 8.71216 6.28336 9.00953Z" fill="#7B9387"/>
</g>
<defs>
<clipPath id="clip0_661_16284">
<rect width="16" height="16" fill="white"/>
</clipPath>
</defs>
</svg>
