<svg width="60" height="60" viewBox="0 0 60 60" fill="none" xmlns="http://www.w3.org/2000/svg">
<g id="svg-gobbler - 2023-04-04T102202.140" clip-path="url(#clip0_518_5375)">
<g id="Group">
<path id="Vector" d="M48.9573 21.2298V19.158C48.9573 18.9249 48.8647 18.7013 48.6998 18.5365C48.535 18.3717 48.3115 18.2791 48.0784 18.2791C47.8453 18.2791 47.6217 18.3717 47.4569 18.5365C47.2921 18.7013 47.1995 18.9249 47.1995 19.158V21.2298C47.1995 21.715 47.5931 22.1087 48.0784 22.1087C48.5636 22.1087 48.9573 21.715 48.9573 21.2298ZM30.5986 8.34694C29.9614 8.0746 29.2427 8.28331 28.8505 8.85648L17.4947 25.4765C16.6863 26.6598 17.5638 28.3128 18.9921 28.3128H25.8136C25.8136 28.3128 23.8787 38.65 23.8732 38.6803C23.5939 40.1712 25.5962 41.0405 26.4642 39.7738L31.1946 32.8501C31.2597 32.7549 31.3054 32.6477 31.3292 32.5348C31.3529 32.4218 31.3541 32.3053 31.3328 32.1919C31.3114 32.0785 31.268 31.9704 31.2048 31.8738C31.1417 31.7771 31.0602 31.6939 30.9649 31.6288C30.8696 31.5636 30.7624 31.5179 30.6494 31.4941C30.5364 31.4704 30.4198 31.4692 30.3064 31.4905C30.1929 31.5118 30.0847 31.5553 29.9881 31.6185C29.8914 31.6817 29.8082 31.7633 29.7431 31.8586L25.88 37.5129C25.88 37.5129 27.733 27.6139 27.7363 27.5955C27.8364 27.0618 27.4145 26.555 26.8725 26.555H18.9921C18.982 26.555 18.972 26.5522 18.9633 26.547C18.9547 26.5418 18.9476 26.5343 18.9428 26.5254C18.938 26.5164 18.9358 26.5064 18.9363 26.4963C18.9369 26.4862 18.9401 26.4764 18.9458 26.468L29.4345 11.1174C29.4345 11.1174 27.5814 21.017 27.5778 21.0348C27.4781 21.5691 27.9001 22.0753 28.4421 22.0753H36.322C36.3677 22.0753 36.3935 22.1253 36.3683 22.1623L31.7046 28.988C31.5731 29.1805 31.5235 29.4173 31.5666 29.6464C31.6097 29.8755 31.7421 30.0781 31.9346 30.2096C32.1271 30.341 32.3639 30.3907 32.593 30.3475C32.8221 30.3044 33.0247 30.172 33.1562 29.9795C33.1562 29.9795 37.813 23.1634 37.8199 23.1538C38.6273 21.9723 37.7493 20.3175 36.3225 20.3175H29.501L31.4414 9.95054C31.5778 9.27624 31.2327 8.618 30.5986 8.34694Z" fill="url(#paint0_linear_518_5375)"/>
<path id="Vector_2" d="M59.3823 20.4551C58.8608 18.4502 56.6837 17.2618 54.7135 17.9063L53.874 18.1811C52.5432 14.5225 50.1395 11.3269 47.0148 8.82486C47.5916 6.69345 47.636 4.24857 47.5605 2.504C47.5 1.09189 46.2086 -0.0108441 44.8089 0.129195C41.2379 0.489429 38.9165 3.0392 38.0395 4.18998C35.4754 3.43189 32.7409 3.02314 29.921 3.02314C25.9237 3.02314 22.1023 3.80947 18.5634 5.36045C18.4576 5.4067 18.362 5.47335 18.282 5.5566C18.202 5.63984 18.1392 5.73804 18.0972 5.84557C18.0552 5.95311 18.0348 6.06787 18.0372 6.18329C18.0395 6.29872 18.0646 6.41255 18.1111 6.51826C18.3057 6.96263 18.8244 7.16501 19.2689 6.97037C22.5845 5.51748 26.1683 4.78095 29.921 4.78095C35.4485 4.78095 41.052 6.47513 45.4689 9.84146C45.4699 9.84193 45.4713 9.8424 45.4716 9.84334C48.7891 12.366 51.2789 15.7013 52.4824 19.5516C52.6316 20.0286 53.1777 20.2886 53.6418 20.1064C53.6418 20.1064 55.2582 19.5776 55.2601 19.5773C56.2845 19.2417 57.4101 19.8569 57.6807 20.8974C58.1843 22.8333 58.7998 26.3759 57.2701 28.354C56.4521 29.4118 55.0514 29.952 53.1063 29.9588C52.9192 29.9508 52.7345 30.0027 52.579 30.1071C52.4235 30.2114 52.3055 30.3627 52.242 30.5389C50.8106 34.508 47.8677 38.0783 43.9551 40.5923C37.3345 44.8462 28.7345 45.6909 21.3211 43.1915C10.0037 39.3759 2.41754 26.6968 9.16414 15.5681C10.8144 12.8458 13.2223 10.4463 16.1277 8.62845C16.3221 8.50339 16.4594 8.30676 16.5099 8.08116C16.5604 7.85556 16.52 7.61914 16.3974 7.42313C16.2749 7.22711 16.08 7.08727 15.8551 7.03389C15.6301 6.98051 15.3932 7.0179 15.1957 7.13794C12.0582 9.1013 9.45254 11.701 7.66086 14.6567C6.41164 16.7171 5.56016 18.9561 5.13313 21.2604C4.4941 21.0535 3.61332 20.6906 2.88277 20.105C1.73645 19.1872 -0.021366 20.0552 0.000196506 21.5177C0.0222278 22.9669 0.397462 24.2845 1.11664 25.4329C2.00563 26.8533 3.39547 27.9593 5.24938 28.7266C6.06922 32.5012 8.03492 36.0045 10.9998 38.9282C10.9998 41.1965 11.4695 45.9417 15.0657 48.952C15.5683 49.3722 16.2133 49.6042 16.8816 49.6042H21.4002C23.212 49.6042 24.5834 47.8625 24.177 46.1015C24.1509 45.9902 24.1276 45.878 24.1043 45.7663C25.9884 46.15 27.9371 46.3486 29.9205 46.3486C31.1057 46.3486 32.2784 46.2786 33.433 46.1403C34.2725 47.6194 35.6765 49.6043 37.5716 49.6043H42.0907C43.903 49.6043 45.2739 47.8638 44.867 46.1014C44.8071 45.8424 44.1895 43.4944 43.9913 42.6311C44.2997 42.4508 44.6043 42.2641 44.905 42.0713C48.9553 39.4689 52.0521 35.8035 53.6812 31.7011C55.9101 31.5852 57.5835 30.8222 58.6607 29.4292C60.5499 26.9866 60.0958 23.2007 59.3823 20.4551ZM44.985 1.87834C45.4129 1.83533 45.786 2.15853 45.8043 2.57912C45.8552 3.76341 45.8643 5.81795 45.4808 7.68322C43.7476 6.49904 41.8552 5.52533 39.8306 4.77556C40.7388 3.73412 42.5149 2.12736 44.985 1.87834ZM1.75801 21.4917C1.75801 21.4764 1.76856 21.4651 1.78367 21.4774C2.83461 22.3192 4.09074 22.7889 4.88914 23.0242C4.88094 23.1172 4.87449 23.2101 4.86758 23.303C4.78555 24.4058 4.80254 25.5149 4.91434 26.6153C2.38602 25.1895 1.78227 23.1016 1.75801 21.4917ZM22.464 46.4969C22.6205 47.174 22.0978 47.8464 21.4002 47.8464H16.8816C16.6252 47.8464 16.3808 47.7604 16.194 47.6038C13.842 45.635 13.0716 42.7117 12.8442 40.5676C12.8519 40.5739 13.3559 40.9662 13.3582 40.9681C15.9703 42.9511 18.9855 44.4215 22.2365 45.3192C22.2978 45.7128 22.3743 46.1069 22.464 46.4969ZM43.1545 46.4969C43.3111 47.1758 42.79 47.846 42.0907 47.846H37.572C36.6509 47.846 35.7808 46.5432 35.3162 45.8501C37.7977 45.3837 40.1753 44.5935 42.3891 43.4963C42.563 44.2201 43.1005 46.2635 43.1545 46.4969Z" fill="#07170D"/>
</g>
</g>
<defs>
<linearGradient id="paint0_linear_518_5375" x1="24.0609" y1="-14.453" x2="52.4968" y2="-5.58598" gradientUnits="userSpaceOnUse">
<stop stop-color="#0DBA48"/>
<stop offset="1" stop-color="#009B51"/>
</linearGradient>
<clipPath id="clip0_518_5375">
<rect width="60" height="60" fill="white"/>
</clipPath>
</defs>
</svg>
