<svg width="60" height="60" viewBox="0 0 60 60" fill="none" xmlns="http://www.w3.org/2000/svg">
<g id="svg-gobbler - 2023-04-04T102159.692" clip-path="url(#clip0_518_5383)">
<g id="Group">
<path id="Vector" d="M31.7067 12.2933C31.614 12.2003 31.5038 12.1266 31.3825 12.0762C31.2611 12.0259 31.1311 12 30.9997 12C30.8684 12 30.7384 12.0259 30.617 12.0762C30.4957 12.1266 30.3855 12.2003 30.2928 12.2933C30.1998 12.3861 30.1261 12.4963 30.0758 12.6176C30.0255 12.7389 29.9996 12.8689 29.9996 13.0003C29.9996 13.1316 30.0255 13.2616 30.0758 13.383C30.1261 13.5043 30.1998 13.6145 30.2928 13.7073L34.2927 17.7072C34.3855 17.8002 34.4957 17.8739 34.617 17.9242C34.7383 17.9745 34.8684 18.0003 34.9997 18.0002C35.131 18.0003 35.2611 17.9745 35.3824 17.9242C35.5038 17.874 35.614 17.8002 35.7067 17.7072C35.7996 17.6144 35.8734 17.5042 35.9237 17.3829C35.974 17.2616 35.9999 17.1316 35.9999 17.0002C35.9999 16.8689 35.974 16.7389 35.9237 16.6175C35.8734 16.4962 35.7996 16.386 35.7067 16.2932L31.7067 12.2933ZM25.7067 14.2932C25.3158 13.9021 24.6837 13.9021 24.2928 14.2932C23.9018 14.6843 23.9017 15.3162 24.2928 15.7072L32.2928 23.7072C32.3855 23.8002 32.4957 23.8739 32.6171 23.9242C32.7384 23.9745 32.8685 24.0003 32.9998 24.0002C33.1311 24.0003 33.2612 23.9745 33.3825 23.9242C33.5038 23.874 33.614 23.8002 33.7068 23.7072C33.7997 23.6144 33.8735 23.5042 33.9238 23.3829C33.9741 23.2616 34 23.1316 34 23.0002C34 22.8689 33.9741 22.7389 33.9238 22.6175C33.8735 22.4962 33.7997 22.386 33.7068 22.2932L25.7067 14.2932Z" fill="url(#paint0_linear_518_5383)"/>
<path id="Vector_2" d="M42.947 38.705L47.393 43.151C47.4856 43.2442 47.5957 43.3181 47.7171 43.3683C47.8385 43.4186 47.9686 43.4443 48.1 43.444C48.2313 43.4441 48.3614 43.4183 48.4827 43.3681C48.604 43.3178 48.7142 43.244 48.8069 43.151C49.1969 42.761 49.1969 42.128 48.8069 41.737L44.1239 37.054C46.5709 33.293 47.9999 28.812 47.9999 24C47.9999 10.767 37.2329 0 23.9999 0C10.7668 0 0 10.7671 0 24.0001C0 37.2332 10.767 48.0001 24 48.0001C31.695 48.0001 38.552 44.3551 42.947 38.705ZM24 46.0001C11.869 46.0001 2.00004 36.1311 2.00004 24.0001C2.00004 11.8691 11.869 2.00004 24 2.00004C36.131 2.00004 46 11.869 46 24C46 36.131 36.131 46.0001 24 46.0001Z" fill="#07170D"/>
<path id="Vector_3" d="M24 4C12.972 4 4 12.972 4 24C4 35.0281 12.972 44 24 44C35.0281 44 44.0001 35.028 44.0001 23.9999C44.0001 12.9719 35.0281 4 24 4ZM24 42C14.0751 42 6.00004 33.925 6.00004 24C6.00004 14.0751 14.0751 6.00004 24 6.00004C33.925 6.00004 42 14.0751 42 24C42 33.925 33.925 42 24 42ZM58.5351 51.465L51.527 44.458C51.4343 44.365 51.3241 44.2912 51.2028 44.2409C51.0815 44.1906 50.9514 44.1649 50.82 44.1651H50.8191C50.6875 44.1652 50.5572 44.1913 50.4357 44.242C50.3142 44.2926 50.2038 44.3667 50.1111 44.46L47.291 47.295C47.1984 47.3881 47.1249 47.4985 47.0749 47.6199C47.025 47.7414 46.9994 47.8715 46.9998 48.0029C47.0002 48.1342 47.0264 48.2642 47.0771 48.3853C47.1278 48.5065 47.2018 48.6165 47.295 48.709C47.687 49.099 48.3201 49.098 48.709 48.705L50.822 46.581L57.121 52.879C57.687 53.446 58 54.199 58 55.0011C58 55.8011 57.687 56.5551 57.121 57.1211C55.952 58.29 54.05 58.292 52.879 57.1221L41.029 45.2721C40.639 44.8821 40.006 44.8821 39.615 45.2721C39.4277 45.46 39.3225 45.7144 39.3225 45.9797C39.3225 46.2449 39.4277 46.4994 39.615 46.6872L51.465 58.5361C52.439 59.5111 53.719 59.9982 54.9991 59.9982C56.2791 59.9982 57.561 59.5102 58.5351 58.5361C59.479 57.591 60 56.3359 60 55.0009C60 53.665 59.479 52.409 58.5351 51.465Z" fill="#07170D"/>
</g>
</g>
<defs>
<linearGradient id="paint0_linear_518_5383" x1="26.5962" y1="3.53558" x2="37.3136" y2="6.91809" gradientUnits="userSpaceOnUse">
<stop stop-color="#0DBA48"/>
<stop offset="1" stop-color="#009B51"/>
</linearGradient>
<clipPath id="clip0_518_5383">
<rect width="60" height="60" fill="white"/>
</clipPath>
</defs>
</svg>
