<svg width="60" height="60" viewBox="0 0 60 60" fill="none" xmlns="http://www.w3.org/2000/svg">
<path d="M26.7479 40.6243C25.9559 40.6301 24.9882 40.3198 24.3818 39.7573L15.654 31.6604C13.9113 29.9177 14.8973 27.7351 15.4832 27.1033C16.6921 25.8001 18.7366 25.7232 20.0398 26.9326L26.0407 32.4994L36.7926 16.9697C37.8051 15.5082 39.8179 15.1424 41.2791 16.1541C42.7413 17.1661 43.107 19.1785 42.0954 20.6406L29.2258 39.2289C28.6152 40.1106 27.7696 40.6164 26.7479 40.6243ZM16.7718 28.299C16.207 28.8635 16.2651 29.8298 16.8492 30.3718L25.577 38.4686C25.7312 38.6114 25.9142 38.7195 26.1137 38.7855C26.3133 38.8515 26.5246 38.874 26.7336 38.8513C26.9426 38.8286 27.1442 38.7612 27.3249 38.6537C27.5055 38.5463 27.661 38.4012 27.7807 38.2284L40.6497 19.64C41.1103 18.9753 40.9436 18.0597 40.2789 17.5997C39.6138 17.1392 38.6983 17.3054 38.2378 17.9704L26.909 34.3341C26.8372 34.4376 26.744 34.5245 26.6358 34.589C26.5275 34.6534 26.4067 34.6939 26.2815 34.7077C26.1562 34.7212 26.0296 34.7076 25.91 34.668C25.7904 34.6283 25.6807 34.5635 25.5883 34.4779C25.5883 34.4779 18.8528 28.2295 18.8446 28.2213C18.5755 27.9717 17.5551 27.5153 16.7718 28.299Z" fill="url(#paint0_linear_518_5366)"/>
<path d="M29.2677 60C29.0333 60 28.798 59.9479 28.5861 59.8485C18.5075 55.1276 10.8322 47.4962 5.77344 37.1663C1.59312 28.6301 0.435898 20.5541 0.132382 17.4779C-0.000391006 16.1289 0.746679 14.87 1.99273 14.3459C6.97273 12.2507 10.3438 7.60207 10.7905 2.21461C10.8948 0.952149 11.9234 0 13.1823 0H45.3531C46.5931 0 47.6432 0.963164 47.743 2.19316C48.182 7.58426 51.5484 12.2384 56.5284 14.3399C57.7827 14.8696 58.5357 16.1306 58.4029 17.4787C58.099 20.5549 56.9417 28.6313 52.7615 37.1672C47.7027 47.4967 40.0273 55.1276 29.9488 59.8485C29.7355 59.948 29.503 59.9997 29.2677 60ZM13.1823 1.75781C12.8459 1.75781 12.5708 2.0168 12.5424 2.36016C12.0411 8.4027 8.25992 13.6161 2.6743 15.9663C2.14344 16.1897 1.82469 16.7276 1.88199 17.3058C2.17578 20.2867 3.29785 28.114 7.3523 36.3932C12.2191 46.3321 19.5923 53.6779 29.2677 58.2266C38.9421 53.6783 46.3158 46.3325 51.1827 36.3946C55.2375 28.1154 56.3595 20.2876 56.6533 17.3067C56.7106 16.729 56.3856 16.1879 55.8454 15.9595C50.2593 13.6024 46.4833 8.38219 45.9911 2.33555C45.9645 2.01141 45.6845 1.75781 45.3531 1.75781H13.1823Z" fill="#07170D"/>
<path d="M47.5682 36.4029C47.1407 36.1732 46.9626 35.6545 47.1818 35.2219C48.2236 33.1684 49.1173 31.0416 49.8716 28.8668C50.5206 26.9925 51.0693 25.085 51.5155 23.1525C51.8424 21.7399 52.1161 20.3144 52.3258 18.8792L52.3354 18.8129C47.3645 16.0777 43.7586 11.3701 42.416 5.86133H16.1194C15.6029 7.98509 14.7456 10.0111 13.5806 11.8604C13.4564 12.0576 13.2589 12.1974 13.0316 12.2491C12.8043 12.3007 12.5658 12.2601 12.3685 12.136C12.1712 12.0118 12.0314 11.8143 11.9797 11.587C11.928 11.3597 11.9687 11.1211 12.0928 10.9238C13.1815 9.19578 13.9716 7.30836 14.4426 5.31523C14.6111 4.60156 15.2418 4.10352 15.9765 4.10352H42.5584C43.2932 4.10352 43.9239 4.60203 44.0929 5.31523C45.3027 10.4409 48.6545 14.8203 53.288 17.3307C53.862 17.641 54.1856 18.287 54.0931 18.9365C53.8661 20.5405 53.5649 22.1345 53.1978 23.7119C52.7361 25.6963 52.167 27.6541 51.493 29.5768C50.7286 31.7553 49.7915 33.9561 48.7497 36.0171C48.5945 36.3223 48.0689 36.672 47.5682 36.4029ZM29.2677 55.4247C29.0163 55.4247 28.7656 55.365 28.5367 55.2454C20.2049 50.8879 13.7867 44.1977 9.45892 35.3611C6.33189 28.9753 5.00486 22.9048 4.44177 18.9365C4.34978 18.287 4.67345 17.641 5.24697 17.3307C6.86539 16.4548 8.34421 15.3426 9.6347 14.0307C9.71557 13.9483 9.81188 13.8827 9.91813 13.8376C10.0244 13.7925 10.1385 13.7688 10.2539 13.7678C10.3693 13.7668 10.4838 13.7886 10.5908 13.8319C10.6978 13.8752 10.7952 13.9392 10.8775 14.0202C11.0436 14.1836 11.1381 14.4063 11.14 14.6394C11.142 14.8724 11.0514 15.0967 10.888 15.2629C9.50602 16.6676 7.92679 17.8635 6.20005 18.8129C6.66013 21.9962 7.89341 28.1668 11.0378 34.5878C15.1824 43.0519 21.3155 49.4625 29.2677 53.6437C35.8431 50.1862 41.1985 45.1824 45.1855 38.77C45.2456 38.6703 45.325 38.5834 45.4189 38.5146C45.5129 38.4457 45.6196 38.3962 45.7328 38.369C45.8461 38.3417 45.9636 38.3373 46.0786 38.3559C46.1936 38.3744 46.3038 38.4157 46.4027 38.4772C46.5016 38.5387 46.5873 38.6193 46.6548 38.7142C46.7223 38.8091 46.7703 38.9165 46.7959 39.0301C46.8216 39.1438 46.8244 39.2614 46.8042 39.3761C46.784 39.4908 46.7412 39.6004 46.6783 39.6984C42.5063 46.4078 36.8945 51.6386 29.9987 55.2454C29.7731 55.3632 29.5223 55.4247 29.2677 55.4247Z" fill="#07170D"/>
<defs>
<linearGradient id="paint0_linear_518_5366" x1="20.7286" y1="-2.08175" x2="45.179" y2="6.54536" gradientUnits="userSpaceOnUse">
<stop stop-color="#0DBA48"/>
<stop offset="1" stop-color="#009B51"/>
</linearGradient>
</defs>
</svg>
