<svg width="192" height="409" viewBox="0 0 192 409" fill="none" xmlns="http://www.w3.org/2000/svg">
<path d="M65.5806 58.38C67.1421 59.2505 68.6063 59.8292 69.3221 61.0165C70.8038 63.461 72.3802 70.9491 72.3802 70.9491L80.6341 69.2828C80.6341 69.2828 79.1624 61.7748 79.5715 58.9462C79.7685 57.5718 80.891 56.4668 81.9885 55.055C84.5403 52.3661 87.526 48.4748 85.5854 42.6455C83.6448 36.8162 78.5239 26.3922 78.4041 22.1394C78.3093 18.8069 78.464 11.0295 78.464 11.0295L77.0422 4.04526C77.0422 4.04526 76.0619 -0.778848 72.3503 0.111639C69.0927 0.892375 70.4671 4.22984 68.6986 4.49424C66.9301 4.75864 67.2269 3.33435 65.85 2.43139C64.2411 1.37378 60.8613 2.05973 59.7912 3.66361C58.8783 5.03302 59.7064 6.23031 57.9753 6.67681C56.2442 7.1233 56.2043 3.51395 52.9018 4.0677C49.1378 4.69628 50.1205 9.52287 50.1205 9.52287L51.6596 16.4772C52.575 18.525 54.8099 23.5811 56.0247 26.6866C57.5762 30.6501 56.9327 42.2339 57.4216 48.3601C57.9104 54.4863 62.1808 56.9033 65.5806 58.38Z" fill="#AADBFB"/>
<path d="M65.5682 58.363C67.1271 59.2336 68.5938 59.8123 69.3097 60.9996C70.7913 63.4416 72.3703 70.9321 72.3703 70.9321L75.149 70.3659C75.149 70.3659 73.5726 62.8828 72.0909 60.4334C71.37 59.2461 69.9059 58.6674 68.3494 57.7968C64.9496 56.3202 60.6817 53.9031 60.1903 47.7795C59.6989 41.6558 60.345 30.0695 58.7935 26.1035C57.5862 23.0005 55.3413 17.9444 54.4358 15.904L52.8968 8.94721C52.8968 8.94721 52.2009 5.53244 54.2238 4.07323C53.7858 3.98601 53.3348 3.98601 52.8968 4.07323C49.1353 4.70181 50.1156 9.52591 50.1156 9.52591L51.6571 16.4827C52.57 18.5306 54.805 23.5866 56.0197 26.6896C57.5737 30.6532 56.9277 42.2395 57.4191 48.3631C57.9105 54.4868 62.1758 56.8864 65.5682 58.363Z" fill="#85C2F9"/>
<path d="M53.3583 6.31067C56.6609 5.75942 56.7008 9.36627 58.4319 8.91978C60.163 8.47329 59.3348 7.27599 60.2478 5.90658C61.3278 4.3052 64.6977 3.61676 66.3166 4.67936C67.6934 5.58232 67.3966 7.0091 69.1651 6.7422C70.9336 6.47531 69.5592 3.13784 72.8019 2.35461C76.5135 1.46413 77.4938 6.28823 77.4938 6.28823L77.0373 4.0433C77.0373 4.0433 76.057 -0.780801 72.3454 0.109686C69.0878 0.890422 70.4622 4.22788 68.6937 4.49228C66.9252 4.75669 67.222 3.3324 65.8451 2.42944C64.2362 1.37183 60.8564 2.05778 59.7863 3.66166C58.8734 5.03106 59.7015 6.22836 57.9704 6.67485C56.2393 7.12134 56.1994 3.51199 52.8969 4.06574C49.1329 4.69432 50.1157 9.52091 50.1157 9.52091L50.5696 11.7658C50.5696 11.7658 49.6043 6.94174 53.3583 6.31067Z" fill="#85C2F9"/>
<path d="M72.4821 72.0287L80.9614 70.3036C81.6741 70.1586 82.1344 69.4632 81.9894 68.7504L81.1251 64.5023C80.9801 63.7895 80.2847 63.3292 79.5719 63.4742L71.0927 65.1994C70.3799 65.3444 69.9197 66.0397 70.0647 66.7525L70.929 71.0007C71.074 71.7135 71.7694 72.1737 72.4821 72.0287Z" fill="#304298"/>
<path d="M70.2898 64.8814L79.7621 62.9483C80.0132 62.897 80.1753 62.6519 80.124 62.4008L80.1031 62.2981C80.0518 62.047 79.8067 61.885 79.5556 61.9362L70.0832 63.8694C69.8321 63.9206 69.6701 64.1657 69.7214 64.4168L69.7423 64.5195C69.7936 64.7706 70.0387 64.9326 70.2898 64.8814Z" fill="#304298"/>
<path d="M80.3277 69.4056L81.083 69.252L79.894 63.4077L79.1387 63.5613L80.3277 69.4056Z" fill="#223466"/>
<path d="M78.6944 69.7377L79.4497 69.584L78.2607 63.7397L77.5054 63.8934L78.6944 69.7377Z" fill="#223466"/>
<path d="M76.8219 70.1205L77.5771 69.9668L76.3881 64.1225L75.6328 64.2762L76.8219 70.1205Z" fill="#223466"/>
<path d="M75.0084 70.4857L75.7637 70.332L74.5746 64.4877L73.8194 64.6414L75.0084 70.4857Z" fill="#223466"/>
<path d="M73.3468 70.8255L74.1021 70.6719L72.913 64.8276L72.1577 64.9812L73.3468 70.8255Z" fill="#223466"/>
<path d="M72.0162 71.0951L72.7715 70.9414L71.5825 65.0971L70.8272 65.2508L72.0162 71.0951Z" fill="#223466"/>
<path d="M72.0834 71.4265L81.1629 69.5806C81.2211 69.5689 81.2816 69.5806 81.3312 69.6133C81.3807 69.6461 81.4153 69.6971 81.4273 69.7552C81.4391 69.8138 81.4274 69.8746 81.3948 69.9245C81.3621 69.9745 81.311 70.0096 81.2527 70.0221L72.1732 71.868C72.1151 71.8791 72.0549 71.867 72.0055 71.8344C71.9561 71.8018 71.9214 71.7512 71.9088 71.6934C71.897 71.6348 71.9087 71.574 71.9413 71.5241C71.974 71.4741 72.0251 71.4391 72.0834 71.4265Z" fill="#405CC6"/>
<path opacity="0.58" d="M83.1738 49.1455C83.3584 48.3972 83.3983 47.4767 82.7772 47.0352C82.2784 46.6885 81.6223 46.8157 81.0312 46.9554L76.0449 48.1702C75.5461 48.2899 75.0098 48.4421 74.7379 48.8711C74.5899 49.1452 74.5143 49.4526 74.5184 49.7641C74.4532 50.9989 74.6086 52.2355 74.9774 53.4158C75.122 53.8798 75.3316 54.3712 75.7581 54.6031C76.0252 54.7288 76.3186 54.7887 76.6137 54.7777C78.0255 54.8226 80.1781 54.7503 81.0536 53.4981C81.9865 52.1537 82.7797 50.7493 83.1738 49.1455Z" fill="white"/>
<path opacity="0.58" d="M78.1994 59.4084C78.1701 59.0765 78.1701 58.7426 78.1994 58.4107C78.2244 58.0041 78.2593 57.5601 78.0223 57.2283C77.9012 57.0725 77.7344 56.9582 77.5454 56.9015C77.3563 56.8447 77.1542 56.8482 76.9672 56.9116C76.7816 56.9794 76.6151 57.0911 76.4818 57.2369C76.3485 57.3828 76.2524 57.5587 76.2015 57.7497C76.1473 57.98 76.1255 58.2167 76.1366 58.4531C76.1415 58.9439 76.179 59.4339 76.2488 59.9198C76.3461 60.5982 76.7652 61.9402 77.7255 61.6982C78.6858 61.4563 78.2892 60.0719 78.1994 59.4084Z" fill="white"/>
<path opacity="0.58" d="M76.7152 10.2801C76.4429 8.7195 76.089 7.17421 75.655 5.6506C75.5721 5.28756 75.4305 4.94046 75.236 4.62292C75.1383 4.46414 75.0062 4.32928 74.8495 4.22827C74.6928 4.12726 74.5155 4.06266 74.3305 4.03923C74.1339 4.03589 73.9396 4.08185 73.7653 4.17292C73.591 4.26398 73.4423 4.39726 73.3328 4.56056C73.1157 4.88958 72.9884 5.26966 72.9636 5.66307C72.8464 6.76308 73.1557 7.86559 73.5423 8.90574C73.889 9.83364 74.3979 11.7343 75.2884 12.2856C76.5854 13.0788 76.8573 11.0983 76.7152 10.2801Z" fill="white"/>
<path d="M65.9428 25.0488L57.9209 26.6802L58.4123 29.0997L65.9428 25.0488Z" fill="#85C2F9"/>
<path d="M98.6835 132.123L104.009 124.697C104.543 123.968 104.807 123.076 104.757 122.173L104.585 119.584C104.554 119.049 104.39 118.531 104.108 118.075C103.826 117.62 103.436 117.242 102.971 116.975L88.9555 108.801C88.4553 108.526 87.9018 108.361 87.3325 108.318C86.7632 108.275 86.1914 108.355 85.6555 108.551L82.969 109.464C82.0671 109.773 81.2829 110.353 80.7241 111.126L75.3986 118.549C74.8237 119.321 74.557 120.28 74.6503 121.238L74.7127 121.799C74.8063 122.739 74.5525 123.68 73.9993 124.446L60.3925 143.917C60.1005 144.332 59.7414 144.696 59.3299 144.994L54.9773 148.139C54.5946 148.418 54.2579 148.755 53.9795 149.137L45.803 160.237C45.452 160.691 45.2083 161.219 45.0904 161.78C44.9724 162.342 44.9833 162.923 45.1221 163.48L45.3989 164.478C45.6219 165.297 46.1599 165.996 46.8955 166.421L62.0164 175.238C62.8011 175.679 63.7146 175.833 64.6005 175.675L65.7205 175.49C66.3205 175.388 66.8942 175.167 67.4081 174.841C67.9219 174.514 68.3658 174.089 68.7137 173.589L76.5485 162.278C76.8062 161.908 77.0017 161.498 77.1272 161.065L78.5266 156.186C78.6639 155.713 78.8843 155.268 79.1776 154.872L93.2807 135.69C93.8745 134.89 94.7109 134.303 95.6653 134.016L96.259 133.839C97.2346 133.551 98.0872 132.947 98.6835 132.123Z" fill="#29AAE3"/>
<path d="M95.6655 134.013L96.2592 133.836C97.2311 133.546 98.08 132.943 98.6737 132.12L103.999 124.694C104.533 123.965 104.798 123.073 104.747 122.17L104.575 119.581C104.549 119.145 104.435 118.719 104.24 118.329C104.045 117.939 103.773 117.591 103.44 117.309L103.558 119.077C103.607 119.98 103.343 120.873 102.809 121.604L97.4839 129.025C96.889 129.845 96.0405 130.448 95.0693 130.738L94.4757 130.915C93.5211 131.201 92.6846 131.789 92.0911 132.589L77.9805 151.778C77.6859 152.175 77.4646 152.621 77.3269 153.095L75.9301 157.972C75.8037 158.406 75.6074 158.816 75.3489 159.186L67.5141 170.498C67.1657 170.997 66.7217 171.422 66.2079 171.749C65.6941 172.075 65.1207 172.296 64.5209 172.399L63.4009 172.584C62.5155 172.743 61.6023 172.587 60.8192 172.145L45.6959 163.33C45.4407 163.18 45.2066 162.997 45 162.786C45.0128 163.018 45.0496 163.248 45.1097 163.472L45.3866 164.47C45.6096 165.289 46.1476 165.988 46.8832 166.413L62.0165 175.238C62.8013 175.678 63.7148 175.833 64.6007 175.674L65.7207 175.49C66.3207 175.387 66.8944 175.166 67.4082 174.84C67.9221 174.514 68.3659 174.088 68.7139 173.589L76.5487 162.277C76.8064 161.907 77.0019 161.498 77.1274 161.065L78.5267 156.186C78.664 155.712 78.8845 155.267 79.1778 154.871L93.2809 135.69C93.8743 134.888 94.7107 134.3 95.6655 134.013Z" fill="#2495BC"/>
<path opacity="0.53" d="M83.9123 110.73C83.4135 110.873 82.8323 111.09 82.6003 111.551C82.5096 111.759 82.4895 111.991 82.5431 112.212C82.5966 112.433 82.721 112.63 82.8971 112.773C83.2608 113.05 83.6739 113.255 84.1144 113.377C86.9455 114.405 89.3525 116.121 91.8868 117.652C92.0954 117.799 92.3354 117.896 92.5877 117.934C93.1639 117.979 93.6853 117.495 94.0844 117.044C94.3087 116.825 94.4706 116.55 94.5533 116.248C94.6556 115.674 94.1392 115.25 93.6728 114.946C91.8303 113.719 89.9878 112.491 88.1453 111.264C86.6337 110.259 85.8854 110.229 83.9123 110.73Z" fill="white"/>
<path opacity="0.53" d="M57.6515 147.795C57.5914 147.841 57.5448 147.902 57.5168 147.972C57.4769 148.095 57.5642 148.204 57.649 148.292C58.3699 149.012 59.3003 149.514 60.2207 150.008L64.6881 152.402C65.0463 152.64 65.4681 152.763 65.8979 152.757C66.214 152.704 66.5066 152.557 66.737 152.334C66.9673 152.111 67.1244 151.824 67.1874 151.509C67.2289 151.217 67.2015 150.919 67.1075 150.64C67.0136 150.36 66.8556 150.106 66.6462 149.898C66.2223 149.488 65.7377 149.145 65.2094 148.883C63.1341 147.703 60.2506 145.466 57.6515 147.795Z" fill="white"/>
<path d="M104.593 119.305L85.8877 108.442L87.9805 107L104.945 116.853L104.593 119.305Z" fill="#EF4538"/>
<path d="M101.777 115.057L101.432 117.469L104.655 119.342L105.007 116.888L88.0427 107.035L88.0078 107.06L101.777 115.057Z" fill="#CE3932"/>
<path d="M85.8874 108.441L104.655 119.342L104.61 119.93L85.396 108.633L85.8874 108.441Z" fill="#1B7289"/>
<path d="M97.9031 129.566C96.6168 130.048 95.2157 130.135 93.8797 129.815C92.5876 129.536 91.4053 128.992 90.2354 128.451L83.6728 125.423C83.0195 125.071 82.3063 124.846 81.57 124.757C81.2962 124.719 81.018 124.784 80.7893 124.939C80.6608 125.05 80.5726 125.201 80.5383 125.368C80.5041 125.535 80.5256 125.708 80.5997 125.862C80.7643 126.141 80.9979 126.374 81.2782 126.538C83.8099 128.299 86.5637 129.78 89.1878 131.414C89.8192 131.766 90.3867 132.223 90.8665 132.764C91.1034 133.041 91.272 133.37 91.3586 133.724C91.4453 134.079 91.4476 134.449 91.3654 134.804C91.2753 135.113 91.1262 135.402 90.9264 135.655C90.874 135.722 90.8141 135.812 90.8565 135.877C90.8989 135.941 91.0436 135.822 90.9638 135.802L97.9031 129.566Z" fill="#2495BC"/>
<path d="M95.3331 210.296C93.8814 209.977 92.3772 209.613 90.9305 209.942C89.4838 210.271 88.1243 211.543 88.2566 213.022C88.3713 214.307 89.4888 215.225 90.252 216.265C91.0153 217.305 91.2947 219.066 90.1473 219.657C88.5409 219.131 86.5978 220.156 86.1164 221.765C85.635 223.374 86.7001 225.3 88.3339 225.739C89.1869 225.968 90.4765 226.31 90.1897 227.148C90.0874 227.445 89.7956 227.622 89.5461 227.814C87.8001 229.156 88.0844 232.331 90.045 233.342C90.9031 233.788 91.9058 233.84 92.8736 233.865L97.3635 234.03C100.05 234.127 103.013 234.132 105.054 232.386C107.503 230.291 107.598 226.619 108.703 223.594C109.309 221.937 110.416 220.286 112.115 219.815C112.933 219.588 113.804 219.657 114.634 219.483C115.954 219.206 117.061 218.338 118.094 217.467C121.185 214.857 124.05 211.989 126.657 208.894C129.022 206.091 131.274 202.788 131.13 199.124C130.94 194.342 126.732 190.446 126.488 185.667C126.221 180.429 130.646 176.303 132.724 171.494C133.377 169.967 133.749 168.064 132.724 166.754C132.115 165.974 131.142 165.59 130.229 165.238L125.378 163.397C123.791 162.796 122.15 162.185 120.456 162.27C117.463 162.419 115.039 164.667 113.018 166.879C111.699 168.326 110.428 169.815 109.204 171.347C108.631 172.067 108.052 172.826 107.825 173.719C107.641 174.612 107.698 175.538 107.989 176.403C109.287 180.873 113.332 183.886 116.006 187.707C116.407 188.237 116.724 188.826 116.944 189.453C117.194 190.286 117.176 191.174 117.144 192.045C117.071 194.013 116.989 196.036 116.238 197.852C115.488 199.668 113.916 201.286 111.96 201.516C111.527 201.532 111.094 201.582 110.668 201.666C109.441 202.012 108.81 203.367 108.551 204.614C108.291 205.861 108.219 207.211 107.476 208.246C105.325 211.227 98.5134 211.002 95.3331 210.296Z" fill="#AADBFB"/>
<path d="M112.484 161.592C115.228 159.724 118.91 159.684 121.574 157.721C123.121 160.314 124.47 163.021 125.61 165.817C125.68 165.951 125.705 166.103 125.682 166.251C125.648 166.334 125.598 166.408 125.535 166.471C125.472 166.534 125.398 166.584 125.315 166.618C123.328 167.719 121.051 168.185 118.79 167.955C117.141 167.79 115.869 167.174 114.939 165.847C114.632 165.411 112.689 161.445 112.484 161.592Z" fill="#AADBFB"/>
<path d="M120.77 153.402L111.699 156.046C110.936 156.269 110.498 157.068 110.72 157.831L112.045 162.376C112.267 163.139 113.066 163.578 113.829 163.355L122.901 160.711C123.664 160.489 124.102 159.69 123.88 158.927L122.555 154.381C122.332 153.618 121.533 153.18 120.77 153.402Z" fill="#304298"/>
<path d="M123.662 161.132L113.525 164.087C113.256 164.165 113.102 164.446 113.18 164.715L113.212 164.825C113.291 165.093 113.572 165.247 113.84 165.169L123.977 162.215C124.245 162.136 124.4 161.855 124.321 161.587L124.289 161.477C124.211 161.208 123.93 161.054 123.662 161.132Z" fill="#304298"/>
<path d="M112.468 156.973L111.658 157.209L113.481 163.464L114.291 163.228L112.468 156.973Z" fill="#223466"/>
<path d="M114.216 156.455L113.406 156.691L115.229 162.946L116.039 162.71L114.216 156.455Z" fill="#223466"/>
<path d="M116.218 155.883L115.408 156.119L117.231 162.374L118.041 162.138L116.218 155.883Z" fill="#223466"/>
<path d="M118.161 155.307L117.352 155.543L119.175 161.798L119.985 161.562L118.161 155.307Z" fill="#223466"/>
<path d="M119.938 154.789L119.129 155.025L120.952 161.28L121.761 161.044L119.938 154.789Z" fill="#223466"/>
<path d="M121.359 154.385L120.55 154.621L122.373 160.876L123.182 160.64L121.359 154.385Z" fill="#223466"/>
<path d="M121.267 153.998L111.539 156.831C111.476 156.849 111.41 156.841 111.353 156.81C111.296 156.778 111.254 156.726 111.234 156.664C111.217 156.602 111.225 156.535 111.256 156.478C111.288 156.422 111.34 156.379 111.402 156.36L121.117 153.526C121.18 153.509 121.246 153.517 121.303 153.548C121.36 153.58 121.402 153.632 121.421 153.694C121.439 153.754 121.433 153.82 121.404 153.876C121.376 153.933 121.326 153.976 121.267 153.998Z" fill="#405CC6"/>
<path d="M125.969 163.635C125.852 164.134 125.737 164.633 125.62 165.131C125.49 165.69 125.388 166.356 125.784 166.768C126.236 167.239 127.009 167.062 127.652 167.179C128.974 167.429 129.673 169.048 129.344 170.352C129.014 171.657 127.957 172.642 126.849 173.41C124.62 174.926 122.048 175.862 119.365 176.132C116.683 176.402 113.976 175.998 111.489 174.957C111.01 175.782 111.988 176.69 112.848 177.089C116.614 178.803 120.884 179.047 124.821 177.775C124.751 178.84 124.468 179.88 123.99 180.834C123.512 181.788 122.848 182.636 122.038 183.33C121.274 183.974 120.292 184.642 120.309 185.64C120.309 186.186 120.628 186.673 120.918 187.137C122.791 190.13 124.043 193.941 122.596 197.166C121.474 199.661 118.965 201.277 117.59 203.652C117.109 204.482 116.842 205.69 117.59 206.291C118.468 206.994 119.715 206.161 120.514 205.37L124.602 201.317C125.071 200.851 125.754 200.349 126.33 200.676C127.006 201.065 126.73 202.093 126.35 202.774C124.439 206.204 122.019 209.326 119.174 212.033C117.677 213.44 115.61 214.812 113.746 213.971C111.407 212.916 111.574 209.456 109.913 207.501L105.009 220.252C104.687 221.087 103.741 222.083 103.115 221.444C102.923 221.191 102.827 220.876 102.846 220.559C102.809 219.863 102.786 219.132 102.434 218.531C102.083 217.93 101.277 217.533 100.671 217.872C101.236 220.418 101.804 222.963 102.375 225.507C102.547 226.281 102.714 227.101 102.444 227.845C102.195 228.501 101.656 228.995 101.068 229.369C98.4684 231.022 94.7393 230.598 92.5867 228.403C94.006 227.226 93.774 224.622 92.1726 223.711C90.7808 222.921 89.0447 223.407 87.4508 223.265C86.9415 223.211 86.4516 223.04 86.019 222.766C86.0964 224.101 87.0392 225.398 88.3463 225.759C89.1993 225.989 90.4889 226.331 90.2021 227.166C90.1023 227.463 89.808 227.64 89.5585 227.832C87.8125 229.177 88.0968 232.349 90.0574 233.362C90.918 233.806 91.9207 233.861 92.886 233.886L97.3759 234.051C100.06 234.148 103.023 234.153 105.066 232.407C107.513 230.312 107.608 226.64 108.713 223.612C109.319 221.955 110.426 220.307 112.128 219.835C112.943 219.608 113.816 219.678 114.644 219.504C115.964 219.227 117.074 218.359 118.104 217.488C121.196 214.877 124.063 212.009 126.672 208.915C129.037 206.111 134.904 200.332 134.759 196.668C134.569 191.886 126.745 190.464 126.5 185.692C126.236 180.467 130.661 176.329 132.736 171.519C133.389 169.993 133.764 168.087 132.736 166.78C132.127 166.002 131.157 165.618 130.242 165.266L125.969 163.635Z" fill="#85C2F9"/>
<path opacity="0.58" d="M121.551 173.402C122.165 173.17 122.836 172.689 122.756 172.038C122.676 171.387 121.916 171.092 121.282 171.142C120.648 171.192 120.035 171.474 119.411 171.491C117.269 171.546 116.495 168.748 114.607 168.865C113.707 168.917 111.028 170.406 111.033 171.477C111.045 174.415 119.808 174.063 121.551 173.402Z" fill="white"/>
<path opacity="0.58" d="M90.599 213.187C91.265 214.474 93.1133 214.337 94.4503 214.893C96.2387 215.642 97.0818 217.695 97.4136 219.603C97.7453 221.511 97.7703 223.534 98.6907 225.24C99.212 224.584 99.2819 223.669 99.1546 222.84C99.0274 222.012 98.7306 221.214 98.6009 220.386C98.4937 219.481 98.4861 218.567 98.5785 217.66C98.6408 216.709 98.8778 215.532 99.8007 215.295C100.609 215.085 101.347 215.774 101.898 216.4C102.472 215.901 103.106 215.273 102.959 214.534C102.826 213.886 102.113 213.507 101.462 213.474C100.811 213.442 100.157 213.661 99.5039 213.763C98.2814 213.954 97.0303 213.738 95.9419 213.15C95.1936 212.746 94.555 212.18 93.7993 211.808C92.8689 211.354 89.6162 211.287 90.599 213.187Z" fill="white"/>
<g clip-path="url(#clip0_518_5529)">
<path d="M157.659 258.056C156.458 253.14 153.649 248.769 149.68 245.644C145.711 242.519 140.812 240.82 135.766 240.818H58.2116C53.1663 240.82 48.2672 242.519 44.2982 245.644C40.3292 248.769 37.5197 253.14 36.3192 258.056L24.8882 304.726H169.075L157.659 258.056Z" fill="#F98715"/>
<path d="M21.2076 304.727H170.258C172.688 304.727 175.019 305.695 176.737 307.419C178.456 309.143 179.421 311.482 179.421 313.92V332.376H12.0444V313.92C12.0444 311.482 13.0099 309.143 14.7283 307.419C16.4467 305.695 18.7774 304.727 21.2076 304.727Z" fill="#F98715"/>
<path d="M97.449 332.361H24.9072L46.9332 500.973C47.1557 502.682 47.9906 504.252 49.2818 505.389C50.5731 506.526 52.2327 507.152 53.9507 507.152H140.05C141.768 507.152 143.428 506.526 144.719 505.389C146.01 504.252 146.845 502.682 147.068 500.973L169.094 332.361H97.449Z" fill="#F98715"/>
<path d="M139.065 284.768L133.166 256.302C132.653 253.829 131.306 251.609 129.353 250.016C127.4 248.422 124.959 247.552 122.441 247.553H69.0125C66.4955 247.553 64.0553 248.423 62.1027 250.016C60.15 251.61 58.8041 253.83 58.2916 256.302L52.389 284.768C52.0577 286.367 52.0857 288.02 52.4709 289.606C52.8562 291.193 53.5891 292.674 54.6162 293.94C55.6434 295.207 56.939 296.229 58.4089 296.93C59.8788 297.631 61.4861 297.995 63.1137 297.995H128.344C129.972 297.995 131.579 297.632 133.049 296.93C134.518 296.229 135.814 295.207 136.841 293.94C137.868 292.673 138.6 291.193 138.985 289.606C139.37 288.019 139.397 286.367 139.065 284.768Z" fill="#B25400"/>
<path d="M97.449 332.361H24.9072L25.5296 337.115C58.7461 342.861 93.7341 338.307 125.603 349.293C133.819 352.124 142.287 356.544 145.957 364.443C147.839 368.496 148.247 373.055 148.56 377.514C150.552 406.212 149.49 435.041 145.392 463.513C144.284 471.205 142.826 479.18 138.214 485.424C129.654 497.008 113.42 498.992 99.0602 499.628C87.5834 500.142 76.0568 500.421 64.6334 499.192C59.0019 498.586 53.252 497.56 48.4146 494.595C47.5176 494.044 46.6626 493.426 45.8565 492.748L46.9332 500.973C47.1557 502.682 47.9906 504.252 49.2818 505.389C50.5731 506.526 52.2327 507.152 53.9507 507.152H140.05C141.768 507.152 143.428 506.526 144.719 505.389C146.01 504.252 146.845 502.682 147.068 500.973L169.094 332.361H97.449Z" fill="#F76C0D"/>
<path opacity="0.12" d="M33.994 348.985C32.6882 351.812 33.2724 355.114 33.868 358.178C39.8699 389.028 44.4782 420.108 47.6929 451.417C48.0747 455.03 49.8157 459.806 53.3817 459.197C56.6843 458.63 57.1196 454.087 56.7034 450.77C53.1183 422.074 47.9526 393.31 49.831 364.441C50.0792 360.634 50.4419 356.734 49.3958 353.064C47.7006 347.1 37.7738 340.829 33.994 348.985Z" fill="white"/>
<path opacity="0.12" d="M16.6529 311.315C16.7522 313.054 18.3328 314.414 20.0128 314.847C21.6927 315.28 23.449 315 25.1861 314.743C42.6229 312.154 60.3345 312.445 77.9584 312.307C78.6891 312.356 79.4207 312.225 80.0888 311.924C80.7264 311.571 81.1808 310.775 80.8944 310.097C80.6081 309.419 79.7147 309.2 78.9587 309.112C75.4232 308.706 71.8572 308.729 68.3027 308.729L39.3547 308.767C35.9567 308.771 16.3704 306.438 16.6529 311.315Z" fill="white"/>
<path d="M133.166 256.302C132.653 253.829 131.306 251.609 129.353 250.016C127.4 248.422 124.959 247.552 122.441 247.553H69.0125C66.4955 247.553 64.0553 248.423 62.1027 250.016C60.15 251.61 58.8041 253.83 58.2916 256.302L52.389 284.768C52.0577 286.367 52.0857 288.02 52.4709 289.606C52.8562 291.193 53.5891 292.674 54.6162 293.94C55.6434 295.207 56.939 296.229 58.4089 296.93C59.8788 297.631 61.4861 297.995 63.1137 297.995H77.3357C75.3389 294.649 74.4762 290.743 74.877 286.863C75.9002 278.175 82.6618 270.962 90.588 267.304C98.5141 263.645 107.467 262.998 116.191 263.021C122.575 263.021 129.554 263.73 135.243 266.331L133.166 256.302Z" fill="#7F3900"/>
<path d="M125.618 407.611C125.37 407.082 124.091 406.58 122.35 406.155C122.544 403.355 122.132 399.003 120.101 392.338C118.192 386.105 107.238 376.284 104.485 373.889C104.503 373.597 104.458 373.305 104.356 373.031C103.409 370.733 93.0391 368.714 91.9891 370.227C91.6531 370.71 91.8669 372.085 92.3709 373.813C89.8319 374.855 86.0063 377.348 80.6688 383.083C75.5947 388.546 72.4028 406.695 72.4028 406.695C72.4028 406.695 72.5097 406.5 72.7083 406.151C71.6201 408.618 74.8616 417.885 76.6217 418.027C77.2059 418.076 78.2863 417.203 79.5272 415.901C81.6958 417.586 85.762 419.666 93.3789 421.432C100.633 423.114 117.89 416.812 117.89 416.812H117.86C120.761 415.755 126.32 409.116 125.618 407.611ZM96.838 414.667C91.1644 412.982 87.4304 410.591 85.1511 408.683C86.0483 407.301 86.6478 406.182 86.6783 405.73C86.8157 404.045 74.6287 403.57 72.8534 405.899C74.3805 403.217 79.5616 394.479 84.7998 389.488C89.0913 385.401 93.0238 383.359 95.8071 382.325C96.5707 383.796 97.2159 384.876 97.5901 385.136C98.8042 385.979 103.943 378.138 104.462 374.361C106.131 377.257 110.881 385.853 112.526 392.748C113.763 397.904 113.736 401.999 113.358 404.906C111.678 404.815 110.384 404.849 109.968 405.044C108.517 405.734 113.595 415.571 116.588 416.847C113.095 416.824 103.489 416.625 96.838 414.667Z" fill="white"/>
</g>
<defs>
<clipPath id="clip0_518_5529">
<rect width="192" height="176" fill="white" transform="translate(0 233)"/>
</clipPath>
</defs>
</svg>
