<svg width="423" height="409" viewBox="0 0 423 409" fill="none" xmlns="http://www.w3.org/2000/svg">
<path d="M296.581 58.38C298.142 59.2505 299.606 59.8292 300.322 61.0165C301.804 63.461 303.38 70.9491 303.38 70.9491L311.634 69.2828C311.634 69.2828 310.162 61.7748 310.571 58.9462C310.769 57.5718 311.891 56.4668 312.989 55.055C315.54 52.3661 318.526 48.4748 316.585 42.6455C314.645 36.8162 309.524 26.3922 309.404 22.1394C309.309 18.8069 309.464 11.0295 309.464 11.0295L308.042 4.04526C308.042 4.04526 307.062 -0.778848 303.35 0.111639C300.093 0.892375 301.467 4.22984 299.699 4.49424C297.93 4.75864 298.227 3.33435 296.85 2.43139C295.241 1.37378 291.861 2.05973 290.791 3.66361C289.878 5.03302 290.706 6.23031 288.975 6.67681C287.244 7.1233 287.204 3.51395 283.902 4.0677C280.138 4.69628 281.121 9.52287 281.121 9.52287L282.66 16.4772C283.575 18.525 285.81 23.5811 287.025 26.6866C288.576 30.6501 287.933 42.2339 288.422 48.3601C288.91 54.4863 293.181 56.9033 296.581 58.38Z" fill="#AADBFB"/>
<path d="M296.568 58.363C298.127 59.2336 299.594 59.8123 300.31 60.9996C301.791 63.4416 303.37 70.9321 303.37 70.9321L306.149 70.3659C306.149 70.3659 304.573 62.8828 303.091 60.4334C302.37 59.2461 300.906 58.6674 299.349 57.7968C295.95 56.3202 291.682 53.9031 291.19 47.7795C290.699 41.6558 291.345 30.0695 289.793 26.1035C288.586 23.0005 286.341 17.9444 285.436 15.904L283.897 8.94721C283.897 8.94721 283.201 5.53244 285.224 4.07323C284.786 3.98601 284.335 3.98601 283.897 4.07323C280.135 4.70181 281.116 9.52591 281.116 9.52591L282.657 16.4827C283.57 18.5306 285.805 23.5866 287.02 26.6896C288.574 30.6532 287.928 42.2395 288.419 48.3631C288.91 54.4868 293.176 56.8864 296.568 58.363Z" fill="#85C2F9"/>
<path d="M284.358 6.31067C287.661 5.75942 287.701 9.36627 289.432 8.91978C291.163 8.47329 290.335 7.27599 291.248 5.90658C292.328 4.3052 295.698 3.61676 297.317 4.67936C298.693 5.58232 298.397 7.0091 300.165 6.7422C301.934 6.47531 300.559 3.13784 303.802 2.35461C307.514 1.46413 308.494 6.28823 308.494 6.28823L308.037 4.0433C308.037 4.0433 307.057 -0.780801 303.345 0.109686C300.088 0.890422 301.462 4.22788 299.694 4.49228C297.925 4.75669 298.222 3.3324 296.845 2.42944C295.236 1.37183 291.856 2.05778 290.786 3.66166C289.873 5.03106 290.701 6.22836 288.97 6.67485C287.239 7.12134 287.199 3.51199 283.897 4.06574C280.133 4.69432 281.116 9.52091 281.116 9.52091L281.57 11.7658C281.57 11.7658 280.604 6.94174 284.358 6.31067Z" fill="#85C2F9"/>
<path d="M303.482 72.0287L311.961 70.3036C312.674 70.1586 313.134 69.4632 312.989 68.7504L312.125 64.5023C311.98 63.7895 311.285 63.3292 310.572 63.4742L302.093 65.1994C301.38 65.3444 300.92 66.0397 301.065 66.7525L301.929 71.0007C302.074 71.7135 302.769 72.1737 303.482 72.0287Z" fill="#304298"/>
<path d="M301.29 64.8814L310.762 62.9483C311.013 62.897 311.175 62.6519 311.124 62.4008L311.103 62.2981C311.052 62.047 310.807 61.885 310.556 61.9362L301.083 63.8694C300.832 63.9206 300.67 64.1657 300.721 64.4168L300.742 64.5195C300.794 64.7706 301.039 64.9326 301.29 64.8814Z" fill="#304298"/>
<path d="M311.328 69.4056L312.083 69.252L310.894 63.4077L310.139 63.5613L311.328 69.4056Z" fill="#223466"/>
<path d="M309.694 69.7377L310.45 69.584L309.261 63.7397L308.505 63.8934L309.694 69.7377Z" fill="#223466"/>
<path d="M307.822 70.1205L308.577 69.9668L307.388 64.1225L306.633 64.2762L307.822 70.1205Z" fill="#223466"/>
<path d="M306.008 70.4857L306.764 70.332L305.575 64.4877L304.819 64.6414L306.008 70.4857Z" fill="#223466"/>
<path d="M304.347 70.8255L305.102 70.6719L303.913 64.8276L303.158 64.9812L304.347 70.8255Z" fill="#223466"/>
<path d="M303.016 71.0951L303.771 70.9414L302.582 65.0971L301.827 65.2508L303.016 71.0951Z" fill="#223466"/>
<path d="M303.083 71.4265L312.163 69.5806C312.221 69.5689 312.282 69.5806 312.331 69.6133C312.381 69.6461 312.415 69.6971 312.427 69.7552C312.439 69.8138 312.427 69.8746 312.395 69.9245C312.362 69.9745 312.311 70.0096 312.253 70.0221L303.173 71.868C303.115 71.8791 303.055 71.867 303.006 71.8344C302.956 71.8018 302.921 71.7512 302.909 71.6934C302.897 71.6348 302.909 71.574 302.941 71.5241C302.974 71.4741 303.025 71.4391 303.083 71.4265Z" fill="#405CC6"/>
<path opacity="0.58" d="M314.174 49.1455C314.358 48.3972 314.398 47.4767 313.777 47.0352C313.278 46.6885 312.622 46.8157 312.031 46.9554L307.045 48.1702C306.546 48.2899 306.01 48.4421 305.738 48.8711C305.59 49.1452 305.514 49.4526 305.518 49.7641C305.453 50.9989 305.609 52.2355 305.977 53.4158C306.122 53.8798 306.332 54.3712 306.758 54.6031C307.025 54.7288 307.319 54.7887 307.614 54.7777C309.025 54.8226 311.178 54.7503 312.054 53.4981C312.987 52.1537 313.78 50.7493 314.174 49.1455Z" fill="white"/>
<path opacity="0.58" d="M309.199 59.4084C309.17 59.0765 309.17 58.7426 309.199 58.4107C309.224 58.0041 309.259 57.5601 309.022 57.2283C308.901 57.0725 308.734 56.9582 308.545 56.9015C308.356 56.8447 308.154 56.8482 307.967 56.9116C307.782 56.9794 307.615 57.0911 307.482 57.2369C307.349 57.3828 307.252 57.5587 307.201 57.7497C307.147 57.98 307.125 58.2167 307.137 58.4531C307.142 58.9439 307.179 59.4339 307.249 59.9198C307.346 60.5982 307.765 61.9402 308.726 61.6982C309.686 61.4563 309.289 60.0719 309.199 59.4084Z" fill="white"/>
<path opacity="0.58" d="M307.715 10.2801C307.443 8.7195 307.089 7.17421 306.655 5.6506C306.572 5.28756 306.431 4.94046 306.236 4.62292C306.138 4.46414 306.006 4.32928 305.85 4.22827C305.693 4.12726 305.515 4.06266 305.331 4.03923C305.134 4.03589 304.94 4.08185 304.765 4.17292C304.591 4.26398 304.442 4.39726 304.333 4.56056C304.116 4.88958 303.988 5.26966 303.964 5.66307C303.846 6.76308 304.156 7.86559 304.542 8.90574C304.889 9.83364 305.398 11.7343 306.288 12.2856C307.585 13.0788 307.857 11.0983 307.715 10.2801Z" fill="white"/>
<path d="M296.943 25.0488L288.921 26.6802L289.412 29.0997L296.943 25.0488Z" fill="#85C2F9"/>
<path d="M329.684 132.123L335.009 124.697C335.543 123.968 335.807 123.076 335.757 122.173L335.585 119.584C335.554 119.049 335.39 118.531 335.108 118.075C334.826 117.62 334.436 117.242 333.971 116.975L319.955 108.801C319.455 108.526 318.902 108.361 318.333 108.318C317.763 108.275 317.191 108.355 316.655 108.551L313.969 109.464C313.067 109.773 312.283 110.353 311.724 111.126L306.399 118.549C305.824 119.321 305.557 120.28 305.65 121.238L305.713 121.799C305.806 122.739 305.553 123.68 304.999 124.446L291.393 143.917C291.1 144.332 290.741 144.696 290.33 144.994L285.977 148.139C285.595 148.418 285.258 148.755 284.98 149.137L276.803 160.237C276.452 160.691 276.208 161.219 276.09 161.78C275.972 162.342 275.983 162.923 276.122 163.48L276.399 164.478C276.622 165.297 277.16 165.996 277.896 166.421L293.016 175.238C293.801 175.679 294.715 175.833 295.601 175.675L296.72 175.49C297.321 175.388 297.894 175.167 298.408 174.841C298.922 174.514 299.366 174.089 299.714 173.589L307.549 162.278C307.806 161.908 308.002 161.498 308.127 161.065L309.527 156.186C309.664 155.713 309.884 155.268 310.178 154.872L324.281 135.69C324.875 134.89 325.711 134.303 326.665 134.016L327.259 133.839C328.235 133.551 329.087 132.947 329.684 132.123Z" fill="#29AAE3"/>
<path d="M326.666 134.013L327.259 133.836C328.231 133.546 329.08 132.943 329.674 132.12L334.999 124.694C335.533 123.965 335.798 123.073 335.747 122.17L335.575 119.581C335.549 119.145 335.435 118.719 335.24 118.329C335.045 117.939 334.773 117.591 334.44 117.309L334.558 119.077C334.607 119.98 334.343 120.873 333.809 121.604L328.484 129.025C327.889 129.845 327.04 130.448 326.069 130.738L325.476 130.915C324.521 131.201 323.685 131.789 323.091 132.589L308.98 151.778C308.686 152.175 308.465 152.621 308.327 153.095L306.93 157.972C306.804 158.406 306.607 158.816 306.349 159.186L298.514 170.498C298.166 170.997 297.722 171.422 297.208 171.749C296.694 172.075 296.121 172.296 295.521 172.399L294.401 172.584C293.515 172.743 292.602 172.587 291.819 172.145L276.696 163.33C276.441 163.18 276.207 162.997 276 162.786C276.013 163.018 276.05 163.248 276.11 163.472L276.387 164.47C276.61 165.289 277.148 165.988 277.883 166.413L293.017 175.238C293.801 175.678 294.715 175.833 295.601 175.674L296.721 175.49C297.321 175.387 297.894 175.166 298.408 174.84C298.922 174.514 299.366 174.088 299.714 173.589L307.549 162.277C307.806 161.907 308.002 161.498 308.127 161.065L309.527 156.186C309.664 155.712 309.884 155.267 310.178 154.871L324.281 135.69C324.874 134.888 325.711 134.3 326.666 134.013Z" fill="#2495BC"/>
<path opacity="0.53" d="M314.912 110.73C314.413 110.873 313.832 111.09 313.6 111.551C313.51 111.759 313.489 111.991 313.543 112.212C313.597 112.433 313.721 112.63 313.897 112.773C314.261 113.05 314.674 113.255 315.114 113.377C317.945 114.405 320.353 116.121 322.887 117.652C323.095 117.799 323.335 117.896 323.588 117.934C324.164 117.979 324.685 117.495 325.084 117.044C325.309 116.825 325.471 116.55 325.553 116.248C325.656 115.674 325.139 115.25 324.673 114.946C322.83 113.719 320.988 112.491 319.145 111.264C317.634 110.259 316.885 110.229 314.912 110.73Z" fill="white"/>
<path opacity="0.53" d="M288.651 147.795C288.591 147.841 288.545 147.902 288.517 147.972C288.477 148.095 288.564 148.204 288.649 148.292C289.37 149.012 290.3 149.514 291.221 150.008L295.688 152.402C296.046 152.64 296.468 152.763 296.898 152.757C297.214 152.704 297.507 152.557 297.737 152.334C297.967 152.111 298.124 151.824 298.187 151.509C298.229 151.217 298.202 150.919 298.108 150.64C298.014 150.36 297.856 150.106 297.646 149.898C297.222 149.488 296.738 149.145 296.209 148.883C294.134 147.703 291.251 145.466 288.651 147.795Z" fill="white"/>
<path d="M335.593 119.305L316.888 108.442L318.98 107L335.945 116.853L335.593 119.305Z" fill="#EF4538"/>
<path d="M332.777 115.057L332.432 117.469L335.655 119.342L336.007 116.888L319.043 107.035L319.008 107.06L332.777 115.057Z" fill="#CE3932"/>
<path d="M316.887 108.441L335.655 119.342L335.61 119.93L316.396 108.633L316.887 108.441Z" fill="#1B7289"/>
<path d="M328.903 129.566C327.617 130.048 326.216 130.135 324.88 129.815C323.588 129.536 322.405 128.992 321.235 128.451L314.673 125.423C314.02 125.071 313.306 124.846 312.57 124.757C312.296 124.719 312.018 124.784 311.789 124.939C311.661 125.05 311.573 125.201 311.538 125.368C311.504 125.535 311.526 125.708 311.6 125.862C311.764 126.141 311.998 126.374 312.278 126.538C314.81 128.299 317.564 129.78 320.188 131.414C320.819 131.766 321.387 132.223 321.866 132.764C322.103 133.041 322.272 133.37 322.359 133.724C322.445 134.079 322.448 134.449 322.365 134.804C322.275 135.113 322.126 135.402 321.926 135.655C321.874 135.722 321.814 135.812 321.857 135.877C321.899 135.941 322.044 135.822 321.964 135.802L328.903 129.566Z" fill="#2495BC"/>
<path d="M326.333 210.296C324.881 209.977 323.377 209.613 321.931 209.942C320.484 210.271 319.124 211.543 319.257 213.022C319.371 214.307 320.489 215.225 321.252 216.265C322.015 217.305 322.295 219.066 321.147 219.657C319.541 219.131 317.598 220.156 317.116 221.765C316.635 223.374 317.7 225.3 319.334 225.739C320.187 225.968 321.477 226.31 321.19 227.148C321.087 227.445 320.796 227.622 320.546 227.814C318.8 229.156 319.084 232.331 321.045 233.342C321.903 233.788 322.906 233.84 323.874 233.865L328.363 234.03C331.05 234.127 334.013 234.132 336.054 232.386C338.503 230.291 338.598 226.619 339.703 223.594C340.309 221.937 341.416 220.286 343.115 219.815C343.933 219.588 344.804 219.657 345.634 219.483C346.954 219.206 348.061 218.338 349.094 217.467C352.185 214.857 355.05 211.989 357.657 208.894C360.022 206.091 362.274 202.788 362.13 199.124C361.94 194.342 357.732 190.446 357.488 185.667C357.221 180.429 361.646 176.303 363.724 171.494C364.377 169.967 364.749 168.064 363.724 166.754C363.115 165.974 362.142 165.59 361.229 165.238L356.378 163.397C354.791 162.796 353.15 162.185 351.456 162.27C348.463 162.419 346.039 164.667 344.018 166.879C342.699 168.326 341.428 169.815 340.204 171.347C339.631 172.067 339.052 172.826 338.825 173.719C338.641 174.612 338.698 175.538 338.989 176.403C340.287 180.873 344.332 183.886 347.006 187.707C347.407 188.237 347.724 188.826 347.944 189.453C348.194 190.286 348.176 191.174 348.144 192.045C348.071 194.013 347.989 196.036 347.238 197.852C346.488 199.668 344.916 201.286 342.96 201.516C342.527 201.532 342.094 201.582 341.668 201.666C340.441 202.012 339.81 203.367 339.551 204.614C339.291 205.861 339.219 207.211 338.476 208.246C336.325 211.227 329.513 211.002 326.333 210.296Z" fill="#AADBFB"/>
<path d="M343.484 161.592C346.228 159.724 349.91 159.684 352.574 157.721C354.121 160.314 355.47 163.021 356.61 165.817C356.68 165.951 356.705 166.103 356.682 166.251C356.648 166.334 356.598 166.408 356.535 166.471C356.472 166.534 356.398 166.584 356.315 166.618C354.328 167.719 352.051 168.185 349.79 167.955C348.141 167.79 346.869 167.174 345.939 165.847C345.632 165.411 343.689 161.445 343.484 161.592Z" fill="#AADBFB"/>
<path d="M351.77 153.402L342.699 156.046C341.936 156.269 341.498 157.068 341.72 157.831L343.045 162.376C343.267 163.139 344.066 163.578 344.829 163.355L353.901 160.711C354.664 160.489 355.102 159.69 354.88 158.927L353.555 154.381C353.332 153.618 352.533 153.18 351.77 153.402Z" fill="#304298"/>
<path d="M354.662 161.132L344.525 164.087C344.256 164.165 344.102 164.446 344.18 164.715L344.212 164.825C344.291 165.093 344.572 165.247 344.84 165.169L354.977 162.215C355.245 162.136 355.4 161.855 355.321 161.587L355.289 161.477C355.211 161.208 354.93 161.054 354.662 161.132Z" fill="#304298"/>
<path d="M343.468 156.973L342.658 157.209L344.481 163.464L345.291 163.228L343.468 156.973Z" fill="#223466"/>
<path d="M345.216 156.455L344.406 156.691L346.229 162.946L347.039 162.71L345.216 156.455Z" fill="#223466"/>
<path d="M347.218 155.883L346.408 156.119L348.231 162.374L349.041 162.138L347.218 155.883Z" fill="#223466"/>
<path d="M349.161 155.307L348.352 155.543L350.175 161.798L350.985 161.562L349.161 155.307Z" fill="#223466"/>
<path d="M350.938 154.789L350.129 155.025L351.952 161.28L352.761 161.044L350.938 154.789Z" fill="#223466"/>
<path d="M352.359 154.385L351.55 154.621L353.373 160.876L354.182 160.64L352.359 154.385Z" fill="#223466"/>
<path d="M352.267 153.998L342.539 156.831C342.476 156.849 342.41 156.841 342.353 156.81C342.296 156.778 342.254 156.726 342.234 156.664C342.217 156.602 342.225 156.535 342.256 156.478C342.288 156.422 342.34 156.379 342.402 156.36L352.117 153.526C352.18 153.509 352.246 153.517 352.303 153.548C352.36 153.58 352.402 153.632 352.421 153.694C352.439 153.754 352.433 153.82 352.404 153.876C352.376 153.933 352.326 153.976 352.267 153.998Z" fill="#405CC6"/>
<path d="M356.969 163.635C356.852 164.134 356.737 164.633 356.62 165.131C356.49 165.69 356.388 166.356 356.784 166.768C357.236 167.239 358.009 167.062 358.652 167.179C359.974 167.429 360.673 169.048 360.344 170.352C360.014 171.657 358.957 172.642 357.849 173.41C355.62 174.926 353.048 175.862 350.365 176.132C347.683 176.402 344.976 175.998 342.489 174.957C342.01 175.782 342.988 176.69 343.848 177.089C347.614 178.803 351.884 179.047 355.821 177.775C355.751 178.84 355.468 179.88 354.99 180.834C354.512 181.788 353.848 182.636 353.038 183.33C352.274 183.974 351.292 184.642 351.309 185.64C351.309 186.186 351.628 186.673 351.918 187.137C353.791 190.13 355.043 193.941 353.596 197.166C352.474 199.661 349.965 201.277 348.59 203.652C348.109 204.482 347.842 205.69 348.59 206.291C349.468 206.994 350.715 206.161 351.514 205.37L355.602 201.317C356.071 200.851 356.754 200.349 357.33 200.676C358.006 201.065 357.73 202.093 357.35 202.774C355.439 206.204 353.019 209.326 350.174 212.033C348.677 213.44 346.61 214.812 344.746 213.971C342.407 212.916 342.574 209.456 340.913 207.501L336.009 220.252C335.687 221.087 334.741 222.083 334.115 221.444C333.923 221.191 333.827 220.876 333.846 220.559C333.809 219.863 333.786 219.132 333.434 218.531C333.083 217.93 332.277 217.533 331.671 217.872C332.236 220.418 332.804 222.963 333.375 225.507C333.547 226.281 333.714 227.101 333.444 227.845C333.195 228.501 332.656 228.995 332.068 229.369C329.468 231.022 325.739 230.598 323.587 228.403C325.006 227.226 324.774 224.622 323.173 223.711C321.781 222.921 320.045 223.407 318.451 223.265C317.942 223.211 317.452 223.04 317.019 222.766C317.096 224.101 318.039 225.398 319.346 225.759C320.199 225.989 321.489 226.331 321.202 227.166C321.102 227.463 320.808 227.64 320.559 227.832C318.812 229.177 319.097 232.349 321.057 233.362C321.918 233.806 322.921 233.861 323.886 233.886L328.376 234.051C331.06 234.148 334.023 234.153 336.066 232.407C338.513 230.312 338.608 226.64 339.713 223.612C340.319 221.955 341.426 220.307 343.128 219.835C343.943 219.608 344.816 219.678 345.644 219.504C346.964 219.227 348.074 218.359 349.104 217.488C352.196 214.877 355.063 212.009 357.672 208.915C360.037 206.111 365.904 200.332 365.759 196.668C365.569 191.886 357.745 190.464 357.5 185.692C357.236 180.467 361.661 176.329 363.736 171.519C364.389 169.993 364.764 168.087 363.736 166.78C363.127 166.002 362.157 165.618 361.242 165.266L356.969 163.635Z" fill="#85C2F9"/>
<path opacity="0.58" d="M352.551 173.402C353.165 173.17 353.836 172.689 353.756 172.038C353.676 171.387 352.916 171.092 352.282 171.142C351.648 171.192 351.035 171.474 350.411 171.491C348.269 171.546 347.495 168.748 345.607 168.865C344.707 168.917 342.028 170.406 342.033 171.477C342.045 174.415 350.808 174.063 352.551 173.402Z" fill="white"/>
<path opacity="0.58" d="M321.599 213.187C322.265 214.474 324.113 214.337 325.45 214.893C327.239 215.642 328.082 217.695 328.414 219.603C328.745 221.511 328.77 223.534 329.691 225.24C330.212 224.584 330.282 223.669 330.155 222.84C330.027 222.012 329.731 221.214 329.601 220.386C329.494 219.481 329.486 218.567 329.578 217.66C329.641 216.709 329.878 215.532 330.801 215.295C331.609 215.085 332.347 215.774 332.898 216.4C333.472 215.901 334.106 215.273 333.959 214.534C333.826 213.886 333.113 213.507 332.462 213.474C331.811 213.442 331.157 213.661 330.504 213.763C329.281 213.954 328.03 213.738 326.942 213.15C326.194 212.746 325.555 212.18 324.799 211.808C323.869 211.354 320.616 211.287 321.599 213.187Z" fill="white"/>
<g clip-path="url(#clip0_903_8909)">
<path d="M388.659 258.056C387.458 253.14 384.649 248.769 380.68 245.644C376.711 242.519 371.812 240.82 366.766 240.818H289.212C284.166 240.82 279.267 242.519 275.298 245.644C271.329 248.769 268.52 253.14 267.319 258.056L255.888 304.726H400.075L388.659 258.056Z" fill="#F98715"/>
<path d="M252.208 304.727H401.258C403.688 304.727 406.019 305.695 407.737 307.419C409.456 309.143 410.421 311.482 410.421 313.92V332.376H243.044V313.92C243.044 311.482 244.01 309.143 245.728 307.419C247.447 305.695 249.777 304.727 252.208 304.727Z" fill="#F98715"/>
<path d="M328.449 332.361H255.907L277.933 500.973C278.156 502.682 278.991 504.252 280.282 505.389C281.573 506.526 283.233 507.152 284.951 507.152H371.05C372.768 507.152 374.428 506.526 375.719 505.389C377.01 504.252 377.845 502.682 378.068 500.973L400.094 332.361H328.449Z" fill="#F98715"/>
<path d="M370.065 284.768L364.166 256.302C363.653 253.829 362.306 251.609 360.353 250.016C358.4 248.422 355.959 247.552 353.441 247.553H300.013C297.496 247.553 295.055 248.423 293.103 250.016C291.15 251.61 289.804 253.83 289.292 256.302L283.389 284.768C283.058 286.367 283.086 288.02 283.471 289.606C283.856 291.193 284.589 292.674 285.616 293.94C286.643 295.207 287.939 296.229 289.409 296.93C290.879 297.631 292.486 297.995 294.114 297.995H359.344C360.972 297.995 362.579 297.632 364.049 296.93C365.518 296.229 366.814 295.207 367.841 293.94C368.868 292.673 369.6 291.193 369.985 289.606C370.37 288.019 370.397 286.367 370.065 284.768Z" fill="#B25400"/>
<path d="M328.449 332.361H255.907L256.53 337.115C289.746 342.861 324.734 338.307 356.603 349.293C364.819 352.124 373.287 356.544 376.957 364.443C378.839 368.496 379.247 373.055 379.56 377.514C381.552 406.212 380.49 435.041 376.392 463.513C375.284 471.205 373.826 479.18 369.214 485.424C360.654 497.008 344.42 498.992 330.06 499.628C318.583 500.142 307.057 500.421 295.633 499.192C290.002 498.586 284.252 497.56 279.415 494.595C278.518 494.044 277.663 493.426 276.857 492.748L277.933 500.973C278.156 502.682 278.991 504.252 280.282 505.389C281.573 506.526 283.233 507.152 284.951 507.152H371.05C372.768 507.152 374.428 506.526 375.719 505.389C377.01 504.252 377.845 502.682 378.068 500.973L400.094 332.361H328.449Z" fill="#F76C0D"/>
<path opacity="0.12" d="M264.994 348.985C263.688 351.812 264.272 355.114 264.868 358.178C270.87 389.028 275.478 420.108 278.693 451.417C279.075 455.03 280.816 459.806 284.382 459.197C287.684 458.63 288.12 454.087 287.703 450.77C284.118 422.074 278.953 393.31 280.831 364.441C281.079 360.634 281.442 356.734 280.396 353.064C278.701 347.1 268.774 340.829 264.994 348.985Z" fill="white"/>
<path opacity="0.12" d="M247.653 311.315C247.752 313.054 249.333 314.414 251.013 314.847C252.693 315.28 254.449 315 256.186 314.743C273.623 312.154 291.335 312.445 308.958 312.307C309.689 312.356 310.421 312.225 311.089 311.924C311.726 311.571 312.181 310.775 311.894 310.097C311.608 309.419 310.715 309.2 309.959 309.112C306.423 308.706 302.857 308.729 299.303 308.729L270.355 308.767C266.957 308.771 247.37 306.438 247.653 311.315Z" fill="white"/>
<path d="M364.166 256.302C363.653 253.829 362.306 251.609 360.353 250.016C358.4 248.422 355.959 247.552 353.441 247.553H300.013C297.496 247.553 295.055 248.423 293.103 250.016C291.15 251.61 289.804 253.83 289.292 256.302L283.389 284.768C283.058 286.367 283.086 288.02 283.471 289.606C283.856 291.193 284.589 292.674 285.616 293.94C286.643 295.207 287.939 296.229 289.409 296.93C290.879 297.631 292.486 297.995 294.114 297.995H308.336C306.339 294.649 305.476 290.743 305.877 286.863C306.9 278.175 313.662 270.962 321.588 267.304C329.514 263.645 338.467 262.998 347.191 263.021C353.575 263.021 360.554 263.73 366.243 266.331L364.166 256.302Z" fill="#7F3900"/>
<path d="M356.618 407.611C356.37 407.082 355.091 406.58 353.35 406.155C353.544 403.355 353.132 399.003 351.101 392.338C349.192 386.105 338.238 376.284 335.485 373.889C335.503 373.597 335.458 373.305 335.356 373.031C334.409 370.733 324.039 368.714 322.989 370.227C322.653 370.71 322.867 372.085 323.371 373.813C320.832 374.855 317.006 377.348 311.669 383.083C306.595 388.546 303.403 406.695 303.403 406.695C303.403 406.695 303.51 406.5 303.708 406.151C302.62 408.618 305.862 417.885 307.622 418.027C308.206 418.076 309.286 417.203 310.527 415.901C312.696 417.586 316.762 419.666 324.379 421.432C331.633 423.114 348.89 416.812 348.89 416.812H348.86C351.761 415.755 357.32 409.116 356.618 407.611ZM327.838 414.667C322.164 412.982 318.43 410.591 316.151 408.683C317.048 407.301 317.648 406.182 317.678 405.73C317.816 404.045 305.629 403.57 303.853 405.899C305.381 403.217 310.562 394.479 315.8 389.488C320.091 385.401 324.024 383.359 326.807 382.325C327.571 383.796 328.216 384.876 328.59 385.136C329.804 385.979 334.943 378.138 335.462 374.361C337.131 377.257 341.881 385.853 343.526 392.748C344.763 397.904 344.736 401.999 344.358 404.906C342.678 404.815 341.384 404.849 340.968 405.044C339.517 405.734 344.595 415.571 347.588 416.847C344.095 416.824 334.489 416.625 327.838 414.667Z" fill="white"/>
</g>
<g clip-path="url(#clip1_903_8909)">
<path d="M156.464 229.244C155.257 224.327 152.433 219.957 148.444 216.831C144.454 213.706 139.529 212.007 134.458 212.006H56.5106C51.4388 212.005 46.5134 213.703 42.5238 216.828C38.5342 219.954 35.7115 224.326 34.508 229.244L23.0098 275.913H167.955L156.464 229.244Z" fill="#EA381B"/>
<path d="M19.3178 275.914H169.133C171.576 275.914 173.919 276.883 175.646 278.607C177.374 280.331 178.344 282.669 178.344 285.108V303.564H10.1069V285.108C10.1069 282.669 11.0774 280.331 12.8047 278.607C14.5321 276.883 16.875 275.914 19.3178 275.914Z" fill="#EA381B"/>
<path d="M95.9563 303.549H23.0098L45.1543 472.16C45.3788 473.87 46.2188 475.44 47.5174 476.576C48.8161 477.713 50.4847 478.34 52.2122 478.339H138.76C140.488 478.341 142.158 477.715 143.457 476.578C144.757 475.441 145.597 473.871 145.822 472.16L167.962 303.549H95.9563Z" fill="#EA381B"/>
<path d="M137.789 255.955L131.856 227.49C131.34 225.017 129.988 222.797 128.025 221.204C126.062 219.61 123.609 218.74 121.079 218.74H67.3679C64.8379 218.741 62.3854 219.611 60.4227 221.205C58.46 222.798 57.107 225.017 56.5911 227.49L50.6616 255.955C50.3279 257.554 50.3554 259.207 50.7422 260.794C51.1289 262.38 51.8652 263.861 52.8974 265.128C53.9297 266.395 55.2319 267.416 56.7093 268.118C58.1868 268.819 59.8023 269.183 61.4383 269.183H127.016C128.652 269.182 130.266 268.817 131.743 268.115C133.22 267.413 134.521 266.392 135.553 265.125C136.584 263.858 137.32 262.378 137.707 260.792C138.094 259.206 138.122 257.554 137.789 255.955Z" fill="#A0190B"/>
<path d="M95.9563 303.549H23.0098L23.6315 308.303C57.0018 314.049 92.1951 309.494 124.226 320.48C132.485 323.311 141.001 327.732 144.69 335.631C146.582 339.684 146.992 344.242 147.303 348.701C149.308 377.399 148.242 406.228 144.122 434.7C143.005 442.392 141.539 450.368 136.903 456.612C128.302 468.196 111.983 470.18 97.549 470.816C86.0123 471.329 74.4258 471.609 62.9428 470.379C57.282 469.774 51.4983 468.747 46.6396 465.782C45.7373 465.232 44.8777 464.615 44.0682 463.936L45.1466 472.16C45.3712 473.87 46.2111 475.44 47.5098 476.576C48.8084 477.713 50.4771 478.34 52.2045 478.339H138.76C140.488 478.341 142.158 477.715 143.457 476.578C144.757 475.441 145.597 473.871 145.822 472.16L167.962 303.549H95.9563Z" fill="#D62C1A"/>
<path opacity="0.12" d="M32.167 320.172C30.8545 322.999 31.4417 326.301 32.0404 329.366C38.0786 360.216 42.7109 391.295 45.9373 422.605C46.3211 426.217 48.075 430.994 51.6596 430.385C54.9755 429.818 55.413 425.275 54.9947 421.957C51.3948 393.262 46.1983 364.497 48.0865 335.629C48.336 331.821 48.7006 327.922 47.649 324.252C45.9527 318.287 35.9473 312.017 32.167 320.172Z" fill="white"/>
<path opacity="0.12" d="M14.7355 282.502C14.8391 284.241 16.4241 285.601 18.1166 286.034C19.8091 286.467 21.5707 286.187 23.3131 285.931C40.8407 283.341 58.6446 283.632 76.364 283.494C77.0973 283.544 77.8315 283.412 78.5017 283.111C79.1427 282.759 79.6032 281.962 79.3115 281.284C79.0199 280.606 78.1256 280.388 77.3657 280.3C73.8157 279.894 70.2311 279.916 66.6542 279.916L37.5555 279.955C34.1398 279.959 14.4515 277.626 14.7355 282.502Z" fill="white"/>
<path d="M131.856 227.49C131.34 225.017 129.988 222.797 128.025 221.204C126.062 219.61 123.609 218.74 121.079 218.74H67.3679C64.8379 218.741 62.3854 219.611 60.4227 221.205C58.46 222.798 57.107 225.017 56.5911 227.49L50.6616 255.955C50.3279 257.554 50.3554 259.207 50.7422 260.794C51.1289 262.38 51.8652 263.861 52.8974 265.128C53.9297 266.395 55.2319 267.416 56.7093 268.118C58.1868 268.819 59.8023 269.183 61.4383 269.183H75.7344C73.729 265.835 72.862 261.93 73.2628 258.051C74.2914 249.363 81.0921 242.15 89.0557 238.491C97.0193 234.833 106.023 234.186 114.792 234.209C121.209 234.209 128.225 234.917 133.947 237.518L131.856 227.49Z" fill="#770F0A"/>
<path d="M124.268 378.798C124.019 378.27 122.733 377.768 120.987 377.343C121.179 374.543 120.764 370.191 118.726 363.525C116.807 357.293 105.793 347.471 103.026 345.077C103.042 344.785 102.999 344.493 102.899 344.219C101.947 341.92 91.5197 339.902 90.4681 341.415C90.1303 341.897 90.3453 343.273 90.8519 345C88.2997 346.042 84.4503 348.536 79.0888 354.271C73.9844 359.733 70.7798 377.883 70.7798 377.883C70.7798 377.883 70.8834 377.688 71.083 377.339C69.9892 379.806 73.2514 389.072 75.0168 389.214C75.6078 389.264 76.6901 388.39 77.9374 387.088C80.1173 388.774 84.2047 390.854 91.8612 392.62C99.1532 394.301 116.504 388 116.504 388H116.47C119.386 386.942 124.978 380.304 124.268 378.798ZM95.3422 385.855C89.6391 384.169 85.8857 381.779 83.5906 379.871C84.4925 378.488 85.0989 377.37 85.1258 376.918C85.2639 375.232 73.0173 374.757 71.2288 377.086C72.764 374.405 77.972 365.667 83.2414 360.675C87.5551 356.588 91.5043 354.546 94.306 353.512C95.0735 354.983 95.7221 356.063 96.0982 356.324C97.3148 357.167 102.484 349.325 102.987 345.548C104.668 348.444 109.443 357.04 111.097 363.935C112.336 369.091 112.313 373.186 111.929 376.094C110.241 376.002 108.94 376.036 108.521 376.232C107.067 376.921 112.167 386.759 115.176 388.034C111.684 388.011 102.024 387.812 95.3422 385.855Z" fill="white"/>
<path d="M67.2144 401.943H72.9712V404.625H70.6684V407.145H72.8292V409.674H70.6761V412.597H73.2168V415.255H67.2144V401.943Z" fill="white"/>
<path d="M78.1829 408.627V410.925H73.8154V408.627H78.1829Z" fill="white"/>
<path d="M92.2067 401.943L90.6716 415.236H86.3348C85.9408 413.193 85.5915 410.87 85.287 408.268C85.1489 409.384 84.8265 411.706 84.3199 415.236H80.0215L78.4863 401.943H81.8483L82.2129 406.582L82.5698 411.064C82.6952 408.748 83.0137 405.708 83.5255 401.943H87.1024C87.1484 402.334 87.2763 403.796 87.4861 406.329L87.8699 411.386C88.0644 408.168 88.3868 405.021 88.8371 401.943H92.2067Z" fill="white"/>
<path d="M98.7123 401.943L100.693 415.236H97.1541L96.9661 412.845H95.7265L95.5192 415.236H91.9385L93.7077 401.943H98.7123ZM96.8778 410.49C96.7013 408.985 96.5247 407.125 96.3482 404.908C95.9951 407.462 95.7738 409.323 95.6842 410.49H96.8778Z" fill="white"/>
<path d="M108.613 405.954H105.397V404.966C105.426 404.668 105.384 404.367 105.275 404.089C105.229 404.024 105.167 403.972 105.095 403.94C105.022 403.907 104.943 403.893 104.864 403.901C104.77 403.897 104.676 403.918 104.593 403.963C104.51 404.007 104.441 404.073 104.392 404.154C104.27 404.39 104.215 404.655 104.231 404.92C104.212 405.264 104.273 405.608 104.411 405.924C104.666 406.27 105.002 406.548 105.39 406.736C106.925 407.647 107.896 408.396 108.303 408.98C108.709 409.565 108.909 410.51 108.901 411.815C108.941 412.528 108.829 413.241 108.571 413.907C108.284 414.425 107.83 414.83 107.282 415.056C106.586 415.372 105.828 415.528 105.063 415.512C104.24 415.535 103.424 415.355 102.688 414.987C102.108 414.714 101.65 414.236 101.402 413.646C101.171 412.903 101.068 412.126 101.099 411.348V410.478H104.315V412.095C104.285 412.421 104.33 412.751 104.449 413.056C104.503 413.131 104.576 413.191 104.66 413.228C104.744 413.266 104.837 413.281 104.929 413.271C105.032 413.276 105.133 413.254 105.224 413.206C105.315 413.158 105.391 413.087 105.443 412.999C105.572 412.751 105.63 412.473 105.612 412.194C105.612 411.428 105.505 410.9 105.294 410.662C104.794 410.207 104.25 409.803 103.67 409.455C103.074 409.081 102.504 408.668 101.962 408.218C101.654 407.918 101.416 407.553 101.268 407.149C101.066 406.592 100.973 406.002 100.991 405.41C100.94 404.646 101.071 403.88 101.375 403.177C101.662 402.68 102.106 402.292 102.638 402.074C103.303 401.796 104.02 401.665 104.741 401.691C105.531 401.667 106.317 401.815 107.044 402.123C107.58 402.328 108.027 402.716 108.303 403.219C108.552 403.94 108.657 404.703 108.61 405.464L108.613 405.954Z" fill="white"/>
<path d="M116.961 401.943V404.625H114.908V415.255H111.454V404.625H109.404V401.943H116.961Z" fill="white"/>
<path d="M117.751 401.943H123.527V404.625H121.225V407.145H123.389V409.674H121.225V412.597H123.769V415.255H117.751V401.943Z" fill="white"/>
</g>
<path d="M97.1716 87.4739L76.8199 95.3833C75.4349 95.9186 73.8942 95.8831 72.5353 95.2845C71.1765 94.6859 70.1103 93.5731 69.5705 92.1899L53.381 50.5497C53.1142 49.8632 52.9852 49.1308 53.0014 48.3945C53.0175 47.6581 53.1786 46.9322 53.4754 46.2581C53.7722 45.584 54.1988 44.9749 54.731 44.4657C55.2631 43.9565 55.8904 43.5571 56.5769 43.2904L76.9286 35.381C77.6151 35.1142 78.3475 34.9852 79.0838 35.0014C79.8202 35.0175 80.5461 35.1786 81.2202 35.4754C81.8943 35.7722 82.5033 36.1988 83.0125 36.731C83.5217 37.2631 83.9211 37.8904 84.1879 38.5769L100.367 80.2122C100.906 81.599 100.873 83.1431 100.273 84.5049C99.674 85.8667 98.5583 86.9346 97.1716 87.4739Z" fill="#8E8D8B"/>
<path d="M95.3228 83.1775L75.196 91.0052C74.2107 91.3877 73.1139 91.3633 72.1466 90.9373C71.1793 90.5114 70.4207 89.7188 70.0376 88.7338L54.864 49.7086C54.6742 49.2209 54.5824 48.7006 54.5937 48.1774C54.605 47.6542 54.7193 47.1384 54.93 46.6594C55.1407 46.1804 55.4437 45.7475 55.8217 45.3856C56.1997 45.0238 56.6453 44.7399 57.133 44.5502L77.2623 36.7249C77.7503 36.5348 78.2709 36.4428 78.7945 36.4541C79.3181 36.4653 79.8343 36.5798 80.3136 36.7907C80.7929 37.0017 81.226 37.3051 81.5879 37.6835C81.9499 38.062 82.2337 38.5081 82.4231 38.9963L97.5967 78.0191C97.7864 78.5071 97.878 79.0276 97.8663 79.5511C97.8547 80.0745 97.74 80.5905 97.5288 81.0695C97.3176 81.5486 97.0141 81.9813 96.6356 82.343C96.257 82.7047 95.811 82.9883 95.3228 83.1775Z" fill="#3A4551"/>
<path d="M63.2749 52.6183L68.7126 60.2977L65.3511 64.7962L69.899 63.3503L70.3933 76.6725L75.2872 65.9949L85.2209 69.0969L75.8755 58.4687L80.5445 51.8619L72.2891 56.6669C72.2891 56.6669 70.1165 50.8065 70.2055 51.3033C70.2944 51.8001 68.9301 55.4187 68.9301 55.4187L63.2749 52.6183Z" fill="#303942"/>
<path d="M70.3934 76.7766H70.3736C70.3509 76.7722 70.3302 76.7604 70.315 76.7429C70.2998 76.7254 70.2908 76.7034 70.2896 76.6802L69.7952 63.4914L65.3784 64.8978C65.3576 64.905 65.335 64.9054 65.3141 64.8987C65.2931 64.892 65.2749 64.8787 65.2622 64.8607C65.2497 64.8425 65.2429 64.821 65.2429 64.7989C65.2429 64.7768 65.2497 64.7553 65.2622 64.7371L68.5817 60.298L63.1909 52.6803C63.1773 52.6617 63.1699 52.6392 63.1699 52.6161C63.1699 52.5929 63.1773 52.5704 63.1909 52.5518C63.2061 52.5341 63.2268 52.5221 63.2497 52.5176C63.2725 52.5131 63.2963 52.5164 63.317 52.5271L68.8783 55.2756C69.4196 53.8296 70.166 51.6595 70.1141 51.3209C70.0943 51.2072 70.1685 51.1775 70.1907 51.1726C70.3094 51.1405 70.3588 51.1281 72.3559 56.5139L80.4951 51.7732C80.5154 51.7609 80.5395 51.7562 80.563 51.7598C80.5864 51.7634 80.6079 51.7751 80.6236 51.793C80.6381 51.8113 80.6459 51.8339 80.6459 51.8573C80.6459 51.8806 80.6381 51.9032 80.6236 51.9215L75.9967 58.464L85.2901 69.0304C85.3064 69.0469 85.3165 69.0685 85.3188 69.0916C85.321 69.1146 85.3153 69.1378 85.3026 69.1571C85.2899 69.1765 85.2709 69.1909 85.2489 69.198C85.2268 69.2051 85.203 69.2044 85.1814 69.196L75.3343 66.1213L70.4873 76.7074C70.4804 76.727 70.4677 76.7441 70.451 76.7565C70.4342 76.7688 70.4142 76.7758 70.3934 76.7766ZM69.899 63.2467C69.9201 63.2466 69.9407 63.2526 69.9584 63.264C69.971 63.2736 69.9814 63.2859 69.9886 63.3C69.9959 63.3141 69.9999 63.3297 70.0004 63.3456L70.4824 76.2353L75.1958 65.9532C75.2066 65.9302 75.2252 65.9119 75.2484 65.9015C75.2715 65.891 75.2976 65.8892 75.3219 65.8963L84.8947 68.8895L75.7915 58.5382C75.7771 58.5199 75.7692 58.4972 75.7692 58.4739C75.7692 58.4506 75.7771 58.428 75.7915 58.4096L80.1861 52.1959L72.3534 56.7561C72.3402 56.7635 72.3253 56.7673 72.3102 56.7673C72.295 56.7673 72.2801 56.7635 72.2669 56.7561C72.2528 56.7515 72.24 56.7437 72.2293 56.7335C72.2186 56.7232 72.2103 56.7107 72.2051 56.6968C71.5699 54.979 70.643 52.5197 70.2822 51.6496C70.0795 52.6729 69.16 55.1297 69.0463 55.4486C69.0418 55.4621 69.0344 55.4744 69.0245 55.4846C69.0147 55.4949 69.0027 55.5028 68.9895 55.5079C68.9762 55.5135 68.9619 55.5163 68.9475 55.5163C68.933 55.5163 68.9187 55.5135 68.9054 55.5079L63.6062 52.8879L68.7967 60.2337C68.8094 60.2514 68.8162 60.2726 68.8162 60.2943C68.8162 60.316 68.8094 60.3372 68.7967 60.3549L65.6156 64.5962L69.8546 63.2467C69.8682 63.2422 69.8829 63.2422 69.8966 63.2467H69.899Z" fill="#4F5E6D"/>
<path d="M72.0767 91.2363H72.0421C72.0161 91.2268 71.9949 91.2075 71.9829 91.1826C71.9709 91.1577 71.969 91.1291 71.9778 91.1028L72.5191 89.5358L71.1028 84.2662C71.0967 84.2461 71.0967 84.2246 71.1028 84.2044L72.6575 79.8147L70.3119 76.7375C70.2957 76.7153 70.2888 76.6878 70.2925 76.6606C70.2962 76.6334 70.3102 76.6087 70.3317 76.5917C70.3425 76.5834 70.3549 76.5773 70.3682 76.5738C70.3814 76.5703 70.3952 76.5694 70.4087 76.5713C70.4223 76.5731 70.4353 76.5776 70.4471 76.5845C70.4589 76.5914 70.4693 76.6005 70.4775 76.6114L72.8602 79.7282C72.871 79.742 72.8781 79.7584 72.8807 79.7757C72.8833 79.793 72.8813 79.8107 72.875 79.8271L71.3154 84.239L72.7292 89.5086C72.7354 89.5279 72.7354 89.5487 72.7292 89.5679L72.1805 91.1671C72.1727 91.1881 72.1585 91.2061 72.1398 91.2185C72.1212 91.231 72.0991 91.2372 72.0767 91.2363Z" fill="#4F5E6D"/>
<path d="M70.2156 51.4073C70.1905 51.4075 70.1661 51.3986 70.147 51.3823C70.1279 51.3659 70.1154 51.3432 70.1118 51.3183L69.5557 46.852C69.552 46.8259 69.5584 46.7993 69.5735 46.7778C69.5887 46.7562 69.6115 46.7412 69.6373 46.7358L73.6834 45.893L73.8663 40.1562C73.8652 40.148 73.8652 40.1397 73.8663 40.1315L74.5238 37.7216C74.5318 37.6954 74.5497 37.6733 74.5736 37.6599C74.5976 37.6466 74.6258 37.643 74.6523 37.6499C74.6783 37.6574 74.7004 37.6748 74.7138 37.6984C74.7272 37.7219 74.7308 37.7498 74.724 37.776L74.069 40.1735L73.8836 45.9819C73.8826 46.0051 73.8741 46.0272 73.8594 46.0451C73.8447 46.0629 73.8245 46.0755 73.802 46.0808L69.7683 46.9212L70.312 51.2911C70.3156 51.3183 70.3082 51.3458 70.2915 51.3675C70.2748 51.3893 70.2502 51.4036 70.2231 51.4073H70.2156Z" fill="#4F5E6D"/>
<path d="M80.5445 51.9681C80.5235 51.9683 80.503 51.962 80.4857 51.9501C80.4684 51.9381 80.4553 51.9211 80.4481 51.9014L77.8949 45.3391C77.8876 45.3206 77.8858 45.3004 77.8897 45.2808C77.8936 45.2613 77.903 45.2434 77.9168 45.229C77.9306 45.2147 77.9482 45.2047 77.9675 45.2001C77.9869 45.1955 78.0071 45.1965 78.0259 45.2031L82.0473 46.5922L84.9812 45.4528C84.9938 45.4476 85.0073 45.4451 85.021 45.4453C85.0346 45.4455 85.0481 45.4485 85.0605 45.454C85.073 45.4596 85.0842 45.4676 85.0935 45.4775C85.1028 45.4875 85.11 45.4993 85.1147 45.5121C85.1243 45.5377 85.1235 45.566 85.1124 45.591C85.1013 45.616 85.0808 45.6356 85.0553 45.6456L82.0893 46.7998C82.0662 46.8086 82.0407 46.8086 82.0176 46.7998L78.1717 45.4725L80.6434 51.8272C80.6531 51.8528 80.6523 51.8811 80.6412 51.9061C80.6301 51.9311 80.6096 51.9507 80.5841 51.9607C80.5715 51.9658 80.5581 51.9684 80.5445 51.9681Z" fill="#4F5E6D"/>
<path d="M63.2753 52.7317L60.0621 52.3881C60.0449 52.386 60.0285 52.3797 60.0143 52.3698C60.0001 52.3599 59.9885 52.3467 59.9805 52.3313L57.541 47.425C57.533 47.4102 57.5288 47.3936 57.5288 47.3768C57.5288 47.36 57.533 47.3434 57.541 47.3286L59.6691 43.4951C59.6837 43.4734 59.7059 43.4581 59.7312 43.452C59.7566 43.446 59.7833 43.4497 59.8061 43.4625C59.8288 43.4753 59.8459 43.4962 59.854 43.521C59.862 43.5458 59.8604 43.5727 59.8495 43.5964L57.7486 47.3805L60.1363 52.1879L63.3025 52.5265C63.3296 52.5296 63.3544 52.5433 63.3715 52.5646C63.3887 52.5859 63.3967 52.6131 63.3939 52.6402C63.3924 52.6541 63.3881 52.6676 63.3813 52.6798C63.3744 52.692 63.3652 52.7027 63.3541 52.7112C63.343 52.7198 63.3303 52.726 63.3168 52.7295C63.3032 52.733 63.2891 52.7338 63.2753 52.7317Z" fill="#4F5E6D"/>
<path d="M73.7995 91.5614C72.9333 91.5608 72.0876 91.2985 71.3731 90.809C70.6586 90.3194 70.1087 89.6254 69.7954 88.8179L54.6243 49.8026C54.4201 49.2777 54.3213 48.7178 54.3335 48.1548C54.3458 47.5917 54.4688 47.0366 54.6955 46.5211C54.9223 46.0056 55.2484 45.5398 55.6551 45.1504C56.0619 44.7609 56.5414 44.4554 57.0663 44.2512L77.1956 36.4185C78.2557 36.0082 79.4352 36.0348 80.4758 36.4925C81.5163 36.9503 82.333 37.8018 82.7469 38.8605L97.9205 77.8931C98.125 78.4181 98.2239 78.9782 98.2117 79.5415C98.1994 80.1047 98.0763 80.66 97.8492 81.1756C97.6222 81.6912 97.2957 82.157 96.8885 82.5463C96.4813 82.9356 96.0013 83.2408 95.476 83.4445L75.3492 91.2698C74.8552 91.4624 74.3297 91.5613 73.7995 91.5614ZM78.7428 36.7398C78.2881 36.7388 77.8371 36.8226 77.4131 36.987L57.2863 44.8222C56.8353 44.9968 56.4232 45.2587 56.0736 45.593C55.724 45.9272 55.4438 46.3271 55.2491 46.7698C55.0544 47.2125 54.949 47.6893 54.9389 48.1728C54.9288 48.6563 55.0142 49.1371 55.1903 49.5875L70.3614 88.6078C70.7158 89.518 71.417 90.2503 72.311 90.6438C73.205 91.0373 74.2187 91.0597 75.1292 90.7063L95.2561 82.8859C95.7069 82.7109 96.1188 82.4489 96.4683 82.1146C96.8177 81.7804 97.0979 81.3806 97.2928 80.9381C97.4877 80.4955 97.5935 80.0189 97.604 79.5354C97.6146 79.052 97.5298 78.5712 97.3545 78.1205L82.176 39.0879C81.9066 38.3969 81.4351 37.8032 80.8231 37.3843C80.211 36.9655 79.4869 36.7408 78.7453 36.7398H78.7428Z" fill="#2C353D"/>
<path d="M128.456 151.559C128.733 152.601 129.135 153.605 129.655 154.55C133.325 161.426 149.804 164.615 156.72 156.732C157.414 155.905 157.974 154.974 158.381 153.974C160.358 149.409 160.057 143.766 157.046 139.814C155.363 137.607 152.884 135.894 152.019 133.259C151.191 130.735 152.019 127.821 150.845 125.434C150.373 124.534 149.649 123.791 148.762 123.295C147.875 122.8 146.863 122.573 145.849 122.643C144.86 122.412 143.824 122.474 142.868 122.821C141.913 123.168 141.079 123.786 140.469 124.598C138.929 126.758 139.28 129.776 138.059 132.132C136.781 134.604 134.06 135.889 132.045 137.797C128.439 141.218 127.248 146.73 128.456 151.559Z" fill="#9DDDF4"/>
<path d="M128.511 151.438C128.787 152.48 129.19 153.484 129.71 154.429C130.896 156.653 133.417 158.482 136.517 159.686C135.38 158.876 134.433 157.828 133.741 156.616C133.221 155.672 132.819 154.667 132.542 153.625C131.334 148.806 132.525 143.281 136.131 139.863C138.146 137.955 140.867 136.65 142.145 134.198C143.366 131.84 143.012 128.825 144.555 126.662C145.165 125.849 145.999 125.232 146.954 124.885C147.91 124.538 148.946 124.477 149.935 124.709C150.134 124.698 150.333 124.698 150.531 124.709C150.006 123.986 149.307 123.407 148.498 123.027C147.688 122.647 146.796 122.478 145.904 122.537C144.914 122.305 143.879 122.366 142.923 122.712C141.968 123.059 141.134 123.677 140.523 124.489C138.981 126.652 139.334 129.667 138.113 132.025C136.836 134.497 134.114 135.782 132.1 137.691C128.494 141.094 127.302 146.618 128.511 151.438Z" fill="#92CFE0"/>
<path d="M146.574 138.512C146.5 139.367 146.383 140.312 145.738 140.878C145.658 140.961 145.561 141.026 145.454 141.068C145.346 141.111 145.231 141.13 145.115 141.125C144.641 141.063 144.488 140.462 144.446 139.985C144.235 137.599 144.023 135.215 143.81 132.832C143.763 132.289 143.749 131.656 144.159 131.295C144.409 131.112 144.707 131.004 145.017 130.983C145.632 130.897 146.304 130.875 146.821 131.231C147.562 131.725 146.982 133.744 146.917 134.508C146.802 135.835 146.687 137.169 146.574 138.512Z" fill="#7C7C7B"/>
<path d="M146.63 138.435C146.294 138.025 145.857 137.565 145.335 137.659C144.959 137.723 144.7 138.057 144.482 138.368C143.06 140.403 141.819 142.559 140.775 144.812H141.044C141.957 143.037 143.049 141.361 144.304 139.809C144.581 139.468 144.9 139.112 145.333 139.031C145.802 138.944 146.26 139.211 146.643 139.495C148.148 140.605 149.488 142.708 151.287 143.321C150.773 142.548 149.861 141.935 149.208 141.275C148.3 140.37 147.441 139.424 146.63 138.435Z" fill="#7C7C7B"/>
<path d="M152.496 140.93C152.599 141.473 152.777 141.992 152.908 142.529C153.017 142.981 153.593 144.321 152.629 144.259C151.887 144.219 150.189 141.817 150.748 141.155H150.407C151.045 141.896 151.514 143.364 151.336 144.368C151.035 146.078 149.749 145.957 148.936 145.156C148.689 144.909 147.688 143.7 148.051 143.268L147.557 143.204C147.789 143.687 147.905 144.217 147.896 144.753C147.904 144.937 147.88 145.12 147.824 145.295C147.804 145.853 147.439 146.166 146.729 146.234C146.418 145.942 145.946 146.422 146.262 146.698C146.897 147.25 147.651 147.057 148.101 146.372C148.781 145.342 148.561 143.948 148.101 142.892C148.077 142.85 148.044 142.814 148.004 142.786C147.964 142.759 147.918 142.742 147.869 142.736C147.821 142.73 147.772 142.735 147.727 142.752C147.681 142.768 147.64 142.795 147.607 142.83C146.939 143.634 147.649 144.538 148.21 145.23C148.771 145.922 149.651 146.521 150.577 146.261C152.79 145.641 151.801 141.992 150.741 140.808C150.695 140.765 150.634 140.74 150.57 140.74C150.507 140.74 150.446 140.765 150.4 140.808C149.45 141.965 151.467 144.343 152.624 144.612C154.389 145.025 152.817 141.461 152.503 140.905H152.491L152.496 140.93Z" fill="#7C7C7B"/>
<path d="M138.047 132.043C140.118 132.679 142.535 132.785 144.75 133.059H144.853L145.237 133.109V133.074C147.461 133.166 149.869 133.44 152.014 133.146C153.363 132.958 152.906 132.473 152.652 131.344C152.397 130.214 152.392 129.001 152.392 127.832C152.392 125.914 152.392 123.995 152.392 122.075C152.431 121.379 152.354 120.68 152.165 120.009C151.717 118.714 150.454 117.836 149.129 117.488C148.954 117.441 148.779 117.406 148.603 117.374C148.563 117.077 148.502 116.771 148.44 116.46C148.404 116.138 148.271 115.836 148.059 115.592C147.81 115.391 147.509 115.265 147.192 115.226C146.408 115.061 145.595 114.907 144.807 115.068C144.582 115.101 144.371 115.196 144.198 115.342C144.01 115.56 143.891 115.83 143.857 116.116C143.796 116.415 143.741 116.714 143.697 117.018C143.598 117.018 143.499 117.018 143.4 117.038C142.036 117.171 140.647 117.834 139.999 119.04C139.705 119.673 139.517 120.35 139.443 121.044L138.524 126.729C138.336 127.884 138.143 129.063 137.705 130.153C137.268 131.243 136.744 131.653 138.047 132.043Z" fill="#8E8D8B"/>
<path d="M138.046 132.043C138.772 132.257 139.511 132.422 140.258 132.537C140.162 132.282 140.118 132.01 140.132 131.738C140.145 131.466 140.214 131.199 140.335 130.955C140.508 130.644 140.787 130.404 140.948 130.088C141.116 129.688 141.178 129.253 141.131 128.822C141.087 127.485 140.926 126.15 140.983 124.813C141.04 123.476 141.339 122.094 142.117 121.019C142.896 119.944 144.057 119.232 145.286 118.765C147.112 118.068 149.174 117.88 151.035 118.451C150.475 118.003 149.826 117.679 149.132 117.499C148.956 117.452 148.781 117.418 148.605 117.386C148.566 117.089 148.504 116.783 148.442 116.471C148.406 116.15 148.273 115.848 148.062 115.604C147.812 115.403 147.512 115.276 147.194 115.238C146.41 115.072 145.597 114.919 144.809 115.08C144.584 115.112 144.374 115.207 144.201 115.354C144.012 115.572 143.893 115.841 143.86 116.128C143.798 116.427 143.744 116.726 143.699 117.03C143.6 117.03 143.501 117.03 143.402 117.05C142.038 117.183 140.649 117.845 140.001 119.052C139.707 119.685 139.519 120.362 139.445 121.056L138.526 126.741C138.338 127.895 138.145 129.074 137.708 130.164C137.27 131.254 136.744 131.652 138.046 132.043Z" fill="#7C7C7B"/>
<path d="M143.813 146.062C143.385 146.351 142.537 146.87 141.979 146.761C141.259 146.62 140.743 146.02 140.955 145.306C141 145.155 141.895 143.983 142.087 144.317C142.152 144.428 141.556 145.058 141.497 145.105C141.236 145.33 140.918 145.479 140.578 145.534C140.238 145.589 139.889 145.548 139.571 145.417C138.543 144.977 138.498 143.415 138.709 142.54C138.84 142.001 139.084 141.274 139.504 140.889C139.598 140.599 139.769 140.543 140.019 140.721C140.382 140.721 140.434 140.819 140.177 141.03C139.979 141.451 139.649 141.415 139.188 140.921C138.595 140.955 138.302 140.748 138.308 140.298C137.881 139.045 138.879 137.51 139.766 136.741C140.051 136.494 139.626 136.059 139.351 136.326C138.194 137.446 136.758 140.58 138.756 141.665C140.051 142.369 141.558 140.226 140.342 139.949C139.601 139.781 138.998 140.938 138.748 141.432C138.271 142.386 138.007 143.627 138.479 144.646C139.445 146.749 141.675 145.832 142.433 144.151C142.468 144.075 142.433 143.961 142.327 143.968C141.2 144.042 140.157 145.355 140.787 146.47C141.457 147.656 143.155 146.835 143.919 146.222C144 146.158 143.894 146.02 143.81 146.079L143.813 146.062Z" fill="#7C7C7B"/>
<path d="M140.246 155.771L147.414 156.243C145.693 155.317 143.945 154.441 142.169 153.616C142.869 151.944 143.695 150.327 144.641 148.781C143.5 149.894 142.256 150.895 140.926 151.772C140.687 150.209 140.335 148.665 139.873 147.152C139.408 148.625 138.944 150.099 138.481 151.572L132.126 147.288L136.603 152.167C135.454 152.687 134.239 153.042 132.992 153.223L137.235 153.935C136.638 154.624 135.894 155.17 135.058 155.534L137.712 155.227C137.873 155.208 138.207 158.156 138.627 158.305C139.361 158.564 140.031 156.241 140.246 155.771Z" fill="#C4E8F2"/>
<path d="M133.237 35.5414L136.522 36.588C136.866 36.6975 137.152 36.9389 137.317 37.2592C137.483 37.5795 137.514 37.9524 137.405 38.2959L136.713 40.4673L130.825 38.5917L131.517 36.4203C131.572 36.2492 131.659 36.0906 131.776 35.9537C131.892 35.8167 132.034 35.7041 132.194 35.6224C132.354 35.5407 132.528 35.4915 132.707 35.4776C132.886 35.4637 133.066 35.4854 133.237 35.5414Z" fill="#8E8D8B"/>
<path d="M127.965 76.8404L116.942 73.3281C116.626 73.2275 116.333 73.0657 116.079 72.8519C115.826 72.6381 115.617 72.3765 115.465 72.082C115.313 71.7875 115.22 71.466 115.193 71.1356C115.165 70.8053 115.202 70.4728 115.303 70.157L125.437 38.3268C125.537 38.0102 125.699 37.7166 125.913 37.4628C126.127 37.209 126.389 37.0001 126.684 36.848C126.98 36.6959 127.302 36.6037 127.633 36.5767C127.964 36.5497 128.297 36.5884 128.613 36.6905L139.639 40.2003C139.955 40.3009 140.248 40.4627 140.501 40.6765C140.754 40.8904 140.963 41.1521 141.115 41.4466C141.267 41.7411 141.359 42.0628 141.387 42.393C141.414 42.7233 141.376 43.0558 141.275 43.3715L131.141 75.2016C131.04 75.5179 130.878 75.8111 130.664 76.0647C130.45 76.3182 130.188 76.527 129.893 76.6792C129.598 76.8314 129.276 76.924 128.945 76.9516C128.614 76.9793 128.281 76.9415 127.965 76.8404Z" fill="#8E8D8B"/>
<path d="M139.982 40.3184C140.17 40.8209 140.183 41.3721 140.019 41.8829L129.814 73.943C129.62 74.5501 129.193 75.0554 128.626 75.3478C128.06 75.6403 127.401 75.6959 126.794 75.5026L115.54 71.9187C115.461 71.8915 115.382 71.8618 115.305 71.8297C115.432 72.172 115.635 72.4809 115.899 72.7332C116.162 72.9854 116.48 73.1743 116.828 73.2855L128.081 76.8694C128.689 77.0627 129.348 77.0067 129.915 76.7137C130.481 76.4208 130.908 75.9149 131.102 75.3073L141.312 43.2498C141.492 42.6832 141.456 42.0699 141.211 41.5284C140.965 40.987 140.527 40.5558 139.982 40.3184Z" fill="#7C7C7B"/>
<path d="M140.768 44.9579L124.935 39.9141L116.281 67.0797L132.114 72.1235L140.768 44.9579Z" fill="#EA381B"/>
<path d="M126.408 54.8579C127.449 55.2225 128.461 55.6645 129.436 56.1802C127.655 58.3866 125.97 60.6688 124.381 63.0267C127.046 60.6045 129.713 58.1798 132.563 55.9775L129.503 54.7219L134.57 50.8859C133.334 50.5745 130.902 49.7168 130.902 49.7168C130.902 49.7168 128.984 51.9537 128.343 52.6828C128.143 52.9003 126.589 54.9172 126.408 54.8579Z" fill="white"/>
<path opacity="0.37" d="M125.32 44.5173C124.402 48.9345 123.02 53.2426 121.198 57.37C120.953 57.829 120.809 58.3343 120.772 58.853C120.772 59.3695 121.076 59.9257 121.578 60.0517C121.809 60.0875 122.044 60.0562 122.257 59.9615C122.47 59.8668 122.652 59.7128 122.779 59.5179C123.024 59.1235 123.192 58.6866 123.274 58.2301C124.544 53.2371 126.368 48.4014 128.711 43.8129C129.109 43.0417 129.53 42.231 129.505 41.361C129.475 40.3402 128.022 38.5952 126.929 39.4306C125.76 40.3501 125.605 43.1554 125.32 44.5173Z" fill="white"/>
<path opacity="0.37" d="M119.996 62.2961C119.663 62.6676 119.432 63.1188 119.324 63.606C119.166 64.1865 119.078 64.7841 119.062 65.3856C119.041 65.6435 119.075 65.9029 119.161 66.1469C119.204 66.2697 119.277 66.3796 119.374 66.4661C119.47 66.5527 119.588 66.6129 119.715 66.6413C119.868 66.6473 120.022 66.6179 120.162 66.5553C120.303 66.4927 120.427 66.3987 120.525 66.2804C121.089 65.682 121.511 64.965 121.761 64.1819C121.918 63.8238 121.994 63.4357 121.984 63.045C121.892 61.9278 120.785 61.5125 119.996 62.2961Z" fill="white"/>
<path d="M140.765 44.9571L139.201 44.459L130.547 71.6246L132.111 72.1227L140.765 44.9571Z" fill="#D82C1A"/>
<path d="M104.589 22.9272L110.749 31.863C111.491 32.9397 112.966 33.2108 114.042 32.4686L139.846 14.6809C140.923 13.9387 141.194 12.4642 140.452 11.3875L134.292 2.45177C133.55 1.37507 132.075 1.10391 130.999 1.84613L105.195 19.6338C104.118 20.376 103.847 21.8505 104.589 22.9272Z" fill="#8E8D8B"/>
<path d="M104.39 22.6389C104.54 22.1581 104.846 21.7412 105.26 21.455L131.25 3.53782C131.493 3.36965 131.768 3.25114 132.057 3.18906C132.346 3.12699 132.645 3.12257 132.936 3.17605C133.227 3.22954 133.505 3.33989 133.753 3.50078C134.002 3.66167 134.216 3.86996 134.384 4.11372L140.674 13.2367C140.719 13.301 140.761 13.3678 140.798 13.4369C140.901 13.1105 140.928 12.7649 140.877 12.4264C140.826 12.088 140.699 11.7657 140.504 11.4842L134.216 2.36131C133.877 1.87024 133.356 1.53382 132.769 1.42586C132.182 1.31789 131.576 1.4472 131.084 1.78541L105.085 19.7025C104.627 20.0203 104.304 20.4958 104.175 21.0378C104.047 21.5797 104.124 22.1499 104.39 22.6389Z" fill="#7C7C7B"/>
<path d="M106.209 30.2354L104.364 27.5824C104.172 27.305 104.097 26.9624 104.157 26.63C104.216 26.2975 104.406 26.0024 104.683 25.8096L106.436 24.591L109.735 29.3356L107.981 30.5543C107.704 30.7471 107.361 30.8218 107.029 30.762C106.696 30.7022 106.401 30.5128 106.209 30.2354Z" fill="#8E8D8B"/>
<path d="M106.479 18.7492L115.326 31.584L137.349 16.4028L128.502 3.56794L106.479 18.7492Z" fill="#F98715"/>
<path d="M122.81 19.6517C122.249 18.7832 121.753 17.8744 121.327 16.9329C123.917 16.3166 126.478 15.5916 129.011 14.7578C125.642 15.0248 122.271 15.2917 118.892 15.2867C119.409 16.1848 119.925 17.0812 120.439 17.9759L114.48 17.9117C115.221 18.8534 116.529 20.8777 116.529 20.8777C116.529 20.8777 119.233 20.3215 120.123 20.1535C120.397 20.1189 122.708 19.5059 122.81 19.6517Z" fill="white"/>
<path opacity="0.37" d="M117.678 27.9464C120.898 25.1967 124.398 22.7942 128.121 20.7786C128.566 20.5782 128.964 20.2859 129.288 19.9209C129.582 19.5353 129.681 18.952 129.379 18.5689C129.229 18.4101 129.036 18.2979 128.824 18.2458C128.612 18.1936 128.389 18.2037 128.183 18.2748C127.773 18.4247 127.396 18.6512 127.071 18.9421C123.258 21.9157 119.126 24.4534 114.749 26.5079C114.008 26.8539 113.234 27.2148 112.752 27.8723C112.189 28.6484 112.258 30.7789 113.555 30.7839C114.957 30.7864 116.685 28.7942 117.678 27.9464Z" fill="white"/>
<path opacity="0.37" d="M131.838 17.8141C132.299 17.7309 132.73 17.529 133.089 17.2283C133.541 16.8899 133.949 16.4972 134.305 16.0592C134.468 15.8799 134.593 15.6686 134.671 15.4388C134.708 15.3233 134.715 15.2002 134.692 15.081C134.67 14.9618 134.617 14.8503 134.54 14.7567C134.429 14.6643 134.299 14.5985 134.159 14.5642C134.018 14.53 133.872 14.5281 133.732 14.5589C132.969 14.6791 132.243 14.9679 131.606 15.4042C131.286 15.5805 131.007 15.8242 130.79 16.1185C130.222 16.9985 130.805 17.9426 131.838 17.8141Z" fill="white"/>
<path d="M106.476 18.7478L107.35 20.0156L129.372 4.83439L128.499 3.56659L106.476 18.7478Z" fill="#F76C0D"/>
<path d="M112.296 181.262C112.256 181.262 112.216 181.253 112.18 181.234C112.145 181.216 112.114 181.189 112.091 181.156C111.922 180.896 111.826 180.595 111.816 180.284C111.805 179.974 111.879 179.667 112.029 179.396C112.101 179.257 112.198 179.133 112.316 179.03C112.63 178.817 113.009 178.724 113.386 178.766C113.446 178.762 113.505 178.778 113.555 178.81C113.606 178.843 113.644 178.89 113.666 178.946C113.683 178.995 113.686 179.048 113.674 179.099C113.662 179.15 113.636 179.196 113.599 179.233C113.56 179.269 113.51 179.293 113.458 179.301C113.405 179.31 113.351 179.302 113.302 179.28L113.27 179.262C113.047 179.243 112.824 179.298 112.635 179.418C112.566 179.48 112.51 179.555 112.469 179.638C112.361 179.827 112.306 180.042 112.311 180.26C112.316 180.478 112.381 180.69 112.499 180.874C112.518 180.901 112.532 180.931 112.54 180.963C112.547 180.995 112.548 181.028 112.543 181.061C112.537 181.093 112.525 181.124 112.507 181.152C112.49 181.18 112.467 181.204 112.44 181.222C112.397 181.25 112.347 181.264 112.296 181.262Z" fill="#ED1C24"/>
<path d="M110.568 180.919C110.523 180.919 110.477 180.91 110.435 180.892C110.379 180.871 110.332 180.83 110.304 180.777C110.276 180.723 110.268 180.662 110.282 180.603C110.296 180.545 110.33 180.493 110.38 180.459C110.429 180.424 110.489 180.408 110.549 180.415C110.891 180.161 111.137 179.8 111.248 179.389C111.359 178.975 111.423 178.55 111.438 178.121C111.419 178.083 111.408 178.041 111.408 177.998C111.408 177.955 111.419 177.912 111.438 177.874C111.463 177.819 111.508 177.774 111.564 177.75C111.619 177.725 111.682 177.722 111.74 177.741C111.804 177.76 111.86 177.802 111.897 177.858C111.934 177.915 111.95 177.982 111.943 178.05C111.926 178.55 111.853 179.048 111.725 179.533C111.581 180.056 111.262 180.514 110.821 180.83C110.747 180.884 110.659 180.915 110.568 180.919Z" fill="#ED1C24"/>
<path d="M87.6241 183.495C87.0634 183.513 86.505 183.416 85.9831 183.21C85.4612 183.004 84.9868 182.694 84.5889 182.299L85.7827 181.145C86.6527 182.044 88.2296 181.978 89.3345 181.446C90.6197 180.831 91.6504 179.659 92.649 178.527L92.691 178.478C93.6426 177.395 94.9452 175.917 96.6753 175.183C98.5192 174.399 100.791 174.476 103.07 175.4C103.811 175.704 104.896 176.226 105.568 177.225C105.835 177.647 106.049 178.1 106.206 178.574C106.305 178.866 106.427 179.149 106.569 179.422C106.785 179.748 107.066 180.025 107.395 180.236C107.725 180.446 108.094 180.585 108.481 180.643C108.867 180.702 109.262 180.678 109.638 180.574C110.015 180.47 110.366 180.288 110.667 180.04L111.814 181.241C111.328 181.663 110.756 181.975 110.138 182.154C109.52 182.334 108.87 182.377 108.233 182.281C107.597 182.185 106.988 181.952 106.451 181.598C105.913 181.244 105.458 180.777 105.119 180.23C104.934 179.885 104.776 179.525 104.649 179.155C104.535 178.804 104.382 178.467 104.192 178.151C103.873 177.679 103.319 177.294 102.444 176.94C101.364 176.503 99.2607 175.89 97.3229 176.71C96.0475 177.254 95.0341 178.329 93.9367 179.575L93.8947 179.625C92.7874 180.88 91.643 182.18 90.0562 182.944C89.2959 183.304 88.4654 183.492 87.6241 183.495Z" fill="#14181C"/>
<path d="M82.3521 117.249L73.3874 113C73.3874 113 71.5954 117.793 71.452 121.367C71.3087 124.941 72.1466 130.816 72.1466 130.816L81.3239 122.563L82.3521 117.249Z" fill="#2D353F"/>
<path d="M81.6922 122.56L82.6808 117.426L76.9317 114.707C76.9317 114.707 75.1398 119.5 74.9939 123.074C74.961 124.846 75.0353 126.619 75.2164 128.383L81.6922 122.56Z" fill="#14181C"/>
<path d="M109.961 132.052C110.808 132.484 111.669 132.927 112.358 133.584C113.666 134.832 114.187 136.731 114.153 138.54C114.118 140.349 113.582 142.104 113.055 143.834C112.215 146.586 111.375 149.337 110.537 152.087C109.432 155.708 108.312 159.361 106.463 162.666C106.11 163.294 105.707 163.934 105.079 164.29C104.451 164.646 103.542 164.599 103.129 164.008C102.716 163.417 102.944 162.656 103.171 161.996C104.222 158.939 105.272 155.881 106.32 152.821C106.935 151.027 107.556 149.203 107.635 147.309C107.714 145.416 107.761 142.309 106.367 141.024C105.195 139.949 103.522 139.363 102.036 138.799C100.551 138.236 98.502 138.646 97.8742 137.188C97.3156 135.893 97.6023 134.407 97.9607 133.045C98.455 131.145 99.6587 127.65 102.219 128.203C103.322 128.45 104.429 129.227 105.418 129.733L109.961 132.052Z" fill="#2D353F"/>
<path d="M105.892 138.387C104.723 137.311 103.05 136.726 101.564 136.162C100.207 135.646 98.3781 135.945 97.5945 134.887C97.4886 135.663 97.5848 136.453 97.8738 137.18C98.5016 138.639 100.551 138.228 102.036 138.792C103.522 139.355 105.195 139.944 106.366 141.016C106.729 141.372 107.003 141.807 107.167 142.287C107.086 140.772 106.784 139.22 105.892 138.387Z" fill="#14181C"/>
<path d="M110.536 152.071C111.374 149.321 112.213 146.57 113.055 143.818C113.582 142.088 114.115 140.331 114.153 138.524C114.18 137.534 114.02 136.548 113.68 135.617C113.68 135.709 113.68 135.8 113.68 135.894C113.643 137.701 113.112 139.458 112.585 141.188L110.064 149.441C108.96 153.062 107.84 156.715 105.991 160.02C105.64 160.648 105.235 161.288 104.609 161.644C104.403 161.76 104.175 161.832 103.939 161.856C103.704 161.881 103.466 161.856 103.24 161.785L103.173 161.98C102.946 162.64 102.733 163.419 103.131 163.992C103.529 164.565 104.454 164.627 105.081 164.274C105.709 163.92 106.112 163.285 106.466 162.65C108.312 159.353 109.432 155.7 110.536 152.071Z" fill="#14181C"/>
<path d="M97.8322 159.284C100.465 152.506 106.958 130.425 106.958 130.425L94.6561 123.838L82.3521 117.248C82.3521 117.248 67.5715 134.888 63.387 140.835C59.2025 146.782 52.7959 160.609 52.7959 160.609L70.0185 169.833L87.2411 179.057C87.2411 179.057 95.2023 166.064 97.8322 159.284Z" fill="#2D353F"/>
<path d="M97.8914 159.317C100.521 152.538 107.014 130.458 107.014 130.458L101.634 127.576C101.634 127.576 95.1404 149.656 92.5081 156.435C89.8758 163.215 81.917 176.209 81.917 176.209L87.3003 179.093C87.3003 179.093 95.2591 166.095 97.8914 159.317Z" fill="#14181C"/>
<path d="M86.0816 187.293C86.6316 186.194 87.0465 185.032 87.3175 183.833C87.7723 181.816 87.2408 179.07 87.2408 179.07L70.0182 169.845L52.8055 160.611C52.8055 160.611 50.2251 161.691 48.799 163.187C47.9474 164.078 47.2071 165.069 46.5942 166.138L45.7415 165.681L45 167.087L86.0544 189.085L86.7959 187.679L86.0816 187.293Z" fill="#72716F"/>
<path d="M86.0053 187.254C86.5547 186.155 86.9696 184.993 87.2411 183.794C87.6984 181.777 87.167 179.031 87.167 179.031L69.9419 169.807L78.6224 174.456C78.6224 174.456 79.1538 177.202 78.699 179.216C78.4286 180.419 78.0136 181.585 77.4632 182.689L78.1651 183.065L77.4236 184.469L85.9657 189.044L86.7196 187.64L86.0053 187.254Z" fill="#686766"/>
<path d="M82.3516 117.248C82.3516 117.248 88.5728 116.798 95.837 120.689C104.3 125.222 106.96 130.425 106.96 130.425L82.3516 117.248Z" fill="#14181C"/>
<path d="M67.5095 164.819C67.1937 164.65 66.9145 164.421 66.6877 164.144C66.4609 163.867 66.2911 163.548 66.1879 163.205C66.0848 162.862 66.0505 162.502 66.0868 162.146C66.1231 161.79 66.2295 161.444 66.3997 161.129L81.3434 133.214C81.5116 132.898 81.7407 132.618 82.0175 132.39C82.2943 132.163 82.6133 131.992 82.9562 131.888C83.2992 131.784 83.6592 131.749 84.0158 131.785C84.3723 131.821 84.7182 131.927 85.0336 132.097C85.35 132.265 85.63 132.494 85.8575 132.771C86.0851 133.048 86.2556 133.367 86.3595 133.71C86.4633 134.053 86.4983 134.413 86.4625 134.769C86.4267 135.126 86.3208 135.472 86.1508 135.787L71.1997 163.702C71.0315 164.018 70.8024 164.298 70.5256 164.526C70.2488 164.753 69.9298 164.924 69.5869 165.028C69.2439 165.132 68.8839 165.167 68.5273 165.131C68.1708 165.095 67.8249 164.989 67.5095 164.819Z" fill="#6B7287"/>
<path d="M83.2616 134.317L82.8672 134.105L67.4764 162.845L67.8708 163.056L83.2616 134.317Z" fill="#2D353F"/>
<path d="M72.4138 159.539L69.165 157.799L68.9538 158.193L72.2026 159.933L72.4138 159.539Z" fill="#2D353F"/>
<path d="M77.4563 150.128L74.2075 148.389L73.9963 148.783L77.2451 150.523L77.4563 150.128Z" fill="#2D353F"/>
<path d="M83.51 138.82L80.2612 137.08L80.05 137.474L83.2988 139.214L83.51 138.82Z" fill="#2D353F"/>
<path d="M81.4697 118.895L105.188 131.596L103.969 133.87L81.4697 118.895Z" fill="#14181C"/>
<path d="M46.5845 166.139L77.463 182.679L81.0519 181.077L79.4873 179.585L46.5845 166.139Z" fill="#686766"/>
<path opacity="0.17" d="M80.0406 122.852C76.8275 126.651 73.592 130.46 70.8287 134.602C70.5272 135.055 70.2207 135.539 70.2009 136.085C70.1811 136.632 70.5692 137.225 71.113 137.227C71.5183 137.227 71.8545 136.918 72.1264 136.622C75.4087 133.105 77.4998 128.49 81.2987 125.539C82.1687 124.864 83.7086 123.599 82.8237 122.313C82.0328 121.161 80.6956 122.081 80.0406 122.852Z" fill="white"/>
<path opacity="0.17" d="M68.2388 138.658C67.4365 139.526 66.7954 140.531 66.3455 141.624C66.1551 142.086 66.0167 142.662 66.3455 143.043C66.6742 143.423 67.1883 143.389 67.5813 143.171C67.9572 142.923 68.2716 142.592 68.5007 142.205L70.3545 139.538C71.4074 138.015 69.1187 137.699 68.2388 138.658Z" fill="white"/>
<path opacity="0.17" d="M107.123 133.125C107.123 133.319 107.166 133.511 107.249 133.687C107.332 133.862 107.453 134.017 107.603 134.141C107.905 134.384 108.232 134.593 108.579 134.766C109.22 135.102 109.774 135.584 110.195 136.173C110.605 136.804 110.769 137.564 110.658 138.308C110.586 138.589 110.554 138.879 110.564 139.168C110.572 139.313 110.631 139.45 110.729 139.557C110.827 139.664 110.959 139.734 111.102 139.754C111.379 139.754 111.597 139.507 111.745 139.282C112.368 138.373 112.892 137.253 112.58 136.198C112.467 135.859 112.3 135.54 112.086 135.253C111.614 134.566 107.276 130.817 107.123 133.125Z" fill="white"/>
<path d="M113.522 198.017C113.13 197.344 112.676 196.708 112.168 196.117C111.822 195.687 111.466 195.244 111.14 194.77C110.371 193.645 109.565 191.937 110.097 190.19C110.42 189.129 111.167 188.338 111.827 187.639C112.032 187.419 112.227 187.214 112.408 187.001C113.287 185.973 113.614 185.152 113.564 184.075C113.515 182.997 112.788 182.268 111.587 181.131L112.731 179.93C113.913 181.054 115.134 182.216 115.203 184.001C115.29 185.896 114.462 187.127 113.648 188.081C113.443 188.328 113.226 188.553 113.016 188.776C112.432 189.399 111.879 189.987 111.669 190.674C111.31 191.848 112.032 193.146 112.494 193.833C112.781 194.253 113.105 194.651 113.443 195.069C114.016 195.739 114.526 196.46 114.966 197.224L113.522 198.017Z" fill="#14181C"/>
<path d="M115.134 205.597L115.945 205.269L117.14 208.222C117.181 208.323 117.18 208.436 117.138 208.536C117.095 208.636 117.015 208.715 116.914 208.756L116.861 208.777C116.76 208.818 116.647 208.817 116.547 208.775C116.447 208.732 116.368 208.652 116.327 208.551L115.132 205.598L115.134 205.597Z" fill="#72716F"/>
<path d="M119.275 203.923L120.086 203.595L121.282 206.548C121.32 206.648 121.317 206.759 121.274 206.857C121.231 206.955 121.151 207.033 121.052 207.073L120.999 207.094C120.898 207.135 120.785 207.134 120.685 207.092C120.585 207.049 120.506 206.969 120.465 206.868L119.273 203.924L119.275 203.923Z" fill="#72716F"/>
<path d="M120.693 202.284L113.814 205.071C113.58 205.165 113.467 205.432 113.562 205.666L113.584 205.721C113.679 205.955 113.945 206.068 114.18 205.973L121.059 203.187C121.293 203.092 121.406 202.825 121.311 202.591L121.289 202.536C121.194 202.302 120.928 202.189 120.693 202.284Z" fill="#14181C"/>
<path d="M113.869 196.879L114.948 196.442C115.678 196.146 116.494 196.153 117.218 196.459C117.943 196.766 118.516 197.348 118.811 198.077L120.542 202.35L113.969 205.012L112.237 200.735C111.943 200.007 111.95 199.192 112.256 198.469C112.562 197.746 113.142 197.174 113.869 196.879Z" fill="#14181C"/>
<path d="M114.048 200.04C114.085 200.223 114.094 200.424 114.074 200.618C114.054 200.811 114.005 200.988 113.934 201.126C113.864 201.265 113.774 201.358 113.677 201.395C113.58 201.431 113.48 201.41 113.389 201.332C113.298 201.255 113.22 201.125 113.166 200.96C113.112 200.794 113.084 200.601 113.084 200.403C113.085 200.206 113.116 200.013 113.172 199.85C113.227 199.687 113.306 199.56 113.398 199.486C113.459 199.436 113.524 199.411 113.59 199.412C113.655 199.413 113.72 199.44 113.781 199.492C113.841 199.543 113.896 199.618 113.942 199.712C113.988 199.806 114.024 199.918 114.048 200.04Z" fill="#72716F"/>
<path d="M118.01 198.722C118.085 198.814 118.104 198.915 118.064 199.012C118.025 199.109 117.929 199.198 117.788 199.267C117.647 199.337 117.468 199.384 117.274 199.403C117.08 199.422 116.879 199.411 116.696 199.373C116.514 199.334 116.358 199.27 116.249 199.187C116.141 199.104 116.083 199.007 116.084 198.908C116.086 198.809 116.146 198.713 116.257 198.631C116.368 198.549 116.525 198.485 116.709 198.448C116.954 198.399 117.228 198.4 117.472 198.452C117.715 198.503 117.909 198.6 118.01 198.722Z" fill="#72716F"/>
<defs>
<clipPath id="clip0_903_8909">
<rect width="192" height="176" fill="white" transform="translate(231 233)"/>
</clipPath>
<clipPath id="clip1_903_8909">
<rect width="193" height="205" fill="white" transform="translate(-2 204)"/>
</clipPath>
</defs>
</svg>
