<svg width="425" height="417" viewBox="0 0 425 417" fill="none" xmlns="http://www.w3.org/2000/svg">
<path d="M139.622 138.158L137.808 137.648L136.701 141.592L138.515 142.101L139.622 138.158Z" fill="#6D6D6D"/>
<path d="M140.616 140.843L138.131 140.143L135.646 139.445C135.646 139.445 123.991 144.127 123.875 144.094L136.068 147.517L148.259 150.938C148.131 150.907 140.616 140.843 140.616 140.843Z" fill="#B8C2C4"/>
<path d="M147.766 152.159L123.516 145.352L110.253 192.6L134.503 199.407L147.766 152.159Z" fill="#D66E18"/>
<path d="M147.763 152.158L141.601 150.428L128.338 197.676L134.5 199.406L147.763 152.158Z" fill="#C16017"/>
<path d="M147.816 152.471L123.111 145.532C123.01 145.503 122.916 145.456 122.834 145.391C122.752 145.326 122.683 145.246 122.632 145.155C122.581 145.064 122.548 144.963 122.536 144.86C122.523 144.756 122.532 144.651 122.56 144.55C122.588 144.449 122.636 144.355 122.701 144.273C122.765 144.191 122.846 144.123 122.937 144.072C123.028 144.021 123.128 143.988 123.232 143.976C123.336 143.964 123.441 143.972 123.542 144.001L148.257 150.938C148.46 150.996 148.632 151.131 148.735 151.315C148.838 151.499 148.865 151.717 148.808 151.92C148.779 152.022 148.731 152.117 148.666 152.2C148.6 152.282 148.519 152.351 148.427 152.403C148.335 152.454 148.233 152.486 148.128 152.498C148.023 152.51 147.917 152.501 147.816 152.471Z" fill="#999999"/>
<path opacity="0.53" d="M137.238 148.134L123.746 144.347C123.617 144.311 123.483 144.386 123.447 144.515L123.441 144.536C123.405 144.665 123.48 144.799 123.609 144.835L137.101 148.622C137.229 148.659 137.363 148.584 137.399 148.455L137.406 148.433C137.442 148.304 137.367 148.17 137.238 148.134Z" fill="white"/>
<path d="M134.293 201.011L109.58 194.08C109.377 194.023 109.205 193.888 109.102 193.704C108.999 193.52 108.973 193.303 109.029 193.1C109.058 193 109.105 192.905 109.17 192.823C109.235 192.741 109.315 192.672 109.406 192.621C109.497 192.57 109.597 192.537 109.701 192.525C109.805 192.513 109.91 192.521 110.011 192.549L134.726 199.487C134.929 199.544 135.101 199.68 135.204 199.864C135.308 200.048 135.334 200.265 135.277 200.468C135.218 200.67 135.082 200.841 134.897 200.943C134.713 201.045 134.496 201.069 134.293 201.011Z" fill="#999999"/>
<path opacity="0.53" d="M123.717 196.677L110.225 192.89C110.097 192.854 109.963 192.929 109.927 193.057L109.921 193.079C109.884 193.208 109.96 193.342 110.088 193.378L123.58 197.165C123.709 197.202 123.843 197.127 123.879 196.998L123.885 196.976C123.921 196.847 123.846 196.713 123.717 196.677Z" fill="white"/>
<path d="M123.434 145.623L123.229 146.354L147.249 153.979L147.816 152.469L123.434 145.623Z" fill="#C16017"/>
<path opacity="0.53" d="M136.517 139.693L127.714 145.175L132.152 146.368L137.354 139.927L136.517 139.693Z" fill="white"/>
<path d="M140.616 140.842L139.86 140.631L139.611 140.561L142.461 149.314L148.247 150.937L140.616 140.842Z" fill="#ADADAD"/>
<path d="M142.801 132.394L137.837 131L135.836 138.128L140.801 139.521L142.801 132.394Z" fill="#ADADAD"/>
<path d="M139.007 134.982C138.688 136.123 138.021 136.932 137.518 136.792C137.015 136.651 136.87 135.611 137.189 134.472C137.507 133.333 138.176 132.522 138.677 132.662C139.179 132.803 139.328 133.843 139.007 134.982Z" fill="#999999"/>
<path d="M138.953 135.178C138.727 135.977 138.259 136.547 137.918 136.447C137.576 136.348 137.46 135.619 137.686 134.818C137.911 134.016 138.379 133.449 138.732 133.546C139.084 133.643 139.177 134.376 138.953 135.178Z" fill="#6D6D6D"/>
<path d="M142.159 132.217L141.053 131.906L139.052 139.034L140.158 139.345L142.159 132.217Z" fill="#999999"/>
<path d="M132.768 168.081C134.13 163.23 132.593 158.555 129.336 157.641C126.079 156.727 122.335 159.919 120.973 164.77C119.611 169.622 121.147 174.296 124.404 175.21C127.662 176.125 131.406 172.933 132.768 168.081Z" fill="#5BA93A"/>
<path d="M131.583 167.754C130.376 172.056 127.213 174.93 124.519 174.174C121.825 173.418 120.622 169.318 121.827 165.017C123.032 160.716 126.197 157.841 128.891 158.597C131.585 159.353 132.79 163.453 131.583 167.754Z" fill="#93D850"/>
<path opacity="0.19" d="M131.198 147.511L127.659 146.518L114.396 193.766L117.935 194.759L131.198 147.511Z" fill="white"/>
<path d="M108.483 111.877L82.4318 94.799C82.2197 94.6591 82.0717 94.4409 82.02 94.1922C81.9684 93.9434 82.0174 93.6843 82.1563 93.4716C82.2959 93.2591 82.5141 93.1107 82.763 93.0591C83.0119 93.0074 83.2712 93.0567 83.4837 93.1962L109.533 110.272C109.638 110.341 109.729 110.43 109.8 110.534C109.871 110.638 109.921 110.755 109.946 110.878C109.972 111.002 109.973 111.129 109.95 111.253C109.927 111.376 109.879 111.494 109.81 111.6C109.741 111.705 109.652 111.796 109.548 111.867C109.444 111.938 109.327 111.988 109.204 112.013C109.081 112.039 108.954 112.04 108.83 112.017C108.706 111.994 108.588 111.946 108.483 111.877Z" fill="#B8C2C4"/>
<path d="M130.366 77.825L104.924 61.1445L83.0204 94.5528L108.462 111.233L130.366 77.825Z" fill="#B8C2C4"/>
<path d="M140.766 73.3875C147.8 69.2556 151.674 62.7931 149.418 58.9531C147.163 55.1131 139.632 55.3496 132.598 59.4815C125.564 63.6134 121.69 70.0759 123.946 73.9159C126.201 77.7559 133.732 77.5194 140.766 73.3875Z" fill="#B8C2C4"/>
<path d="M124.749 69.5871C124.347 68.4026 123.971 67.2091 123.62 66.0067C123.979 65.5428 124.675 66.8081 125.126 66.4333C125.2 66.3606 125.253 66.2689 125.279 66.1682C125.649 65.1135 126.021 64.0594 126.395 63.0061C126.882 63.4075 127.468 63.6688 128.091 63.7619C128.49 62.4882 128.974 61.2428 129.541 60.0344L131.338 60.7468C132.197 59.6839 132.89 58.4969 133.393 57.2264L135.464 58.9742C136.445 57.8269 137.428 56.6811 138.412 55.5366C138.34 56.1063 138.444 56.6845 138.711 57.1932L142.608 54.9961L142.863 56.7418C143.993 56.265 145.163 55.8908 146.36 55.6236C146.084 56.2048 145.804 56.786 145.519 57.3672C146.823 57.158 148.136 57.0197 149.454 56.953L148.004 58.3239C149.362 58.6692 150.638 59.2763 151.763 60.111C150.855 60.3356 149.984 60.6877 149.174 61.1568C149.955 61.9897 150.577 62.9582 151.009 64.0145L149.707 63.9524C149.65 63.9419 149.592 63.9426 149.536 63.9547C149.48 63.9668 149.427 63.99 149.379 64.0228C149.307 64.1062 149.269 64.2145 149.274 64.3252L148.945 68.1024C148.409 67.5377 147.768 67.0826 147.058 66.7625C147.15 67.4726 147.08 68.1942 146.854 68.8736C146.628 69.553 146.252 70.1728 145.753 70.6868C145.293 70.3993 144.931 69.9771 144.718 69.4774C144.777 70.8398 144.314 72.1734 143.422 73.2049C142.835 72.6672 142.203 72.1821 141.531 71.7553C141.473 73.0212 141.041 74.2414 140.289 75.2612C139.683 74.2603 138.75 73.4995 137.648 73.1076C137.66 74.176 137.527 75.2411 137.253 76.2739C136.416 75.7073 135.527 75.2219 134.598 74.8243C134.64 75.6592 134.587 76.4963 134.443 77.3196L131.796 75.87C131.796 76.5079 131.796 77.1477 131.813 77.7856C131.049 76.7212 129.51 76.7336 128.23 76.4519C125.497 75.8514 124.737 73.7267 122.96 71.9665C122.691 71.7015 121.49 70.9311 121.599 70.4673C121.751 69.8212 124.198 69.6969 124.749 69.5871Z" fill="#B8C2C4"/>
<path d="M131.028 73.9801C129.1 73.9801 127.605 73.3858 126.886 72.1764C126.103 70.8449 126.424 68.9936 127.785 66.9662C129.104 65.001 131.258 63.0814 133.848 61.5593C139.35 58.3267 144.913 57.9271 146.511 60.6461C147.294 61.9776 146.975 63.8289 145.613 65.8563C144.293 67.8215 142.14 69.7412 139.549 71.2632C136.503 73.0565 133.43 73.9781 131.028 73.9801ZM142.401 59.4388C140.106 59.4388 137.097 60.3417 134.148 62.0729C131.632 63.5514 129.547 65.4069 128.276 67.2996C127.048 69.1282 126.735 70.7559 127.395 71.8803C128.804 74.2742 134.119 73.771 139.249 70.7579C141.765 69.2794 143.85 67.4239 145.122 65.5312C146.35 63.7026 146.662 62.0749 146.002 60.9505C145.41 59.9296 144.103 59.4388 142.401 59.4388Z" fill="#9DA2A3"/>
<path d="M131.885 72.693C130.228 72.693 129.017 72.1732 128.445 71.1978C127.108 68.9199 129.665 65.0226 134.266 62.3202C136.431 61.0487 138.71 60.2494 140.686 60.094C142.722 59.9242 144.206 60.444 144.857 61.5581C146.194 63.836 143.637 67.7313 139.036 70.4337C136.87 71.7072 134.592 72.5045 132.616 72.6619C132.363 72.6805 132.121 72.693 131.885 72.693ZM141.411 60.5558C141.189 60.5558 140.957 60.5662 140.717 60.5869C138.818 60.7443 136.613 61.5126 134.505 62.7468C130.216 65.267 127.683 68.9448 128.86 70.9473C129.41 71.8874 130.723 72.3202 132.562 72.169C134.461 72.0096 136.667 71.2434 138.775 70.0071C143.063 67.489 145.596 63.8112 144.42 61.8087C143.948 60.9886 142.891 60.5538 141.417 60.5538L141.411 60.5558Z" fill="#9DA2A3"/>
<path d="M90.6406 99.5632L108.462 111.247L130.15 78.1633L110.477 65.3966C108.967 64.415 107.452 63.4314 105.853 62.5989C105.606 62.4705 104.836 61.9425 104.403 61.9238L104.144 62.3194C104.246 62.6797 104.656 63.1477 104.801 63.3009C105.981 64.5621 107.65 65.5167 108.943 66.6971C110.319 67.9573 111.617 69.2996 112.832 70.7166C114.074 72.1661 115.232 73.6986 115.919 75.467C117.048 78.3662 116.791 81.6982 115.609 84.5787C114.426 87.4592 112.376 89.9214 110.017 91.9633C104.691 96.6081 97.7353 99.1304 90.6406 99.5632Z" fill="#9DA2A3"/>
<path d="M129.926 79.1636L103.884 62.0876C103.778 62.0187 103.687 61.9296 103.616 61.8255C103.545 61.7215 103.496 61.6044 103.47 61.4811C103.445 61.3577 103.444 61.2306 103.467 61.1069C103.491 60.9831 103.539 60.8653 103.608 60.7602C103.677 60.6548 103.766 60.564 103.87 60.493C103.974 60.422 104.091 60.3722 104.214 60.3465C104.338 60.3207 104.465 60.3195 104.588 60.3428C104.712 60.3662 104.83 60.4137 104.936 60.4827L130.984 77.5608C131.09 77.6297 131.181 77.7187 131.252 77.8228C131.323 77.9269 131.372 78.044 131.398 78.1673C131.423 78.2906 131.424 78.4178 131.401 78.5415C131.377 78.6652 131.329 78.783 131.26 78.8882C131.191 78.9945 131.102 79.086 130.997 79.1575C130.892 79.229 130.775 79.279 130.651 79.3046C130.527 79.3303 130.399 79.331 130.274 79.3068C130.15 79.2826 130.032 79.2339 129.926 79.1636Z" fill="#B8C2C4"/>
<path d="M127.839 81.6805L102.397 65L85.5478 90.7L110.99 107.38L127.839 81.6805Z" fill="#F98715"/>
<path d="M115.78 75.3698C116.909 78.2689 116.652 81.6009 115.468 84.4814C114.283 87.3619 112.237 89.8221 109.876 91.8639C106.263 95.0054 101.914 97.1735 97.2837 98.3829L110.854 107.275L127.698 81.5719L114.445 72.8848C114.98 73.6611 115.428 74.4945 115.78 75.3698Z" fill="#D66E18"/>
<path d="M77.6729 216.653C77.5052 217.567 77.4658 218.617 78.0871 219.306C78.351 219.573 78.6621 219.79 79.0045 219.944C80.2936 220.598 81.6842 221.028 83.1171 221.218C83.1761 222.817 83.5571 224.389 84.2374 225.838C86.0726 225.967 87.9163 225.901 89.7376 225.641C89.9971 226.444 90.2553 227.249 90.512 228.053L83.581 227.981C83.3845 227.962 83.1865 227.994 83.0053 228.072C82.6222 228.279 82.5911 228.807 82.6388 229.238C82.8208 230.803 83.4386 232.285 84.4218 233.516L82.3219 235.057C82.1408 235.16 81.9961 235.317 81.9078 235.506C81.8654 235.683 81.8784 235.869 81.945 236.039C82.4379 237.658 84.0159 238.758 85.6725 239.159C87.3292 239.561 89.0418 239.383 90.7274 239.203L101.16 238.089C101.482 238.082 101.798 237.993 102.076 237.83C102.33 237.652 105.279 236.457 105.418 236.173C108.095 230.789 108.025 226.148 108.458 220.155C108.551 218.88 108.518 217.525 107.87 216.428C107.454 215.794 106.935 215.234 106.335 214.771C102.815 211.762 96.0246 203.214 91.7297 201.466C90.4064 200.93 91.7628 206.521 90.8496 205.425C90.6281 205.109 90.3749 204.816 90.0938 204.552C89.6777 204.258 89.1843 204.093 88.6752 204.077C85.4592 203.804 83.6141 206.272 81.7856 208.523C79.8577 210.89 78.2279 213.601 77.6729 216.653Z" fill="#CED5D0"/>
<path d="M107.878 216.426C107.462 215.792 106.944 215.232 106.343 214.769C102.823 211.76 96.0327 203.212 91.7378 201.464C91.2822 201.28 91.1435 201.82 91.1166 202.564C91.2176 202.656 91.3241 202.743 91.4355 202.823C94.1276 204.765 93.2992 208.043 91.8227 210.505C90.1302 213.325 87.7976 215.706 85.0139 217.457C88.8423 215.619 91.9937 212.62 94.0199 208.888C94.0864 208.719 94.2123 208.58 94.374 208.497C94.5811 208.42 94.8192 208.561 95.0077 208.704C96.9356 210.081 98.9236 211.52 100.106 213.574C100.783 214.75 101.251 216.181 102.44 216.836C103.308 217.312 104.66 217.588 104.598 218.575C104.57 218.785 104.505 218.988 104.405 219.174C102.841 222.465 100.487 225.318 97.5527 227.478L103.713 222.831C103.603 225.925 103.148 228.997 102.357 231.99C102.202 232.576 102.019 233.183 101.593 233.614C100.972 234.235 100.019 234.326 99.1452 234.318C95.3514 234.278 91.539 233.003 87.8198 233.752C89.9587 234.3 92.0561 234.998 94.0965 235.842C94.4465 235.987 94.8648 236.268 94.7633 236.633C94.696 236.803 94.5675 236.942 94.403 237.022C92.6055 238.134 90.309 237.815 88.2278 237.459C87.0371 237.252 85.7946 237.03 84.8275 236.304C84.1586 235.798 83.6678 235.082 82.9907 234.583L82.3239 235.074C82.1427 235.177 81.9981 235.334 81.9097 235.523C81.8673 235.7 81.8803 235.886 81.9469 236.055C82.4398 237.675 84.0178 238.774 85.6744 239.176C87.3311 239.578 89.0437 239.4 90.7293 239.219L101.162 238.105C101.484 238.099 101.8 238.01 102.077 237.846C102.332 237.668 105.281 236.473 105.42 236.19C108.097 230.806 108.027 226.165 108.46 220.172C108.559 218.884 108.526 217.53 107.878 216.426Z" fill="#BFC4C0"/>
<path d="M80.1454 219.505C81.7606 218.955 83.0943 217.803 84.3181 216.606C87.6045 213.415 90.454 209.712 92.2887 205.515C92.734 204.496 93.1171 203.293 92.5911 202.313C92.0651 201.334 90.8371 200.965 89.7333 201.003C86.975 201.098 84.6557 203.073 82.8188 205.124C80.3877 207.851 78.3272 210.99 77.3436 214.511C76.7265 216.72 76.5712 220.727 80.1454 219.505Z" fill="#A8ADAA"/>
<g clip-path="url(#clip0_903_8910)">
<path d="M157.643 266.056C156.442 261.14 153.633 256.769 149.664 253.644C145.695 250.519 140.796 248.82 135.751 248.818H58.2072C53.1619 248.82 48.2628 250.519 44.2938 253.644C40.3248 256.769 37.5153 261.14 36.3149 266.056L24.8838 312.726H169.074L157.643 266.056Z" fill="#F7CB14"/>
<path d="M21.2071 312.727H170.246C172.676 312.727 175.007 313.695 176.726 315.419C178.444 317.143 179.409 319.482 179.409 321.92V340.376H12.0439V321.92C12.0439 319.482 13.0093 317.143 14.7278 315.419C16.4462 313.695 18.7769 312.727 21.2071 312.727Z" fill="#F7CB14"/>
<path d="M97.4485 340.361H24.8838L46.9098 508.973C47.1332 510.682 47.9687 512.252 49.2607 513.389C50.5526 514.526 52.2126 515.152 53.9311 515.152H140.027C141.745 515.152 143.405 514.526 144.697 513.389C145.989 512.252 146.825 510.682 147.048 508.973L169.074 340.361H97.4485Z" fill="#F7CB14"/>
<path d="M139.064 292.768L133.162 264.302C132.649 261.83 131.303 259.61 129.351 258.016C127.398 256.423 124.958 255.553 122.441 255.553H68.9891C66.4723 255.553 64.0324 256.424 62.0799 258.017C60.1274 259.61 58.7814 261.83 58.2682 264.302L52.3694 292.768C52.0374 294.367 52.0648 296.019 52.4495 297.606C52.8343 299.193 53.5668 300.673 54.5937 301.94C55.6205 303.207 56.916 304.229 58.3858 304.93C59.8556 305.632 61.4627 305.995 63.0903 305.995H128.321C129.95 305.997 131.559 305.635 133.031 304.935C134.503 304.234 135.8 303.213 136.83 301.946C137.859 300.679 138.593 299.198 138.98 297.61C139.367 296.023 139.395 294.368 139.064 292.768Z" fill="#C18E0E"/>
<path d="M97.4485 340.361H24.8838L25.5061 345.115C58.7226 350.861 93.7145 346.307 125.579 357.293C133.796 360.124 142.268 364.544 145.937 372.443C147.815 376.496 148.228 381.055 148.537 385.514C150.532 414.211 149.47 443.041 145.368 471.513C144.261 479.205 142.802 487.18 138.19 493.424C129.634 505.008 113.396 506.992 99.0406 507.628C87.5637 508.142 76.0372 508.421 64.6138 507.192C58.9785 506.586 53.2286 505.56 48.395 502.595C47.4974 502.045 46.6423 501.427 45.8369 500.748L46.9098 508.973C47.1332 510.682 47.9687 512.252 49.2607 513.389C50.5526 514.526 52.2126 515.152 53.9311 515.152H140.027C141.745 515.152 143.405 514.526 144.697 513.389C145.989 512.252 146.825 510.682 147.048 508.973L169.074 340.361H97.4485Z" fill="#F4B80F"/>
<path opacity="0.44" d="M33.9901 356.985C32.6843 359.812 33.2685 363.114 33.8641 366.178C39.8711 397.028 44.4794 428.108 47.689 459.417C48.0708 463.03 49.8118 467.806 53.3817 467.197C56.6804 466.63 57.1157 462.087 56.6995 458.77C53.1182 430.074 47.9487 401.31 49.8271 372.441C50.0791 368.634 50.438 364.734 49.3919 361.064C47.7043 355.1 37.7508 348.829 33.9901 356.985Z" fill="white"/>
<path opacity="0.44" d="M16.6485 319.315C16.7478 321.054 18.3284 322.414 20.0122 322.847C21.6959 323.28 23.4484 323 25.1817 322.743C42.6185 320.154 60.3301 320.445 77.9578 320.307C78.6873 320.356 79.4176 320.225 80.0844 319.924C80.722 319.571 81.1764 318.775 80.89 318.097C80.6037 317.419 79.7102 317.2 78.9543 317.112C75.4226 316.706 71.8566 316.729 68.2983 316.729L39.3503 316.767C35.9561 316.771 16.366 314.438 16.6485 319.315Z" fill="white"/>
<path d="M133.162 264.302C132.649 261.83 131.303 259.61 129.351 258.016C127.398 256.423 124.958 255.553 122.441 255.553H68.9891C66.4723 255.553 64.0324 256.424 62.0799 258.017C60.1274 259.61 58.7814 261.83 58.2682 264.302L52.3694 292.768C52.0374 294.367 52.0648 296.019 52.4495 297.606C52.8343 299.193 53.5668 300.673 54.5937 301.94C55.6205 303.207 56.916 304.229 58.3858 304.93C59.8556 305.632 61.4627 305.995 63.0903 305.995H77.3123C75.3173 302.648 74.4547 298.743 74.8535 294.863C75.8767 286.175 82.6422 278.962 90.5646 275.304C98.4869 271.645 107.444 270.998 116.168 271.021C122.552 271.021 129.531 271.73 135.224 274.331L133.162 264.302Z" fill="#966C0C"/>
<path d="M125.614 415.611C125.366 415.082 124.087 414.58 122.35 414.155C122.54 411.355 122.128 407.003 120.101 400.338C118.192 394.105 107.234 384.284 104.481 381.889C104.498 381.598 104.455 381.306 104.355 381.031C103.405 378.733 93.035 376.714 91.9851 378.227C91.6529 378.71 91.8629 380.085 92.3669 381.813C89.8279 382.855 85.9985 385.348 80.6648 391.083C75.5868 396.546 72.395 414.695 72.395 414.695C72.395 414.695 72.5019 414.5 72.7004 414.151C71.6123 416.618 74.8538 425.885 76.6139 426.027C77.198 426.076 78.2785 425.203 79.5194 423.901C81.688 425.586 85.7541 427.666 93.371 429.432C100.625 431.114 117.886 424.812 117.886 424.812H117.86C120.757 423.755 126.316 417.116 125.614 415.611ZM96.8377 422.667C91.1642 420.982 87.4264 418.591 85.1471 416.683C86.0443 415.301 86.6475 414.182 86.6743 413.73C86.8117 412.045 74.6285 411.57 72.8493 413.899C74.3765 411.217 79.5576 402.479 84.7997 397.488C89.0911 393.401 93.0198 391.359 95.8069 390.325C96.5705 391.796 97.2158 392.876 97.5861 393.136C98.8002 393.979 103.943 386.138 104.458 382.361C106.131 385.257 110.88 393.853 112.526 400.748C113.759 405.904 113.736 409.999 113.354 412.906C111.674 412.815 110.38 412.849 109.964 413.044C108.513 413.734 113.591 423.571 116.584 424.847C113.095 424.824 103.485 424.625 96.8377 422.667Z" fill="white"/>
</g>
<path d="M313.202 113.863L323.407 119.831L305.119 67.5837L295.871 64.3516L313.202 113.863Z" fill="#70BBF2"/>
<path d="M326.076 59.1875L305.119 67.5817L323.407 119.829L344.094 110.671L326.076 59.1875Z" fill="#5D98A8"/>
<path d="M295.871 64.3512L305.119 67.5834L300.722 59.8242L295.871 64.3512Z" fill="#5D98A8"/>
<path d="M316.141 47.6641L298.745 54.1707L300.722 59.8233L318.578 53.5731L316.141 47.6641Z" fill="#5D98A8"/>
<path d="M318.297 52.9199L300.722 59.8225L305.119 67.5817L326.076 59.1875L318.297 52.9199Z" fill="#70BBF2"/>
<path d="M352.404 9.21933C350.919 8.66228 349.32 8.47391 347.746 8.67038C346.172 8.86685 344.668 9.4423 343.365 10.3474L345.278 11.3434C343.004 12.9097 342.04 16.1319 343.084 18.6892C340.79 17.6932 338.298 17.2774 335.833 16.8665C335.113 19.2219 334.675 21.6542 334.528 24.1127C334.464 24.5417 334.528 24.9799 334.712 25.3727C334.952 25.7009 335.275 25.9589 335.648 26.1197L340.629 28.8365C340.84 28.951 341.074 29.0855 341.127 29.3345C341.132 29.4439 341.116 29.5533 341.079 29.6563C341.042 29.7594 340.984 29.854 340.91 29.9346L337.1 35.3655C336.872 35.6423 336.711 35.9678 336.629 36.3168C336.598 36.6804 336.661 37.046 336.814 37.3776C337.568 39.3561 338.913 41.0548 340.666 42.2432C342.439 43.4385 344.531 44.0486 346.582 44.6387L355.38 47.1762C356.159 47.4003 357.048 47.6119 357.733 47.1762C358.194 46.8873 358.448 46.3694 358.704 45.8888C359.651 44.1064 360.894 42.4981 362.38 41.1326C362.586 40.9698 362.756 40.7653 362.878 40.5325C363.154 39.9025 362.661 39.2202 362.203 38.7073C360.938 37.3028 359.675 35.8976 358.413 34.4915C358.194 34.2425 357.955 33.9138 358.092 33.6125C358.196 33.3635 358.483 33.2838 358.737 33.2216C359.939 32.9202 361.204 32.6189 362.402 32.9352C363 33.0921 363.548 33.3959 364.125 33.6075C365.527 34.1146 367.067 34.0818 368.446 33.5154C371.648 32.1782 373.005 28.4629 374.019 25.1436C374.136 24.7577 374.228 24.2696 373.924 24.0056C373.78 23.8976 373.606 23.8367 373.426 23.8313C372.43 23.7218 371.449 24.2347 370.438 24.297C369.427 24.3592 368.197 23.535 368.535 22.5813C368.675 22.2735 368.89 22.0056 369.16 21.8019L373.154 18.2659C373.722 17.7679 374.302 17.24 374.649 16.5677C375.679 14.5756 374.317 12.1427 372.589 10.7184C371.897 10.1457 371.055 9.47333 371.155 8.58187C371.216 8.2514 371.344 7.93694 371.531 7.65803L373.672 3.94278C371.643 2.73756 368.956 3.59666 367.116 5.08076C365.276 6.56487 363.951 8.59182 362.181 10.1581C361.433 9.07241 360.649 7.95435 360.315 6.67194C359.982 5.38953 360.176 3.88302 361.14 2.97413C362.171 2.00049 363.779 1.93077 364.927 1.10405C364.429 1.45516 361.13 0.635909 360.35 0.606027C359.304 0.571166 356.832 0.21508 355.985 0.957134C355.256 1.59709 355.026 3.74357 354.675 4.62756C354.046 6.21795 353.286 7.75374 352.404 9.21933Z" fill="#FFE9CC"/>
<path d="M372.592 10.7608C371.9 10.1905 371.058 9.51572 371.158 8.62675C371.217 8.29545 371.344 7.98001 371.531 7.70043L373.675 3.98767C371.643 2.77996 368.944 3.63905 367.119 5.12316C365.293 6.60727 363.941 8.63671 362.183 10.2154C361.424 9.12726 360.649 8.01169 360.316 6.72928C359.982 5.44688 360.176 3.94036 361.142 3.02898C361.937 2.28194 363.075 2.0653 364.081 1.62704C361.88 1.4851 358.73 1.83123 357.562 3.24063C357.24 3.62909 357.161 4.157 357.096 4.65502C356.665 7.90462 356.384 11.5452 358.416 14.1175L350.039 13.6792C351.228 14.8973 352.518 16.012 353.896 17.011C354.362 17.3496 354.865 17.6858 355.438 17.758C356.01 17.8302 356.543 17.6161 357.064 17.4144C358.857 16.7138 360.628 15.9593 362.378 15.1509C362.848 17.0334 361.324 18.7989 359.813 20.0165C359.256 20.5174 358.604 20.9002 357.895 21.1421C355.878 21.7048 353.934 20.146 351.884 19.7028C351.69 20.8648 351.495 22.0327 351.299 23.2064C351.199 23.7915 351.107 24.4141 351.336 24.9495C351.648 25.6965 352.489 26.085 353.286 26.0949C354.083 26.1049 354.85 25.7986 355.575 25.4649C357.86 24.4166 360.037 23.0495 362.49 22.4917C362.756 22.4295 363.09 22.4046 363.237 22.6287C363.282 22.7297 363.303 22.8398 363.298 22.9503C363.294 23.0608 363.264 23.1689 363.212 23.2661C362.076 26.2658 360.305 28.9842 358.02 31.2345C356.937 32.2978 355.657 33.2864 354.15 33.4607C353.732 33.5342 353.301 33.4668 352.925 33.2689C352.614 33.0469 352.359 32.7564 352.178 32.4198C350.739 30.1563 349.364 27.8156 347.477 25.9082C345.589 24.0007 343.077 22.544 340.395 22.5515C340.029 22.5515 339.553 22.6859 339.548 23.0495C339.548 23.2985 339.762 23.4654 339.957 23.6023C341.568 24.7403 343.236 26.0277 343.888 27.8878L339.202 26.1173C338.983 26.8469 339.782 27.4421 340.447 27.7857L345.587 30.3729C342.286 32.4942 339.664 35.5194 338.034 39.0883C341.853 37.0049 346.279 36.3181 350.55 37.146C349.098 38.9967 347.396 40.6375 345.495 42.0217C346.7 42.2881 347.92 41.7727 349.12 41.4888C351.537 40.9217 354.079 41.2591 356.264 42.4375C356.528 42.5469 356.74 42.7538 356.854 43.0152C356.899 43.2227 356.877 43.4391 356.79 43.6328C356.521 44.3798 356.005 45.0148 355.687 45.7444C355.47 46.215 355.396 46.7386 355.472 47.2509C356.219 47.4651 357.066 47.6394 357.714 47.226C358.174 46.9347 358.431 46.4192 358.685 45.9386C359.632 44.1568 360.875 42.5486 362.36 41.1825C362.566 41.0191 362.735 40.8147 362.858 40.5824C363.135 39.9499 362.641 39.2676 362.183 38.7571L358.396 34.5389C358.174 34.2899 357.938 33.9637 358.072 33.6599C358.177 33.4109 358.463 33.3337 358.717 33.2689C359.92 32.9701 361.185 32.6688 362.385 32.9851C362.98 33.1419 363.528 33.4457 364.106 33.6574C365.507 34.1659 367.048 34.1321 368.426 33.5628C371.307 32.36 372.694 29.2325 373.683 26.202C372.856 26.1099 372.072 26.5332 371.277 26.7872C368.954 27.5342 366.088 26.5382 365.034 24.3468C363.981 22.1555 365.301 19.0479 367.699 18.6046C368.463 18.4652 369.253 18.5748 370.027 18.4926C371.272 18.3631 372.395 17.7456 373.486 17.1629L374.669 16.5204C375.645 14.5408 374.288 12.1627 372.592 10.7608Z" fill="#EDD9C0"/>
<path d="M361.555 13.562C363.28 12.6049 365.086 11.804 366.954 11.169C365.645 14.6666 364.556 18.2428 363.694 21.8765C364.802 18.6393 367.474 16.1168 368.729 12.912C368.828 12.6972 368.879 12.4636 368.878 12.2273C368.851 12.0135 368.784 11.8066 368.682 11.6172C368.275 10.7539 367.87 9.88904 367.467 9.02248C366.501 9.85538 365.442 10.574 364.312 11.164C363.565 11.5624 362.671 11.911 361.856 11.6371C361.41 11.4585 361.009 11.1839 360.681 10.8328C359.611 9.81256 358.666 8.66813 357.867 7.42383C358.515 8.41987 358.729 9.68983 359.384 10.7083C360.037 11.711 360.763 12.6648 361.555 13.562Z" fill="#DBC8B9"/>
<path d="M352.464 36.3615L362.945 26.8691L355.853 34.6732C355.485 35.079 355.106 35.5248 355.034 36.0676C354.892 37.2604 356.334 38.2141 356.182 39.4069C354.846 38.1744 353.197 37.3328 351.416 36.974C350.985 36.8894 350.519 36.8196 350.193 36.5233C349.997 36.3131 349.835 36.0726 349.715 35.8111C348.964 34.475 347.733 33.4745 346.271 33.0123C344.355 34.9634 342.1 36.5512 339.618 37.6986C341.523 35.9058 343.44 34.2498 345.479 32.6263C346 32.2129 346.523 31.5904 347.15 31.6925C347.606 31.7647 348.55 32.9375 348.918 33.2638L352.464 36.3615Z" fill="#DBC8B9"/>
<path d="M347.205 16.0278C348.353 18.0885 349.297 20.257 350.021 22.5021C350.33 21.4065 350.638 20.3117 350.945 19.2177C349.583 18.2216 348.704 16.7051 347.847 15.2335C347.197 14.1104 346.577 12.95 345.875 11.8594C345.295 13.2513 346.565 14.8799 347.205 16.0278Z" fill="#FFFAE3"/>
<path d="M353.403 29.2863C352.873 28.8189 352.268 28.4458 351.612 28.1832C352.62 29.436 353.506 30.7826 354.257 32.2047C356.58 29.6598 359.613 27.0975 361.478 24.2363C360.37 24.4679 354.172 30.0781 353.403 29.2863Z" fill="#FFFAE3"/>
<path d="M338.044 24.6581C338.365 23.2638 338.946 21.9425 339.757 20.7636C339.12 20.918 338.564 20.3403 338.166 19.8223C337.322 18.7292 336.137 17.0459 336.381 19.521C336.465 20.3627 336.834 21.2342 337.098 22.0336C337.272 22.5988 338.156 24.1352 338.044 24.6581Z" fill="#FFFAE3"/>
<path d="M313.486 180.76C313.486 180.76 331.288 207.442 331.288 207.559C331.288 207.676 380 173.056 380 173.056L362.198 147.221L313.486 180.76Z" fill="#F2D4AE"/>
<path d="M313.486 180.759L300.082 172.559L313.486 193.189L331.288 207.557L313.486 180.759Z" fill="#D8BC9E"/>
<path d="M300.082 172.559L344.072 144.055L362.198 147.22L313.486 180.759L300.082 172.559Z" fill="#C6AB93"/>
<path d="M344.072 144.055L347.845 132.379H365.325L362.198 148.039L344.072 144.055Z" fill="#F2D4AE"/>
<path d="M300.082 172.557L292.562 186.705C292.562 186.705 306.626 198.75 306.626 198.397C306.626 198.043 313.486 180.757 313.486 180.757L300.082 172.557Z" fill="#F2D4AE"/>
<g clip-path="url(#clip1_903_8910)">
<path d="M390.464 237.056C389.261 232.139 386.438 227.767 382.448 224.641C378.459 221.515 373.533 219.817 368.462 219.818H290.514C285.443 219.82 280.518 221.519 276.529 224.644C272.539 227.769 269.715 232.14 268.508 237.056L257.037 283.726H401.955L390.464 237.056Z" fill="#516BBF"/>
<path d="M253.322 283.727H403.137C405.58 283.727 407.923 284.695 409.65 286.419C411.377 288.143 412.348 290.482 412.348 292.92V311.376H244.107V292.92C244.107 291.713 244.345 290.517 244.808 289.401C245.272 288.285 245.95 287.272 246.806 286.418C247.662 285.564 248.678 284.887 249.796 284.425C250.914 283.963 252.112 283.726 253.322 283.727Z" fill="#516BBF"/>
<path d="M329.956 311.361H257.037L279.177 479.973C279.402 481.682 280.241 483.251 281.539 484.388C282.837 485.525 284.505 486.152 286.231 486.152H372.779C374.507 486.152 376.175 485.526 377.474 484.389C378.773 483.252 379.613 481.682 379.837 479.973L401.974 311.361H329.956Z" fill="#516BBF"/>
<path d="M371.789 263.768L365.856 235.302C365.34 232.83 363.987 230.61 362.024 229.017C360.062 227.424 357.609 226.553 355.079 226.553H301.372C298.842 226.553 296.39 227.424 294.427 229.017C292.464 230.61 291.111 232.83 290.595 235.302L284.67 263.768C284.337 265.367 284.366 267.019 284.753 268.606C285.141 270.192 285.878 271.672 286.91 272.939C287.942 274.206 289.245 275.227 290.722 275.929C292.199 276.63 293.814 276.995 295.45 276.995H361.02C362.655 276.993 364.269 276.627 365.745 275.925C367.221 275.223 368.521 274.201 369.552 272.935C370.584 271.668 371.319 270.188 371.706 268.603C372.093 267.017 372.121 265.366 371.789 263.768Z" fill="#2F436B"/>
<path d="M329.956 311.361H257.037L257.662 316.115C291.052 321.861 326.226 317.307 358.257 328.293C366.516 331.124 375.028 335.544 378.72 343.443C380.609 347.496 381.023 352.055 381.334 356.514C383.338 385.211 382.27 414.041 378.148 442.513C377.035 450.205 375.569 458.18 370.933 464.424C362.333 476.008 346.01 477.992 331.58 478.628C320.043 479.142 308.453 479.421 296.974 478.192C291.309 477.586 285.529 476.56 280.67 473.595C279.768 473.045 278.908 472.427 278.099 471.748L279.177 479.973C279.402 481.682 280.241 483.251 281.539 484.388C282.837 485.525 284.505 486.152 286.231 486.152H372.779C374.507 486.152 376.175 485.526 377.474 484.389C378.773 483.252 379.613 481.682 379.837 479.973L401.974 311.361H329.956Z" fill="#435C9B"/>
<path opacity="0.12" d="M266.171 327.985C264.858 330.812 265.446 334.114 266.044 337.178C272.08 368.028 276.712 399.108 279.941 430.417C280.325 434.03 282.075 438.806 285.664 438.197C288.979 437.63 289.417 433.087 288.999 429.77C285.399 401.074 280.202 372.31 282.09 343.441C282.34 339.634 282.704 335.734 281.653 332.064C279.957 326.1 269.951 319.829 266.171 327.985Z" fill="white"/>
<path opacity="0.12" d="M248.739 290.315C248.839 292.054 250.428 293.414 252.121 293.847C253.813 294.28 255.575 294 257.317 293.743C274.845 291.154 292.649 291.445 310.364 291.307C311.099 291.357 311.834 291.225 312.506 290.924C313.147 290.571 313.603 289.775 313.315 289.097C313.028 288.419 312.13 288.2 311.37 288.112C307.82 287.706 304.235 287.729 300.658 287.729L271.559 287.767C268.167 287.771 248.455 285.438 248.739 290.315Z" fill="white"/>
<path d="M365.86 235.302C365.344 232.83 363.991 230.61 362.028 229.017C360.066 227.424 357.613 226.553 355.083 226.553H301.372C298.842 226.553 296.39 227.424 294.427 229.017C292.464 230.61 291.111 232.83 290.595 235.302L284.67 263.768C284.337 265.367 284.366 267.019 284.753 268.606C285.141 270.192 285.878 271.672 286.91 272.939C287.942 274.206 289.245 275.227 290.722 275.929C292.199 276.63 293.814 276.995 295.45 276.995H309.746C307.741 273.648 306.874 269.743 307.275 265.863C308.303 257.175 315.104 249.962 323.068 246.304C331.031 242.645 340.035 241.998 348.804 242.021C355.221 242.021 362.237 242.73 367.959 245.331L365.86 235.302Z" fill="#1F2D44"/>
<path d="M358.272 386.611C358.023 386.082 356.737 385.58 354.991 385.155C355.183 382.355 354.768 378.003 352.73 371.338C350.811 365.105 339.797 355.284 337.029 352.889C337.046 352.598 337.003 352.306 336.903 352.031C335.947 349.733 325.523 347.714 324.468 349.227C324.13 349.71 324.345 351.085 324.852 352.813C322.3 353.855 318.45 356.348 313.089 362.083C307.984 367.546 304.776 385.695 304.776 385.695C304.776 385.695 304.883 385.5 305.083 385.151C303.989 387.618 307.247 396.885 309.017 397.027C309.604 397.076 310.69 396.203 311.937 394.901C314.117 396.586 318.205 398.666 325.861 400.432C333.153 402.114 350.504 395.812 350.504 395.812H350.47C353.39 394.755 358.978 388.116 358.272 386.611ZM329.346 393.667C323.643 391.982 319.886 389.591 317.594 387.683C318.496 386.301 319.103 385.182 319.13 384.73C319.268 383.045 307.021 382.57 305.233 384.899C306.768 382.217 311.976 373.479 317.241 368.488C321.555 364.401 325.508 362.359 328.31 361.325C329.058 362.796 329.726 363.876 330.098 364.136C331.319 364.979 336.488 357.138 337.006 353.361C338.687 356.257 343.462 364.853 345.112 371.748C346.355 376.904 346.332 380.999 345.949 383.906C344.26 383.815 342.959 383.849 342.541 384.044C341.082 384.734 346.187 394.571 349.195 395.847C345.691 395.824 336.028 395.625 329.346 393.667Z" fill="white"/>
<path d="M311.477 412.368H314.966C315.696 412.344 316.427 412.418 317.138 412.59C317.574 412.691 317.973 412.913 318.289 413.23C318.55 413.516 318.729 413.866 318.807 414.245C318.917 414.852 318.964 415.47 318.946 416.087V417.237C318.98 417.866 318.89 418.496 318.681 419.091C318.484 419.501 318.138 419.821 317.714 419.987C317.128 420.214 316.503 420.32 315.875 420.297H314.946V425.66H311.492L311.477 412.368ZM314.931 414.643V418.026H315.188C315.309 418.038 315.431 418.024 315.545 417.984C315.659 417.943 315.763 417.878 315.848 417.792C316.003 417.492 316.067 417.154 316.033 416.819V415.727C316.073 415.415 315.998 415.099 315.821 414.839C315.558 414.676 315.247 414.607 314.939 414.643H314.931Z" fill="white"/>
<path d="M325.497 412.367L327.477 425.66H323.938L323.754 423.269H322.515L322.307 425.66H318.727L320.492 412.367H325.497ZM323.662 420.913C323.486 419.409 323.31 417.549 323.136 415.332C322.783 417.886 322.561 419.746 322.468 420.913H323.662Z" fill="white"/>
<path d="M328.064 412.368H331.553C332.285 412.343 333.017 412.418 333.729 412.59C334.165 412.693 334.563 412.914 334.881 413.23C335.138 413.518 335.317 413.867 335.399 414.245C335.505 414.853 335.55 415.47 335.533 416.087V417.237C335.568 417.866 335.478 418.496 335.268 419.091C335.074 419.502 334.729 419.822 334.305 419.987C333.72 420.214 333.094 420.32 332.466 420.297H331.538V425.66H328.084L328.064 412.368ZM331.519 414.643V418.026H331.772C331.892 418.039 332.014 418.025 332.129 417.985C332.243 417.944 332.347 417.878 332.432 417.792C332.59 417.494 332.656 417.155 332.62 416.819V415.727C332.66 415.415 332.583 415.099 332.405 414.839C332.144 414.676 331.836 414.607 331.53 414.643H331.519Z" fill="white"/>
<path d="M336.519 412.367H342.295V415.026H339.992V417.546H342.157V420.075H339.992V422.997H342.537V425.679H336.519V412.367Z" fill="white"/>
<path d="M343.519 412.368H345.972C347.08 412.335 348.19 412.397 349.288 412.556C349.867 412.684 350.374 413.029 350.704 413.521C351.088 414.038 351.249 414.866 351.249 415.996C351.249 417.03 351.121 417.726 350.865 418.084C350.604 418.436 350.098 418.651 349.33 418.723C349.85 418.804 350.332 419.042 350.712 419.405C350.914 419.624 351.065 419.886 351.153 420.171C351.233 420.823 351.261 421.48 351.237 422.136V425.645H348.021V421.248C348.065 420.8 348.007 420.348 347.852 419.926C347.741 419.754 347.446 419.669 346.97 419.669V425.665H343.516L343.519 412.368ZM346.974 414.644V417.597C347.256 417.622 347.539 417.566 347.791 417.436C347.948 417.333 348.025 416.984 348.025 416.398V415.67C348.045 415.524 348.035 415.375 347.997 415.232C347.959 415.09 347.893 414.956 347.803 414.839C347.558 414.685 347.269 414.616 346.981 414.644H346.974Z" fill="white"/>
</g>
<defs>
<clipPath id="clip0_903_8910">
<rect width="192" height="176" fill="white" transform="translate(0 241)"/>
</clipPath>
<clipPath id="clip1_903_8910">
<rect width="193" height="205" fill="white" transform="translate(232 212)"/>
</clipPath>
</defs>
</svg>
