<svg width="303" height="193" viewBox="0 0 303 193" fill="none" xmlns="http://www.w3.org/2000/svg">
<g clip-path="url(#clip0_901_6626)">
<path d="M175.943 109.292C175.387 107.029 174.087 105.017 172.251 103.579C170.414 102.14 168.147 101.358 165.813 101.357H129.933C127.599 101.357 125.331 102.139 123.495 103.577C121.658 105.016 120.359 107.029 119.805 109.292L114.512 130.774H181.232L175.943 109.292Z" fill="#EA381B"/>
<path d="M112.813 130.775H181.774C182.898 130.775 183.977 131.221 184.772 132.015C185.567 132.809 186.014 133.885 186.014 135.007V143.503H108.573V135.007C108.573 133.885 109.02 132.809 109.815 132.015C110.61 131.221 111.688 130.775 112.813 130.775Z" fill="#EA381B"/>
<path d="M148.09 143.496H114.512L124.706 221.109C124.809 221.896 125.196 222.619 125.794 223.142C126.391 223.665 127.159 223.954 127.955 223.954H167.793C168.589 223.954 169.357 223.666 169.955 223.143C170.554 222.619 170.94 221.897 171.044 221.109L181.235 143.496H148.09Z" fill="#EA381B"/>
<path d="M167.346 121.587L164.615 108.484C164.378 107.346 163.755 106.324 162.852 105.591C161.948 104.857 160.819 104.457 159.654 104.457H134.931C133.766 104.457 132.637 104.858 131.734 105.591C130.83 106.325 130.208 107.346 129.97 108.484L127.241 121.587C127.087 122.323 127.1 123.084 127.278 123.814C127.456 124.545 127.795 125.226 128.27 125.81C128.745 126.393 129.345 126.863 130.025 127.186C130.705 127.509 131.448 127.676 132.201 127.676H162.387C163.14 127.676 163.883 127.508 164.563 127.185C165.243 126.862 165.842 126.391 166.317 125.808C166.792 125.225 167.13 124.544 167.309 123.814C167.487 123.084 167.499 122.323 167.346 121.587Z" fill="#A0190B"/>
<path d="M148.09 143.496H114.512L114.799 145.684C130.159 148.329 146.359 146.233 161.103 151.29C164.905 152.593 168.825 154.628 170.523 158.264C171.394 160.129 171.583 162.228 171.726 164.28C172.649 177.49 172.158 190.76 170.261 203.866C169.747 207.407 169.072 211.078 166.938 213.952C162.979 219.284 155.468 220.198 148.823 220.49C143.513 220.727 138.18 220.855 132.894 220.289C130.288 220.011 127.626 219.538 125.389 218.173C124.974 217.92 124.578 217.636 124.206 217.324L124.702 221.109C124.806 221.896 125.192 222.619 125.79 223.142C126.388 223.665 127.156 223.954 127.951 223.954H167.793C168.589 223.954 169.357 223.666 169.955 223.143C170.554 222.619 170.94 221.897 171.044 221.109L181.235 143.496H148.09Z" fill="#D62C1A"/>
<path opacity="0.12" d="M118.727 151.146C118.123 152.448 118.394 153.968 118.669 155.378C121.449 169.579 123.581 183.885 125.066 198.297C125.243 199.96 126.05 202.158 127.7 201.878C129.226 201.617 129.428 199.526 129.235 197.999C127.578 184.79 125.186 171.549 126.055 158.261C126.17 156.509 126.338 154.713 125.854 153.024C125.073 150.279 120.468 147.392 118.727 151.146Z" fill="white"/>
<path opacity="0.12" d="M110.704 133.807C110.751 134.607 111.481 135.233 112.26 135.432C113.039 135.632 113.85 135.503 114.652 135.385C122.72 134.193 130.915 134.327 139.072 134.263C139.409 134.286 139.747 134.226 140.056 134.087C140.351 133.925 140.563 133.558 140.428 133.246C140.294 132.934 139.883 132.833 139.533 132.793C137.899 132.606 136.249 132.616 134.602 132.616L121.208 132.634C119.635 132.636 110.573 131.562 110.704 133.807Z" fill="white"/>
<path d="M164.615 108.484C164.378 107.346 163.755 106.324 162.852 105.591C161.948 104.857 160.819 104.457 159.654 104.457H134.931C133.766 104.457 132.637 104.858 131.734 105.591C130.83 106.325 130.208 107.346 129.97 108.484L127.241 121.587C127.087 122.323 127.1 123.084 127.278 123.814C127.456 124.545 127.795 125.226 128.27 125.81C128.745 126.393 129.345 126.863 130.025 127.186C130.705 127.509 131.448 127.676 132.201 127.676H138.782C137.859 126.135 137.46 124.338 137.644 122.552C138.118 118.553 141.248 115.233 144.914 113.549C148.58 111.865 152.724 111.567 156.761 111.577C159.715 111.577 162.944 111.903 165.578 113.101L164.615 108.484Z" fill="#770F0A"/>
<path d="M161.122 178.133C161.008 177.89 160.416 177.659 159.612 177.463C159.7 176.174 159.509 174.171 158.571 171.103C157.688 168.234 152.618 163.713 151.344 162.611C151.352 162.476 151.332 162.342 151.286 162.216C150.848 161.158 146.048 160.228 145.564 160.925C145.408 161.147 145.507 161.78 145.741 162.575C144.566 163.055 142.794 164.203 140.326 166.842C137.976 169.357 136.501 177.711 136.501 177.711C136.501 177.711 136.549 177.621 136.641 177.461C136.137 178.597 137.639 182.862 138.452 182.927C138.724 182.95 139.222 182.548 139.796 181.949C140.799 182.724 142.681 183.682 146.205 184.495C149.562 185.269 157.549 182.368 157.549 182.368H157.533C158.875 181.882 161.449 178.826 161.122 178.133ZM147.807 181.381C145.182 180.605 143.455 179.505 142.398 178.627C142.813 177.99 143.092 177.475 143.105 177.267C143.168 176.491 137.531 176.273 136.708 177.345C137.415 176.11 139.812 172.088 142.237 169.791C144.223 167.909 146.041 166.969 147.331 166.493C147.684 167.17 147.982 167.668 148.156 167.788C148.716 168.176 151.095 164.566 151.327 162.827C152.1 164.16 154.298 168.117 155.059 171.291C155.63 173.665 155.619 175.55 155.443 176.888C154.665 176.846 154.067 176.862 153.874 176.951C153.204 177.269 155.552 181.797 156.937 182.384C155.33 182.374 150.883 182.282 147.807 181.381Z" fill="white"/>
<path d="M134.86 188.787H137.51V190.021H136.45V191.182H137.445V192.345H136.454V193.691H137.623V194.915H134.86V188.787Z" fill="white"/>
<path d="M139.909 191.863V192.921H137.899V191.863H139.909Z" fill="white"/>
<path d="M146.364 188.787L145.658 194.906H143.661C143.48 193.965 143.319 192.896 143.179 191.698C143.115 192.212 142.967 193.281 142.734 194.906H140.755L140.049 188.787H141.596L141.764 190.922L141.928 192.986C141.986 191.919 142.133 190.52 142.368 188.787H144.015C144.036 188.967 144.095 189.64 144.191 190.806L144.368 193.134C144.457 191.652 144.606 190.204 144.813 188.787H146.364Z" fill="white"/>
<path d="M149.359 188.787L150.27 194.906H148.642L148.555 193.805H147.984L147.889 194.906H146.241L147.055 188.787H149.359ZM148.514 192.721C148.433 192.029 148.352 191.172 148.271 190.152C148.108 191.327 148.006 192.184 147.965 192.721H148.514Z" fill="white"/>
<path d="M153.916 190.634H152.436V190.179C152.449 190.042 152.43 189.904 152.379 189.775C152.358 189.745 152.33 189.722 152.297 189.707C152.263 189.691 152.227 189.685 152.19 189.689C152.147 189.687 152.104 189.697 152.066 189.717C152.028 189.738 151.996 189.768 151.973 189.805C151.917 189.914 151.892 190.036 151.899 190.158C151.89 190.316 151.919 190.474 151.982 190.62C152.099 190.779 152.254 190.907 152.432 190.994C153.139 191.413 153.586 191.758 153.773 192.027C153.961 192.296 154.052 192.731 154.049 193.332C154.067 193.66 154.016 193.988 153.897 194.295C153.765 194.533 153.556 194.719 153.303 194.824C152.983 194.969 152.634 195.041 152.282 195.033C151.903 195.044 151.528 194.961 151.189 194.792C150.922 194.666 150.711 194.446 150.597 194.175C150.49 193.832 150.443 193.475 150.457 193.117V192.716H151.938V193.46C151.924 193.611 151.945 193.762 152 193.903C152.024 193.938 152.058 193.965 152.097 193.982C152.135 194 152.178 194.006 152.22 194.002C152.268 194.004 152.314 193.994 152.356 193.972C152.398 193.95 152.433 193.917 152.457 193.877C152.516 193.763 152.543 193.635 152.535 193.506C152.535 193.154 152.485 192.91 152.388 192.801C152.158 192.592 151.908 192.406 151.641 192.246C151.367 192.073 151.104 191.883 150.855 191.676C150.713 191.538 150.603 191.37 150.535 191.184C150.442 190.928 150.399 190.656 150.408 190.384C150.384 190.032 150.445 189.679 150.585 189.356C150.717 189.127 150.921 188.948 151.166 188.848C151.472 188.72 151.802 188.66 152.134 188.671C152.497 188.661 152.859 188.729 153.194 188.871C153.441 188.965 153.646 189.143 153.773 189.375C153.888 189.707 153.936 190.058 153.915 190.408L153.916 190.634Z" fill="white"/>
<path d="M157.759 188.787V190.021H156.814V194.915H155.224V190.021H154.28V188.787H157.759Z" fill="white"/>
<path d="M158.123 188.787H160.782V190.021H159.722V191.182H160.718V192.345H159.722V193.691H160.893V194.915H158.123V188.787Z" fill="white"/>
</g>
<path d="M148.649 44.0331L139.281 47.6738C138.644 47.9202 137.935 47.9039 137.309 47.6283C136.684 47.3528 136.193 46.8406 135.944 46.2039L128.492 27.0365C128.369 26.7205 128.31 26.3834 128.318 26.0445C128.325 25.7055 128.399 25.3714 128.536 25.0611C128.672 24.7508 128.869 24.4705 129.114 24.2361C129.359 24.0017 129.647 23.8178 129.963 23.695L139.331 20.0543C139.647 19.9315 139.985 19.8721 140.323 19.8795C140.662 19.887 140.997 19.9611 141.307 20.0977C141.617 20.2343 141.898 20.4307 142.132 20.6757C142.366 20.9206 142.55 21.2094 142.673 21.5254L150.121 40.6904C150.369 41.3288 150.353 42.0395 150.077 42.6664C149.801 43.2932 149.288 43.7848 148.649 44.0331Z" fill="#8E8D8B"/>
<path d="M147.798 42.0564L138.534 45.6596C138.08 45.8357 137.575 45.8244 137.13 45.6283C136.685 45.4323 136.336 45.0674 136.159 44.614L129.175 26.6504C129.088 26.4259 129.045 26.1864 129.05 25.9456C129.056 25.7048 129.108 25.4673 129.205 25.2468C129.302 25.0264 129.442 24.8271 129.616 24.6605C129.79 24.494 129.995 24.3633 130.219 24.276L139.485 20.6739C139.71 20.5864 139.949 20.5441 140.19 20.5493C140.431 20.5545 140.669 20.6071 140.89 20.7042C141.11 20.8013 141.31 20.941 141.476 21.1152C141.643 21.2894 141.773 21.4948 141.861 21.7195L148.845 39.682C148.932 39.9066 148.975 40.1462 148.969 40.3872C148.964 40.6281 148.911 40.8656 148.814 41.0861C148.717 41.3066 148.577 41.5058 148.403 41.6723C148.228 41.8388 148.023 41.9693 147.798 42.0564Z" fill="#3A4551"/>
<path d="M133.047 27.9882L135.55 31.5231L134.002 33.5938L136.096 32.9282L136.323 39.0606L138.576 34.1456L143.149 35.5734L138.847 30.6812L140.996 27.64L137.196 29.8518C137.196 29.8518 136.196 27.1542 136.237 27.3829C136.278 27.6116 135.65 29.2772 135.65 29.2772L133.047 27.9882Z" fill="#303942"/>
<path d="M136.323 39.1101H136.314C136.304 39.1081 136.294 39.1027 136.287 39.0946C136.28 39.0866 136.276 39.0764 136.276 39.0658L136.048 32.9948L134.015 33.6422C134.005 33.6456 133.995 33.6457 133.985 33.6426C133.976 33.6395 133.967 33.6334 133.961 33.6251C133.956 33.6168 133.953 33.6069 133.953 33.5967C133.953 33.5865 133.956 33.5766 133.961 33.5683L135.489 31.5249L133.008 28.0184C133.002 28.0098 132.998 27.9995 132.998 27.9888C132.998 27.9782 133.002 27.9678 133.008 27.9592C133.015 27.9511 133.024 27.9456 133.035 27.9435C133.046 27.9414 133.056 27.943 133.066 27.9479L135.626 29.213C135.875 28.5475 136.219 27.5485 136.195 27.3927C136.186 27.3403 136.22 27.3267 136.23 27.3244C136.285 27.3096 136.307 27.3039 137.227 29.783L140.973 27.6009C140.983 27.5952 140.994 27.593 141.004 27.5947C141.015 27.5963 141.025 27.6018 141.032 27.61C141.039 27.6184 141.043 27.6288 141.043 27.6395C141.043 27.6503 141.039 27.6607 141.032 27.6691L138.903 30.6807L143.18 35.5445C143.188 35.5521 143.193 35.562 143.194 35.5726C143.195 35.5832 143.192 35.5939 143.186 35.6028C143.18 35.6117 143.172 35.6184 143.161 35.6216C143.151 35.6249 143.14 35.6246 143.13 35.6207L138.598 34.2054L136.367 39.0783C136.363 39.0873 136.358 39.0952 136.35 39.1009C136.342 39.1065 136.333 39.1098 136.323 39.1101ZM136.096 32.8822C136.105 32.8822 136.115 32.8849 136.123 32.8902C136.129 32.8946 136.134 32.9002 136.137 32.9067C136.14 32.9132 136.142 32.9204 136.142 32.9277L136.364 38.861L138.534 34.128C138.539 34.1175 138.547 34.109 138.558 34.1042C138.569 34.0994 138.581 34.0986 138.592 34.1019L142.998 35.4796L138.808 30.7148C138.801 30.7064 138.798 30.696 138.798 30.6852C138.798 30.6745 138.801 30.6641 138.808 30.6557L140.831 27.7954L137.226 29.8945C137.219 29.8979 137.213 29.8997 137.206 29.8997C137.199 29.8997 137.192 29.8979 137.186 29.8945C137.179 29.8924 137.173 29.8888 137.168 29.8841C137.163 29.8794 137.16 29.8736 137.157 29.8672C136.865 29.0765 136.438 27.9445 136.272 27.544C136.179 28.015 135.756 29.1459 135.703 29.2927C135.701 29.2989 135.698 29.3045 135.693 29.3092C135.689 29.314 135.683 29.3176 135.677 29.32C135.671 29.3225 135.664 29.3239 135.658 29.3239C135.651 29.3239 135.645 29.3225 135.638 29.32L133.199 28.114L135.588 31.4953C135.594 31.5034 135.597 31.5132 135.597 31.5232C135.597 31.5332 135.594 31.5429 135.588 31.5511L134.124 33.5034L136.075 32.8822C136.082 32.8801 136.088 32.8801 136.095 32.8822H136.096Z" fill="#4F5E6D"/>
<path d="M137.098 45.7646H137.082C137.07 45.7602 137.06 45.7513 137.055 45.7398C137.049 45.7284 137.048 45.7152 137.052 45.7031L137.302 44.9818L136.65 42.5562C136.647 42.5469 136.647 42.537 136.65 42.5277L137.365 40.5071L136.286 39.0906C136.278 39.0804 136.275 39.0677 136.277 39.0552C136.278 39.0427 136.285 39.0314 136.295 39.0235C136.3 39.0197 136.305 39.0169 136.311 39.0153C136.317 39.0137 136.324 39.0133 136.33 39.0141C136.336 39.015 136.342 39.017 136.348 39.0202C136.353 39.0234 136.358 39.0276 136.362 39.0326L137.459 40.4673C137.463 40.4736 137.467 40.4812 137.468 40.4891C137.469 40.4971 137.468 40.5053 137.465 40.5128L136.747 42.5436L137.398 44.9693C137.401 44.9782 137.401 44.9877 137.398 44.9966L137.146 45.7327C137.142 45.7424 137.135 45.7506 137.127 45.7564C137.118 45.7621 137.108 45.765 137.098 45.7646Z" fill="#4F5E6D"/>
<path d="M136.241 27.4299C136.23 27.43 136.218 27.4259 136.21 27.4184C136.201 27.4109 136.195 27.4004 136.193 27.3889L135.937 25.3331C135.936 25.3211 135.939 25.3088 135.946 25.2989C135.953 25.289 135.963 25.2821 135.975 25.2796L137.837 24.8916L137.922 22.251C137.921 22.2472 137.921 22.2434 137.922 22.2396L138.224 21.1303C138.228 21.1182 138.236 21.108 138.247 21.1019C138.258 21.0958 138.271 21.0941 138.283 21.0973C138.295 21.1008 138.306 21.1088 138.312 21.1196C138.318 21.1304 138.32 21.1433 138.316 21.1553L138.015 22.2589L137.93 24.9326C137.929 24.9432 137.925 24.9534 137.919 24.9616C137.912 24.9698 137.902 24.9756 137.892 24.9781L136.035 25.3649L136.286 27.3764C136.287 27.3889 136.284 27.4016 136.276 27.4116C136.269 27.4216 136.257 27.4282 136.245 27.4299H136.241Z" fill="#4F5E6D"/>
<path d="M140.996 27.6889C140.986 27.689 140.977 27.6861 140.969 27.6806C140.961 27.6751 140.955 27.6673 140.952 27.6582L139.776 24.6375C139.773 24.629 139.772 24.6197 139.774 24.6107C139.776 24.6018 139.78 24.5935 139.786 24.5869C139.793 24.5803 139.801 24.5757 139.81 24.5736C139.819 24.5714 139.828 24.5719 139.837 24.575L141.688 25.2144L143.038 24.6899C143.044 24.6875 143.05 24.6863 143.056 24.6864C143.063 24.6865 143.069 24.6879 143.075 24.6905C143.08 24.693 143.086 24.6967 143.09 24.7013C143.094 24.7059 143.097 24.7113 143.1 24.7172C143.104 24.729 143.104 24.742 143.099 24.7535C143.093 24.765 143.084 24.774 143.072 24.7786L141.707 25.3099C141.696 25.314 141.685 25.314 141.674 25.3099L139.904 24.699L141.041 27.6241C141.046 27.6359 141.046 27.6489 141.04 27.6604C141.035 27.6719 141.026 27.6809 141.014 27.6855C141.008 27.6879 141.002 27.6891 140.996 27.6889Z" fill="#4F5E6D"/>
<path d="M133.047 28.0423L131.568 27.8842C131.56 27.8832 131.552 27.8803 131.546 27.8758C131.539 27.8712 131.534 27.8651 131.53 27.858L130.407 25.5996C130.404 25.5928 130.402 25.5852 130.402 25.5774C130.402 25.5697 130.404 25.5621 130.407 25.5552L131.387 23.7906C131.394 23.7807 131.404 23.7736 131.415 23.7708C131.427 23.7681 131.439 23.7698 131.45 23.7757C131.46 23.7815 131.468 23.7911 131.472 23.8026C131.476 23.814 131.475 23.8264 131.47 23.8373L130.503 25.5791L131.602 27.792L133.059 27.9479C133.072 27.9493 133.083 27.9556 133.091 27.9654C133.099 27.9752 133.103 27.9877 133.101 28.0002C133.101 28.0066 133.099 28.0128 133.096 28.0184C133.092 28.0241 133.088 28.029 133.083 28.0329C133.078 28.0368 133.072 28.0397 133.066 28.0413C133.06 28.0429 133.053 28.0433 133.047 28.0423Z" fill="#4F5E6D"/>
<path d="M137.891 45.9145C137.492 45.9142 137.103 45.7935 136.774 45.5681C136.445 45.3428 136.192 45.0233 136.048 44.6516L129.064 26.6925C128.97 26.4509 128.925 26.1932 128.931 25.934C128.936 25.6749 128.993 25.4193 129.097 25.1821C129.202 24.9448 129.352 24.7304 129.539 24.5511C129.726 24.3718 129.947 24.2312 130.189 24.1372L139.454 20.5317C139.942 20.3429 140.485 20.3551 140.964 20.5658C141.443 20.7765 141.819 21.1685 142.01 21.6558L148.994 39.6228C149.088 39.8645 149.134 40.1223 149.128 40.3816C149.122 40.6408 149.066 40.8965 148.961 41.1338C148.857 41.3711 148.706 41.5855 148.519 41.7647C148.332 41.9439 148.111 42.0844 147.869 42.1782L138.604 45.7802C138.377 45.8689 138.135 45.9144 137.891 45.9145ZM140.166 20.6796C139.957 20.6792 139.75 20.7177 139.554 20.7934L130.29 24.4C130.082 24.4804 129.893 24.601 129.732 24.7548C129.571 24.9087 129.442 25.0927 129.352 25.2965C129.262 25.5003 129.214 25.7198 129.209 25.9423C129.205 26.1649 129.244 26.3862 129.325 26.5936L136.308 44.5549C136.472 44.9739 136.794 45.311 137.206 45.4921C137.617 45.6732 138.084 45.6835 138.503 45.5208L147.768 41.921C147.975 41.8405 148.165 41.7199 148.326 41.566C148.486 41.4122 148.615 41.2282 148.705 41.0244C148.795 40.8207 148.844 40.6013 148.848 40.3788C148.853 40.1563 148.814 39.9349 148.734 39.7275L141.747 21.7605C141.623 21.4424 141.406 21.1691 141.124 20.9763C140.842 20.7835 140.509 20.6801 140.168 20.6796H140.166Z" fill="#2C353D"/>
<path d="M163.05 73.5336C163.177 74.0133 163.363 74.4756 163.602 74.9103C165.291 78.0755 172.877 79.5431 176.06 75.9149C176.379 75.534 176.637 75.1056 176.825 74.6452C177.735 72.5438 177.596 69.9464 176.21 68.1272C175.435 67.1112 174.294 66.3227 173.896 65.1099C173.515 63.9483 173.896 62.6069 173.356 61.5078C173.139 61.0936 172.805 60.7516 172.397 60.5235C171.989 60.2954 171.523 60.1911 171.056 60.2233C170.601 60.1169 170.124 60.1454 169.684 60.3052C169.244 60.465 168.861 60.7492 168.579 61.1233C167.871 62.1177 168.032 63.5068 167.47 64.5911C166.882 65.7288 165.629 66.3204 164.702 67.1988C163.042 68.7734 162.494 71.3105 163.05 73.5336Z" fill="#9DDDF4"/>
<path d="M163.075 73.4784C163.202 73.9581 163.388 74.4204 163.627 74.8551C164.173 75.8791 165.333 76.721 166.76 77.275C166.237 76.9021 165.801 76.42 165.482 75.862C165.243 75.4272 165.058 74.965 164.931 74.4853C164.374 72.2668 164.923 69.7239 166.583 68.1504C167.51 67.2721 168.763 66.6714 169.351 65.5428C169.913 64.4574 169.75 63.0694 170.46 62.0738C170.741 61.6997 171.125 61.4155 171.565 61.2559C172.005 61.0963 172.481 61.0682 172.937 61.175C173.028 61.1699 173.12 61.1699 173.211 61.175C172.97 60.8419 172.647 60.5754 172.275 60.4005C171.903 60.2256 171.492 60.148 171.081 60.175C170.626 60.0681 170.149 60.0963 169.709 60.2559C169.269 60.4155 168.885 60.6997 168.604 61.0738C167.894 62.0693 168.057 63.4573 167.495 64.5427C166.907 65.6804 165.654 66.2721 164.727 67.1504C163.067 68.717 162.519 71.2599 163.075 73.4784Z" fill="#92CFE0"/>
<path d="M171.39 67.5274C171.356 67.9211 171.302 68.3557 171.005 68.6162C170.968 68.6545 170.924 68.6844 170.874 68.704C170.825 68.7236 170.772 68.7325 170.719 68.73C170.5 68.7015 170.43 68.4251 170.41 68.2055C170.313 67.1072 170.216 66.0097 170.118 64.9129C170.096 64.6626 170.089 64.3713 170.278 64.2052C170.394 64.121 170.531 64.0713 170.673 64.0619C170.956 64.0221 171.266 64.0118 171.504 64.1756C171.845 64.4032 171.578 65.3327 171.548 65.6843C171.495 66.2949 171.442 66.9092 171.39 67.5274Z" fill="#7C7C7B"/>
<path d="M171.416 67.4918C171.261 67.303 171.06 67.0914 170.82 67.1346C170.647 67.1642 170.527 67.3178 170.427 67.4611C169.772 68.3978 169.201 69.3903 168.72 70.4272H168.844C169.264 69.6102 169.767 68.8385 170.345 68.1244C170.473 67.9674 170.619 67.8036 170.818 67.766C171.035 67.7262 171.245 67.8491 171.421 67.9799C172.114 68.4908 172.731 69.459 173.559 69.7411C173.323 69.385 172.903 69.1029 172.602 68.7991C172.184 68.3827 171.789 67.9469 171.416 67.4918Z" fill="#7C7C7B"/>
<path d="M174.116 68.6419C174.164 68.8922 174.246 69.1311 174.306 69.378C174.356 69.5862 174.621 70.2028 174.177 70.1744C173.836 70.1562 173.054 69.0503 173.311 68.7454H173.154C173.448 69.0867 173.664 69.7625 173.582 70.2244C173.443 71.0118 172.852 70.956 172.477 70.5874C172.364 70.4736 171.903 69.9173 172.07 69.7182L171.843 69.6886C171.949 69.911 172.003 70.1552 171.998 70.4019C172.002 70.4863 171.991 70.5706 171.965 70.6511C171.956 70.9082 171.788 71.0523 171.461 71.0834C171.318 70.9492 171.101 71.1699 171.246 71.2973C171.539 71.551 171.886 71.4623 172.093 71.1471C172.406 70.6727 172.305 70.031 172.093 69.5452C172.082 69.5257 172.067 69.509 172.048 69.4966C172.03 69.4841 172.009 69.4761 171.986 69.4734C171.964 69.4706 171.942 69.4731 171.921 69.4806C171.9 69.4882 171.881 69.5005 171.865 69.5168C171.558 69.8865 171.885 70.3029 172.143 70.6215C172.401 70.9401 172.806 71.2154 173.233 71.0959C174.251 70.8104 173.796 69.1311 173.308 68.5861C173.287 68.5659 173.259 68.5547 173.23 68.5547C173.2 68.5547 173.172 68.5659 173.151 68.5861C172.714 69.1186 173.643 70.2131 174.175 70.3371C174.987 70.5271 174.264 68.8865 174.119 68.6305H174.114L174.116 68.6419Z" fill="#7C7C7B"/>
<path d="M167.464 64.5503C168.418 64.8427 169.531 64.8916 170.55 65.0179H170.598L170.774 65.0407V65.0247C171.798 65.0668 172.906 65.1931 173.894 65.0577C174.515 64.9713 174.304 64.7483 174.187 64.2283C174.07 63.7084 174.068 63.1498 174.068 62.6116C174.068 61.7287 174.068 60.8455 174.068 59.9618C174.086 59.6412 174.05 59.3198 173.963 59.0107C173.757 58.4145 173.176 58.0106 172.566 57.8502C172.485 57.8286 172.404 57.8127 172.324 57.7979C172.305 57.6613 172.277 57.5203 172.249 57.3769C172.232 57.2291 172.171 57.0899 172.073 56.9776C171.959 56.8852 171.82 56.8269 171.674 56.8092C171.313 56.733 170.939 56.6624 170.576 56.7364C170.473 56.7514 170.376 56.7952 170.296 56.8627C170.209 56.9629 170.155 57.087 170.139 57.2188C170.111 57.3564 170.086 57.4941 170.065 57.634C170.02 57.634 169.974 57.634 169.929 57.6431C169.301 57.7046 168.661 58.0095 168.363 58.5647C168.228 58.8561 168.141 59.1679 168.107 59.4874L167.684 62.1042C167.598 62.6355 167.509 63.1782 167.307 63.6799C167.106 64.1817 166.865 64.3705 167.464 64.5503Z" fill="#8E8D8B"/>
<path d="M167.465 64.5485C167.799 64.6472 168.139 64.7233 168.483 64.7761C168.438 64.6588 168.418 64.5336 168.424 64.4083C168.43 64.283 168.462 64.1603 168.518 64.0479C168.598 63.9046 168.726 63.7942 168.8 63.6486C168.877 63.4647 168.906 63.2642 168.884 63.0661C168.864 62.4505 168.79 61.8362 168.816 61.2207C168.842 60.6051 168.98 59.9692 169.338 59.4742C169.697 58.9793 170.232 58.6517 170.797 58.4366C171.638 58.1158 172.587 58.0293 173.443 58.2921C173.185 58.0861 172.887 57.9368 172.567 57.8541C172.487 57.8325 172.406 57.8166 172.325 57.8018C172.307 57.6652 172.278 57.5242 172.25 57.3808C172.233 57.233 172.172 57.0938 172.075 56.9815C171.96 56.8891 171.822 56.8308 171.675 56.8131C171.315 56.7369 170.94 56.6663 170.577 56.7403C170.474 56.7553 170.377 56.7991 170.298 56.8666C170.211 56.9668 170.156 57.0909 170.141 57.2227C170.112 57.3603 170.087 57.498 170.067 57.6379C170.021 57.6379 169.976 57.6379 169.93 57.647C169.302 57.7085 168.663 58.0134 168.365 58.5686C168.229 58.86 168.143 59.1718 168.109 59.4913L167.685 62.1081C167.599 62.6394 167.51 63.1821 167.309 63.6838C167.107 64.1856 166.865 64.3688 167.465 64.5485Z" fill="#7C7C7B"/>
<path d="M170.119 71.0025C169.922 71.1356 169.532 71.3745 169.275 71.3245C168.943 71.2596 168.706 70.9831 168.803 70.6543C168.824 70.5849 169.236 70.0457 169.325 70.1992C169.354 70.2504 169.08 70.5406 169.053 70.5622C168.933 70.6658 168.786 70.7341 168.63 70.7595C168.473 70.7848 168.313 70.7661 168.166 70.7055C167.693 70.503 167.673 69.784 167.769 69.3812C167.83 69.1332 167.942 68.7987 168.136 68.6212C168.179 68.4881 168.257 68.4619 168.372 68.5439C168.54 68.5439 168.563 68.5894 168.445 68.6861C168.354 68.8802 168.202 68.8636 167.99 68.636C167.717 68.6519 167.582 68.5564 167.585 68.3493C167.388 67.7725 167.848 67.0659 168.256 66.7121C168.387 66.5983 168.191 66.3981 168.065 66.521C167.533 67.0364 166.872 68.479 167.791 68.9785C168.387 69.3027 169.081 68.3163 168.521 68.1889C168.18 68.1115 167.902 68.644 167.787 68.8715C167.568 69.3107 167.446 69.8818 167.663 70.3506C168.108 71.3188 169.135 70.8967 169.484 70.123C169.5 70.0877 169.484 70.0354 169.435 70.0388C168.916 70.073 168.436 70.6771 168.726 71.1902C169.034 71.7363 169.816 71.3586 170.168 71.0764C170.205 71.0469 170.156 70.9831 170.118 71.0104L170.119 71.0025Z" fill="#7C7C7B"/>
<path d="M168.477 75.4731L171.776 75.6904C170.984 75.2642 170.18 74.861 169.362 74.481C169.684 73.7114 170.064 72.9674 170.5 72.2556C169.975 72.7677 169.402 73.2287 168.79 73.6323C168.68 72.9127 168.518 72.202 168.305 71.5059C168.091 72.1839 167.877 72.862 167.664 73.5401L164.739 71.5684L166.8 73.8143C166.271 74.0534 165.712 74.2169 165.137 74.3001L167.091 74.6278C166.816 74.9449 166.473 75.1964 166.089 75.3639L167.311 75.2228C167.384 75.2137 167.538 76.571 167.731 76.6393C168.069 76.7588 168.378 75.6893 168.477 75.4731Z" fill="#C4E8F2"/>
<path d="M165.251 20.1292L166.763 20.6109C166.921 20.6613 167.053 20.7724 167.129 20.9199C167.205 21.0673 167.219 21.239 167.169 21.3971L166.851 22.3966L164.141 21.5332L164.459 20.5338C164.484 20.455 164.525 20.382 164.578 20.319C164.631 20.2559 164.697 20.2041 164.77 20.1665C164.844 20.1289 164.924 20.1062 165.007 20.0998C165.089 20.0934 165.172 20.1034 165.251 20.1292Z" fill="#8E8D8B"/>
<path d="M162.824 39.1391L157.75 37.5224C157.604 37.4761 157.47 37.4016 157.353 37.3032C157.236 37.2048 157.14 37.0843 157.07 36.9488C157 36.8132 156.958 36.6652 156.945 36.5132C156.932 36.3611 156.949 36.208 156.996 36.0627L161.66 21.411C161.706 21.2653 161.781 21.1301 161.879 21.0133C161.978 20.8965 162.099 20.8003 162.235 20.7303C162.37 20.6603 162.519 20.6178 162.671 20.6054C162.824 20.593 162.977 20.6108 163.122 20.6578L168.198 22.2734C168.343 22.3197 168.478 22.3941 168.594 22.4926C168.711 22.591 168.807 22.7115 168.877 22.8471C168.947 22.9826 168.989 23.1307 169.002 23.2827C169.015 23.4347 168.997 23.5878 168.951 23.7331L164.286 38.3848C164.24 38.5303 164.165 38.6653 164.066 38.782C163.968 38.8987 163.847 38.9948 163.711 39.0649C163.576 39.135 163.427 39.1776 163.275 39.1903C163.123 39.203 162.97 39.1856 162.824 39.1391Z" fill="#8E8D8B"/>
<path d="M168.356 22.3281C168.442 22.5594 168.448 22.8132 168.373 23.0483L163.675 37.8058C163.586 38.0853 163.389 38.3179 163.128 38.4525C162.868 38.5871 162.564 38.6127 162.285 38.5237L157.105 36.874C157.068 36.8615 157.032 36.8478 156.997 36.833C157.055 36.9906 157.148 37.1328 157.27 37.2489C157.391 37.365 157.537 37.452 157.697 37.5032L162.878 39.1529C163.157 39.2418 163.461 39.216 163.722 39.0812C163.982 38.9464 164.179 38.7135 164.268 38.4338L168.968 23.6775C169.051 23.4167 169.034 23.1344 168.921 22.8851C168.808 22.6359 168.607 22.4374 168.356 22.3281Z" fill="#7C7C7B"/>
<path d="M168.718 24.4623L161.429 22.1406L157.446 34.6452L164.734 36.9669L168.718 24.4623Z" fill="#EA381B"/>
<path d="M162.107 29.0188C162.586 29.1867 163.052 29.3901 163.501 29.6275C162.681 30.6431 161.905 31.6936 161.174 32.779C162.401 31.664 163.628 30.5479 164.94 29.5342L163.532 28.9562L165.864 27.1905C165.295 27.0471 164.176 26.6523 164.176 26.6523C164.176 26.6523 163.293 27.682 162.998 28.0176C162.906 28.1177 162.19 29.0461 162.107 29.0188Z" fill="white"/>
<path opacity="0.37" d="M161.607 24.2609C161.184 26.2942 160.548 28.2772 159.709 30.1771C159.597 30.3884 159.53 30.621 159.513 30.8597C159.513 31.0975 159.653 31.3535 159.884 31.4115C159.99 31.428 160.099 31.4136 160.197 31.37C160.295 31.3264 160.378 31.2555 160.437 31.1658C160.55 30.9843 160.627 30.7832 160.665 30.573C161.25 28.2747 162.089 26.0488 163.168 23.9367C163.351 23.5817 163.544 23.2085 163.533 22.808C163.519 22.3382 162.85 21.5349 162.348 21.9195C161.809 22.3427 161.738 23.634 161.607 24.2609Z" fill="white"/>
<path opacity="0.37" d="M159.156 32.4455C159.003 32.6165 158.896 32.8242 158.847 33.0485C158.774 33.3157 158.733 33.5907 158.726 33.8676C158.717 33.9864 158.732 34.1058 158.772 34.2181C158.791 34.2746 158.825 34.3252 158.869 34.365C158.914 34.4048 158.968 34.4326 159.027 34.4456C159.097 34.4484 159.168 34.4349 159.232 34.4061C159.297 34.3773 159.354 34.334 159.4 34.2795C159.659 34.0041 159.854 33.674 159.969 33.3136C160.041 33.1487 160.075 32.9701 160.071 32.7902C160.029 32.276 159.519 32.0848 159.156 32.4455Z" fill="white"/>
<path d="M168.716 24.4637L167.996 24.2344L164.013 36.7389L164.732 36.9682L168.716 24.4637Z" fill="#D82C1A"/>
<path d="M152.063 14.3214L154.899 18.4346C155.24 18.9303 155.919 19.0551 156.415 18.7134L168.292 10.5256C168.788 10.184 168.913 9.50524 168.571 9.00963L165.736 4.89644C165.394 4.40082 164.716 4.27601 164.22 4.61765L152.342 12.8055C151.847 13.1471 151.722 13.8258 152.063 14.3214Z" fill="#8E8D8B"/>
<path d="M151.972 14.1879C152.041 13.9666 152.182 13.7747 152.373 13.6429L164.336 5.39552C164.448 5.31811 164.574 5.26356 164.707 5.23498C164.84 5.20641 164.978 5.20438 165.112 5.229C165.246 5.25362 165.374 5.30441 165.488 5.37847C165.603 5.45253 165.701 5.54841 165.778 5.66061L168.674 9.85997C168.695 9.88959 168.714 9.92036 168.731 9.95213C168.778 9.80192 168.791 9.64281 168.767 9.48701C168.744 9.33122 168.685 9.18286 168.595 9.05332L165.701 4.85396C165.545 4.62792 165.305 4.47306 165.035 4.42337C164.765 4.37367 164.486 4.43319 164.26 4.58887L152.292 12.8363C152.081 12.9825 151.932 13.2014 151.873 13.4509C151.814 13.7003 151.849 13.9628 151.972 14.1879Z" fill="#7C7C7B"/>
<path d="M152.809 17.6846L151.96 16.4634C151.871 16.3357 151.837 16.178 151.864 16.025C151.892 15.872 151.979 15.7361 152.107 15.6474L152.914 15.0864L154.432 17.2704L153.625 17.8314C153.497 17.9201 153.34 17.9545 153.187 17.927C153.034 17.8995 152.898 17.8123 152.809 17.6846Z" fill="#8E8D8B"/>
<path d="M152.933 12.3987L157.006 18.3066L167.143 11.3186L163.071 5.41063L152.933 12.3987Z" fill="#F98715"/>
<path d="M160.45 12.8133C160.192 12.4134 159.964 11.9951 159.768 11.5617C160.96 11.2781 162.139 10.9443 163.305 10.5605C161.754 10.6834 160.202 10.8063 158.647 10.804C158.885 11.2174 159.123 11.63 159.359 12.0419L156.616 12.0123C156.958 12.4458 157.559 13.3776 157.559 13.3776C157.559 13.3776 158.804 13.1216 159.214 13.0442C159.34 13.0283 160.404 12.7461 160.45 12.8133Z" fill="white"/>
<path opacity="0.37" d="M158.088 16.6308C159.57 15.3651 161.181 14.2592 162.895 13.3314C163.1 13.2391 163.283 13.1046 163.432 12.9366C163.568 12.7591 163.613 12.4906 163.474 12.3143C163.405 12.2412 163.317 12.1895 163.219 12.1655C163.121 12.1415 163.019 12.1461 162.924 12.1789C162.735 12.2479 162.561 12.3521 162.412 12.4861C160.657 13.8548 158.755 15.0229 156.74 15.9687C156.399 16.1279 156.043 16.294 155.821 16.5967C155.561 16.9539 155.593 17.9346 156.191 17.9369C156.836 17.9381 157.631 17.0211 158.088 16.6308Z" fill="white"/>
<path opacity="0.37" d="M164.606 11.9674C164.819 11.9291 165.017 11.8362 165.182 11.6978C165.39 11.542 165.578 11.3612 165.742 11.1596C165.817 11.0771 165.874 10.9798 165.91 10.8741C165.927 10.8209 165.931 10.7642 165.92 10.7093C165.91 10.6545 165.886 10.6031 165.85 10.56C165.799 10.5175 165.739 10.4872 165.675 10.4715C165.61 10.4557 165.543 10.4549 165.478 10.469C165.127 10.5243 164.793 10.6573 164.5 10.8581C164.352 10.9393 164.224 11.0514 164.124 11.1869C163.862 11.592 164.131 12.0266 164.606 11.9674Z" fill="white"/>
<path d="M152.932 12.3969L153.334 12.9805L163.472 5.99243L163.069 5.40884L152.932 12.3969Z" fill="#F76C0D"/>
<path d="M155.611 87.2044C155.593 87.2045 155.575 87.2002 155.558 87.1916C155.542 87.1831 155.528 87.1707 155.517 87.1555C155.439 87.0358 155.395 86.8971 155.39 86.7544C155.385 86.6116 155.419 86.4702 155.489 86.3454C155.521 86.2814 155.566 86.2243 155.621 86.177C155.765 86.0791 155.94 86.036 156.113 86.0553C156.141 86.0537 156.168 86.0609 156.191 86.0758C156.214 86.0908 156.232 86.1126 156.242 86.1383C156.25 86.161 156.251 86.1854 156.246 86.2088C156.24 86.2322 156.228 86.2535 156.211 86.2703C156.193 86.2871 156.17 86.2981 156.146 86.3019C156.122 86.3058 156.097 86.3023 156.074 86.2919L156.06 86.284C155.957 86.2751 155.854 86.3003 155.767 86.3556C155.736 86.3841 155.71 86.4185 155.691 86.4569C155.641 86.5439 155.616 86.6429 155.618 86.7432C155.621 86.8435 155.651 86.9413 155.705 87.0258C155.714 87.038 155.72 87.0519 155.723 87.0667C155.727 87.0815 155.727 87.0968 155.725 87.1117C155.722 87.1267 155.717 87.141 155.709 87.1537C155.7 87.1665 155.69 87.1776 155.677 87.1862C155.658 87.1989 155.635 87.2052 155.611 87.2044Z" fill="#ED1C24"/>
<path d="M154.816 87.0468C154.795 87.0467 154.774 87.0425 154.755 87.0343C154.729 87.0245 154.707 87.0056 154.694 86.9812C154.681 86.9567 154.678 86.9284 154.684 86.9014C154.691 86.8745 154.707 86.8508 154.729 86.8349C154.752 86.8189 154.78 86.8117 154.807 86.8147C154.965 86.698 155.078 86.5317 155.129 86.3425C155.18 86.1519 155.21 85.9561 155.217 85.7589C155.208 85.7413 155.203 85.7218 155.203 85.702C155.203 85.6822 155.208 85.6627 155.217 85.6451C155.228 85.6196 155.249 85.5992 155.274 85.5879C155.3 85.5765 155.329 85.575 155.356 85.5837C155.385 85.5928 155.411 85.612 155.428 85.6379C155.445 85.6639 155.452 85.695 155.449 85.7259C155.441 85.9565 155.408 86.1855 155.349 86.4085C155.282 86.6494 155.135 86.8603 154.932 87.0058C154.898 87.0306 154.858 87.0449 154.816 87.0468Z" fill="#ED1C24"/>
<path d="M144.255 88.2333C143.996 88.2414 143.739 88.1967 143.499 88.102C143.259 88.0073 143.041 87.8646 142.857 87.6826L143.407 87.1513C143.807 87.5654 144.533 87.5347 145.042 87.2901C145.633 87.0068 146.108 86.4675 146.568 85.9464L146.587 85.9237C147.025 85.4254 147.625 84.745 148.421 84.4071C149.27 84.0464 150.315 84.0817 151.364 84.5072C151.706 84.6472 152.205 84.8872 152.514 85.3469C152.637 85.5412 152.736 85.7498 152.808 85.9681C152.854 86.1022 152.91 86.2327 152.975 86.3583C153.074 86.5084 153.204 86.6361 153.355 86.7329C153.507 86.8298 153.677 86.8937 153.855 86.9205C154.033 86.9473 154.214 86.9365 154.388 86.8886C154.561 86.8408 154.723 86.757 154.862 86.6427L155.39 87.1957C155.166 87.39 154.902 87.5334 154.618 87.616C154.333 87.6987 154.034 87.7186 153.741 87.6743C153.448 87.6301 153.168 87.5228 152.921 87.3598C152.673 87.1968 152.464 86.982 152.307 86.7303C152.222 86.5714 152.15 86.4059 152.091 86.2354C152.039 86.0739 151.968 85.919 151.881 85.7735C151.734 85.5562 151.479 85.3787 151.076 85.216C150.579 85.0146 149.611 84.7325 148.719 85.1102C148.132 85.3605 147.665 85.8554 147.16 86.4288L147.141 86.4516C146.631 87.0296 146.105 87.628 145.374 87.9796C145.024 88.1454 144.642 88.232 144.255 88.2333Z" fill="#14181C"/>
<path d="M141.828 57.739L137.701 55.7832C137.701 55.7832 136.876 57.9893 136.81 59.6344C136.744 61.2796 137.13 63.984 137.13 63.984L141.354 60.1851L141.828 57.739Z" fill="#2D353F"/>
<path d="M141.524 60.1829L141.979 57.8199L139.333 56.5684C139.333 56.5684 138.508 58.7744 138.441 60.4196C138.426 61.2355 138.46 62.0516 138.543 62.8634L141.524 60.1829Z" fill="#14181C"/>
<path d="M154.536 64.5524C154.926 64.7515 155.322 64.9551 155.64 65.2578C156.242 65.8323 156.482 66.7061 156.466 67.5389C156.45 68.3717 156.203 69.1795 155.961 69.9759C155.574 71.2426 155.187 72.5089 154.801 73.7748C154.293 75.4416 153.777 77.1232 152.926 78.6443C152.764 78.9333 152.578 79.228 152.289 79.3918C152 79.5556 151.582 79.534 151.392 79.2621C151.202 78.9902 151.306 78.6398 151.411 78.336C151.895 76.929 152.378 75.5212 152.86 74.1127C153.144 73.2867 153.429 72.4471 153.466 71.5756C153.502 70.7041 153.524 69.274 152.882 68.6823C152.343 68.1874 151.572 67.9178 150.889 67.6584C150.205 67.399 149.262 67.5878 148.973 66.9166C148.716 66.3204 148.848 65.6366 149.013 65.0098C149.24 64.1348 149.794 62.5261 150.973 62.7809C151.48 62.8947 151.99 63.252 152.445 63.4852L154.536 64.5524Z" fill="#2D353F"/>
<path d="M152.664 67.4704C152.125 66.9755 151.355 66.7058 150.671 66.4464C150.047 66.2087 149.205 66.3463 148.844 65.8594C148.795 66.2165 148.84 66.5802 148.973 66.9152C149.262 67.5864 150.205 67.3976 150.889 67.657C151.572 67.9164 152.343 68.1872 152.882 68.6809C153.049 68.8445 153.175 69.0448 153.251 69.2657C153.213 68.5683 153.074 67.8538 152.664 67.4704Z" fill="#14181C"/>
<path d="M154.801 73.7672C155.186 72.5013 155.573 71.235 155.961 69.9683C156.203 69.1719 156.449 68.363 156.466 67.5313C156.478 67.0756 156.405 66.6216 156.248 66.1934C156.248 66.2355 156.248 66.2776 156.248 66.3208C156.231 67.1525 155.987 67.9614 155.744 68.7578L154.584 72.5567C154.075 74.2235 153.56 75.905 152.709 77.4262C152.547 77.7151 152.361 78.0098 152.073 78.1737C151.978 78.227 151.873 78.2603 151.764 78.2715C151.656 78.2826 151.546 78.2714 151.443 78.2385L151.412 78.3284C151.307 78.6322 151.209 78.9905 151.393 79.2545C151.576 79.5184 152.001 79.5469 152.29 79.3842C152.579 79.2215 152.765 78.9291 152.927 78.6367C153.777 77.119 154.293 75.4374 154.801 73.7672Z" fill="#14181C"/>
<path d="M148.953 77.0876C150.165 73.968 153.154 63.8035 153.154 63.8035L147.491 60.7715L141.828 57.7383C141.828 57.7383 135.024 65.8583 133.098 68.5956C131.172 71.333 128.223 77.6975 128.223 77.6975L136.151 81.9435L144.078 86.1895C144.078 86.1895 147.743 80.2084 148.953 77.0876Z" fill="#2D353F"/>
<path d="M148.981 77.1029C150.191 73.9821 153.18 63.8188 153.18 63.8188L150.703 62.4922C150.703 62.4922 147.715 72.6555 146.503 75.7763C145.291 78.8971 141.628 84.8782 141.628 84.8782L144.106 86.2059C144.106 86.2059 147.769 80.2226 148.981 77.1029Z" fill="#14181C"/>
<path d="M143.544 89.981C143.798 89.4749 143.989 88.9401 144.113 88.3882C144.323 87.4598 144.078 86.1958 144.078 86.1958L136.15 81.9498L128.227 77.6992C128.227 77.6992 127.039 78.1964 126.383 78.8847C125.991 79.2948 125.65 79.751 125.368 80.2432L124.976 80.0327L124.634 80.6801L143.532 90.8059L143.873 90.1585L143.544 89.981Z" fill="#72716F"/>
<path d="M143.509 89.9629C143.762 89.4567 143.953 88.9219 144.078 88.3701C144.289 87.4417 144.044 86.1776 144.044 86.1776L136.115 81.9316L140.111 84.0717C140.111 84.0717 140.356 85.3357 140.146 86.263C140.022 86.8168 139.831 87.3535 139.577 87.8615L139.9 88.0344L139.559 88.6807L143.491 90.7866L143.838 90.1404L143.509 89.9629Z" fill="#686766"/>
<path d="M141.828 57.7397C141.828 57.7397 144.692 57.5327 148.035 59.3234C151.931 61.41 153.155 63.805 153.155 63.805L141.828 57.7397Z" fill="#14181C"/>
<path d="M134.996 79.6379C134.85 79.5602 134.722 79.4545 134.617 79.327C134.513 79.1995 134.435 79.0526 134.387 78.8947C134.34 78.7369 134.324 78.5713 134.341 78.4073C134.357 78.2433 134.406 78.0843 134.485 77.9393L141.363 65.0898C141.441 64.9441 141.546 64.8153 141.674 64.7105C141.801 64.6058 141.948 64.5273 142.106 64.4795C142.264 64.4317 142.429 64.4156 142.594 64.432C142.758 64.4485 142.917 64.4973 143.062 64.5755C143.208 64.6529 143.337 64.7584 143.441 64.8858C143.546 65.0132 143.625 65.1601 143.672 65.3179C143.72 65.4758 143.736 65.6415 143.72 65.8056C143.703 65.9697 143.655 66.1289 143.576 66.2741L136.694 79.1237C136.617 79.2693 136.511 79.3982 136.384 79.5029C136.257 79.6077 136.11 79.6862 135.952 79.734C135.794 79.7818 135.628 79.7979 135.464 79.7814C135.3 79.7649 135.141 79.7161 134.996 79.6379Z" fill="#6B7287"/>
<path d="M142.247 65.5953L142.065 65.498L134.981 78.7272L135.162 78.8244L142.247 65.5953Z" fill="#2D353F"/>
<path d="M137.253 77.2071L135.758 76.4062L135.66 76.5878L137.156 77.3886L137.253 77.2071Z" fill="#2D353F"/>
<path d="M139.574 72.8731L138.079 72.0723L137.982 72.2538L139.477 73.0546L139.574 72.8731Z" fill="#2D353F"/>
<path d="M142.361 67.668L140.865 66.8672L140.768 67.0487L142.264 67.8496L142.361 67.668Z" fill="#2D353F"/>
<path d="M141.421 58.4961L152.339 64.3429L151.778 65.3896L141.421 58.4961Z" fill="#14181C"/>
<path d="M125.364 80.2441L139.577 87.8578L141.229 87.1206L140.509 86.4334L125.364 80.2441Z" fill="#686766"/>
<path opacity="0.17" d="M140.764 60.3186C139.285 62.0673 137.796 63.8206 136.524 65.7274C136.385 65.9356 136.244 66.1586 136.235 66.41C136.226 66.6615 136.404 66.9345 136.655 66.9357C136.841 66.9357 136.996 66.7935 137.121 66.6569C138.632 65.0379 139.594 62.9138 141.343 61.5553C141.744 61.2447 142.452 60.6622 142.045 60.0706C141.681 59.5404 141.066 59.9637 140.764 60.3186Z" fill="white"/>
<path opacity="0.17" d="M135.331 67.5944C134.962 67.9941 134.667 68.4565 134.46 68.9597C134.372 69.1724 134.308 69.4375 134.46 69.6127C134.611 69.788 134.848 69.772 135.029 69.6719C135.202 69.5577 135.346 69.4056 135.452 69.2271L136.305 67.9994C136.79 67.2986 135.736 67.153 135.331 67.5944Z" fill="white"/>
<path opacity="0.17" d="M153.23 65.0468C153.23 65.1362 153.25 65.2245 153.288 65.3053C153.327 65.3861 153.382 65.4575 153.451 65.5144C153.59 65.6262 153.741 65.7227 153.9 65.8023C154.196 65.9569 154.45 66.1786 154.644 66.4497C154.833 66.7403 154.909 67.09 154.857 67.4327C154.824 67.5619 154.81 67.6952 154.814 67.8286C154.818 67.8952 154.845 67.9584 154.89 68.0075C154.935 68.0566 154.996 68.0887 155.062 68.0982C155.189 68.0982 155.29 67.9845 155.358 67.8809C155.644 67.4622 155.886 66.9468 155.742 66.461C155.69 66.305 155.613 66.1583 155.515 66.0264C155.297 65.7101 153.301 63.9842 153.23 65.0468Z" fill="white"/>
<path d="M156.176 94.9177C155.995 94.6077 155.786 94.3148 155.552 94.0428C155.393 93.8448 155.229 93.6412 155.079 93.4227C154.725 92.9051 154.354 92.1189 154.599 91.3145C154.748 90.8264 155.091 90.4624 155.395 90.1404C155.49 90.0391 155.58 89.9447 155.663 89.8468C156.068 89.3735 156.218 88.9958 156.195 88.4998C156.172 88.0037 155.838 87.6681 155.285 87.1447L155.812 86.5918C156.356 87.1095 156.918 87.6442 156.949 88.4656C156.989 89.3383 156.608 89.9049 156.234 90.344C156.139 90.4578 156.039 90.5613 155.943 90.6637C155.674 90.9504 155.419 91.2212 155.322 91.5375C155.157 92.0779 155.49 92.6752 155.702 92.9915C155.834 93.1849 155.983 93.3681 156.139 93.5604C156.403 93.8688 156.638 94.2009 156.84 94.5525L156.176 94.9177Z" fill="#14181C"/>
<path d="M156.918 98.4058L157.291 98.2548L157.841 99.6142C157.86 99.6606 157.86 99.7126 157.84 99.7588C157.821 99.8049 157.783 99.8413 157.737 99.8601L157.713 99.8699C157.666 99.8887 157.614 99.8883 157.568 99.8688C157.522 99.8492 157.486 99.8121 157.467 99.7657L156.917 98.4062L156.918 98.4058Z" fill="#72716F"/>
<path d="M158.824 97.6363L159.197 97.4852L159.747 98.8445C159.765 98.8907 159.764 98.9418 159.744 98.9869C159.724 99.0321 159.687 99.0677 159.642 99.0862L159.617 99.0961C159.571 99.1148 159.519 99.1144 159.473 99.0949C159.427 99.0754 159.39 99.0383 159.371 98.9919L158.823 97.6367L158.824 97.6363Z" fill="#72716F"/>
<path d="M159.477 96.8805L156.31 98.1632C156.202 98.2068 156.15 98.3295 156.194 98.4373L156.204 98.4626C156.248 98.5703 156.37 98.6223 156.478 98.5786L159.645 97.296C159.753 97.2524 159.805 97.1296 159.761 97.0219L159.751 96.9966C159.707 96.8888 159.584 96.8369 159.477 96.8805Z" fill="#14181C"/>
<path d="M156.335 94.3926L156.832 94.1914C157.168 94.0555 157.543 94.0584 157.877 94.1996C158.21 94.3408 158.474 94.6087 158.61 94.9443L159.407 96.911L156.381 98.1364L155.584 96.1676C155.449 95.8325 155.452 95.4575 155.593 95.1248C155.734 94.7921 156.001 94.5288 156.335 94.3926Z" fill="#14181C"/>
<path d="M156.418 95.8496C156.435 95.9339 156.439 96.0265 156.43 96.1155C156.42 96.2045 156.398 96.286 156.365 96.3497C156.333 96.4134 156.292 96.4563 156.247 96.4732C156.202 96.4901 156.156 96.48 156.114 96.4444C156.072 96.4087 156.037 96.3491 156.012 96.273C155.987 96.1968 155.974 96.1077 155.974 96.0167C155.975 95.9258 155.989 95.8371 156.014 95.762C156.04 95.6869 156.076 95.6287 156.118 95.5947C156.146 95.5717 156.176 95.5601 156.207 95.5606C156.237 95.561 156.267 95.5734 156.295 95.5971C156.323 95.6208 156.348 95.6553 156.369 95.6987C156.39 95.742 156.407 95.7933 156.418 95.8496Z" fill="#72716F"/>
<path d="M158.242 95.2423C158.276 95.2845 158.285 95.3309 158.267 95.3756C158.248 95.4203 158.204 95.4612 158.139 95.4933C158.075 95.5254 157.992 95.5471 157.903 95.5557C157.813 95.5644 157.721 95.5595 157.637 95.5418C157.553 95.5241 157.481 95.4944 157.431 95.4563C157.381 95.4182 157.355 95.3736 157.355 95.328C157.356 95.2824 157.383 95.2379 157.435 95.2002C157.486 95.1625 157.558 95.1332 157.643 95.1161C157.756 95.0935 157.882 95.0942 157.994 95.1178C158.106 95.1414 158.195 95.1862 158.242 95.2423Z" fill="#72716F"/>
<path d="M31.06 30.9062C31.7995 31.3074 32.493 31.5741 32.8321 32.1212C33.5338 33.2478 34.2804 36.6988 34.2804 36.6988L38.1896 35.9309C38.1896 35.9309 37.4926 32.4707 37.6863 31.1671C37.7796 30.5337 38.3112 30.0245 38.831 29.3738C40.0396 28.1346 41.4537 26.3413 40.5346 23.6548C39.6155 20.9682 37.1901 16.1642 37.1334 14.2042C37.0885 12.6684 37.1618 9.08412 37.1618 9.08412L36.4884 5.86536C36.4884 5.86536 36.0241 3.64211 34.2662 4.0525C32.7234 4.41231 33.3743 5.95042 32.5367 6.07228C31.6991 6.19413 31.8397 5.53773 31.1876 5.12159C30.4256 4.63418 28.8249 4.95031 28.3181 5.68947C27.8857 6.32058 28.2779 6.87237 27.458 7.07814C26.6381 7.28391 26.6192 5.6205 25.0551 5.8757C23.2724 6.16539 23.7379 8.38978 23.7379 8.38978L24.4668 11.5947C24.9003 12.5385 25.9589 14.8687 26.5342 16.2999C27.269 18.1265 26.9642 23.4651 27.1958 26.2884C27.4273 29.1117 29.4498 30.2256 31.06 30.9062Z" fill="#AADBFB"/>
<path d="M31.0542 30.896C31.7926 31.2972 32.4872 31.5639 32.8263 32.111C33.528 33.2365 34.2758 36.6886 34.2758 36.6886L35.5919 36.4276C35.5919 36.4276 34.8452 32.979 34.1435 31.8501C33.8021 31.3029 33.1086 31.0362 32.3715 30.635C30.7613 29.9545 28.7399 28.8406 28.5072 26.0184C28.2745 23.1962 28.5805 17.8565 27.8456 16.0287C27.2739 14.5987 26.2106 12.2685 25.7818 11.3282L25.0529 8.12209C25.0529 8.12209 24.7233 6.54834 25.6814 5.87585C25.4739 5.83565 25.2603 5.83565 25.0529 5.87585C23.2714 6.16554 23.7357 8.38878 23.7357 8.38878L24.4657 11.5949C24.8981 12.5387 25.9566 14.8688 26.532 16.2989C27.2679 18.1255 26.962 23.4652 27.1947 26.2874C27.4274 29.1096 29.4476 30.2154 31.0542 30.896Z" fill="#85C2F9"/>
<path d="M25.2712 6.90835C26.8354 6.6543 26.8543 8.31656 27.6741 8.11079C28.494 7.90502 28.1018 7.35323 28.5342 6.72212C29.0457 5.9841 30.6417 5.66683 31.4084 6.15654C32.0605 6.57268 31.92 7.23023 32.7576 7.10723C33.5951 6.98422 32.9442 5.44611 34.48 5.08515C36.2379 4.67476 36.7021 6.89801 36.7021 6.89801L36.486 5.8634C36.486 5.8634 36.0217 3.64016 34.2638 4.05055C32.7209 4.41036 33.3719 5.94847 32.5343 6.07032C31.6967 6.19218 31.8373 5.53578 31.1852 5.11964C30.4232 4.63222 28.8224 4.94835 28.3156 5.68752C27.8832 6.31863 28.2754 6.87041 27.4556 7.07619C26.6357 7.28196 26.6168 5.61854 25.0527 5.87375C23.27 6.16343 23.7354 8.38783 23.7354 8.38783L23.9505 9.42243C23.9505 9.42243 23.4933 7.19919 25.2712 6.90835Z" fill="#85C2F9"/>
<path d="M34.3287 37.1953L38.3446 36.4003C38.6821 36.3335 38.9001 36.013 38.8315 35.6845L38.4221 33.7267C38.3534 33.3982 38.0241 33.1861 37.6865 33.2529L33.6706 34.048C33.333 34.1148 33.115 34.4353 33.1837 34.7638L33.5931 36.7216C33.6618 37.0501 33.9911 37.2622 34.3287 37.1953Z" fill="#304298"/>
<path d="M33.2904 33.9005L37.7766 33.0096C37.8955 32.9859 37.9723 32.873 37.948 32.7573L37.9381 32.7099C37.9138 32.5942 37.7977 32.5195 37.6788 32.5432L33.1925 33.4341C33.0736 33.4577 32.9969 33.5706 33.0211 33.6864L33.0311 33.7337C33.0553 33.8494 33.1714 33.9241 33.2904 33.9005Z" fill="#304298"/>
<path d="M38.0446 35.9849L38.4023 35.9141L37.8392 33.2206L37.4815 33.2915L38.0446 35.9849Z" fill="#223466"/>
<path d="M37.2709 36.1392L37.6287 36.0684L37.0655 33.3749L36.7078 33.4458L37.2709 36.1392Z" fill="#223466"/>
<path d="M36.3842 36.3169L36.7419 36.2461L36.1788 33.5527L35.8211 33.6235L36.3842 36.3169Z" fill="#223466"/>
<path d="M35.5251 36.4849L35.8828 36.4141L35.3197 33.7207L34.962 33.7915L35.5251 36.4849Z" fill="#223466"/>
<path d="M34.7382 36.6392L35.0959 36.5684L34.5328 33.8749L34.1751 33.9458L34.7382 36.6392Z" fill="#223466"/>
<path d="M34.1081 36.7661L34.4658 36.6953L33.9027 34.0019L33.545 34.0727L34.1081 36.7661Z" fill="#223466"/>
<path d="M34.14 36.9191L38.4402 36.0685C38.4678 36.063 38.4964 36.0685 38.5199 36.0835C38.5434 36.0986 38.5597 36.1221 38.5654 36.1489C38.571 36.1759 38.5655 36.2039 38.55 36.2269C38.5345 36.25 38.5104 36.2661 38.4827 36.2719L34.1825 37.1226C34.155 37.1277 34.1265 37.1222 34.1031 37.1071C34.0797 37.0921 34.0633 37.0688 34.0573 37.0421C34.0517 37.0152 34.0572 36.9871 34.0727 36.9641C34.0882 36.9411 34.1124 36.9249 34.14 36.9191Z" fill="#405CC6"/>
<path opacity="0.58" d="M39.3926 26.6494C39.48 26.3045 39.4989 25.8803 39.2047 25.6769C38.9685 25.5171 38.6578 25.5757 38.3778 25.6401L36.0162 26.1999C35.78 26.2551 35.526 26.3252 35.3972 26.5229C35.3271 26.6493 35.2913 26.7909 35.2932 26.9345C35.2623 27.5036 35.3359 28.0735 35.5106 28.6174C35.5791 28.8313 35.6784 29.0577 35.8804 29.1646C36.0069 29.2226 36.1459 29.2501 36.2856 29.2451C36.9542 29.2658 37.9738 29.2324 38.3884 28.6554C38.8303 28.0358 39.2059 27.3886 39.3926 26.6494Z" fill="white"/>
<path opacity="0.58" d="M37.0367 31.3789C37.0228 31.226 37.0228 31.0721 37.0367 30.9191C37.0485 30.7317 37.065 30.5271 36.9528 30.3742C36.8954 30.3024 36.8164 30.2497 36.7269 30.2236C36.6373 30.1974 36.5416 30.199 36.4531 30.2282C36.3652 30.2595 36.2863 30.311 36.2232 30.3782C36.1601 30.4454 36.1145 30.5265 36.0904 30.6145C36.0648 30.7206 36.0544 30.8297 36.0597 30.9387C36.062 31.1649 36.0798 31.3907 36.1128 31.6146C36.1589 31.9273 36.3574 32.5457 36.8122 32.4342C37.267 32.3227 37.0792 31.6847 37.0367 31.3789Z" fill="white"/>
<path opacity="0.58" d="M36.3336 8.7376C36.2046 8.01837 36.0371 7.3062 35.8315 6.60402C35.7922 6.43671 35.7252 6.27675 35.6331 6.13041C35.5868 6.05723 35.5242 5.99508 35.45 5.94853C35.3758 5.90198 35.2918 5.8722 35.2042 5.86141C35.1111 5.85987 35.0191 5.88105 34.9365 5.92302C34.854 5.96498 34.7836 6.02641 34.7317 6.10167C34.6289 6.2533 34.5686 6.42846 34.5568 6.60977C34.5013 7.11672 34.6478 7.62483 34.8309 8.10419C34.9951 8.53183 35.2361 9.40779 35.6579 9.66184C36.2722 10.0274 36.401 9.11466 36.3336 8.7376Z" fill="white"/>
<path d="M31.2314 15.543L27.4321 16.2948L27.6649 17.4099L31.2314 15.543Z" fill="#85C2F9"/>
<path d="M46.7381 64.8902L49.2603 61.468C49.5132 61.1318 49.6385 60.7206 49.6147 60.3046L49.5332 59.1114C49.5183 58.865 49.4406 58.6261 49.3072 58.4162C49.1738 58.2062 48.9888 58.0319 48.7688 57.9089L42.1307 54.1418C41.8938 54.015 41.6317 53.9391 41.3621 53.9193C41.0925 53.8995 40.8216 53.9362 40.5678 54.0269L39.2955 54.4476C38.8683 54.5898 38.4969 54.8573 38.2322 55.2132L35.71 58.6343C35.4377 58.9902 35.3114 59.432 35.3556 59.8735L35.3851 60.1322C35.4295 60.5653 35.3093 60.9992 35.0472 61.3519L28.6029 70.3253C28.4646 70.5168 28.2945 70.6847 28.0996 70.8219L26.0381 72.2715C25.8569 72.3998 25.6974 72.555 25.5656 72.7313L21.6931 77.8469C21.5268 78.0561 21.4114 78.2992 21.3555 78.5581C21.2997 78.8169 21.3048 79.0847 21.3705 79.3413L21.5017 79.8011C21.6073 80.1789 21.8621 80.5008 22.2105 80.6966L29.372 84.7603C29.7436 84.9634 30.1763 85.0345 30.5959 84.9615L31.1263 84.8764C31.4105 84.8292 31.6822 84.7274 31.9255 84.577C32.1689 84.4266 32.3791 84.2306 32.5439 84.0004L36.2546 78.7872C36.3767 78.6168 36.4692 78.428 36.5287 78.2285L37.1914 75.98C37.2565 75.7618 37.3609 75.5567 37.4998 75.3742L44.1792 66.5341C44.4605 66.1653 44.8566 65.8947 45.3086 65.7627L45.5898 65.6811C46.0519 65.5482 46.4557 65.2701 46.7381 64.8902Z" fill="#29AAE3"/>
<path d="M45.3084 65.7611L45.5896 65.6795C46.05 65.5457 46.452 65.2676 46.7332 64.8886L49.2554 61.4663C49.5083 61.1301 49.6336 60.719 49.6098 60.303L49.5283 59.1097C49.5157 58.909 49.4617 58.7127 49.3693 58.5328C49.2769 58.3528 49.1482 58.1929 48.9908 58.0625L49.0463 58.8775C49.0699 59.2939 48.9446 59.7053 48.6919 60.042L46.1697 63.462C45.8879 63.8402 45.486 64.1178 45.0261 64.2517L44.7449 64.3333C44.2928 64.4652 43.8967 64.7358 43.6155 65.1047L36.9325 73.9482C36.793 74.131 36.6882 74.3365 36.623 74.5552L35.9615 76.8026C35.9016 77.0025 35.8086 77.1916 35.6862 77.3624L31.9755 82.5757C31.8105 82.8056 31.6002 83.0015 31.3569 83.1518C31.1135 83.3022 30.842 83.4041 30.5579 83.4516L30.0274 83.5367C29.6081 83.61 29.1756 83.5384 28.8047 83.3344L21.6421 79.2718C21.5212 79.203 21.4104 79.1187 21.3125 79.0212C21.3186 79.1281 21.336 79.234 21.3645 79.3373L21.4956 79.7972C21.6012 80.175 21.856 80.4968 22.2044 80.6927L29.3718 84.7598C29.7434 84.9629 30.1761 85.034 30.5957 84.961L31.1261 84.8759C31.4103 84.8287 31.682 84.7269 31.9254 84.5765C32.1688 84.4261 32.379 84.2302 32.5438 84L36.2544 78.7867C36.3765 78.6163 36.4691 78.4276 36.5285 78.228L37.1913 75.9795C37.2563 75.7614 37.3607 75.5562 37.4996 75.3737L44.1791 66.5336C44.4601 66.1643 44.8563 65.8934 45.3084 65.7611Z" fill="#2495BC"/>
<path opacity="0.53" d="M39.742 55.0314C39.5058 55.097 39.2305 55.197 39.1206 55.4096C39.0776 55.5056 39.0681 55.6126 39.0935 55.7143C39.1189 55.816 39.1778 55.9068 39.2612 55.9729C39.4334 56.1005 39.6291 56.1949 39.8377 56.2511C41.1786 56.7247 42.3186 57.5156 43.5189 58.2214C43.6177 58.2892 43.7313 58.3337 43.8508 58.3513C44.1237 58.372 44.3706 58.149 44.5596 57.941C44.6659 57.8401 44.7426 57.7135 44.7817 57.5743C44.8302 57.3099 44.5856 57.1144 44.3647 56.9742C43.4921 56.4086 42.6194 55.843 41.7468 55.2774C41.0309 54.8142 40.6765 54.8004 39.742 55.0314Z" fill="white"/>
<path opacity="0.53" d="M27.3046 72.1117C27.2761 72.1328 27.2541 72.161 27.2408 72.1933C27.2219 72.2496 27.2632 72.3002 27.3034 72.3405C27.6448 72.6727 28.0855 72.9037 28.5214 73.1313L30.6372 74.2349C30.8069 74.3444 31.0066 74.4013 31.2102 74.3982C31.3599 74.374 31.4985 74.306 31.6076 74.2034C31.7167 74.1007 31.7911 73.9682 31.821 73.8234C31.8406 73.6887 31.8276 73.5515 31.7831 73.4225C31.7386 73.2936 31.6638 73.1766 31.5646 73.0808C31.3639 72.8917 31.1343 72.7339 30.8841 72.6129C29.9012 72.0692 28.5356 71.038 27.3046 72.1117Z" fill="white"/>
<path d="M49.5366 58.9833L40.6775 53.9769L41.6687 53.3125L49.7031 57.8533L49.5366 58.9833Z" fill="#EF4538"/>
<path d="M48.2028 57.0251L48.0398 58.1367L49.5661 59L49.7327 57.8689L41.6982 53.3281L41.6816 53.3396L48.2028 57.0251Z" fill="#CE3932"/>
<path d="M40.6776 53.9766L49.5662 59.0001L49.5449 59.2714L40.4448 54.0651L40.6776 53.9766Z" fill="#1B7289"/>
<path d="M46.3682 63.7115C45.759 63.9337 45.0954 63.9737 44.4627 63.8264C43.8507 63.6977 43.2907 63.4471 42.7367 63.1976L39.6285 61.802C39.3191 61.6402 38.9813 61.5361 38.6326 61.4951C38.5029 61.4776 38.3712 61.5075 38.2628 61.579C38.202 61.6305 38.1602 61.7001 38.144 61.7769C38.1278 61.8538 38.138 61.9337 38.1731 62.0044C38.251 62.1333 38.3616 62.2405 38.4944 62.3159C39.6935 63.1275 40.9977 63.8103 42.2405 64.5633C42.5395 64.7257 42.8083 64.9359 43.0356 65.1852C43.1478 65.313 43.2276 65.4647 43.2687 65.628C43.3097 65.7913 43.3108 65.9617 43.2718 66.1255C43.2292 66.268 43.1586 66.4011 43.0639 66.5175C43.0391 66.5486 43.0108 66.5899 43.0308 66.6198C43.0509 66.6497 43.1194 66.5945 43.0816 66.5853L46.3682 63.7115Z" fill="#2495BC"/>
<path d="M45.1512 100.917C44.4637 100.769 43.7513 100.602 43.0661 100.753C42.3809 100.905 41.7371 101.491 41.7997 102.173C41.854 102.765 42.3833 103.188 42.7448 103.667C43.1063 104.147 43.2386 104.958 42.6952 105.231C41.9344 104.988 41.0141 105.461 40.7861 106.202C40.5581 106.944 41.0625 107.831 41.8363 108.033C42.2403 108.139 42.8511 108.297 42.7153 108.683C42.6668 108.82 42.5286 108.901 42.4105 108.99C41.5835 109.608 41.7182 111.072 42.6467 111.537C43.0531 111.743 43.528 111.767 43.9864 111.779L46.1129 111.855C47.3852 111.899 48.7887 111.902 49.755 111.097C50.9151 110.131 50.96 108.439 51.4834 107.045C51.7704 106.282 52.295 105.52 53.0995 105.303C53.487 105.199 53.8993 105.231 54.2927 105.15C54.9176 105.023 55.4421 104.623 55.9312 104.221C57.3953 103.018 58.752 101.697 59.9869 100.27C61.1068 98.9784 62.1736 97.4564 62.1051 95.7677C62.0153 93.564 60.0223 91.7683 59.9065 89.5658C59.7801 87.1517 61.8759 85.2504 62.8599 83.034C63.1695 82.3305 63.3455 81.4534 62.8599 80.8498C62.5717 80.49 62.111 80.313 61.6786 80.1509L59.3808 79.3025C58.6295 79.0255 57.8521 78.7439 57.05 78.7829C55.6323 78.8519 54.484 79.8877 53.5271 80.9073C52.9026 81.5741 52.3005 82.2604 51.7208 82.9662C51.4491 83.2984 51.175 83.6479 51.0675 84.0594C50.9805 84.4712 51.0074 84.898 51.1455 85.2963C51.7598 87.3563 53.676 88.745 54.9424 90.5061C55.1323 90.7504 55.2821 91.0219 55.3866 91.3108C55.5048 91.6948 55.4965 92.104 55.4811 92.5052C55.4469 93.4122 55.4079 94.3445 55.0523 95.1814C54.6967 96.0183 53.9524 96.7643 53.0262 96.8701C52.8207 96.8773 52.6161 96.9004 52.4143 96.9391C51.8331 97.0988 51.5342 97.7231 51.4113 98.2978C51.2885 98.8726 51.2542 99.4945 50.9021 99.9716C49.8838 101.345 46.6575 101.242 45.1512 100.917Z" fill="#AADBFB"/>
<path d="M53.2744 78.4697C54.5739 77.6086 56.3176 77.5902 57.5793 76.6855C58.312 77.8808 58.951 79.1282 59.4908 80.417C59.524 80.4784 59.536 80.5485 59.525 80.617C59.5089 80.6549 59.4853 80.6894 59.4555 80.7184C59.4257 80.7474 59.3903 80.7704 59.3514 80.786C58.4099 81.2933 57.3315 81.5083 56.2609 81.4022C55.48 81.3263 54.8775 81.0424 54.4369 80.4308C54.2916 80.2296 53.3713 78.4018 53.2744 78.4697Z" fill="#AADBFB"/>
<path d="M57.1987 74.6974L52.9025 75.916C52.541 76.0185 52.3334 76.3867 52.4388 76.7384L53.0662 78.8331C53.1716 79.1847 53.55 79.3867 53.9114 79.2842L58.2076 78.0657C58.5691 77.9632 58.7767 77.595 58.6713 77.2433L58.0439 75.1486C57.9385 74.7969 57.5601 74.5949 57.1987 74.6974Z" fill="#304298"/>
<path d="M58.5681 78.2586L53.7671 79.6202C53.6399 79.6563 53.5669 79.7858 53.604 79.9096L53.6192 79.9604C53.6562 80.0841 53.7894 80.1551 53.9165 80.1191L58.7175 78.7574C58.8446 78.7213 58.9177 78.5918 58.8806 78.4681L58.8654 78.4173C58.8283 78.2936 58.6952 78.2225 58.5681 78.2586Z" fill="#304298"/>
<path d="M53.2664 76.3424L52.8831 76.4512L53.7465 79.3339L54.1299 79.2251L53.2664 76.3424Z" fill="#223466"/>
<path d="M54.0943 76.1042L53.7109 76.2129L54.5744 79.0956L54.9578 78.9869L54.0943 76.1042Z" fill="#223466"/>
<path d="M55.0423 75.8405L54.6589 75.9492L55.5224 78.8319L55.9058 78.7232L55.0423 75.8405Z" fill="#223466"/>
<path d="M55.9629 75.5749L55.5796 75.6836L56.4431 78.5663L56.8264 78.4576L55.9629 75.5749Z" fill="#223466"/>
<path d="M56.8047 75.3346L56.4214 75.4434L57.2849 78.326L57.6682 78.2173L56.8047 75.3346Z" fill="#223466"/>
<path d="M57.4776 75.1491L57.0942 75.2578L57.9577 78.1405L58.3411 78.0318L57.4776 75.1491Z" fill="#223466"/>
<path d="M57.4339 74.9714L52.8265 76.2773C52.7969 76.2851 52.7654 76.2815 52.7385 76.2671C52.7116 76.2528 52.6915 76.2288 52.6824 76.2002C52.6743 76.1714 52.678 76.1407 52.6928 76.1145C52.7076 76.0883 52.7322 76.0688 52.7616 76.06L57.363 74.7541C57.3926 74.7462 57.4242 74.7498 57.4511 74.7642C57.478 74.7786 57.4981 74.8026 57.5071 74.8311C57.5155 74.8592 57.5126 74.8893 57.499 74.9153C57.4854 74.9414 57.4621 74.9614 57.4339 74.9714Z" fill="#405CC6"/>
<path d="M59.6608 79.4121C59.6053 79.642 59.5509 79.8719 59.4954 80.1018C59.434 80.3593 59.3855 80.6663 59.5734 80.856C59.7872 81.0732 60.1534 80.9916 60.4582 81.0456C61.0843 81.1606 61.4151 81.9066 61.2592 82.5079C61.1032 83.1091 60.6023 83.5632 60.0778 83.9172C59.022 84.6159 57.8037 85.047 56.5333 85.1715C55.2629 85.2959 53.9807 85.1098 52.8029 84.6299C52.5761 85.0104 53.0392 85.4289 53.4468 85.6128C55.2304 86.4024 57.2528 86.5152 59.1174 85.9289C59.0839 86.4196 58.9501 86.8988 58.7237 87.3384C58.4973 87.7781 58.1829 88.1693 57.7989 88.489C57.4374 88.7856 56.972 89.0937 56.9803 89.5535C56.9803 89.8053 57.1315 90.0294 57.2685 90.2432C58.1557 91.6227 58.7488 93.3792 58.0636 94.8656C57.532 96.0152 56.3435 96.7601 55.6926 97.8545C55.4646 98.2373 55.3382 98.7936 55.6926 99.0707C56.1084 99.3949 56.6991 99.0109 57.0771 98.6465L59.0134 96.7785C59.2355 96.5635 59.5592 96.3324 59.8321 96.483C60.1522 96.6624 60.0211 97.136 59.8415 97.4498C58.9362 99.0308 57.7903 100.469 56.4427 101.717C55.7339 102.365 54.7546 102.998 53.8721 102.61C52.764 102.124 52.8431 100.529 52.0563 99.6282L49.7337 105.505C49.5813 105.89 49.1336 106.349 48.8371 106.054C48.7458 105.937 48.7005 105.793 48.7095 105.646C48.6918 105.325 48.6811 104.989 48.5146 104.712C48.348 104.435 47.9664 104.252 47.6793 104.408C47.9471 105.581 48.2161 106.754 48.4862 107.927C48.5677 108.283 48.6469 108.661 48.5193 109.004C48.4012 109.306 48.146 109.534 47.8672 109.706C46.6362 110.469 44.87 110.273 43.8505 109.262C44.5227 108.719 44.4129 107.519 43.6544 107.099C42.9952 106.735 42.173 106.959 41.4181 106.893C41.1769 106.869 40.9448 106.79 40.74 106.664C40.7766 107.279 41.2232 107.876 41.8422 108.043C42.2462 108.149 42.857 108.306 42.7211 108.691C42.6739 108.828 42.5345 108.91 42.4164 108.998C41.5894 109.618 41.7241 111.08 42.6526 111.547C43.0602 111.751 43.5351 111.777 43.9923 111.788L46.1188 111.864C47.3899 111.909 48.7934 111.911 49.7609 111.107C50.9198 110.141 50.9647 108.449 51.4881 107.053C51.7752 106.29 52.2997 105.53 53.1054 105.313C53.4917 105.208 53.9052 105.24 54.2974 105.16C54.9223 105.032 55.448 104.632 55.9359 104.231C57.4005 103.028 58.758 101.706 59.9939 100.28C61.1139 98.9879 63.8924 96.3244 63.8239 94.6357C63.7341 92.432 60.0282 91.7767 59.9124 89.5776C59.7872 87.1693 61.8829 85.2622 62.8658 83.0459C63.1754 82.3423 63.3526 81.4641 62.8658 80.8617C62.5776 80.503 62.118 80.326 61.6845 80.1639L59.6608 79.4121Z" fill="#85C2F9"/>
<path opacity="0.58" d="M57.5688 83.915C57.8594 83.8081 58.1772 83.5862 58.1393 83.2862C58.1015 82.9861 57.7412 82.8505 57.4412 82.8735C57.1411 82.8965 56.8505 83.0264 56.5551 83.0344C55.5403 83.0597 55.1741 81.7699 54.2798 81.8239C53.8533 81.8481 52.5846 82.5343 52.5869 83.0275C52.5928 84.3817 56.743 84.2196 57.5688 83.915Z" fill="white"/>
<path opacity="0.58" d="M42.9089 102.249C43.2243 102.842 44.0997 102.779 44.733 103.035C45.58 103.38 45.9793 104.326 46.1364 105.206C46.2935 106.085 46.3054 107.017 46.7413 107.804C46.9882 107.501 47.0213 107.079 46.961 106.698C46.9008 106.316 46.7602 105.948 46.6988 105.567C46.648 105.149 46.6444 104.728 46.6881 104.31C46.7177 103.872 46.8299 103.33 47.267 103.22C47.6497 103.124 47.9994 103.441 48.2605 103.73C48.5322 103.5 48.8323 103.21 48.7626 102.87C48.7 102.571 48.3621 102.396 48.0538 102.381C47.7454 102.366 47.4359 102.467 47.1264 102.514C46.5474 102.602 45.9549 102.503 45.4394 102.232C45.085 102.045 44.7826 101.785 44.4246 101.613C43.984 101.404 42.4435 101.373 42.9089 102.249Z" fill="white"/>
<g clip-path="url(#clip1_901_6626)">
<path d="M74.6695 122.929C74.101 120.663 72.7703 118.649 70.8906 117.208C69.0108 115.768 66.6905 114.985 64.301 114.984H27.5698C25.1803 114.985 22.86 115.768 20.9802 117.208C19.1004 118.649 17.7698 120.663 17.2013 122.929L11.7874 144.437H80.0762L74.6695 122.929Z" fill="#F98715"/>
<path d="M10.0442 144.438H80.6367C81.7877 144.438 82.8916 144.884 83.7055 145.678C84.5193 146.473 84.9766 147.551 84.9766 148.675V157.18H5.70435V148.675C5.70435 147.551 6.16158 146.473 6.97546 145.678C7.78933 144.884 8.89317 144.438 10.0442 144.438Z" fill="#F98715"/>
<path d="M46.1533 157.174H11.7964L22.2282 234.88C22.3336 235.668 22.729 236.392 23.3406 236.916C23.9521 237.44 24.7381 237.728 25.5518 237.728H66.3298C67.1435 237.728 67.9295 237.44 68.5411 236.916C69.1526 236.392 69.548 235.668 69.6534 234.88L80.0852 157.174H46.1533Z" fill="#F98715"/>
<path d="M65.8633 135.239L63.0695 122.12C62.8264 120.98 62.1887 119.957 61.2635 119.223C60.3384 118.489 59.1825 118.088 57.9901 118.088H32.6854C31.4933 118.088 30.3376 118.489 29.4128 119.223C28.488 119.958 27.8505 120.981 27.6078 122.12L24.8122 135.239C24.6553 135.976 24.6686 136.738 24.851 137.469C25.0335 138.2 25.3806 138.882 25.8671 139.466C26.3535 140.05 26.9672 140.521 27.6634 140.844C28.3595 141.167 29.1207 141.335 29.8916 141.335H60.7857C61.5566 141.335 62.3177 141.167 63.0138 140.844C63.71 140.521 64.3235 140.05 64.8099 139.466C65.2962 138.882 65.6431 138.2 65.8253 137.469C66.0076 136.737 66.0205 135.976 65.8633 135.239Z" fill="#B25400"/>
<path d="M46.1533 157.174H11.7964L12.0911 159.365C27.823 162.013 44.3939 159.914 59.4874 164.977C63.3788 166.282 67.3895 168.319 69.1272 171.959C70.0187 173.827 70.2122 175.928 70.3604 177.983C71.3037 191.209 70.8005 204.495 68.8596 217.616C68.3352 221.161 67.6444 224.837 65.46 227.715C61.4059 233.053 53.7172 233.968 46.9164 234.261C41.4808 234.497 36.0216 234.626 30.6113 234.06C27.9441 233.781 25.2209 233.307 22.9298 231.941C22.505 231.687 22.1 231.403 21.7183 231.09L22.2282 234.88C22.3336 235.668 22.729 236.392 23.3406 236.916C23.9521 237.44 24.7381 237.728 25.5518 237.728H66.3298C67.1435 237.728 67.9295 237.44 68.5411 236.916C69.1526 236.392 69.548 235.668 69.6534 234.88L80.0852 157.174H46.1533Z" fill="#F76C0D"/>
<path opacity="0.12" d="M16.1 164.834C15.4816 166.137 15.7583 167.659 16.0404 169.071C18.8829 183.289 21.0655 197.612 22.5881 212.041C22.7689 213.706 23.5935 215.908 25.2824 215.627C26.8465 215.366 27.0527 213.272 26.8556 211.743C25.1576 198.518 22.711 185.262 23.6007 171.958C23.7182 170.203 23.89 168.405 23.3945 166.714C22.5917 163.965 17.8902 161.075 16.1 164.834Z" fill="white"/>
<path opacity="0.12" d="M7.88693 147.474C7.93395 148.276 8.68256 148.903 9.4782 149.102C10.2738 149.302 11.1056 149.173 11.9284 149.054C20.1867 147.861 28.5752 147.995 36.9221 147.932C37.2682 147.954 37.6147 147.894 37.9311 147.755C38.2331 147.593 38.4483 147.226 38.3127 146.913C38.1771 146.601 37.7539 146.5 37.3959 146.459C35.7214 146.272 34.0325 146.283 32.349 146.283L18.6388 146.3C17.0295 146.302 7.75312 145.227 7.88693 147.474Z" fill="white"/>
<path d="M63.0695 122.12C62.8264 120.98 62.1887 119.957 61.2635 119.223C60.3384 118.489 59.1825 118.088 57.9901 118.088H32.6854C31.4933 118.088 30.3376 118.489 29.4128 119.223C28.488 119.958 27.8505 120.981 27.6078 122.12L24.8122 135.239C24.6553 135.976 24.6686 136.738 24.851 137.469C25.0335 138.2 25.3806 138.882 25.8671 139.466C26.3535 140.05 26.9672 140.521 27.6634 140.844C28.3595 141.167 29.1207 141.335 29.8916 141.335H36.6274C35.6816 139.793 35.2731 137.993 35.4629 136.205C35.9475 132.201 39.1499 128.876 42.9039 127.19C46.6578 125.504 50.8982 125.206 55.03 125.217C58.0534 125.217 61.3589 125.543 64.0532 126.742L63.0695 122.12Z" fill="#7F3900"/>
<path d="M59.4945 191.853C59.377 191.609 58.7712 191.378 57.9466 191.182C58.0389 189.892 57.8436 187.886 56.8816 184.814C55.9775 181.942 50.7896 177.415 49.4858 176.312C49.4939 176.178 49.473 176.043 49.4243 175.917C48.9759 174.857 44.0646 173.927 43.5674 174.624C43.4082 174.847 43.5095 175.481 43.7482 176.277C42.5457 176.757 40.7338 177.906 38.2059 180.549C35.8027 183.067 34.291 191.431 34.291 191.431C34.291 191.431 34.3416 191.341 34.4357 191.18C33.9203 192.317 35.4555 196.588 36.2891 196.653C36.5658 196.676 37.0775 196.274 37.6652 195.673C38.6923 196.45 40.6181 197.409 44.2256 198.223C47.6613 198.998 55.8346 196.094 55.8346 196.094H55.8201C57.1944 195.606 59.8272 192.547 59.4945 191.853ZM45.8639 195.105C43.1768 194.328 41.4083 193.227 40.3288 192.347C40.7537 191.71 41.0376 191.195 41.0521 190.986C41.1172 190.209 35.3452 189.991 34.5044 191.064C35.2277 189.828 37.6815 185.801 40.1624 183.501C42.1949 181.617 44.0574 180.676 45.3756 180.2C45.7373 180.877 46.0429 181.375 46.2201 181.495C46.7951 181.884 49.229 178.27 49.475 176.529C50.2652 177.864 52.5146 181.825 53.294 185.003C53.8799 187.38 53.8672 189.267 53.6882 190.607C52.8926 190.564 52.2796 190.58 52.0825 190.67C51.3953 190.988 53.8003 195.522 55.218 196.109C53.5634 196.099 49.0139 196.007 45.8639 195.105Z" fill="white"/>
</g>
<path d="M275.447 45.3226L274.492 45.0547L273.91 47.1292L274.864 47.3971L275.447 45.3226Z" fill="#6D6D6D"/>
<path d="M275.97 46.7353L274.662 46.3671L273.355 46C273.355 46 267.224 48.463 267.163 48.4456L273.577 50.2463L279.99 52.0458C279.923 52.0295 275.97 46.7353 275.97 46.7353Z" fill="#B8C2C4"/>
<path d="M279.731 52.6864L266.974 49.1055L259.997 73.96L272.754 77.5409L279.731 52.6864Z" fill="#D66E18"/>
<path d="M279.729 52.6874L276.488 51.7773L269.511 76.6319L272.752 77.5419L279.729 52.6874Z" fill="#C16017"/>
<path d="M279.757 52.8504L266.761 49.2C266.708 49.1851 266.659 49.16 266.616 49.126C266.572 49.092 266.536 49.0498 266.509 49.0019C266.482 48.9539 266.465 48.9011 266.459 48.8465C266.452 48.7919 266.457 48.7366 266.472 48.6836C266.486 48.6307 266.511 48.5812 266.545 48.538C266.579 48.4948 266.622 48.4588 266.67 48.432C266.718 48.4051 266.77 48.3881 266.825 48.3817C266.88 48.3754 266.935 48.3798 266.988 48.3949L279.989 52.0442C280.096 52.0745 280.186 52.1458 280.241 52.2425C280.295 52.3393 280.309 52.4537 280.279 52.5606C280.264 52.6141 280.239 52.6641 280.204 52.7076C280.17 52.7512 280.127 52.7876 280.079 52.8145C280.03 52.8415 279.977 52.8585 279.921 52.8647C279.866 52.8708 279.81 52.866 279.757 52.8504Z" fill="#999999"/>
<path opacity="0.53" d="M274.192 50.5697L267.095 48.5774C267.027 48.5584 266.957 48.5979 266.938 48.6657L266.935 48.6772C266.916 48.745 266.955 48.8153 267.023 48.8344L274.12 50.8266C274.188 50.8457 274.258 50.8062 274.277 50.7384L274.281 50.7268C274.3 50.6591 274.26 50.5887 274.192 50.5697Z" fill="white"/>
<path d="M272.644 78.3847L259.644 74.7387C259.537 74.7087 259.446 74.6376 259.392 74.541C259.338 74.4444 259.324 74.3302 259.354 74.2234C259.369 74.1705 259.394 74.121 259.428 74.0777C259.462 74.0345 259.504 73.9984 259.552 73.9715C259.6 73.9446 259.653 73.9274 259.707 73.9209C259.762 73.9144 259.817 73.9187 259.87 73.9337L272.871 77.583C272.978 77.6132 273.069 77.6845 273.123 77.7813C273.177 77.8781 273.191 77.9924 273.161 78.0993C273.13 78.2057 273.059 78.2955 272.962 78.349C272.865 78.4025 272.75 78.4154 272.644 78.3847Z" fill="#999999"/>
<path opacity="0.53" d="M267.08 76.1048L259.983 74.1126C259.915 74.0935 259.845 74.1331 259.826 74.2008L259.823 74.2124C259.804 74.2801 259.843 74.3505 259.911 74.3695L267.008 76.3618C267.076 76.3808 267.146 76.3413 267.165 76.2735L267.169 76.262C267.188 76.1942 267.148 76.1239 267.08 76.1048Z" fill="white"/>
<path d="M266.931 49.248L266.823 49.6326L279.459 53.6435L279.757 52.8494L266.931 49.248Z" fill="#C16017"/>
<path opacity="0.53" d="M273.814 46.1289L269.183 49.0124L271.517 49.6399L274.254 46.252L273.814 46.1289Z" fill="white"/>
<path d="M275.969 46.7341L275.572 46.623L275.441 46.5859L276.94 51.1906L279.984 52.0446L275.969 46.7341Z" fill="#ADADAD"/>
<path d="M277.119 42.2897L274.508 41.5566L273.455 45.3061L276.067 46.0392L277.119 42.2897Z" fill="#ADADAD"/>
<path d="M275.123 43.6503C274.955 44.2505 274.605 44.6764 274.34 44.6024C274.075 44.5283 273.999 43.9814 274.167 43.3823C274.335 42.7832 274.686 42.3562 274.95 42.4302C275.214 42.5043 275.292 43.0512 275.123 43.6503Z" fill="#999999"/>
<path d="M275.095 43.7547C274.976 44.1752 274.73 44.4748 274.55 44.4225C274.37 44.3702 274.309 43.9868 274.428 43.5652C274.547 43.1436 274.793 42.8451 274.978 42.8963C275.163 42.9475 275.213 43.3332 275.095 43.7547Z" fill="#6D6D6D"/>
<path d="M276.782 42.1966L276.199 42.0332L275.147 45.7827L275.729 45.9461L276.782 42.1966Z" fill="#999999"/>
<path d="M271.841 61.0621C272.558 58.51 271.749 56.0512 270.036 55.5702C268.323 55.0893 266.353 56.7683 265.637 59.3204C264.92 61.8725 265.728 64.3313 267.442 64.8123C269.155 65.2932 271.125 63.6142 271.841 61.0621Z" fill="#5BA93A"/>
<path d="M271.218 60.8903C270.583 63.1529 268.919 64.6649 267.502 64.2673C266.085 63.8697 265.452 61.7128 266.086 59.4502C266.72 57.1876 268.384 55.6756 269.802 56.0732C271.219 56.4708 271.853 58.6277 271.218 60.8903Z" fill="#93D850"/>
<path opacity="0.19" d="M271.015 50.2413L269.154 49.7188L262.177 74.5733L264.038 75.0959L271.015 50.2413Z" fill="white"/>
<path d="M259.066 31.4975L245.362 22.5137C245.251 22.4401 245.173 22.3253 245.146 22.1945C245.119 22.0636 245.144 21.9273 245.217 21.8154C245.291 21.7036 245.406 21.6256 245.537 21.5984C245.668 21.5712 245.804 21.5972 245.916 21.6705L259.619 30.6533C259.674 30.6895 259.722 30.7363 259.759 30.7911C259.796 30.8458 259.823 30.9073 259.836 30.9722C259.85 31.037 259.85 31.1039 259.838 31.169C259.826 31.2341 259.801 31.2961 259.765 31.3515C259.728 31.407 259.681 31.4547 259.627 31.4921C259.572 31.5294 259.511 31.5556 259.446 31.5691C259.381 31.5827 259.314 31.5834 259.249 31.5711C259.184 31.5588 259.122 31.5338 259.066 31.4975Z" fill="#B8C2C4"/>
<path d="M270.578 13.5852L257.194 4.81055L245.672 22.3847L259.056 31.1593L270.578 13.5852Z" fill="#B8C2C4"/>
<path d="M276.049 11.2507C279.749 9.07717 281.787 5.67763 280.6 3.65761C279.414 1.63759 275.452 1.76203 271.752 3.93557C268.052 6.1091 266.014 9.50864 267.2 11.5287C268.387 13.5487 272.349 13.4242 276.049 11.2507Z" fill="#B8C2C4"/>
<path d="M267.623 9.25167C267.412 8.62857 267.214 8.00075 267.029 7.3682C267.218 7.12419 267.584 7.78978 267.821 7.59261C267.86 7.55439 267.888 7.50616 267.902 7.45317C268.096 6.89833 268.292 6.34386 268.489 5.78975C268.745 6.0009 269.053 6.13836 269.381 6.18736C269.591 5.51731 269.846 4.86221 270.144 4.22654L271.089 4.60127C271.541 4.04214 271.905 3.41775 272.17 2.74939L273.259 3.6688C273.776 3.0653 274.293 2.46253 274.81 1.86049C274.772 2.16019 274.827 2.46437 274.967 2.73196L277.017 1.57617L277.151 2.49449C277.746 2.24368 278.362 2.0468 278.991 1.90624C278.846 2.21198 278.699 2.51772 278.549 2.82347C279.235 2.71342 279.926 2.64069 280.619 2.6056L279.856 3.32674C280.57 3.5084 281.242 3.82775 281.833 4.26684C281.356 4.38497 280.897 4.57018 280.472 4.81696C280.882 5.25511 281.209 5.76457 281.437 6.32025L280.752 6.28758C280.722 6.28201 280.692 6.28242 280.662 6.28878C280.632 6.29514 280.604 6.30732 280.58 6.32461C280.541 6.36846 280.521 6.42545 280.524 6.48366L280.351 8.47061C280.069 8.17357 279.732 7.93419 279.358 7.76581C279.407 8.13935 279.37 8.51894 279.251 8.87633C279.132 9.23373 278.934 9.55974 278.672 9.83011C278.43 9.67888 278.24 9.4568 278.128 9.19394C278.159 9.91062 277.915 10.6121 277.446 11.1548C277.137 10.8719 276.804 10.6167 276.451 10.3922C276.421 11.0581 276.193 11.7 275.797 12.2365C275.479 11.71 274.988 11.3097 274.409 11.1036C274.415 11.6656 274.345 12.2259 274.2 12.7692C273.76 12.4711 273.293 12.2158 272.804 12.0066C272.826 12.4459 272.798 12.8862 272.722 13.3193L271.33 12.5567C271.33 12.8923 271.33 13.2289 271.339 13.5644C270.937 13.0045 270.127 13.011 269.454 12.8628C268.016 12.5469 267.616 11.4293 266.682 10.5033C266.54 10.3639 265.908 9.95866 265.966 9.71464C266.046 9.37477 267.333 9.30941 267.623 9.25167Z" fill="#B8C2C4"/>
<path d="M270.926 11.562C269.912 11.562 269.125 11.2493 268.747 10.6132C268.335 9.91272 268.504 8.93885 269.22 7.87238C269.914 6.83859 271.047 5.82877 272.41 5.02811C275.304 3.32764 278.23 3.1174 279.071 4.54771C279.483 5.24815 279.315 6.22202 278.598 7.28849C277.904 8.32228 276.771 9.3321 275.408 10.1328C273.806 11.0761 272.189 11.5609 270.926 11.562ZM276.909 3.91262C275.702 3.91262 274.119 4.38757 272.567 5.29826C271.244 6.07605 270.147 7.0521 269.478 8.04776C268.832 9.00965 268.668 9.86587 269.015 10.4574C269.756 11.7167 272.552 11.452 275.251 9.86696C276.574 9.08917 277.671 8.11312 278.34 7.11747C278.986 6.15558 279.15 5.29935 278.803 4.70784C278.491 4.17079 277.804 3.91262 276.909 3.91262Z" fill="#9DA2A3"/>
<path d="M271.377 10.8844C270.506 10.8844 269.868 10.611 269.568 10.0979C268.864 8.8996 270.209 6.84946 272.63 5.42787C273.768 4.75901 274.967 4.33853 276.007 4.25683C277.078 4.1675 277.859 4.44093 278.201 5.02699C278.904 6.22527 277.559 8.27432 275.139 9.69591C273.999 10.3659 272.801 10.7853 271.762 10.868C271.629 10.8778 271.501 10.8844 271.377 10.8844ZM276.388 4.49975C276.271 4.49975 276.149 4.5052 276.023 4.51609C275.024 4.59888 273.864 5.00303 272.755 5.65227C270.499 6.978 269.167 8.91267 269.785 9.96607C270.075 10.4606 270.766 10.6883 271.733 10.6088C272.732 10.5249 273.892 10.1218 275.001 9.47151C277.257 8.14687 278.59 6.21219 277.971 5.1588C277.722 4.72742 277.167 4.49866 276.391 4.49866L276.388 4.49975Z" fill="#9DA2A3"/>
<path d="M249.681 25.0206L259.056 31.1666L270.464 13.7633L260.115 7.04753C259.321 6.53118 258.524 6.01375 257.683 5.57583C257.553 5.50829 257.148 5.23051 256.92 5.2207L256.784 5.42877C256.838 5.61831 257.053 5.8645 257.13 5.94511C257.751 6.60852 258.629 7.11071 259.308 7.73163C260.032 8.39455 260.715 9.10064 261.354 9.84605C262.008 10.6086 262.617 11.4147 262.978 12.345C263.572 13.8701 263.437 15.6228 262.815 17.1381C262.193 18.6534 261.114 19.9486 259.874 21.0227C257.072 23.4661 253.413 24.7929 249.681 25.0206Z" fill="#9DA2A3"/>
<path d="M270.346 14.2882L256.647 5.30547C256.591 5.26923 256.544 5.22238 256.506 5.16763C256.469 5.11288 256.443 5.0513 256.429 4.98643C256.416 4.92155 256.415 4.85466 256.428 4.78958C256.44 4.7245 256.466 4.66253 256.502 4.60721C256.538 4.55177 256.585 4.50401 256.64 4.46667C256.695 4.42933 256.756 4.40313 256.821 4.38958C256.886 4.37602 256.953 4.37537 257.018 4.38767C257.083 4.39996 257.145 4.42496 257.2 4.46123L270.903 13.445C270.959 13.4813 271.006 13.5281 271.044 13.5829C271.081 13.6376 271.107 13.6992 271.121 13.7641C271.134 13.829 271.135 13.8959 271.122 13.9609C271.11 14.026 271.084 14.088 271.048 14.1433C271.012 14.1992 270.965 14.2474 270.91 14.285C270.855 14.3226 270.793 14.3489 270.728 14.3624C270.662 14.3759 270.595 14.3762 270.53 14.3635C270.464 14.3508 270.402 14.3252 270.346 14.2882Z" fill="#B8C2C4"/>
<path d="M269.249 15.6125L255.865 6.83789L247.002 20.3572L260.385 29.1318L269.249 15.6125Z" fill="#F98715"/>
<path d="M262.905 12.2935C263.499 13.8186 263.364 15.5714 262.741 17.0866C262.117 18.6019 261.041 19.8961 259.799 20.9701C257.898 22.6227 255.611 23.7632 253.175 24.3994L260.314 29.077L269.174 15.5561L262.202 10.9863C262.484 11.3947 262.72 11.8331 262.905 12.2935Z" fill="#D66E18"/>
<path d="M242.859 86.6138C242.771 87.0942 242.75 87.6465 243.077 88.0093C243.216 88.1498 243.38 88.2636 243.56 88.3448C244.238 88.6886 244.969 88.9151 245.723 89.0147C245.754 89.8562 245.955 90.6828 246.312 91.4451C247.278 91.5131 248.248 91.4784 249.206 91.3416C249.342 91.7642 249.478 92.1873 249.613 92.6107L245.967 92.5725C245.864 92.5628 245.76 92.5793 245.664 92.6205C245.463 92.7294 245.446 93.0072 245.471 93.2338C245.567 94.057 245.892 94.8368 246.409 95.4843L245.305 96.2948C245.21 96.3492 245.133 96.4318 245.087 96.5312C245.065 96.6243 245.071 96.7221 245.107 96.8112C245.366 97.663 246.196 98.2415 247.067 98.4528C247.939 98.6641 248.84 98.5704 249.726 98.4757L255.215 97.8896C255.384 97.8861 255.55 97.8392 255.696 97.7534C255.83 97.6597 257.381 97.0312 257.454 96.882C258.863 94.0497 258.826 91.6085 259.053 88.4559C259.102 87.7849 259.085 87.0724 258.744 86.4951C258.525 86.1617 258.253 85.8671 257.937 85.6236C256.085 84.0408 252.513 79.544 250.254 78.6246C249.558 78.3425 250.271 81.2837 249.791 80.7074C249.674 80.541 249.541 80.387 249.393 80.2477C249.174 80.0932 248.915 80.0064 248.647 79.9983C246.955 79.8545 245.985 81.153 245.023 82.3371C244.009 83.5822 243.151 85.0081 242.859 86.6138Z" fill="#CED5D0"/>
<path d="M258.748 86.4931C258.53 86.1597 258.257 85.8651 257.941 85.6216C256.089 84.0388 252.517 79.542 250.258 78.6226C250.018 78.5257 249.945 78.81 249.931 79.2011C249.984 79.2498 250.04 79.2953 250.099 79.3372C251.515 80.359 251.079 82.0834 250.302 83.3787C249.412 84.8619 248.185 86.1146 246.721 87.0356C248.735 86.0686 250.392 84.4913 251.458 82.5279C251.493 82.4389 251.559 82.3657 251.645 82.322C251.753 82.2817 251.879 82.3558 251.978 82.4309C252.992 83.1554 254.038 83.9125 254.66 84.9931C255.016 85.6118 255.262 86.3646 255.888 86.7088C256.344 86.9593 257.055 87.1042 257.023 87.6238C257.008 87.7341 256.974 87.8408 256.921 87.9387C256.099 89.6699 254.86 91.1706 253.317 92.3069L256.557 89.8624C256.5 91.49 256.26 93.1061 255.844 94.6806C255.762 94.9889 255.666 95.3081 255.442 95.5346C255.115 95.8614 254.614 95.9094 254.154 95.905C252.159 95.8843 250.153 95.2133 248.197 95.6076C249.322 95.8958 250.425 96.2631 251.499 96.7068C251.683 96.783 251.903 96.9312 251.849 97.1229C251.814 97.2124 251.746 97.2855 251.66 97.3277C250.714 97.9127 249.506 97.7449 248.411 97.5576C247.785 97.4486 247.131 97.3321 246.623 96.9497C246.271 96.6839 246.013 96.307 245.656 96.0445L245.306 96.3026C245.21 96.3571 245.134 96.4396 245.088 96.539C245.066 96.6321 245.072 96.7299 245.107 96.819C245.367 97.6708 246.197 98.2493 247.068 98.4606C247.94 98.6719 248.841 98.5783 249.727 98.4835L255.215 97.8974C255.385 97.894 255.551 97.8471 255.697 97.7613C255.831 97.6676 257.382 97.039 257.455 96.8898C258.864 94.0575 258.827 91.6163 259.054 88.4637C259.107 87.7862 259.089 87.0737 258.748 86.4931Z" fill="#BFC4C0"/>
<path d="M244.16 88.1135C245.009 87.8238 245.711 87.2181 246.355 86.5884C248.084 84.9098 249.582 82.962 250.548 80.7539C250.782 80.218 250.983 79.5851 250.707 79.0698C250.43 78.5545 249.784 78.3606 249.203 78.3802C247.752 78.4304 246.532 79.4696 245.566 80.548C244.287 81.9827 243.203 83.6341 242.686 85.486C242.361 86.6484 242.28 88.7562 244.16 88.1135Z" fill="#A8ADAA"/>
<g clip-path="url(#clip2_901_6626)">
<path d="M284.927 112.603C284.295 110.017 282.818 107.718 280.73 106.074C278.642 104.43 276.065 103.536 273.411 103.535H232.62C229.966 103.536 227.388 104.43 225.301 106.074C223.213 107.718 221.735 110.017 221.103 112.603L215.09 137.153H290.94L284.927 112.603Z" fill="#F7CB14"/>
<path d="M213.156 137.154H291.557C292.835 137.154 294.061 137.664 294.965 138.571C295.869 139.478 296.377 140.708 296.377 141.991V151.699H208.336V141.991C208.336 140.708 208.844 139.478 209.747 138.571C210.651 137.664 211.878 137.154 213.156 137.154Z" fill="#F7CB14"/>
<path d="M253.262 151.691H215.09L226.677 240.388C226.794 241.287 227.234 242.113 227.913 242.711C228.593 243.309 229.466 243.639 230.37 243.638H275.66C276.564 243.639 277.437 243.309 278.117 242.711C278.796 242.113 279.236 241.287 279.354 240.388L290.94 151.691H253.262Z" fill="#F7CB14"/>
<path d="M275.154 126.655L272.049 111.681C271.779 110.38 271.071 109.212 270.044 108.374C269.017 107.536 267.733 107.078 266.409 107.078H238.291C236.967 107.078 235.684 107.536 234.657 108.374C233.63 109.213 232.922 110.38 232.652 111.681L229.549 126.655C229.374 127.496 229.388 128.365 229.591 129.2C229.793 130.035 230.178 130.813 230.719 131.48C231.259 132.146 231.94 132.684 232.713 133.053C233.487 133.422 234.332 133.613 235.188 133.613H269.502C270.359 133.614 271.206 133.424 271.98 133.055C272.754 132.687 273.437 132.15 273.978 131.483C274.52 130.817 274.906 130.037 275.109 129.202C275.313 128.367 275.328 127.497 275.154 126.655Z" fill="#C18E0E"/>
<path d="M253.262 151.691H215.09L215.417 154.192C232.891 157.215 251.298 154.819 268.06 160.598C272.382 162.087 276.839 164.413 278.769 168.568C279.757 170.7 279.974 173.098 280.137 175.443C281.186 190.54 280.628 205.705 278.47 220.682C277.887 224.729 277.12 228.924 274.694 232.209C270.193 238.302 261.651 239.346 254.1 239.681C248.062 239.951 241.999 240.098 235.99 239.451C233.025 239.133 230.001 238.593 227.458 237.033C226.986 236.744 226.536 236.419 226.112 236.062L226.677 240.388C226.794 241.287 227.234 242.113 227.913 242.711C228.593 243.309 229.466 243.639 230.37 243.638H275.66C276.564 243.639 277.437 243.309 278.117 242.711C278.796 242.113 279.236 241.287 279.354 240.388L290.94 151.691H253.262Z" fill="#F4B80F"/>
<path opacity="0.44" d="M219.88 160.436C219.193 161.923 219.501 163.66 219.814 165.272C222.974 181.5 225.398 197.849 227.086 214.319C227.287 216.22 228.203 218.732 230.081 218.412C231.816 218.114 232.045 215.724 231.826 213.979C229.942 198.884 227.223 183.752 228.211 168.566C228.344 166.563 228.533 164.512 227.982 162.582C227.095 159.444 221.859 156.145 219.88 160.436Z" fill="white"/>
<path opacity="0.44" d="M210.758 140.62C210.81 141.535 211.642 142.25 212.527 142.478C213.413 142.706 214.335 142.559 215.247 142.423C224.419 141.061 233.736 141.214 243.009 141.142C243.393 141.168 243.777 141.099 244.128 140.94C244.463 140.755 244.702 140.336 244.552 139.979C244.401 139.623 243.931 139.508 243.533 139.461C241.676 139.248 239.8 139.26 237.928 139.26L222.7 139.28C220.915 139.282 210.609 138.055 210.758 140.62Z" fill="white"/>
<path d="M272.049 111.681C271.779 110.38 271.071 109.212 270.044 108.374C269.017 107.536 267.733 107.078 266.409 107.078H238.291C236.967 107.078 235.684 107.536 234.657 108.374C233.63 109.213 232.922 110.38 232.652 111.681L229.549 126.655C229.374 127.496 229.388 128.365 229.591 129.2C229.793 130.035 230.178 130.813 230.719 131.48C231.259 132.146 231.94 132.684 232.713 133.053C233.487 133.422 234.332 133.613 235.188 133.613H242.67C241.62 131.852 241.166 129.798 241.376 127.757C241.914 123.187 245.473 119.392 249.641 117.468C253.808 115.544 258.52 115.203 263.109 115.215C266.467 115.215 270.139 115.588 273.133 116.956L272.049 111.681Z" fill="#966C0C"/>
<path d="M268.078 191.275C267.948 190.997 267.275 190.733 266.361 190.509C266.461 189.036 266.244 186.747 265.178 183.241C264.174 179.962 258.41 174.796 256.962 173.536C256.97 173.383 256.948 173.229 256.895 173.085C256.395 171.876 250.94 170.814 250.388 171.61C250.213 171.864 250.324 172.587 250.589 173.496C249.253 174.044 247.239 175.356 244.433 178.372C241.762 181.246 240.083 190.793 240.083 190.793C240.083 190.793 240.139 190.691 240.243 190.507C239.671 191.805 241.376 196.68 242.302 196.754C242.609 196.78 243.178 196.321 243.83 195.636C244.971 196.522 247.11 197.617 251.117 198.546C254.933 199.43 264.013 196.115 264.013 196.115H263.999C265.523 195.559 268.448 192.067 268.078 191.275ZM252.941 194.987C249.956 194.1 247.99 192.843 246.791 191.839C247.263 191.112 247.58 190.523 247.594 190.286C247.667 189.399 241.258 189.149 240.322 190.374C241.125 188.964 243.851 184.367 246.608 181.742C248.866 179.592 250.932 178.517 252.398 177.973C252.8 178.747 253.14 179.315 253.334 179.452C253.973 179.896 256.678 175.771 256.949 173.784C257.829 175.307 260.328 179.829 261.193 183.456C261.842 186.169 261.83 188.323 261.629 189.852C260.745 189.804 260.065 189.822 259.846 189.925C259.082 190.288 261.754 195.462 263.328 196.133C261.493 196.121 256.437 196.017 252.941 194.987Z" fill="white"/>
</g>
<defs>
<clipPath id="clip0_901_6626">
<rect width="88.8394" height="94.3631" fill="white" transform="translate(103 97.6719)"/>
</clipPath>
<clipPath id="clip1_901_6626">
<rect width="90.9341" height="81.1117" fill="white" transform="translate(0 111.381)"/>
</clipPath>
<clipPath id="clip2_901_6626">
<rect width="101" height="92.5833" fill="white" transform="translate(202 99.4219)"/>
</clipPath>
</defs>
</svg>
