<svg width="193" height="417" viewBox="0 0 193 417" fill="none" xmlns="http://www.w3.org/2000/svg">
<path d="M81.2023 113.863L91.4068 119.831L73.1194 67.5837L63.8711 64.3516L81.2023 113.863Z" fill="#70BBF2"/>
<path d="M94.0759 59.1875L73.1191 67.5817L91.4065 119.829L112.094 110.671L94.0759 59.1875Z" fill="#5D98A8"/>
<path d="M63.8711 64.3512L73.1194 67.5834L68.7219 59.8242L63.8711 64.3512Z" fill="#5D98A8"/>
<path d="M84.1406 47.6641L66.7446 54.1707L68.7218 59.8233L86.5784 53.5731L84.1406 47.6641Z" fill="#5D98A8"/>
<path d="M86.2969 52.9199L68.7217 59.8225L73.1192 67.5817L94.076 59.1875L86.2969 52.9199Z" fill="#70BBF2"/>
<path d="M120.404 9.21933C118.919 8.66228 117.32 8.47391 115.746 8.67038C114.172 8.86685 112.668 9.4423 111.365 10.3474L113.278 11.3434C111.004 12.9097 110.04 16.1319 111.084 18.6892C108.79 17.6932 106.298 17.2774 103.833 16.8665C103.113 19.2219 102.675 21.6542 102.528 24.1127C102.464 24.5417 102.528 24.9799 102.712 25.3727C102.952 25.7009 103.275 25.9589 103.648 26.1197L108.629 28.8365C108.84 28.951 109.074 29.0855 109.127 29.3345C109.132 29.4439 109.116 29.5533 109.079 29.6563C109.042 29.7594 108.984 29.854 108.91 29.9346L105.1 35.3655C104.872 35.6423 104.711 35.9678 104.629 36.3168C104.598 36.6804 104.661 37.046 104.814 37.3776C105.568 39.3561 106.913 41.0548 108.666 42.2432C110.439 43.4385 112.531 44.0486 114.582 44.6387L123.38 47.1762C124.159 47.4003 125.048 47.6119 125.733 47.1762C126.194 46.8873 126.448 46.3694 126.704 45.8888C127.651 44.1064 128.894 42.4981 130.38 41.1326C130.586 40.9698 130.756 40.7653 130.878 40.5325C131.154 39.9025 130.661 39.2202 130.203 38.7073C128.938 37.3028 127.675 35.8976 126.413 34.4915C126.194 34.2425 125.955 33.9138 126.092 33.6125C126.196 33.3635 126.483 33.2838 126.737 33.2216C127.939 32.9202 129.204 32.6189 130.402 32.9352C131 33.0921 131.548 33.3959 132.125 33.6075C133.527 34.1146 135.067 34.0818 136.446 33.5154C139.648 32.1782 141.005 28.4629 142.019 25.1436C142.136 24.7577 142.228 24.2696 141.924 24.0056C141.78 23.8976 141.606 23.8367 141.426 23.8313C140.43 23.7218 139.449 24.2347 138.438 24.297C137.427 24.3592 136.197 23.535 136.535 22.5813C136.675 22.2735 136.89 22.0056 137.16 21.8019L141.154 18.2659C141.722 17.7679 142.302 17.24 142.649 16.5677C143.679 14.5756 142.317 12.1427 140.589 10.7184C139.897 10.1457 139.055 9.47333 139.155 8.58187C139.216 8.2514 139.344 7.93694 139.531 7.65803L141.672 3.94278C139.643 2.73756 136.956 3.59666 135.116 5.08076C133.276 6.56487 131.951 8.59182 130.181 10.1581C129.433 9.07241 128.649 7.95435 128.315 6.67194C127.982 5.38953 128.176 3.88302 129.14 2.97413C130.171 2.00049 131.779 1.93077 132.927 1.10405C132.429 1.45516 129.13 0.635909 128.35 0.606027C127.304 0.571166 124.832 0.21508 123.985 0.957134C123.256 1.59709 123.026 3.74357 122.675 4.62756C122.046 6.21795 121.286 7.75374 120.404 9.21933Z" fill="#FFE9CC"/>
<path d="M140.592 10.7608C139.9 10.1905 139.058 9.51572 139.158 8.62675C139.217 8.29545 139.344 7.98001 139.531 7.70043L141.675 3.98767C139.643 2.77996 136.944 3.63905 135.119 5.12316C133.293 6.60727 131.941 8.63671 130.183 10.2154C129.424 9.12726 128.649 8.01169 128.316 6.72928C127.982 5.44688 128.176 3.94036 129.142 3.02898C129.937 2.28194 131.075 2.0653 132.081 1.62704C129.88 1.4851 126.73 1.83123 125.562 3.24063C125.24 3.62909 125.161 4.157 125.096 4.65502C124.665 7.90462 124.384 11.5452 126.416 14.1175L118.039 13.6792C119.228 14.8973 120.518 16.012 121.896 17.011C122.362 17.3496 122.865 17.6858 123.438 17.758C124.01 17.8302 124.543 17.6161 125.064 17.4144C126.857 16.7138 128.628 15.9593 130.378 15.1509C130.848 17.0334 129.324 18.7989 127.813 20.0165C127.256 20.5174 126.604 20.9002 125.895 21.1421C123.878 21.7048 121.934 20.146 119.884 19.7028C119.69 20.8648 119.495 22.0327 119.299 23.2064C119.199 23.7915 119.107 24.4141 119.336 24.9495C119.648 25.6965 120.489 26.085 121.286 26.0949C122.083 26.1049 122.85 25.7986 123.575 25.4649C125.86 24.4166 128.037 23.0495 130.49 22.4917C130.756 22.4295 131.09 22.4046 131.237 22.6287C131.282 22.7297 131.303 22.8398 131.298 22.9503C131.294 23.0608 131.264 23.1689 131.212 23.2661C130.076 26.2658 128.305 28.9842 126.02 31.2345C124.937 32.2978 123.657 33.2864 122.15 33.4607C121.732 33.5342 121.301 33.4668 120.925 33.2689C120.614 33.0469 120.359 32.7564 120.178 32.4198C118.739 30.1563 117.364 27.8156 115.477 25.9082C113.589 24.0007 111.077 22.544 108.395 22.5515C108.029 22.5515 107.553 22.6859 107.548 23.0495C107.548 23.2985 107.762 23.4654 107.957 23.6023C109.568 24.7403 111.236 26.0277 111.888 27.8878L107.202 26.1173C106.983 26.8469 107.782 27.4421 108.447 27.7857L113.587 30.3729C110.286 32.4942 107.664 35.5194 106.034 39.0883C109.853 37.0049 114.279 36.3181 118.55 37.146C117.098 38.9967 115.396 40.6375 113.495 42.0217C114.7 42.2881 115.92 41.7727 117.12 41.4888C119.537 40.9217 122.079 41.2591 124.264 42.4375C124.528 42.5469 124.74 42.7538 124.854 43.0152C124.899 43.2227 124.877 43.4391 124.79 43.6328C124.521 44.3798 124.005 45.0148 123.687 45.7444C123.47 46.215 123.396 46.7386 123.472 47.2509C124.219 47.4651 125.066 47.6394 125.714 47.226C126.174 46.9347 126.431 46.4192 126.685 45.9386C127.632 44.1568 128.875 42.5486 130.36 41.1825C130.566 41.0191 130.735 40.8147 130.858 40.5824C131.135 39.9499 130.641 39.2676 130.183 38.7571L126.396 34.5389C126.174 34.2899 125.938 33.9637 126.072 33.6599C126.177 33.4109 126.463 33.3337 126.717 33.2689C127.92 32.9701 129.185 32.6688 130.385 32.9851C130.98 33.1419 131.528 33.4457 132.106 33.6574C133.507 34.1659 135.048 34.1321 136.426 33.5628C139.307 32.36 140.694 29.2325 141.683 26.202C140.856 26.1099 140.072 26.5332 139.277 26.7872C136.954 27.5342 134.088 26.5382 133.034 24.3468C131.981 22.1555 133.301 19.0479 135.699 18.6046C136.463 18.4652 137.253 18.5748 138.027 18.4926C139.272 18.3631 140.395 17.7456 141.486 17.1629L142.669 16.5204C143.645 14.5408 142.288 12.1627 140.592 10.7608Z" fill="#EDD9C0"/>
<path d="M129.555 13.562C131.28 12.6049 133.086 11.804 134.954 11.169C133.645 14.6666 132.556 18.2428 131.694 21.8765C132.802 18.6393 135.474 16.1168 136.729 12.912C136.828 12.6972 136.879 12.4636 136.878 12.2273C136.851 12.0135 136.784 11.8066 136.682 11.6172C136.275 10.7539 135.87 9.88904 135.467 9.02248C134.501 9.85538 133.442 10.574 132.312 11.164C131.565 11.5624 130.671 11.911 129.856 11.6371C129.41 11.4585 129.009 11.1839 128.681 10.8328C127.611 9.81256 126.666 8.66813 125.867 7.42383C126.515 8.41987 126.729 9.68983 127.384 10.7083C128.037 11.711 128.763 12.6648 129.555 13.562Z" fill="#DBC8B9"/>
<path d="M120.464 36.3615L130.945 26.8691L123.853 34.6732C123.485 35.079 123.106 35.5248 123.034 36.0676C122.892 37.2604 124.334 38.2141 124.182 39.4069C122.846 38.1744 121.197 37.3328 119.416 36.974C118.985 36.8894 118.519 36.8196 118.193 36.5233C117.997 36.3131 117.835 36.0726 117.715 35.8111C116.964 34.475 115.733 33.4745 114.271 33.0123C112.355 34.9634 110.1 36.5512 107.618 37.6986C109.523 35.9058 111.44 34.2498 113.479 32.6263C114 32.2129 114.523 31.5904 115.15 31.6925C115.606 31.7647 116.55 32.9375 116.918 33.2638L120.464 36.3615Z" fill="#DBC8B9"/>
<path d="M115.205 16.0278C116.353 18.0885 117.297 20.257 118.021 22.5021C118.33 21.4065 118.638 20.3117 118.945 19.2177C117.583 18.2216 116.704 16.7051 115.847 15.2335C115.197 14.1104 114.577 12.95 113.875 11.8594C113.295 13.2513 114.565 14.8799 115.205 16.0278Z" fill="#FFFAE3"/>
<path d="M121.403 29.2863C120.873 28.8189 120.268 28.4458 119.612 28.1832C120.62 29.436 121.506 30.7826 122.257 32.2047C124.58 29.6598 127.613 27.0975 129.478 24.2363C128.37 24.4679 122.172 30.0781 121.403 29.2863Z" fill="#FFFAE3"/>
<path d="M106.044 24.6581C106.365 23.2638 106.946 21.9425 107.757 20.7636C107.12 20.918 106.564 20.3403 106.166 19.8223C105.322 18.7292 104.137 17.0459 104.381 19.521C104.465 20.3627 104.834 21.2342 105.098 22.0336C105.272 22.5988 106.156 24.1352 106.044 24.6581Z" fill="#FFFAE3"/>
<path d="M81.4863 180.76C81.4863 180.76 99.2882 207.442 99.2882 207.559C99.2882 207.676 148 173.056 148 173.056L130.198 147.221L81.4863 180.76Z" fill="#F2D4AE"/>
<path d="M81.4863 180.759L68.082 172.559L81.4863 193.189L99.2882 207.557L81.4863 180.759Z" fill="#D8BC9E"/>
<path d="M68.082 172.559L112.072 144.055L130.198 147.22L81.4863 180.759L68.082 172.559Z" fill="#C6AB93"/>
<path d="M112.072 144.055L115.845 132.379H133.325L130.198 148.039L112.072 144.055Z" fill="#F2D4AE"/>
<path d="M68.0821 172.557L60.562 186.705C60.562 186.705 74.6262 198.75 74.6262 198.397C74.6262 198.043 81.4864 180.757 81.4864 180.757L68.0821 172.557Z" fill="#F2D4AE"/>
<g clip-path="url(#clip0_518_5654)">
<path d="M158.464 237.056C157.261 232.139 154.438 227.767 150.448 224.641C146.459 221.515 141.533 219.817 136.462 219.818H58.5144C53.4428 219.82 48.5182 221.519 44.5285 224.644C40.5389 227.769 37.7147 232.14 36.508 237.056L25.0366 283.726H169.955L158.464 237.056Z" fill="#516BBF"/>
<path d="M21.3217 283.727H171.137C173.58 283.727 175.923 284.695 177.65 286.419C179.377 288.143 180.348 290.482 180.348 292.92V311.376H12.1069V292.92C12.1069 291.713 12.3453 290.517 12.8085 289.401C13.2716 288.285 13.9504 287.272 14.8061 286.418C15.6618 285.564 16.6777 284.887 17.7956 284.425C18.9136 283.963 20.1118 283.726 21.3217 283.727Z" fill="#516BBF"/>
<path d="M97.9562 311.361H25.0366L47.1773 479.973C47.4018 481.682 48.2412 483.251 49.5391 484.388C50.8369 485.525 52.5046 486.152 54.2314 486.152H140.779C142.507 486.152 144.175 485.526 145.474 484.389C146.773 483.252 147.613 481.682 147.837 479.973L169.974 311.361H97.9562Z" fill="#516BBF"/>
<path d="M139.789 263.768L133.856 235.302C133.34 232.83 131.987 230.61 130.024 229.017C128.062 227.424 125.609 226.553 123.079 226.553H69.372C66.8421 226.553 64.3895 227.424 62.4269 229.017C60.4642 230.61 59.1111 232.83 58.5953 235.302L52.6696 263.768C52.3373 265.367 52.3659 267.019 52.7535 268.606C53.141 270.192 53.8778 271.672 54.9101 272.939C55.9425 274.206 57.2446 275.227 58.7219 275.929C60.1991 276.63 61.8143 276.995 63.4502 276.995H129.02C130.655 276.993 132.269 276.627 133.745 275.925C135.221 275.223 136.521 274.201 137.552 272.935C138.584 271.668 139.319 270.188 139.706 268.603C140.093 267.017 140.121 265.366 139.789 263.768Z" fill="#2F436B"/>
<path d="M97.9562 311.361H25.0366L25.6621 316.115C59.0517 321.861 94.2258 317.307 126.257 328.293C134.516 331.124 143.028 335.544 146.72 343.443C148.609 347.496 149.023 352.055 149.334 356.514C151.338 385.211 150.27 414.041 146.148 442.513C145.035 450.205 143.569 458.18 138.933 464.424C130.333 476.008 114.01 477.992 99.5797 478.628C88.043 479.142 76.4527 479.421 64.9736 478.192C59.3089 477.586 53.529 476.56 48.6703 473.595C47.768 473.045 46.9084 472.427 46.0988 471.748L47.1773 479.973C47.4018 481.682 48.2412 483.251 49.5391 484.388C50.8369 485.525 52.5046 486.152 54.2314 486.152H140.779C142.507 486.152 144.175 485.526 145.474 484.389C146.773 483.252 147.613 481.682 147.837 479.973L169.974 311.361H97.9562Z" fill="#435C9B"/>
<path opacity="0.12" d="M34.1709 327.985C32.8584 330.812 33.4456 334.114 34.0443 337.178C40.08 368.028 44.7123 399.108 47.9412 430.417C48.325 434.03 50.0751 438.806 53.6635 438.197C56.9795 437.63 57.4169 433.087 56.9986 429.77C53.3987 401.074 48.2022 372.31 50.0904 343.441C50.3399 339.634 50.7045 335.734 49.6529 332.064C47.9565 326.1 37.9513 319.829 34.1709 327.985Z" fill="white"/>
<path opacity="0.12" d="M16.7394 290.315C16.8392 292.054 18.4281 293.414 20.1206 293.847C21.8131 294.28 23.5747 294 25.3171 293.743C42.8446 291.154 60.6485 291.445 78.3642 291.307C79.0987 291.357 79.8342 291.225 80.5057 290.924C81.1466 290.571 81.6033 289.775 81.3155 289.097C81.0276 288.419 80.1296 288.2 79.3697 288.112C75.8197 287.706 72.2351 287.729 68.6581 287.729L39.5594 287.767C36.1668 287.771 16.4554 285.438 16.7394 290.315Z" fill="white"/>
<path d="M133.86 235.302C133.344 232.83 131.991 230.61 130.028 229.017C128.066 227.424 125.613 226.553 123.083 226.553H69.372C66.8421 226.553 64.3895 227.424 62.4269 229.017C60.4642 230.61 59.1111 232.83 58.5953 235.302L52.6696 263.768C52.3373 265.367 52.3659 267.019 52.7535 268.606C53.141 270.192 53.8778 271.672 54.9101 272.939C55.9425 274.206 57.2446 275.227 58.7219 275.929C60.1991 276.63 61.8143 276.995 63.4502 276.995H77.7463C75.7409 273.648 74.8738 269.743 75.2747 265.863C76.3032 257.175 83.104 249.962 91.0676 246.304C99.0312 242.645 108.035 241.998 116.804 242.021C123.221 242.021 130.237 242.73 135.959 245.331L133.86 235.302Z" fill="#1F2D44"/>
<path d="M126.272 386.611C126.023 386.082 124.737 385.58 122.991 385.155C123.183 382.355 122.768 378.003 120.73 371.338C118.811 365.105 107.797 355.284 105.029 352.889C105.046 352.598 105.003 352.306 104.903 352.031C103.947 349.733 93.5235 347.714 92.468 349.227C92.1303 349.71 92.3452 351.085 92.8518 352.813C90.2996 353.855 86.4503 356.348 81.0888 362.083C75.9844 367.546 72.7759 385.695 72.7759 385.695C72.7759 385.695 72.8834 385.5 73.0829 385.151C71.9891 387.618 75.2475 396.885 77.0167 397.027C77.6039 397.076 78.6901 396.203 79.9374 394.901C82.1173 396.586 86.2047 398.666 93.8612 400.432C101.153 402.114 118.504 395.812 118.504 395.812H118.47C121.39 394.755 126.978 388.116 126.272 386.611ZM97.346 393.667C91.6429 391.982 87.8856 389.591 85.5944 387.683C86.4963 386.301 87.1027 385.182 87.1296 384.73C87.2678 383.045 75.0211 382.57 73.2327 384.899C74.7678 382.217 79.9758 373.479 85.2414 368.488C89.5552 364.401 93.5081 362.359 96.3098 361.325C97.0581 362.796 97.726 363.876 98.0983 364.136C99.3187 364.979 104.488 357.138 105.006 353.361C106.687 356.257 111.462 364.853 113.112 371.748C114.355 376.904 114.332 380.999 113.949 383.906C112.26 383.815 110.959 383.849 110.541 384.044C109.082 384.734 114.187 394.571 117.195 395.847C113.691 395.824 104.028 395.625 97.346 393.667Z" fill="white"/>
<path d="M79.4771 412.368H82.9656C83.6964 412.344 84.4272 412.418 85.1379 412.59C85.5742 412.691 85.9732 412.913 86.2893 413.23C86.55 413.516 86.7289 413.866 86.8073 414.245C86.9173 414.852 86.9636 415.47 86.9455 416.087V417.237C86.9804 417.866 86.8904 418.496 86.6807 419.091C86.4837 419.501 86.1381 419.821 85.7136 419.987C85.1284 420.214 84.5028 420.32 83.8752 420.297H82.9464V425.66H79.4923L79.4771 412.368ZM82.9311 414.643V418.026H83.1882C83.3088 418.038 83.4307 418.024 83.545 417.984C83.6592 417.943 83.7629 417.878 83.8483 417.792C84.0031 417.492 84.0671 417.154 84.0326 416.819V415.727C84.0731 415.415 83.998 415.099 83.8215 414.839C83.5577 414.676 83.2467 414.607 82.9388 414.643H82.9311Z" fill="white"/>
<path d="M93.4965 412.367L95.4769 425.66H91.9384L91.7542 423.269H90.5146L90.3073 425.66H86.7266L88.492 412.367H93.4965ZM91.6621 420.913C91.4856 419.409 91.3103 417.549 91.1363 415.332C90.7832 417.886 90.5606 419.746 90.4685 420.913H91.6621Z" fill="white"/>
<path d="M96.0645 412.368H99.553C100.285 412.343 101.017 412.418 101.729 412.59C102.165 412.693 102.563 412.914 102.881 413.23C103.138 413.518 103.317 413.867 103.399 414.245C103.505 414.853 103.55 415.47 103.533 416.087V417.237C103.568 417.866 103.478 418.496 103.268 419.091C103.074 419.502 102.729 419.822 102.305 419.987C101.72 420.214 101.094 420.32 100.466 420.297H99.5377V425.66H96.0837L96.0645 412.368ZM99.5185 414.643V418.026H99.7718C99.8924 418.039 100.014 418.025 100.129 417.985C100.243 417.944 100.347 417.878 100.432 417.792C100.59 417.494 100.656 417.155 100.62 416.819V415.727C100.66 415.415 100.583 415.099 100.405 414.839C100.144 414.676 99.8355 414.607 99.5301 414.643H99.5185Z" fill="white"/>
<path d="M104.519 412.367H110.295V415.026H107.992V417.546H110.157V420.075H107.992V422.997H110.537V425.679H104.519V412.367Z" fill="white"/>
<path d="M111.519 412.368H113.972C115.08 412.335 116.19 412.397 117.288 412.556C117.867 412.684 118.374 413.029 118.704 413.521C119.088 414.038 119.249 414.866 119.249 415.996C119.249 417.03 119.121 417.726 118.865 418.084C118.604 418.436 118.098 418.651 117.33 418.723C117.85 418.804 118.332 419.042 118.712 419.405C118.914 419.624 119.065 419.886 119.153 420.171C119.233 420.823 119.261 421.48 119.237 422.136V425.645H116.021V421.248C116.065 420.8 116.007 420.348 115.852 419.926C115.741 419.754 115.446 419.669 114.97 419.669V425.665H111.516L111.519 412.368ZM114.974 414.644V417.597C115.256 417.622 115.539 417.566 115.791 417.436C115.948 417.333 116.025 416.984 116.025 416.398V415.67C116.045 415.524 116.035 415.375 115.997 415.232C115.959 415.09 115.893 414.956 115.803 414.839C115.558 414.685 115.269 414.616 114.981 414.644H114.974Z" fill="white"/>
</g>
<defs>
<clipPath id="clip0_518_5654">
<rect width="193" height="205" fill="white" transform="translate(0 212)"/>
</clipPath>
</defs>
</svg>
