<svg width="192" height="365" viewBox="0 0 192 365" fill="none" xmlns="http://www.w3.org/2000/svg">
<path d="M139.622 86.1577L137.808 85.6484L136.701 89.5921L138.515 90.1014L139.622 86.1577Z" fill="#6D6D6D"/>
<path d="M140.616 88.8431L138.131 88.1432L135.646 87.4453C135.646 87.4453 123.991 92.1275 123.875 92.0943L136.068 95.5174L148.259 98.9384C148.131 98.9073 140.616 88.8431 140.616 88.8431Z" fill="#B8C2C4"/>
<path d="M147.766 100.159L123.516 93.3516L110.253 140.6L134.503 147.407L147.766 100.159Z" fill="#D66E18"/>
<path d="M147.763 100.158L141.601 98.4277L128.338 145.676L134.5 147.406L147.763 100.158Z" fill="#C16017"/>
<path d="M147.816 100.471L123.111 93.5315C123.01 93.5033 122.916 93.4556 122.834 93.391C122.752 93.3263 122.683 93.2461 122.632 93.155C122.581 93.0638 122.548 92.9634 122.536 92.8596C122.523 92.7558 122.532 92.6506 122.56 92.55C122.588 92.4493 122.636 92.3553 122.701 92.2732C122.765 92.1911 122.846 92.1225 122.937 92.0715C123.028 92.0205 123.128 91.9881 123.232 91.976C123.336 91.9639 123.441 91.9725 123.542 92.0012L148.257 98.9385C148.46 98.9959 148.632 99.1315 148.735 99.3154C148.838 99.4994 148.865 99.7168 148.808 99.92C148.779 100.022 148.731 100.117 148.666 100.2C148.6 100.282 148.519 100.351 148.427 100.403C148.335 100.454 148.233 100.486 148.128 100.498C148.023 100.51 147.917 100.501 147.816 100.471Z" fill="#999999"/>
<path opacity="0.53" d="M137.238 96.134L123.746 92.3467C123.617 92.3106 123.483 92.3857 123.447 92.5145L123.441 92.5365C123.405 92.6653 123.48 92.799 123.609 92.8352L137.101 96.6225C137.229 96.6587 137.363 96.5835 137.399 96.4547L137.406 96.4328C137.442 96.3039 137.367 96.1702 137.238 96.134Z" fill="white"/>
<path d="M134.293 149.011L109.58 142.08C109.377 142.023 109.205 141.888 109.102 141.704C108.999 141.52 108.973 141.303 109.029 141.1C109.058 141 109.105 140.905 109.17 140.823C109.235 140.741 109.315 140.672 109.406 140.621C109.497 140.57 109.597 140.537 109.701 140.525C109.805 140.513 109.91 140.521 110.011 140.549L134.726 147.487C134.929 147.544 135.101 147.68 135.204 147.864C135.308 148.048 135.334 148.265 135.277 148.468C135.218 148.67 135.082 148.841 134.897 148.943C134.713 149.045 134.496 149.069 134.293 149.011Z" fill="#999999"/>
<path opacity="0.53" d="M123.717 144.677L110.225 140.89C110.097 140.854 109.963 140.929 109.927 141.057L109.921 141.079C109.884 141.208 109.96 141.342 110.088 141.378L123.58 145.165C123.709 145.202 123.843 145.127 123.879 144.998L123.885 144.976C123.921 144.847 123.846 144.713 123.717 144.677Z" fill="white"/>
<path d="M123.434 93.623L123.229 94.354L147.249 101.979L147.816 100.469L123.434 93.623Z" fill="#C16017"/>
<path opacity="0.53" d="M136.517 87.6934L127.714 93.1748L132.152 94.3676L137.354 87.9274L136.517 87.6934Z" fill="white"/>
<path d="M140.616 88.8422L139.86 88.631L139.611 88.5605L142.461 97.3139L148.247 98.9375L140.616 88.8422Z" fill="#ADADAD"/>
<path d="M142.801 80.3936L137.837 79L135.836 86.1277L140.801 87.5213L142.801 80.3936Z" fill="#ADADAD"/>
<path d="M139.007 82.9817C138.688 84.1227 138.021 84.9324 137.518 84.7916C137.015 84.6508 136.87 83.6112 137.189 82.4723C137.507 81.3333 138.176 80.5215 138.677 80.6624C139.179 80.8032 139.328 81.8427 139.007 82.9817Z" fill="#999999"/>
<path d="M138.953 83.1778C138.727 83.9772 138.259 84.5467 137.918 84.4473C137.576 84.3479 137.46 83.6189 137.686 82.8175C137.911 82.0161 138.379 81.4487 138.732 81.546C139.084 81.6433 139.177 82.3764 138.953 83.1778Z" fill="#6D6D6D"/>
<path d="M142.159 80.2169L141.053 79.9062L139.052 87.034L140.158 87.3446L142.159 80.2169Z" fill="#999999"/>
<path d="M132.768 116.081C134.13 111.23 132.593 106.555 129.336 105.641C126.079 104.727 122.335 107.919 120.973 112.77C119.611 117.622 121.147 122.296 124.404 123.21C127.662 124.125 131.406 120.933 132.768 116.081Z" fill="#5BA93A"/>
<path d="M131.583 115.754C130.376 120.056 127.213 122.93 124.519 122.174C121.825 121.418 120.622 117.318 121.827 113.017C123.032 108.716 126.197 105.841 128.891 106.597C131.585 107.353 132.79 111.453 131.583 115.754Z" fill="#93D850"/>
<path opacity="0.19" d="M131.198 95.511L127.659 94.5176L114.396 141.766L117.935 142.759L131.198 95.511Z" fill="white"/>
<path d="M108.483 59.8771L82.4318 42.799C82.2197 42.6591 82.0717 42.4409 82.02 42.1922C81.9684 41.9434 82.0174 41.6843 82.1563 41.4716C82.2959 41.2591 82.5141 41.1107 82.763 41.0591C83.0119 41.0074 83.2712 41.0567 83.4837 41.1962L109.533 58.2722C109.638 58.3412 109.729 58.4302 109.8 58.5342C109.871 58.6382 109.921 58.7552 109.946 58.8785C109.972 59.0017 109.973 59.1289 109.95 59.2526C109.927 59.3763 109.879 59.4943 109.81 59.5996C109.741 59.705 109.652 59.7958 109.548 59.8668C109.444 59.9378 109.327 59.9876 109.204 60.0133C109.081 60.0391 108.954 60.0403 108.83 60.017C108.706 59.9936 108.588 59.9461 108.483 59.8771Z" fill="#B8C2C4"/>
<path d="M130.366 25.825L104.924 9.14453L83.0204 42.5528L108.462 59.2333L130.366 25.825Z" fill="#B8C2C4"/>
<path d="M140.766 21.3875C147.8 17.2556 151.674 10.7931 149.418 6.9531C147.163 3.11306 139.632 3.34963 132.598 7.48149C125.564 11.6134 121.69 18.0759 123.946 21.9159C126.201 25.7559 133.732 25.5194 140.766 21.3875Z" fill="#B8C2C4"/>
<path d="M124.749 17.5871C124.347 16.4026 123.971 15.2091 123.62 14.0067C123.979 13.5428 124.675 14.8081 125.126 14.4333C125.2 14.3606 125.253 14.2689 125.279 14.1682C125.649 13.1135 126.021 12.0594 126.395 11.0061C126.882 11.4075 127.468 11.6688 128.091 11.7619C128.49 10.4882 128.974 9.24283 129.541 8.03442L131.338 8.74678C132.197 7.68388 132.89 6.49692 133.393 5.22637L135.464 6.97415C136.445 5.82691 137.428 4.68105 138.412 3.53658C138.34 4.1063 138.444 4.68455 138.711 5.19324L142.608 2.99609L142.863 4.7418C143.993 4.26501 145.163 3.89076 146.36 3.62355C146.084 4.20477 145.804 4.78598 145.519 5.36719C146.823 5.158 148.136 5.01974 149.454 4.95302L148.004 6.32391C149.362 6.66924 150.638 7.27631 151.763 8.11104C150.855 8.33559 149.984 8.68768 149.174 9.15681C149.955 9.98972 150.577 10.9582 151.009 12.0145L149.707 11.9524C149.65 11.9419 149.592 11.9426 149.536 11.9547C149.48 11.9668 149.427 11.99 149.379 12.0228C149.307 12.1062 149.269 12.2145 149.274 12.3252L148.945 16.1024C148.409 15.5377 147.768 15.0826 147.058 14.7625C147.15 15.4726 147.08 16.1942 146.854 16.8736C146.628 17.553 146.252 18.1728 145.753 18.6868C145.293 18.3993 144.931 17.9771 144.718 17.4774C144.777 18.8398 144.314 20.1734 143.422 21.2049C142.835 20.6672 142.203 20.1821 141.531 19.7553C141.473 21.0212 141.041 22.2414 140.289 23.2612C139.683 22.2603 138.75 21.4995 137.648 21.1076C137.66 22.176 137.527 23.2411 137.253 24.2739C136.416 23.7073 135.527 23.2219 134.598 22.8243C134.64 23.6592 134.587 24.4963 134.443 25.3196L131.796 23.87C131.796 24.5079 131.796 25.1477 131.813 25.7856C131.049 24.7212 129.51 24.7336 128.23 24.4519C125.497 23.8514 124.737 21.7267 122.96 19.9665C122.691 19.7015 121.49 18.9311 121.599 18.4673C121.751 17.8212 124.198 17.6969 124.749 17.5871Z" fill="#B8C2C4"/>
<path d="M131.028 21.9801C129.1 21.9801 127.605 21.3858 126.886 20.1764C126.103 18.8449 126.424 16.9936 127.785 14.9662C129.104 13.001 131.258 11.0814 133.848 9.55931C139.35 6.32675 144.913 5.92707 146.511 8.64607C147.294 9.97761 146.975 11.8289 145.613 13.8563C144.293 15.8215 142.14 17.7412 139.549 19.2632C136.503 21.0565 133.43 21.9781 131.028 21.9801ZM142.401 7.43878C140.106 7.43878 137.097 8.34166 134.148 10.0729C131.632 11.5514 129.547 13.4069 128.276 15.2996C127.048 17.1282 126.735 18.7559 127.395 19.8803C128.804 22.2742 134.119 21.771 139.249 18.7579C141.765 17.2794 143.85 15.4239 145.122 13.5312C146.35 11.7026 146.662 10.0749 146.002 8.95048C145.41 7.92957 144.103 7.43878 142.401 7.43878Z" fill="#9DA2A3"/>
<path d="M131.885 20.693C130.228 20.693 129.017 20.1732 128.445 19.1978C127.108 16.9199 129.665 13.0226 134.266 10.3202C136.431 9.04869 138.71 8.24935 140.686 8.09404C142.722 7.92423 144.206 8.44401 144.857 9.55812C146.194 11.836 143.637 15.7313 139.036 18.4337C136.87 19.7072 134.592 20.5045 132.616 20.6619C132.363 20.6805 132.121 20.693 131.885 20.693ZM141.411 8.55584C141.189 8.55584 140.957 8.56619 140.717 8.5869C138.818 8.74428 136.613 9.51256 134.505 10.7468C130.216 13.267 127.683 16.9448 128.86 18.9473C129.41 19.8874 130.723 20.3202 132.562 20.169C134.461 20.0096 136.667 19.2434 138.775 18.0071C143.063 15.489 145.596 11.8112 144.42 9.80869C143.948 8.98864 142.891 8.55377 141.417 8.55377L141.411 8.55584Z" fill="#9DA2A3"/>
<path d="M90.6406 47.5632L108.462 59.2468L130.15 26.1633L110.477 13.3966C108.967 12.415 107.452 11.4314 105.853 10.5989C105.606 10.4705 104.836 9.94247 104.403 9.92383L104.144 10.3194C104.246 10.6797 104.656 11.1477 104.801 11.3009C105.981 12.5621 107.65 13.5167 108.943 14.6971C110.319 15.9573 111.617 17.2996 112.832 18.7166C114.074 20.1661 115.232 21.6986 115.919 23.467C117.048 26.3662 116.791 29.6982 115.609 32.5787C114.426 35.4592 112.376 37.9214 110.017 39.9633C104.691 44.6081 97.7353 47.1304 90.6406 47.5632Z" fill="#9DA2A3"/>
<path d="M129.926 27.1636L103.884 10.0876C103.778 10.0187 103.687 9.92961 103.616 9.82554C103.545 9.72146 103.496 9.60439 103.47 9.48106C103.445 9.35773 103.444 9.23057 103.467 9.10686C103.491 8.98315 103.539 8.86533 103.608 8.76017C103.677 8.65478 103.766 8.56399 103.87 8.49301C103.974 8.42202 104.091 8.37223 104.214 8.34646C104.338 8.32069 104.465 8.31946 104.588 8.34283C104.712 8.3662 104.83 8.41372 104.936 8.48268L130.984 25.5608C131.09 25.6297 131.181 25.7187 131.252 25.8228C131.323 25.9269 131.372 26.044 131.398 26.1673C131.423 26.2906 131.424 26.4178 131.401 26.5415C131.377 26.6652 131.329 26.783 131.26 26.8882C131.191 26.9945 131.102 27.086 130.997 27.1575C130.892 27.229 130.775 27.279 130.651 27.3046C130.527 27.3303 130.399 27.331 130.274 27.3068C130.15 27.2826 130.032 27.2339 129.926 27.1636Z" fill="#B8C2C4"/>
<path d="M127.839 29.6805L102.397 13L85.5478 38.7L110.99 55.3805L127.839 29.6805Z" fill="#F98715"/>
<path d="M115.78 23.3698C116.909 26.2689 116.652 29.6009 115.468 32.4814C114.283 35.3619 112.237 37.8221 109.876 39.8639C106.263 43.0054 101.914 45.1735 97.2837 46.3829L110.854 55.275L127.698 29.5719L114.445 20.8848C114.98 21.6611 115.428 22.4945 115.78 23.3698Z" fill="#D66E18"/>
<path d="M77.6729 164.653C77.5052 165.567 77.4658 166.617 78.0871 167.306C78.351 167.573 78.6621 167.79 79.0045 167.944C80.2936 168.598 81.6842 169.028 83.1171 169.218C83.1761 170.817 83.5571 172.389 84.2374 173.838C86.0726 173.967 87.9163 173.901 89.7376 173.641C89.9971 174.444 90.2553 175.249 90.512 176.053L83.581 175.981C83.3845 175.962 83.1865 175.994 83.0053 176.072C82.6222 176.279 82.5911 176.807 82.6388 177.238C82.8208 178.803 83.4386 180.285 84.4218 181.516L82.3219 183.057C82.1408 183.16 81.9961 183.317 81.9078 183.506C81.8654 183.683 81.8784 183.869 81.945 184.039C82.4379 185.658 84.0159 186.758 85.6725 187.159C87.3292 187.561 89.0418 187.383 90.7274 187.203L101.16 186.089C101.482 186.082 101.798 185.993 102.076 185.83C102.33 185.652 105.279 184.457 105.418 184.173C108.095 178.789 108.025 174.148 108.458 168.155C108.551 166.88 108.518 165.525 107.87 164.428C107.454 163.794 106.935 163.234 106.335 162.771C102.815 159.762 96.0246 151.214 91.7297 149.466C90.4064 148.93 91.7628 154.521 90.8496 153.425C90.6281 153.109 90.3749 152.816 90.0938 152.552C89.6777 152.258 89.1843 152.093 88.6752 152.077C85.4592 151.804 83.6141 154.272 81.7856 156.523C79.8577 158.89 78.2279 161.601 77.6729 164.653Z" fill="#CED5D0"/>
<path d="M107.878 164.426C107.462 163.792 106.944 163.232 106.343 162.769C102.823 159.76 96.0327 151.212 91.7378 149.464C91.2822 149.28 91.1435 149.82 91.1166 150.564C91.2176 150.656 91.3241 150.743 91.4355 150.823C94.1276 152.765 93.2992 156.043 91.8227 158.505C90.1302 161.325 87.7976 163.706 85.0139 165.457C88.8423 163.619 91.9937 160.62 94.0199 156.888C94.0864 156.719 94.2123 156.58 94.374 156.497C94.5811 156.42 94.8192 156.561 95.0077 156.704C96.9356 158.081 98.9236 159.52 100.106 161.574C100.783 162.75 101.251 164.181 102.44 164.836C103.308 165.312 104.66 165.588 104.598 166.575C104.57 166.785 104.505 166.988 104.405 167.174C102.841 170.465 100.487 173.318 97.5527 175.478L103.713 170.831C103.603 173.925 103.148 176.997 102.357 179.99C102.202 180.576 102.019 181.183 101.593 181.614C100.972 182.235 100.019 182.326 99.1452 182.318C95.3514 182.278 91.539 181.003 87.8198 181.752C89.9587 182.3 92.0561 182.998 94.0965 183.842C94.4465 183.987 94.8648 184.268 94.7633 184.633C94.696 184.803 94.5675 184.942 94.403 185.022C92.6055 186.134 90.309 185.815 88.2278 185.459C87.0371 185.252 85.7946 185.03 84.8275 184.304C84.1586 183.798 83.6678 183.082 82.9907 182.583L82.3239 183.074C82.1427 183.177 81.9981 183.334 81.9097 183.523C81.8673 183.7 81.8803 183.886 81.9469 184.055C82.4398 185.675 84.0178 186.774 85.6744 187.176C87.3311 187.578 89.0437 187.4 90.7293 187.219L101.162 186.105C101.484 186.099 101.8 186.01 102.077 185.846C102.332 185.668 105.281 184.473 105.42 184.19C108.097 178.806 108.027 174.165 108.46 168.172C108.559 166.884 108.526 165.53 107.878 164.426Z" fill="#BFC4C0"/>
<path d="M80.1454 167.505C81.7606 166.955 83.0943 165.803 84.3181 164.606C87.6045 161.415 90.454 157.712 92.2887 153.515C92.734 152.496 93.1171 151.293 92.5911 150.313C92.0651 149.334 90.8371 148.965 89.7333 149.003C86.975 149.098 84.6557 151.073 82.8188 153.124C80.3877 155.851 78.3272 158.99 77.3436 162.511C76.7265 164.72 76.5712 168.727 80.1454 167.505Z" fill="#A8ADAA"/>
<g clip-path="url(#clip0_518_5596)">
<path d="M157.643 214.056C156.442 209.14 153.633 204.769 149.664 201.644C145.695 198.519 140.796 196.82 135.751 196.818H58.2072C53.1619 196.82 48.2628 198.519 44.2938 201.644C40.3248 204.769 37.5153 209.14 36.3149 214.056L24.8838 260.726H169.074L157.643 214.056Z" fill="#F7CB14"/>
<path d="M21.2071 260.727H170.246C172.676 260.727 175.007 261.695 176.726 263.419C178.444 265.143 179.409 267.482 179.409 269.92V288.376H12.0439V269.92C12.0439 267.482 13.0093 265.143 14.7278 263.419C16.4462 261.695 18.7769 260.727 21.2071 260.727Z" fill="#F7CB14"/>
<path d="M97.4485 288.361H24.8838L46.9098 456.973C47.1332 458.682 47.9687 460.252 49.2607 461.389C50.5526 462.526 52.2126 463.152 53.9311 463.152H140.027C141.745 463.152 143.405 462.526 144.697 461.389C145.989 460.252 146.825 458.682 147.048 456.973L169.074 288.361H97.4485Z" fill="#F7CB14"/>
<path d="M139.064 240.768L133.162 212.302C132.649 209.83 131.303 207.61 129.351 206.016C127.398 204.423 124.958 203.553 122.441 203.553H68.9891C66.4723 203.553 64.0324 204.424 62.0799 206.017C60.1274 207.61 58.7814 209.83 58.2682 212.302L52.3694 240.768C52.0374 242.367 52.0648 244.019 52.4495 245.606C52.8343 247.193 53.5668 248.673 54.5937 249.94C55.6205 251.207 56.916 252.229 58.3858 252.93C59.8556 253.632 61.4627 253.995 63.0903 253.995H128.321C129.95 253.997 131.559 253.635 133.031 252.935C134.503 252.234 135.8 251.213 136.83 249.946C137.859 248.679 138.593 247.198 138.98 245.61C139.367 244.023 139.395 242.368 139.064 240.768Z" fill="#C18E0E"/>
<path d="M97.4485 288.361H24.8838L25.5061 293.115C58.7226 298.861 93.7145 294.307 125.579 305.293C133.796 308.124 142.268 312.544 145.937 320.443C147.815 324.496 148.228 329.055 148.537 333.514C150.532 362.211 149.47 391.041 145.368 419.513C144.261 427.205 142.802 435.18 138.19 441.424C129.634 453.008 113.396 454.992 99.0406 455.628C87.5637 456.142 76.0372 456.421 64.6138 455.192C58.9785 454.586 53.2286 453.56 48.395 450.595C47.4974 450.045 46.6423 449.427 45.8369 448.748L46.9098 456.973C47.1332 458.682 47.9687 460.252 49.2607 461.389C50.5526 462.526 52.2126 463.152 53.9311 463.152H140.027C141.745 463.152 143.405 462.526 144.697 461.389C145.989 460.252 146.825 458.682 147.048 456.973L169.074 288.361H97.4485Z" fill="#F4B80F"/>
<path opacity="0.44" d="M33.9901 304.985C32.6843 307.812 33.2685 311.114 33.8641 314.178C39.8711 345.028 44.4794 376.108 47.689 407.417C48.0708 411.03 49.8118 415.806 53.3817 415.197C56.6804 414.63 57.1157 410.087 56.6995 406.77C53.1182 378.074 47.9487 349.31 49.8271 320.441C50.0791 316.634 50.438 312.734 49.3919 309.064C47.7043 303.1 37.7508 296.829 33.9901 304.985Z" fill="white"/>
<path opacity="0.44" d="M16.6485 267.315C16.7478 269.054 18.3284 270.414 20.0122 270.847C21.6959 271.28 23.4484 271 25.1817 270.743C42.6185 268.154 60.3301 268.445 77.9578 268.307C78.6873 268.356 79.4176 268.225 80.0844 267.924C80.722 267.571 81.1764 266.775 80.89 266.097C80.6037 265.419 79.7102 265.2 78.9543 265.112C75.4226 264.706 71.8566 264.729 68.2983 264.729L39.3503 264.767C35.9561 264.771 16.366 262.438 16.6485 267.315Z" fill="white"/>
<path d="M133.162 212.302C132.649 209.83 131.303 207.61 129.351 206.016C127.398 204.423 124.958 203.553 122.441 203.553H68.9891C66.4723 203.553 64.0324 204.424 62.0799 206.017C60.1274 207.61 58.7814 209.83 58.2682 212.302L52.3694 240.768C52.0374 242.367 52.0648 244.019 52.4495 245.606C52.8343 247.193 53.5668 248.673 54.5937 249.94C55.6205 251.207 56.916 252.229 58.3858 252.93C59.8556 253.632 61.4627 253.995 63.0903 253.995H77.3123C75.3173 250.648 74.4547 246.743 74.8535 242.863C75.8767 234.175 82.6422 226.962 90.5646 223.304C98.4869 219.645 107.444 218.998 116.168 219.021C122.552 219.021 129.531 219.73 135.224 222.331L133.162 212.302Z" fill="#966C0C"/>
<path d="M125.614 363.611C125.366 363.082 124.087 362.58 122.35 362.155C122.54 359.355 122.128 355.003 120.101 348.338C118.192 342.105 107.234 332.284 104.481 329.889C104.498 329.598 104.455 329.306 104.355 329.031C103.405 326.733 93.035 324.714 91.9851 326.227C91.6529 326.71 91.8629 328.085 92.3669 329.813C89.8279 330.855 85.9985 333.348 80.6648 339.083C75.5868 344.546 72.395 362.695 72.395 362.695C72.395 362.695 72.5019 362.5 72.7004 362.151C71.6123 364.618 74.8538 373.885 76.6139 374.027C77.198 374.076 78.2785 373.203 79.5194 371.901C81.688 373.586 85.7541 375.666 93.371 377.432C100.625 379.114 117.886 372.812 117.886 372.812H117.86C120.757 371.755 126.316 365.116 125.614 363.611ZM96.8377 370.667C91.1642 368.982 87.4264 366.591 85.1471 364.683C86.0443 363.301 86.6475 362.182 86.6743 361.73C86.8117 360.045 74.6285 359.57 72.8493 361.899C74.3765 359.217 79.5576 350.479 84.7997 345.488C89.0911 341.401 93.0198 339.359 95.8069 338.325C96.5705 339.796 97.2158 340.876 97.5861 341.136C98.8002 341.979 103.943 334.138 104.458 330.361C106.131 333.257 110.88 341.853 112.526 348.748C113.759 353.904 113.736 357.999 113.354 360.906C111.674 360.815 110.38 360.849 109.964 361.044C108.513 361.734 113.591 371.571 116.584 372.847C113.095 372.824 103.485 372.625 96.8377 370.667Z" fill="white"/>
</g>
<defs>
<clipPath id="clip0_518_5596">
<rect width="192" height="176" fill="white" transform="translate(0 189)"/>
</clipPath>
</defs>
</svg>
