<svg width="189" height="44" viewBox="0 0 189 44" fill="none" xmlns="http://www.w3.org/2000/svg">
<g id="Frame">
<g id="Group">
<g id="Group_2">
<g id="Group_3">
<path id="Vector" d="M54.9819 30.7729V14.1885H66.8445V16.1456H57.153V21.225H66.229V23.1708H57.153V28.8158H67.225V30.7729H54.9819Z" fill="#07170D"/>
<path id="Vector_2" d="M81.9303 24.9586L84.1013 25.5129C83.6462 27.3154 82.8274 28.6899 81.6449 29.6364C80.4624 30.5829 79.0168 31.0562 77.3083 31.0562C75.5401 31.0562 74.102 30.6923 72.9941 29.9645C71.8862 29.2367 71.0431 28.1827 70.4649 26.8026C69.8867 25.4224 69.5976 23.9405 69.5976 22.3567C69.5976 20.6296 69.924 19.1231 70.5768 17.8373C71.2296 16.5514 72.1585 15.5747 73.3634 14.9073C74.5683 14.2398 75.8945 13.9061 77.3419 13.9061C78.9833 13.9061 80.3635 14.3284 81.4826 15.1731C82.6017 16.0178 83.3814 17.2056 83.8216 18.7366L81.6841 19.2457C81.3036 18.039 80.7515 17.1604 80.0278 16.6098C79.3041 16.0593 78.3939 15.784 77.2971 15.784C76.0362 15.784 74.9824 16.0894 74.1356 16.7003C73.2888 17.3112 72.6938 18.1314 72.3506 19.1608C72.0074 20.1903 71.8358 21.2518 71.8358 22.3454C71.8358 23.7557 72.0391 24.9869 72.4457 26.039C72.8524 27.0911 73.4847 27.8773 74.3427 28.3977C75.2006 28.9181 76.1295 29.1782 77.1293 29.1782C78.3454 29.1782 79.3749 28.8238 80.218 28.1149C81.0611 27.4059 81.6318 26.3538 81.9303 24.9586Z" fill="#07170D"/>
<path id="Vector_3" d="M86.1157 22.6957C86.1157 19.9429 86.8469 17.7878 88.3092 16.2305C89.7715 14.6731 91.6591 13.8944 93.9719 13.8944C95.4864 13.8944 96.8518 14.2602 98.0679 14.9917C99.284 15.7233 100.211 16.7433 100.849 18.0518C101.487 19.3603 101.806 20.8441 101.806 22.5033C101.806 24.1852 101.47 25.6898 100.799 27.0171C100.127 28.3445 99.1758 29.3494 97.9448 30.032C96.7137 30.7145 95.3857 31.0558 93.9607 31.0558C92.4163 31.0558 91.0361 30.6787 89.82 29.9245C88.6039 29.1703 87.6825 28.1408 87.0558 26.8361C86.4291 25.5314 86.1157 24.1512 86.1157 22.6957ZM88.3539 22.7296C88.3539 24.7282 88.8855 26.3025 89.9487 27.4527C91.0118 28.6028 92.3454 29.1778 93.9495 29.1778C95.5834 29.1778 96.9282 28.5971 97.9839 27.4357C99.0396 26.2742 99.5675 24.6264 99.5675 22.492C99.5675 21.1421 99.3418 19.9636 98.8904 18.9568C98.439 17.95 97.7788 17.1694 96.9096 16.6151C96.0404 16.0608 95.0649 15.7836 93.9831 15.7836C92.4462 15.7836 91.1237 16.3172 90.0158 17.3843C88.9079 18.4515 88.3539 20.2333 88.3539 22.7296Z" fill="#07170D"/>
<path id="Vector_4" d="M104.536 30.7729V14.1885H107.804L111.687 25.9311C112.046 27.0247 112.307 27.8429 112.471 28.386C112.657 27.7826 112.948 26.8965 113.344 25.7275L117.272 14.1885H120.193V30.7729H118.1V16.8923L113.333 30.7729H111.374L106.629 16.6547V30.7729H104.536Z" fill="#07170D"/>
<path id="Vector_5" d="M134.462 14.1885H136.633V23.7704C136.633 25.4371 136.446 26.7607 136.073 27.7411C135.7 28.7216 135.027 29.5191 134.053 30.1338C133.079 30.7484 131.802 31.0558 130.22 31.0558C128.683 31.0558 127.426 30.788 126.449 30.2526C125.471 29.7171 124.774 28.9422 124.356 27.9278C123.938 26.9134 123.729 25.5276 123.729 23.7704V14.1885H125.9V23.7591C125.9 25.1995 126.033 26.2611 126.298 26.9436C126.562 27.6261 127.018 28.1522 127.663 28.5217C128.308 28.8913 129.097 29.076 130.03 29.076C131.626 29.076 132.764 28.7103 133.443 27.9787C134.122 27.2472 134.462 25.8406 134.462 23.7591L134.462 14.1885Z" fill="#07170D"/>
<path id="Vector_6" d="M139.509 25.445L141.557 25.264C141.654 26.0936 141.88 26.7743 142.234 27.306C142.588 27.8377 143.139 28.2676 143.885 28.5956C144.631 28.9237 145.47 29.0877 146.403 29.0877C147.231 29.0877 147.962 28.9633 148.596 28.7144C149.23 28.4655 149.702 28.1243 150.012 27.6906C150.321 27.257 150.476 26.7837 150.476 26.2709C150.476 25.7505 150.327 25.2961 150.029 24.9077C149.73 24.5193 149.238 24.1931 148.551 23.9291C148.111 23.7557 147.137 23.4861 145.63 23.1203C144.123 22.7545 143.068 22.4095 142.463 22.0852C141.68 21.6704 141.096 21.1557 140.712 20.541C140.328 19.9263 140.136 19.2381 140.136 18.4764C140.136 17.6393 140.371 16.8568 140.841 16.129C141.311 15.4013 141.997 14.8488 142.9 14.4717C143.803 14.0946 144.806 13.9061 145.91 13.9061C147.126 13.9061 148.199 14.1041 149.128 14.5C150.057 14.896 150.771 15.4786 151.271 16.2478C151.771 17.0171 152.039 17.8882 152.077 18.8611L149.995 19.0194C149.883 17.9711 149.504 17.1792 148.859 16.6438C148.214 16.1083 147.261 15.8406 146 15.8406C144.687 15.8406 143.73 16.0838 143.129 16.5702C142.529 17.0567 142.228 17.6431 142.228 18.3294C142.228 18.9252 142.441 19.4154 142.866 19.8C143.284 20.1847 144.375 20.5787 146.14 20.9822C147.904 21.3857 149.115 21.7383 149.771 22.0399C150.726 22.4849 151.431 23.0486 151.886 23.7312C152.341 24.4137 152.569 25.1999 152.569 26.0899C152.569 26.9723 152.319 27.8038 151.819 28.5843C151.319 29.3649 150.601 29.972 149.665 30.4057C148.729 30.8393 147.675 31.0562 146.503 31.0562C145.019 31.0562 143.775 30.8374 142.771 30.4C141.768 29.9626 140.981 29.3046 140.41 28.4259C139.839 27.5473 139.539 26.5537 139.509 25.445Z" fill="#07170D"/>
<path id="Vector_7" d="M154.874 22.6957C154.874 19.9429 155.605 17.7878 157.068 16.2305C158.53 14.6731 160.418 13.8944 162.73 13.8944C164.245 13.8944 165.61 14.2602 166.826 14.9917C168.042 15.7233 168.969 16.7433 169.607 18.0518C170.245 19.3603 170.564 20.8441 170.564 22.5033C170.564 24.1852 170.228 25.6898 169.557 27.0171C168.886 28.3445 167.934 29.3494 166.703 30.032C165.472 30.7145 164.144 31.0558 162.719 31.0558C161.175 31.0558 159.795 30.6787 158.578 29.9245C157.362 29.1703 156.441 28.1408 155.814 26.8361C155.188 25.5314 154.874 24.1512 154.874 22.6957ZM157.112 22.7296C157.112 24.7282 157.644 26.3025 158.707 27.4527C159.77 28.6028 161.104 29.1778 162.708 29.1778C164.342 29.1778 165.687 28.5971 166.742 27.4357C167.798 26.2742 168.326 24.6264 168.326 22.492C168.326 21.1421 168.1 19.9636 167.649 18.9568C167.198 17.95 166.537 17.1694 165.668 16.6151C164.799 16.0608 163.823 15.7836 162.742 15.7836C161.205 15.7836 159.882 16.3172 158.774 17.3843C157.666 18.4515 157.112 20.2333 157.112 22.7296Z" fill="#07170D"/>
<path id="Vector_8" d="M173.396 30.7729V14.1885H180.67C182.132 14.1885 183.244 14.3375 184.005 14.6354C184.766 14.9333 185.374 15.4593 185.829 16.2135C186.284 16.9677 186.512 17.801 186.512 18.7136C186.512 19.8901 186.135 20.8819 185.381 21.6888C184.628 22.4958 183.464 23.0087 181.89 23.2274C182.464 23.5064 182.901 23.7817 183.199 24.0532C183.833 24.6415 184.434 25.3768 185.001 26.2592L187.855 30.7729H185.124L182.953 27.3226C182.319 26.327 181.796 25.5653 181.386 25.0374C180.976 24.5095 180.608 24.1399 180.284 23.9288C179.959 23.7176 179.629 23.5705 179.293 23.4876C179.047 23.4348 178.644 23.4084 178.085 23.4084H175.567V30.7729H173.396ZM175.567 21.5078H180.233C181.226 21.5078 182.002 21.4041 182.561 21.1967C183.121 20.9893 183.546 20.6575 183.837 20.2012C184.128 19.7449 184.273 19.2491 184.273 18.7136C184.273 17.9292 183.992 17.2844 183.429 16.7791C182.865 16.2738 181.976 16.0212 180.759 16.0212H175.567V21.5078Z" fill="#07170D"/>
</g>
<g id="Group_4">
<g id="Group_5">
<path id="Vector_9" fill-rule="evenodd" clip-rule="evenodd" d="M4.45844 29.577C1.85816 24.1004 1.8513 17.4166 5.01395 11.7332C8.20915 5.99169 13.8773 2.60097 19.8177 2.31776C21.0943 2.25705 22.1245 3.39017 22.1245 4.71607C22.1245 6.04198 21.0808 7.22335 19.8067 7.12074C16.6987 6.87079 13.4832 7.407 10.5766 9.14795C8.07964 10.6438 6.13304 12.7508 4.84208 15.1958C2.55493 19.5268 2.28685 24.8767 4.45844 29.577Z" fill="url(#paint0_linear_103_2947)"/>
<path id="Vector_10" fill-rule="evenodd" clip-rule="evenodd" d="M34.0434 33.0201C31.2057 37.3212 26.6059 39.7553 21.847 39.8658C19.1608 39.9283 16.4288 39.2331 13.9316 37.7373C11.0253 35.9963 8.96973 33.3752 7.62442 30.4577C7.07308 29.2616 5.56496 28.9144 4.45835 29.5774C3.3515 30.2403 2.92061 31.7326 3.60979 32.8492C6.81626 38.0451 12.4805 41.4427 18.8709 41.4427C25.1962 41.4427 30.7721 38.0946 34.0434 33.0201Z" fill="url(#paint1_linear_103_2947)"/>
<path id="Vector_11" fill-rule="evenodd" clip-rule="evenodd" d="M34.0435 33.0196C35.1502 33.6823 36.6113 33.3234 37.1988 32.146C39.9328 26.6669 39.9367 19.8789 36.7415 14.1371C33.5789 8.45375 27.9961 5.11791 22.1245 4.71582C27.1339 5.11486 31.4653 8.03084 33.937 12.2514C35.3325 14.6339 36.1179 17.4361 36.1179 20.4278C36.1179 23.9097 34.958 27.067 33.1952 29.7345C32.4728 30.828 32.9369 32.3566 34.0435 33.0196Z" fill="url(#paint2_linear_103_2947)"/>
</g>
</g>
</g>
</g>
</g>
<defs>
<linearGradient id="paint0_linear_103_2947" x1="6.80148" y1="-16.9137" x2="25.0686" y2="-12.7785" gradientUnits="userSpaceOnUse">
<stop stop-color="#0DBA48"/>
<stop offset="1" stop-color="#009B51"/>
</linearGradient>
<linearGradient id="paint1_linear_103_2947" x1="9.93481" y1="20.6415" x2="28.4289" y2="35.3637" gradientUnits="userSpaceOnUse">
<stop stop-color="#0DBA48"/>
<stop offset="1" stop-color="#009B51"/>
</linearGradient>
<linearGradient id="paint2_linear_103_2947" x1="25.8187" y1="-15.481" x2="42.0113" y2="-12.434" gradientUnits="userSpaceOnUse">
<stop stop-color="#0DBA48"/>
<stop offset="1" stop-color="#009B51"/>
</linearGradient>
</defs>
</svg>
