<svg width="189" height="44" viewBox="0 0 189 44" fill="none" xmlns="http://www.w3.org/2000/svg">
<path d="M54.9824 30.7729V14.1885H66.8451V16.1456H57.1535V21.225H66.2295V23.1708H57.1535V28.8158H67.2256V30.7729H54.9824Z" fill="white"/>
<path d="M81.9303 24.9588L84.1014 25.5131C83.6463 27.3156 82.8275 28.6901 81.6449 29.6366C80.4624 30.5831 79.0169 31.0563 77.3084 31.0563C75.5402 31.0563 74.1021 30.6924 72.9942 29.9646C71.8863 29.2368 71.0432 28.1829 70.465 26.8027C69.8868 25.4226 69.5977 23.9406 69.5977 22.3568C69.5977 20.6298 69.9241 19.1233 70.5769 17.8374C71.2297 16.5515 72.1586 15.5749 73.3635 14.9074C74.5684 14.24 75.8946 13.9062 77.3419 13.9062C78.9833 13.9062 80.3636 14.3286 81.4827 15.1733C82.6018 16.018 83.3814 17.2058 83.8216 18.7368L81.6841 19.2458C81.3036 18.0392 80.7515 17.1605 80.0278 16.61C79.3041 16.0594 78.3939 15.7842 77.2972 15.7842C76.0363 15.7842 74.9825 16.0896 74.1357 16.7005C73.2889 17.3114 72.6939 18.1315 72.3507 19.161C72.0075 20.1905 71.8359 21.252 71.8359 22.3455C71.8359 23.7558 72.0392 24.987 72.4458 26.0391C72.8524 27.0912 73.4847 27.8774 74.3427 28.3978C75.2007 28.9182 76.1296 29.1784 77.1293 29.1784C78.3454 29.1784 79.375 28.8239 80.2181 28.115C81.0611 27.4061 81.6319 26.354 81.9303 24.9588Z" fill="white"/>
<path d="M86.1172 22.6958C86.1172 19.9431 86.8483 17.788 88.3107 16.2306C89.773 14.6732 91.6605 13.8945 93.9734 13.8945C95.4879 13.8945 96.8532 14.2603 98.0694 14.9919C99.2855 15.7234 100.212 16.7434 100.85 18.0519C101.488 19.3604 101.807 20.8443 101.807 22.5035C101.807 24.1853 101.471 25.6899 100.8 27.0173C100.129 28.3446 99.1773 29.3496 97.9463 30.0321C96.7152 30.7146 95.3872 31.0559 93.9622 31.0559C92.4178 31.0559 91.0376 30.6788 89.8215 29.9246C88.6054 29.1705 87.6839 28.141 87.0572 26.8363C86.4305 25.5315 86.1172 24.1514 86.1172 22.6958ZM88.3554 22.7298C88.3554 24.7283 88.887 26.3027 89.9502 27.4528C91.0133 28.6029 92.3469 29.178 93.951 29.178C95.5849 29.178 96.9297 28.5973 97.9854 27.4358C99.0411 26.2744 99.569 24.6265 99.569 22.4922C99.569 21.1422 99.3433 19.9638 98.8919 18.957C98.4405 17.9501 97.7803 17.1696 96.9111 16.6152C96.0419 16.0609 95.0664 15.7837 93.9846 15.7837C92.4477 15.7837 91.1252 16.3173 90.0173 17.3845C88.9094 18.4517 88.3554 20.2334 88.3554 22.7298Z" fill="white"/>
<path d="M104.537 30.7729V14.1885H107.805L111.688 25.9311C112.046 27.0246 112.308 27.8429 112.472 28.3859C112.658 27.7826 112.949 26.8964 113.345 25.7274L117.273 14.1885H120.194V30.7729H118.101V16.8922L113.333 30.7729H111.375L106.63 16.6547V30.7729H104.537Z" fill="white"/>
<path d="M134.463 14.1885H136.634V23.7703C136.634 25.4371 136.447 26.7607 136.074 27.7411C135.701 28.7215 135.028 29.5191 134.054 30.1337C133.081 30.7484 131.803 31.0557 130.221 31.0557C128.684 31.0557 127.427 30.788 126.45 30.2525C125.473 29.7171 124.775 28.9421 124.357 27.9278C123.939 26.9134 123.73 25.5276 123.73 23.7703V14.1885H125.902V23.759C125.902 25.1995 126.034 26.261 126.299 26.9436C126.564 27.6261 127.019 28.1521 127.664 28.5217C128.31 28.8912 129.098 29.076 130.031 29.076C131.628 29.076 132.765 28.7102 133.444 27.9787C134.123 27.2471 134.463 25.8406 134.463 23.759L134.463 14.1885Z" fill="white"/>
<path d="M139.51 25.4452L141.558 25.2642C141.655 26.0938 141.88 26.7744 142.235 27.3061C142.589 27.8378 143.139 28.2677 143.886 28.5958C144.632 28.9239 145.471 29.0879 146.404 29.0879C147.232 29.0879 147.963 28.9635 148.597 28.7146C149.231 28.4657 149.703 28.1244 150.013 27.6908C150.322 27.2571 150.477 26.7839 150.477 26.271C150.477 25.7507 150.328 25.2963 150.029 24.9079C149.731 24.5195 149.239 24.1933 148.552 23.9293C148.112 23.7558 147.138 23.4862 145.631 23.1204C144.124 22.7547 143.069 22.4096 142.464 22.0853C141.681 21.6705 141.097 21.1558 140.713 20.5412C140.329 19.9265 140.136 19.2383 140.136 18.4766C140.136 17.6394 140.371 16.857 140.842 16.1292C141.312 15.4014 141.998 14.849 142.901 14.4719C143.803 14.0948 144.807 13.9062 145.911 13.9062C147.127 13.9062 148.2 14.1042 149.129 14.5002C150.057 14.8961 150.772 15.4787 151.272 16.248C151.772 17.0172 152.04 17.8883 152.077 18.8612L149.996 19.0196C149.884 17.9713 149.505 17.1794 148.86 16.6439C148.215 16.1084 147.262 15.8407 146.001 15.8407C144.688 15.8407 143.731 16.0839 143.13 16.5704C142.53 17.0568 142.229 17.6432 142.229 18.3295C142.229 18.9253 142.442 19.4155 142.867 19.8002C143.285 20.1848 144.376 20.5789 146.141 20.9823C147.905 21.3858 149.116 21.7384 149.772 22.0401C150.727 22.4851 151.432 23.0488 151.887 23.7313C152.342 24.4139 152.57 25.2001 152.57 26.09C152.57 26.9724 152.32 27.8039 151.82 28.5845C151.32 29.3651 150.602 29.9722 149.666 30.4058C148.729 30.8395 147.676 31.0563 146.504 31.0563C145.02 31.0563 143.775 30.8376 142.772 30.4002C141.769 29.9627 140.981 29.3047 140.411 28.4261C139.84 27.5475 139.54 26.5538 139.51 25.4452Z" fill="white"/>
<path d="M154.875 22.6958C154.875 19.9431 155.606 17.788 157.068 16.2306C158.531 14.6732 160.418 13.8945 162.731 13.8945C164.246 13.8945 165.611 14.2603 166.827 14.9919C168.043 15.7234 168.97 16.7434 169.608 18.0519C170.246 19.3604 170.565 20.8443 170.565 22.5035C170.565 24.1853 170.229 25.6899 169.558 27.0173C168.886 28.3446 167.935 29.3496 166.704 30.0321C165.473 30.7146 164.145 31.0559 162.72 31.0559C161.176 31.0559 159.795 30.6788 158.579 29.9246C157.363 29.1705 156.442 28.141 155.815 26.8363C155.188 25.5315 154.875 24.1514 154.875 22.6958ZM157.113 22.7298C157.113 24.7283 157.645 26.3027 158.708 27.4528C159.771 28.6029 161.105 29.178 162.709 29.178C164.343 29.178 165.688 28.5973 166.743 27.4358C167.799 26.2744 168.327 24.6265 168.327 22.4922C168.327 21.1422 168.101 19.9638 167.65 18.957C167.198 17.9501 166.538 17.1696 165.669 16.6152C164.8 16.0609 163.824 15.7837 162.742 15.7837C161.205 15.7837 159.883 16.3173 158.775 17.3845C157.667 18.4517 157.113 20.2334 157.113 22.7298Z" fill="white"/>
<path d="M173.396 30.7729V14.1885H180.671C182.133 14.1885 183.245 14.3374 184.006 14.6353C184.767 14.9332 185.375 15.4593 185.83 16.2135C186.285 16.9676 186.513 17.801 186.513 18.7136C186.513 19.8901 186.136 20.8818 185.382 21.6888C184.629 22.4958 183.465 23.0086 181.891 23.2273C182.465 23.5064 182.902 23.7817 183.2 24.0532C183.834 24.6414 184.435 25.3767 185.002 26.2591L187.855 30.7729H185.125L182.954 27.3225C182.32 26.327 181.797 25.5653 181.387 25.0374C180.977 24.5094 180.609 24.1399 180.285 23.9287C179.96 23.7176 179.63 23.5705 179.294 23.4875C179.048 23.4347 178.645 23.4083 178.086 23.4083H175.568V30.7729H173.396ZM175.568 21.5078H180.234C181.227 21.5078 182.002 21.4041 182.562 21.1967C183.122 20.9893 183.547 20.6575 183.838 20.2012C184.129 19.7449 184.274 19.249 184.274 18.7136C184.274 17.9292 183.993 17.2844 183.429 16.7791C182.866 16.2738 181.976 16.0211 180.76 16.0211H175.568V21.5078Z" fill="white"/>
<path fill-rule="evenodd" clip-rule="evenodd" d="M4.45856 29.577C1.85828 24.1004 1.85142 17.4166 5.01407 11.7332C8.20927 5.99169 13.8774 2.60097 19.8179 2.31776C21.0944 2.25705 22.1246 3.39017 22.1246 4.71607C22.1246 6.04198 21.0809 7.22335 19.8069 7.12074C16.6988 6.87079 13.4833 7.407 10.5767 9.14795C8.07976 10.6438 6.13317 12.7508 4.84221 15.1958C2.55506 19.5268 2.28697 24.8767 4.45856 29.577Z" fill="white"/>
<path fill-rule="evenodd" clip-rule="evenodd" d="M34.0433 33.0201C31.2055 37.3212 26.6058 39.7553 21.8469 39.8658C19.1607 39.9283 16.4287 39.2331 13.9315 37.7373C11.0252 35.9963 8.96961 33.3752 7.6243 30.4577C7.07295 29.2616 5.56484 28.9144 4.45823 29.5774C3.35138 30.2403 2.92049 31.7326 3.60967 32.8492C6.81613 38.0451 12.4804 41.4427 18.8708 41.4427C25.1961 41.4427 30.772 38.0946 34.0433 33.0201Z" fill="white"/>
<path fill-rule="evenodd" clip-rule="evenodd" d="M34.044 33.0196C35.1506 33.6823 36.6118 33.3234 37.1993 32.146C39.9333 26.6669 39.9372 19.8789 36.742 14.1371C33.5794 8.45375 27.9966 5.11791 22.125 4.71582C27.1344 5.11486 31.4658 8.03084 33.9375 12.2514C35.333 14.6339 36.1184 17.4361 36.1184 20.4278C36.1184 23.9097 34.9585 27.067 33.1957 29.7345C32.4732 30.828 32.9374 32.3566 34.044 33.0196Z" fill="white"/>
</svg>
