<svg width="60" height="60" viewBox="0 0 60 60" fill="none" xmlns="http://www.w3.org/2000/svg">
<g id="svg-gobbler - 2023-04-11T005948.073">
<g id="Group">
<path id="Vector" d="M56.8571 34.0127C58.3928 32.2515 58.3922 29.6287 56.8543 27.8632C58.6836 27.2241 60 25.4821 60 23.4375C60 20.8528 57.8972 18.75 55.3125 18.75H40.3099C41.6372 16.986 41.5615 14.5146 40.0691 12.8316C41.8516 12.1675 43.125 10.4486 43.125 8.4375C43.125 5.85281 41.0222 3.75 38.4375 3.75H21.5625C17.5366 3.75 15.3858 8.53219 18.0559 11.5434C15.0387 12.6675 14.0096 16.4501 16.0908 18.9395C7.00699 20.2349 0 28.0639 0 37.5C0 47.8387 8.41125 56.25 18.75 56.25C27.1297 56.25 34.2427 50.724 36.6376 43.125H55.3125C57.904 43.125 60 41.0292 60 38.4375C60 36.394 58.685 34.6527 56.8571 34.0127ZM58.125 23.4375C58.125 24.9882 56.8632 26.25 55.3125 26.25H38.4375C36.8868 26.25 35.625 24.9882 35.625 23.4375C35.625 21.8868 36.8868 20.625 38.4375 20.625H55.3125C56.8632 20.625 58.125 21.8868 58.125 23.4375ZM19.6875 13.125H24.375C24.6236 13.125 24.8621 13.0262 25.0379 12.8504C25.2137 12.6746 25.3125 12.4361 25.3125 12.1875C25.3125 11.9389 25.2137 11.7004 25.0379 11.5246C24.8621 11.3488 24.6236 11.25 24.375 11.25H21.5625C20.0118 11.25 18.75 9.98824 18.75 8.4375C18.75 6.88676 20.0118 5.625 21.5625 5.625H38.4375C39.9882 5.625 41.25 6.88676 41.25 8.4375C41.25 9.98824 39.9882 11.25 38.4375 11.25H33.75C33.5014 11.25 33.2629 11.3488 33.0871 11.5246C32.9113 11.7004 32.8125 11.9389 32.8125 12.1875C32.8125 12.4361 32.9113 12.6746 33.0871 12.8504C33.2629 13.0262 33.5014 13.125 33.75 13.125H36.5625C38.1132 13.125 39.375 14.3866 39.375 15.9375C39.375 17.4884 38.1132 18.75 36.5625 18.75H30C29.7514 18.75 29.5129 18.8488 29.3371 19.0246C29.1613 19.2004 29.0625 19.4389 29.0625 19.6875C29.0625 19.9361 29.1613 20.1746 29.3371 20.3504C29.5129 20.5262 29.7514 20.625 30 20.625H34.6901C34.0449 21.4816 33.714 22.534 33.7527 23.6057C33.7914 24.6774 34.1975 25.7032 34.9028 26.511C34.6481 26.5993 34.4016 26.7094 34.166 26.8403C30.9934 22.2662 25.8405 19.1659 19.958 18.79C19.8703 18.7635 19.7792 18.75 19.6876 18.75C18.1368 18.75 16.8751 17.4884 16.8751 15.9375C16.8751 14.3866 18.1366 13.125 19.6875 13.125ZM18.75 54.375C9.44508 54.375 1.875 46.8049 1.875 37.5C1.875 28.1951 9.44508 20.625 18.75 20.625C28.0549 20.625 35.625 28.1951 35.625 37.5C35.625 46.8049 28.0549 54.375 18.75 54.375ZM57.3015 40.4265C56.7704 40.9575 56.0641 41.25 55.3125 41.25H37.123C37.4991 39.3998 37.5947 37.5036 37.4065 35.625H40.3125C40.5611 35.625 40.7996 35.5262 40.9754 35.3504C41.1512 35.1746 41.25 34.9361 41.25 34.6875C41.25 34.4389 41.1512 34.2004 40.9754 34.0246C40.7996 33.8488 40.5611 33.75 40.3125 33.75H37.123C36.7432 31.8892 36.0809 30.0974 35.1592 28.437C35.973 28.0184 34.903 28.125 53.3203 28.125C55.8094 28.125 57.0763 31.1598 55.3093 32.9265C54.7782 33.4575 54.072 33.75 53.3203 33.75H49.6875C49.4389 33.75 49.2004 33.8488 49.0246 34.0246C48.8488 34.2004 48.75 34.4389 48.75 34.6875C48.75 34.9361 48.8488 35.1746 49.0246 35.3504C49.2004 35.5262 49.4389 35.625 49.6875 35.625H55.3125C57.8016 35.625 59.0685 38.6598 57.3015 40.4265Z" fill="#07170D"/>
<path id="Vector_2" d="M45 35.625C44.4839 35.625 44.0625 35.2069 44.0625 34.6875C44.0625 34.0887 44.6145 33.6527 45.1828 33.7688C45.7127 33.8728 46.0214 34.3957 45.9188 34.8703C45.8319 35.3143 45.4399 35.625 45 35.625ZM29.0625 13.125C28.5454 13.125 28.125 12.7057 28.125 12.1875C28.125 11.5908 28.6751 11.1525 29.2453 11.2688C29.766 11.3709 30.0855 11.8856 29.9812 12.3703C29.893 12.8196 29.4977 13.125 29.0625 13.125Z" fill="url(#paint0_linear_573_3122)"/>
<path id="Vector_3" d="M21.2405 28H16.6111C16.4196 28 16.2359 28.077 16.1004 28.214C15.965 28.3511 15.8889 28.537 15.8889 28.7308V36.7692H13.7222C13.5307 36.7692 13.347 36.8462 13.2115 36.9833C13.0761 37.1203 13 37.3062 13 37.5C13 37.6938 13.0761 37.8797 13.2115 38.0167C13.347 38.1538 13.5307 38.2308 13.7222 38.2308H15.8889V39.6923H13.7222C13.5307 39.6923 13.347 39.7693 13.2115 39.9063C13.0761 40.0434 13 40.2293 13 40.4231C13 40.6169 13.0761 40.8028 13.2115 40.9398C13.347 41.0769 13.5307 41.1538 13.7222 41.1538H15.8889V46.2692C15.8889 46.463 15.965 46.6489 16.1004 46.786C16.2359 46.923 16.4196 47 16.6111 47C16.8027 47 16.9864 46.923 17.1218 46.786C17.2572 46.6489 17.3333 46.463 17.3333 46.2692V41.1538H21.6667C21.8582 41.1538 22.0419 41.0769 22.1774 40.9398C22.3128 40.8028 22.3889 40.6169 22.3889 40.4231C22.3889 40.2293 22.3128 40.0434 22.1774 39.9063C22.0419 39.7693 21.8582 39.6923 21.6667 39.6923H17.3333V38.2308H21.2405C23.8648 38.2308 26 36.0703 26 33.4149V32.8159C26 30.1604 23.8648 28 21.2405 28ZM24.5556 33.4149C24.5556 35.2645 23.0684 36.7692 21.2405 36.7692H17.3333V29.4615H21.2405C23.0684 29.4615 24.5556 30.9663 24.5556 32.8159V33.4149Z" fill="url(#paint1_linear_573_3122)"/>
</g>
</g>
<defs>
<linearGradient id="paint0_linear_573_3122" x1="31.9796" y1="-5.94309" x2="48.5895" y2="-2.11209" gradientUnits="userSpaceOnUse">
<stop stop-color="#0DBA48"/>
<stop offset="1" stop-color="#009B51"/>
</linearGradient>
<linearGradient id="paint1_linear_573_3122" x1="15.813" y1="14.5982" x2="28.0109" y2="17.2322" gradientUnits="userSpaceOnUse">
<stop stop-color="#0DBA48"/>
<stop offset="1" stop-color="#009B51"/>
</linearGradient>
</defs>
</svg>
