<svg width="60" height="60" viewBox="0 0 60 60" fill="none" xmlns="http://www.w3.org/2000/svg">
<g id="svg-gobbler - 2023-04-11T051812.730" clip-path="url(#clip0_580_5228)">
<g id="Group">
<g id="Clip path group">
<mask id="mask0_580_5228" style="mask-type:luminance" maskUnits="userSpaceOnUse" x="0" y="0" width="60" height="60">
<g id="a">
<path id="Vector" d="M59.1498 59.15V0.850174H0.85V59.15H59.1498Z" fill="white" stroke="white" stroke-width="1.7"/>
</g>
</mask>
<g mask="url(#mask0_580_5228)">
<g id="Group_2">
<path id="Vector_2" d="M30.2408 18.9646V13.8141H28.8416C26.8358 13.8141 25.9042 11.3254 27.4177 10.0099L37.2958 1.41313C38.1119 0.701682 39.3275 0.701682 40.1437 1.41313L50.0219 10.0099C51.5342 11.3266 50.6037 13.8141 48.598 13.8141H47.1987V41.0059" stroke="#07170D" stroke-width="1.7" stroke-miterlimit="10" stroke-linecap="round" stroke-linejoin="round"/>
<path id="Vector_3" d="M12.6868 22.6309L16.8727 18.9875C17.6895 18.2774 18.9047 18.2774 19.7203 18.9875L23.8149 22.55" stroke="#07170D" stroke-width="1.7" stroke-miterlimit="10" stroke-linecap="round" stroke-linejoin="round"/>
<path id="Vector_4" d="M26.7762 40.8786V54.8215C26.7762 57.1957 24.8496 59.1211 22.4742 59.1211H14.1176C11.7434 59.1211 9.81801 57.1957 9.81801 54.8215V31.3888H8.41879C6.41255 31.3888 5.48091 28.8997 6.99497 27.5837L10.036 24.9364" stroke="#07170D" stroke-width="1.7" stroke-miterlimit="10" stroke-linecap="round" stroke-linejoin="round"/>
<path id="Vector_5" d="M42.3533 37.0279C43.5782 35.1693 44.2907 32.9421 44.2907 30.55C44.2907 24.032 39.0059 18.7484 32.488 18.7484C25.9701 18.7484 20.6865 24.032 20.6865 30.55C20.6865 37.0679 25.9701 42.3516 32.488 42.3516C33.3361 42.3516 34.164 42.262 34.9613 42.09" stroke="url(#paint0_linear_580_5228)" stroke-width="1.7" stroke-miterlimit="10" stroke-linecap="round" stroke-linejoin="round"/>
<path id="Vector_6" d="M33.4374 25H30.9447C30.8415 25 30.7426 25.0446 30.6697 25.1239C30.5968 25.2033 30.5558 25.3109 30.5558 25.4231V30.0769H29.3891C29.286 30.0769 29.1871 30.1215 29.1141 30.2008C29.0412 30.2802 29.0002 30.3878 29.0002 30.5C29.0002 30.6122 29.0412 30.7198 29.1141 30.7992C29.1871 30.8785 29.286 30.9231 29.3891 30.9231H30.5558V31.7692H29.3891C29.286 31.7692 29.1871 31.8138 29.1141 31.8931C29.0412 31.9725 29.0002 32.0801 29.0002 32.1923C29.0002 32.3045 29.0412 32.4121 29.1141 32.4915C29.1871 32.5708 29.286 32.6154 29.3891 32.6154H30.5558V35.5769C30.5558 35.6891 30.5968 35.7967 30.6697 35.8761C30.7426 35.9554 30.8415 36 30.9447 36C31.0478 36 31.1467 35.9554 31.2197 35.8761C31.2926 35.7967 31.3336 35.6891 31.3336 35.5769V32.6154H33.6669C33.7701 32.6154 33.869 32.5708 33.9419 32.4915C34.0148 32.4121 34.0558 32.3045 34.0558 32.1923C34.0558 32.0801 34.0148 31.9725 33.9419 31.8931C33.869 31.8138 33.7701 31.7692 33.6669 31.7692H31.3336V30.9231H33.4374C34.8505 30.9231 36.0002 29.6723 36.0002 28.1349V27.7881C36.0002 26.2508 34.8505 25 33.4374 25ZM35.2225 28.1349C35.2225 29.2058 34.4217 30.0769 33.4374 30.0769H31.3336V25.8462H33.4374C34.4217 25.8462 35.2225 26.7173 35.2225 27.7881V28.1349Z" fill="url(#paint1_linear_580_5228)" stroke="url(#paint2_linear_580_5228)" stroke-width="0.3"/>
<path id="Vector_7" d="M50.1819 53.0625V49.8633H51.5823C53.5874 49.8633 54.519 47.3754 53.0061 46.0582L43.1273 37.4614C42.3116 36.7512 41.0964 36.7512 40.2796 37.4614L30.4019 46.0582C28.889 47.3754 29.8195 49.8633 31.8257 49.8633H33.225V54.8203C33.225 57.1957 35.1503 59.1211 37.5257 59.1211H45.8823C47.6448 59.1211 49.1601 58.0606 49.8233 56.5418" stroke="#07170D" stroke-width="1.7" stroke-miterlimit="10" stroke-linecap="round" stroke-linejoin="round"/>
</g>
</g>
</g>
</g>
</g>
<defs>
<linearGradient id="paint0_linear_580_5228" x1="25.7942" y1="59.0002" x2="46.8747" y2="52.3468" gradientUnits="userSpaceOnUse">
<stop stop-color="#0DBA48"/>
<stop offset="1" stop-color="#009B51"/>
</linearGradient>
<linearGradient id="paint1_linear_580_5228" x1="30.515" y1="17.2411" x2="37.1228" y2="18.5682" gradientUnits="userSpaceOnUse">
<stop stop-color="#0DBA48"/>
<stop offset="1" stop-color="#009B51"/>
</linearGradient>
<linearGradient id="paint2_linear_580_5228" x1="30.515" y1="17.2411" x2="37.1228" y2="18.5682" gradientUnits="userSpaceOnUse">
<stop stop-color="#0DBA48"/>
<stop offset="1" stop-color="#009B51"/>
</linearGradient>
<clipPath id="clip0_580_5228">
<rect width="60" height="60" fill="white"/>
</clipPath>
</defs>
</svg>
