<svg width="60" height="60" viewBox="0 0 60 60" fill="none" xmlns="http://www.w3.org/2000/svg">
<g clip-path="url(#clip0_586_7245)">
<path d="M5.55023 57.8496C5.30159 57.8496 5.06314 57.7509 4.88732 57.5751C4.71151 57.3992 4.61273 57.1608 4.61273 56.9121V49.1542C4.61273 48.9056 4.71151 48.6671 4.88732 48.4913C5.06314 48.3155 5.30159 48.2167 5.55023 48.2167C5.79887 48.2167 6.03733 48.3155 6.21315 48.4913C6.38896 48.6671 6.48773 48.9056 6.48773 49.1542V56.9121C6.48773 57.1608 6.38896 57.3992 6.21315 57.5751C6.03733 57.7509 5.79887 57.8496 5.55023 57.8496ZM24.0788 56.9121V46.3743C24.0788 46.1257 23.98 45.8872 23.8042 45.7114C23.6283 45.5356 23.3899 45.4368 23.1413 45.4368C22.8926 45.4368 22.6542 45.5356 22.4783 45.7114C22.3025 45.8872 22.2038 46.1257 22.2038 46.3743V56.912C22.2037 57.1607 22.3025 57.3991 22.4783 57.575C22.6541 57.7508 22.8926 57.8496 23.1412 57.8496C23.3898 57.8496 23.6283 57.7508 23.8041 57.575C23.9799 57.3992 24.0787 57.1608 24.0788 56.9121ZM37.796 56.9121V46.3743C37.796 46.1257 37.6972 45.8872 37.5214 45.7114C37.3456 45.5356 37.1072 45.4368 36.8585 45.4368C36.6099 45.4368 36.3714 45.5356 36.1956 45.7114C36.0198 45.8872 35.921 46.1257 35.921 46.3743V56.912C35.921 57.1607 36.0198 57.3991 36.1956 57.575C36.3714 57.7508 36.6098 57.8496 36.8585 57.8496C37.1071 57.8496 37.3456 57.7508 37.5214 57.575C37.6972 57.3992 37.796 57.1608 37.796 56.9121ZM55.3871 56.9121V49.1542C55.3871 48.9056 55.2884 48.6671 55.1126 48.4913C54.9367 48.3155 54.6983 48.2167 54.4496 48.2167C54.201 48.2167 53.9626 48.3155 53.7867 48.4913C53.6109 48.6671 53.5121 48.9056 53.5121 49.1542V56.9121C53.5121 57.1608 53.6109 57.3992 53.7867 57.5751C53.9626 57.7509 54.201 57.8496 54.4496 57.8496C54.6983 57.8496 54.9367 57.7509 55.1126 57.5751C55.2884 57.3992 55.3871 57.1608 55.3871 56.9121ZM60.0001 45.7161V56.912C60.0001 57.1607 59.9013 57.3991 59.7255 57.5749C59.5497 57.7508 59.3113 57.8495 59.0626 57.8495C58.814 57.8495 58.5755 57.7508 58.3997 57.5749C58.2239 57.3991 58.1251 57.1607 58.1251 56.912V45.7161C58.1251 43.6547 55.9992 42.675 54.216 42.2162C50.499 41.2602 46.6646 41.2088 42.8082 42.0598C42.828 42.2421 42.8391 42.4273 42.8391 42.616V56.912C42.8391 57.1607 42.7403 57.3991 42.5645 57.5749C42.3887 57.7508 42.1502 57.8495 41.9016 57.8495C41.6529 57.8495 41.4145 57.7508 41.2386 57.5749C41.0628 57.3991 40.9641 57.1607 40.9641 56.912V42.616C40.9641 40.1503 38.2504 39.1089 36.6327 38.7077C32.1529 37.596 27.6922 37.5953 23.375 38.7057C21.3955 39.2147 19.0361 40.3064 19.0361 42.616V56.912C19.0361 57.1607 18.9373 57.3991 18.7615 57.5749C18.5857 57.7508 18.3472 57.8495 18.0986 57.8495C17.8499 57.8495 17.6115 57.7508 17.4356 57.5749C17.2598 57.3991 17.1611 57.1607 17.1611 56.912V42.616C17.1612 42.4301 17.1712 42.2445 17.1911 42.0597C13.3349 41.2088 9.50074 41.2603 5.78414 42.2164C4.00078 42.6752 1.875 43.6547 1.875 45.7162V56.9121C1.875 57.1608 1.77623 57.3992 1.60041 57.5751C1.4246 57.7509 1.18614 57.8496 0.9375 57.8496C0.68886 57.8496 0.450403 57.7509 0.274587 57.5751C0.098772 57.3992 0 57.1608 0 56.9121V45.7162C0 43.1704 1.88824 41.2826 5.31703 40.4005C6.74686 40.0331 8.20549 39.7886 9.67699 39.6698C7.51863 38.586 5.98793 35.922 5.98793 32.8129C5.98793 29.0898 8.22445 26.7771 11.8248 26.7771C15.4252 26.7771 17.6617 29.0898 17.6617 32.8129C17.6617 35.9286 16.1245 38.5973 13.959 39.6766C15.2187 39.7819 16.4828 39.9779 17.7485 40.2645C18.6006 38.7104 20.3611 37.5449 22.9082 36.8898C24.5725 36.4611 26.2725 36.1854 27.9871 36.0662C25.5016 34.9995 23.7069 32.0167 23.7069 28.5107C23.7069 24.4948 26.1183 22 30.0001 22C33.882 22 36.2933 24.4948 36.2933 28.5107C36.2933 32.0242 34.491 35.0123 31.9972 36.073C33.687 36.195 35.3846 36.4661 37.0843 36.8878C39.6023 37.5126 41.3809 38.697 42.2446 40.2661C43.5128 39.9786 44.7793 39.7821 46.0413 39.6766C43.8758 38.5973 42.3387 35.9284 42.3387 32.8129C42.3387 29.0898 44.5752 26.7771 48.1755 26.7771C51.7759 26.7771 54.0124 29.0898 54.0124 32.8129C54.0124 35.922 52.4816 38.5861 50.3234 39.6699C51.7948 39.7888 53.2535 40.0332 54.6833 40.4005C58.1119 41.2825 60.0001 43.1704 60.0001 45.7161ZM11.8246 38.3145C14.0092 38.3145 15.7864 35.8464 15.7864 32.8129C15.7864 29.1927 13.3042 28.6521 11.8246 28.6521C10.345 28.6521 7.8627 29.1927 7.8627 32.8129C7.86281 35.8464 9.64008 38.3145 11.8246 38.3145ZM30 34.6122C32.4362 34.6122 34.4182 31.8752 34.4182 28.5107C34.4182 24.4773 31.6501 23.875 30 23.875C28.3499 23.875 25.5818 24.4772 25.5818 28.5107C25.5818 31.8752 27.5638 34.6122 30 34.6122ZM48.1754 38.3145C50.36 38.3145 52.1373 35.8464 52.1373 32.8129C52.1373 29.1927 49.655 28.6521 48.1754 28.6521C46.6958 28.6521 44.2136 29.1927 44.2136 32.8129C44.2136 35.8464 45.9908 38.3145 48.1754 38.3145Z" fill="#07170D"/>
<path d="M17.4329 11.7192C17.4887 11.8906 17.4938 12.0744 17.4477 12.2487C17.4016 12.4229 17.3062 12.5802 17.173 12.7016L13.3285 16.2076L14.378 21.3038C14.4143 21.4804 14.399 21.6636 14.3338 21.8316C14.2687 21.9997 14.1565 22.1454 14.0107 22.2513C13.8649 22.3572 13.6916 22.4189 13.5117 22.4289C13.3317 22.4389 13.1527 22.3968 12.9961 22.3077L8.4737 19.7348L3.9512 22.3077C3.79456 22.3968 3.61553 22.4389 3.43557 22.4289C3.25562 22.4189 3.08237 22.3572 2.93659 22.2512C2.79079 22.1452 2.67861 21.9995 2.61348 21.8315C2.54834 21.6635 2.53301 21.4802 2.56933 21.3037L3.61874 16.2076L-0.225596 12.7014C-0.358724 12.58 -0.454026 12.4227 -0.500095 12.2485C-0.546165 12.0743 -0.541049 11.8905 -0.48536 11.7191C-0.429672 11.5477 -0.32577 11.396 -0.186093 11.2821C-0.046416 11.1682 0.123118 11.097 0.302216 11.077L5.47323 10.5003L7.61975 5.76055C7.69412 5.59641 7.81422 5.45718 7.96567 5.35952C8.11712 5.26187 8.2935 5.20994 8.4737 5.20994C8.6539 5.20994 8.83029 5.26187 8.98173 5.35952C9.13318 5.45718 9.25328 5.59641 9.32765 5.76055L11.4742 10.5002L16.6451 11.077C16.8242 11.097 16.9938 11.1682 17.1335 11.2821C17.2733 11.396 17.3772 11.5477 17.4329 11.7192ZM14.3801 12.7111L10.7364 12.3046C10.5748 12.2866 10.4208 12.2269 10.2893 12.1314C10.1578 12.0359 10.0534 11.9078 9.98636 11.7597L8.47382 8.41988L6.96128 11.7597C6.89422 11.9078 6.78983 12.0358 6.65835 12.1314C6.52686 12.2269 6.3728 12.2866 6.21128 12.3046L2.56745 12.7111L5.27636 15.1817C5.39646 15.2912 5.48602 15.4301 5.53625 15.5847C5.58649 15.7393 5.59566 15.9042 5.56288 16.0634L4.82343 19.6545L8.01011 17.8415C8.1514 17.7612 8.31115 17.7189 8.4737 17.7189C8.63625 17.7189 8.796 17.7612 8.93729 17.8415L12.1239 19.6544L11.3844 16.0633C11.3516 15.9041 11.3608 15.7391 11.4111 15.5846C11.4613 15.43 11.5508 15.2911 11.6709 15.1816L14.3801 12.7111ZM38.9591 8.50912C39.0148 8.68053 39.02 8.86437 38.9739 9.03861C38.9278 9.21285 38.8324 9.37009 38.6992 9.49151L34.8549 12.9975L35.9043 18.0938C35.9406 18.2703 35.9252 18.4535 35.8601 18.6216C35.795 18.7896 35.6828 18.9353 35.537 19.0412C35.3912 19.1471 35.2179 19.2088 35.038 19.2188C34.8581 19.2289 34.6791 19.1868 34.5224 19.0977L30 16.5249L25.4775 19.0977C25.3209 19.1869 25.1418 19.2289 24.9619 19.219C24.7819 19.209 24.6087 19.1473 24.4628 19.0414C24.317 18.9354 24.2048 18.7897 24.1397 18.6216C24.0746 18.4536 24.0593 18.2703 24.0956 18.0938L25.1451 12.9976L21.3007 9.49151C21.1676 9.37004 21.0723 9.21279 21.0262 9.03856C20.9802 8.86434 20.9853 8.68052 21.041 8.50913C21.0966 8.33774 21.2005 8.18603 21.3402 8.07215C21.4799 7.95828 21.6494 7.88707 21.8285 7.86705L26.9994 7.29037L29.146 2.55061C29.2203 2.38647 29.3404 2.24724 29.4919 2.14959C29.6433 2.05193 29.8197 2 29.9999 2C30.1801 2 30.3565 2.05193 30.5079 2.14959C30.6594 2.24724 30.7795 2.38647 30.8538 2.55061L33.0004 7.29026L38.1713 7.86705C38.3504 7.88699 38.52 7.95817 38.6598 8.07205C38.7995 8.18593 38.9034 8.33768 38.9591 8.50912ZM35.9063 9.501L32.2626 9.09459C32.101 9.07658 31.947 9.01687 31.8155 8.92134C31.684 8.82581 31.5796 8.69773 31.5126 8.54967L30 5.20983L28.4875 8.54967C28.4204 8.69772 28.316 8.82579 28.1845 8.92133C28.0531 9.01686 27.899 9.07656 27.7375 9.09459L24.0938 9.501L26.8027 11.9717C26.9228 12.0812 27.0123 12.22 27.0626 12.3746C27.1128 12.5292 27.122 12.6942 27.0892 12.8534L26.3496 16.4444L29.5363 14.6315C29.6776 14.551 29.8373 14.5087 29.9999 14.5087C30.1625 14.5087 30.3222 14.551 30.4635 14.6315L33.6502 16.4444L32.9106 12.8533C32.8778 12.6941 32.887 12.5291 32.9373 12.3745C32.9875 12.2199 33.077 12.0811 33.1971 11.9715L35.9063 9.501ZM59.4227 11.7192C59.4785 11.8906 59.4836 12.0744 59.4375 12.2487C59.3914 12.4229 59.296 12.5802 59.1628 12.7016L55.3184 16.2076L56.3678 21.3038C56.4041 21.4804 56.3888 21.6636 56.3236 21.8316C56.2585 21.9997 56.1463 22.1454 56.0005 22.2513C55.8547 22.3572 55.6814 22.4189 55.5015 22.4289C55.3215 22.4389 55.1425 22.3968 54.9859 22.3077L50.4635 19.7348L45.941 22.3077C45.7844 22.3968 45.6053 22.4389 45.4254 22.4289C45.2454 22.4189 45.0722 22.3572 44.9264 22.2512C44.7806 22.1452 44.6684 21.9995 44.6033 21.8314C44.5382 21.6634 44.5228 21.4801 44.5591 21.3036L45.6085 16.2075L41.7641 12.7013C41.631 12.5799 41.5357 12.4226 41.4896 12.2484C41.4435 12.0742 41.4486 11.8903 41.5043 11.719C41.56 11.5476 41.6639 11.3959 41.8036 11.282C41.9433 11.1681 42.1128 11.0969 42.2919 11.0769L47.4629 10.5002L49.6094 5.76043C49.6838 5.59629 49.8039 5.45706 49.9554 5.35941C50.1068 5.26176 50.2832 5.20982 50.4634 5.20982C50.6436 5.20982 50.82 5.26176 50.9714 5.35941C51.1229 5.45706 51.243 5.59629 51.3173 5.76043L53.4639 10.5001L58.6348 11.0769C58.8139 11.0969 58.9836 11.1681 59.1233 11.282C59.2631 11.3959 59.367 11.5477 59.4227 11.7192ZM56.37 12.7111L52.7263 12.3046C52.5648 12.2866 52.4107 12.2269 52.2792 12.1314C52.1477 12.0359 52.0433 11.9078 51.9763 11.7597L50.4637 8.41988L48.9512 11.7597C48.8841 11.9078 48.7798 12.0358 48.6483 12.1314C48.5168 12.2269 48.3627 12.2866 48.2012 12.3046L44.5575 12.7111L47.2664 15.1816C47.3865 15.2911 47.4761 15.43 47.5263 15.5846C47.5765 15.7392 47.5857 15.9042 47.5529 16.0634L46.8134 19.6544L50 17.8415C50.1413 17.7612 50.3011 17.719 50.4636 17.719C50.6262 17.719 50.7859 17.7612 50.9272 17.8415L54.1138 19.6544L53.3743 16.0633C53.3416 15.9041 53.3508 15.7391 53.401 15.5846C53.4512 15.43 53.5408 15.2911 53.6609 15.1816L56.37 12.7111Z" fill="url(#paint0_linear_586_7245)"/>
</g>
<defs>
<linearGradient id="paint0_linear_586_7245" x1="12.4519" y1="-12.4107" x2="44.1465" y2="16.966" gradientUnits="userSpaceOnUse">
<stop stop-color="#0DBA48"/>
<stop offset="1" stop-color="#009B51"/>
</linearGradient>
<clipPath id="clip0_586_7245">
<rect width="60" height="60" fill="white"/>
</clipPath>
</defs>
</svg>
