<svg width="60" height="60" viewBox="0 0 60 60" fill="none" xmlns="http://www.w3.org/2000/svg">
<g clip-path="url(#clip0_586_7204)">
<path d="M11.2359 11.5193C16.9797 11.5193 21.6605 16.1965 21.6605 21.9439C21.6605 27.6841 16.9832 32.3614 11.2359 32.3614C9.31798 32.3623 7.4371 31.8333 5.80078 30.8329C4.16446 29.8325 2.83631 28.3995 1.96287 26.692C1.89296 26.5816 1.84685 26.4579 1.82748 26.3287C1.80811 26.1996 1.8159 26.0677 1.85037 25.9417C1.88483 25.8157 1.9452 25.6983 2.02763 25.597C2.11006 25.4956 2.21272 25.4126 2.32906 25.3532C2.4454 25.2938 2.57285 25.2593 2.70327 25.252C2.83369 25.2446 2.96421 25.2646 3.08649 25.3105C3.20876 25.3565 3.3201 25.4275 3.41339 25.5189C3.50668 25.6104 3.57986 25.7202 3.62826 25.8416C3.8444 26.2562 4.09598 26.6495 4.37237 27.0215C5.93145 29.1227 8.41536 30.4834 11.2359 30.4834C12.3583 30.4857 13.4701 30.2665 14.5077 29.8383C15.5452 29.41 16.488 28.7812 17.282 27.9879C18.076 27.1945 18.7056 26.2523 19.1347 25.2151C19.5638 24.1779 19.7839 23.0663 19.7825 21.9439C19.7825 17.2135 15.9663 13.3937 11.2359 13.3937C6.50548 13.3937 2.69635 17.2135 2.69635 21.9439C2.69635 22.0672 2.67206 22.1893 2.62487 22.3032C2.57768 22.4171 2.50852 22.5206 2.42132 22.6078C2.33413 22.695 2.23062 22.7642 2.11669 22.8114C2.00277 22.8586 1.88066 22.8829 1.75735 22.8829C1.63404 22.8829 1.51194 22.8586 1.39802 22.8114C1.28409 22.7642 1.18058 22.695 1.09338 22.6078C1.00619 22.5206 0.937025 22.4171 0.889836 22.3032C0.842647 22.1893 0.818359 22.0672 0.818359 21.9439C0.820234 19.1809 1.91817 16.5315 3.87122 14.5771C5.82428 12.6227 8.47291 11.523 11.2359 11.5193ZM24.4739 18.7017L43.594 5.44236C43.7557 5.32923 43.8776 5.16805 43.9425 4.9817C44.0073 4.79534 44.0118 4.59329 43.9553 4.40423C43.8989 4.21517 43.7843 4.04871 43.6278 3.92848C43.4713 3.80825 43.281 3.74036 43.0838 3.73445L36.6065 3.5502C35.2954 3.44744 35.2423 5.45653 36.5569 5.42464L40.1782 5.5274L23.4109 17.1603C22.4826 17.8548 23.496 19.3359 24.4739 18.7017ZM55.3757 0.931641C57.438 0.931641 59.1282 2.62183 59.1282 4.68053V58.1253C59.1282 58.6462 58.7986 59.0643 58.1927 59.0643H1.94161C1.50223 59.0643 1.00616 58.8517 1.00616 58.1253V50.3795C1.00616 48.3172 2.69989 46.627 4.76214 46.627H8.90435C10.963 46.627 12.6568 48.3172 12.6568 50.3795V57.1898H16.5013V37.9564C16.5013 35.8941 18.1915 34.2075 20.2573 34.2075H24.4066C26.4689 34.2075 28.1591 35.8941 28.1591 37.9564V54.1248C28.1591 55.3721 26.2811 55.3721 26.2811 54.1248V37.9564C26.2849 37.709 26.239 37.4634 26.1462 37.234C26.0534 37.0047 25.9155 36.7963 25.7408 36.6212C25.566 36.4461 25.3579 36.3078 25.1287 36.2146C24.8995 36.1214 24.654 36.0751 24.4066 36.0784H20.2538C20.0064 36.0751 19.7609 36.1214 19.5317 36.2146C19.3025 36.3078 19.0944 36.4461 18.9196 36.6212C18.7449 36.7963 18.607 37.0047 18.5142 37.234C18.4214 37.4634 18.3755 37.709 18.3793 37.9564V57.1898H32.0072V21.6639C32.0109 20.6715 32.4073 19.7208 33.1098 19.0197C33.8122 18.3186 34.7636 17.924 35.7561 17.9221H39.9018C40.8943 17.924 41.8457 18.3186 42.5481 19.0197C43.2506 19.7208 43.647 20.6715 43.6507 21.6639V57.1898H47.4775V4.68053C47.4775 2.62183 49.1713 0.931641 51.2335 0.931641H55.3757ZM55.3757 2.80963H51.23C50.9832 2.8063 50.7383 2.8524 50.5096 2.9452C50.2809 3.038 50.0731 3.17562 49.8984 3.34997C49.7237 3.52432 49.5857 3.73187 49.4925 3.96038C49.3992 4.18889 49.3527 4.43375 49.3555 4.68053V57.1934H57.2537V4.67699C57.2571 4.42961 57.2108 4.18407 57.1175 3.95491C57.0243 3.72574 56.886 3.51761 56.7109 3.34284C56.5358 3.16806 56.3274 3.03019 56.0981 2.93739C55.8687 2.84458 55.6231 2.79873 55.3757 2.80254V2.80963ZM39.9018 19.7966H35.7561C35.5093 19.7923 35.2642 19.8376 35.0353 19.9298C34.8064 20.0221 34.5984 20.1593 34.4236 20.3335C34.2488 20.5077 34.1107 20.7152 34.0176 20.9437C33.9245 21.1723 33.8783 21.4172 33.8816 21.6639V57.1898H41.7763V21.6639C41.7796 21.4172 41.7334 21.1723 41.6403 20.9437C41.5472 20.7152 41.4091 20.5077 41.2343 20.3335C41.0595 20.1593 40.8514 20.0221 40.6225 19.9298C40.3936 19.8376 40.1485 19.7923 39.9018 19.7966ZM8.90435 48.5086H4.75859C4.51135 48.5052 4.26594 48.5514 4.03683 48.6444C3.80771 48.7374 3.59951 48.8753 3.4245 49.0499C3.2495 49.2246 3.11122 49.4326 3.01781 49.6615C2.9244 49.8904 2.87775 50.1358 2.8806 50.383V57.1934H10.7823V50.383C10.7857 50.1355 10.7394 49.8898 10.6462 49.6604C10.553 49.4311 10.4148 49.2227 10.2397 49.0476C10.0647 48.8726 9.8563 48.7344 9.62695 48.6412C9.39759 48.548 9.15189 48.5052 8.90435 48.5086Z" fill="#07170D"/>
<path d="M11.2359 11.5197C16.9797 11.5197 21.6605 16.197 21.6605 21.9444C21.6605 27.6846 16.9832 32.3619 11.2359 32.3619C9.31798 32.3628 7.4371 31.8338 5.80078 30.8334C4.16446 29.833 2.83631 28.4 1.96287 26.6925C1.89296 26.5821 1.84685 26.4584 1.82748 26.3292C1.80811 26.2 1.8159 26.0682 1.85037 25.9422C1.88483 25.8162 1.9452 25.6988 2.02763 25.5975C2.11006 25.4961 2.21272 25.4131 2.32906 25.3537C2.4454 25.2943 2.57285 25.2598 2.70327 25.2525C2.83369 25.2451 2.96421 25.2651 3.08649 25.311C3.20876 25.357 3.3201 25.428 3.41339 25.5194C3.50668 25.6108 3.57986 25.7207 3.62826 25.8421C3.8444 26.2566 4.09598 26.65 4.37237 27.022C5.93145 29.1232 8.41536 30.4839 11.2359 30.4839C12.3583 30.4862 13.4701 30.267 14.5077 29.8388C15.5452 29.4105 16.488 28.7817 17.282 27.9884C18.076 27.195 18.7056 26.2528 19.1347 25.2156C19.5638 24.1784 19.7839 23.0668 19.7825 21.9444C19.7825 17.2139 15.9663 13.3942 11.2359 13.3942C6.50548 13.3942 2.69635 17.2139 2.69635 21.9444C2.69635 22.0677 2.67206 22.1898 2.62487 22.3037C2.57768 22.4176 2.50852 22.5211 2.42132 22.6083C2.33413 22.6955 2.23062 22.7647 2.11669 22.8119C2.00277 22.8591 1.88066 22.8834 1.75735 22.8834C1.63404 22.8834 1.51194 22.8591 1.39802 22.8119C1.28409 22.7647 1.18058 22.6955 1.09338 22.6083C1.00619 22.5211 0.937025 22.4176 0.889836 22.3037C0.842647 22.1898 0.818359 22.0677 0.818359 21.9444C0.820234 19.1814 1.91817 16.532 3.87122 14.5776C5.82428 12.6232 8.47291 11.5235 11.2359 11.5197ZM24.4739 18.7022L43.594 5.44285C43.7557 5.32972 43.8776 5.16854 43.9425 4.98219C44.0073 4.79584 44.0118 4.59379 43.9553 4.40473C43.8989 4.21567 43.7843 4.0492 43.6278 3.92897C43.4713 3.80874 43.281 3.74085 43.0838 3.73494L36.6065 3.55069C35.2954 3.44793 35.2423 5.45702 36.5569 5.42513L40.1782 5.52789L23.4109 17.1608C22.4826 17.8553 23.496 19.3364 24.4739 18.7022Z" fill="url(#paint0_linear_586_7204)"/>
<path d="M6.54265 23.3178H6.60707L7.23142 23.2499C7.52236 23.9879 8.04207 24.6365 8.72979 25.1198C9.41751 25.6032 10.2448 25.9014 11.115 25.9796C11.2663 25.9936 11.4184 26.0004 11.5705 26C12.41 26.0012 13.2335 25.7948 13.9501 25.4037C14.6668 25.0125 15.2487 24.4518 15.6317 23.7834C15.7819 23.5051 15.657 23.1703 15.3501 23.0283C15.0432 22.8862 14.6661 22.9885 14.4991 23.2592C14.213 23.7533 13.777 24.1653 13.241 24.4478C12.7051 24.7303 12.0911 24.8719 11.4693 24.8563C10.8476 24.8407 10.2433 24.6686 9.72597 24.3597C9.2086 24.0507 8.79905 23.6175 8.54434 23.1098L9.21141 23.0381C9.31991 23.0266 9.42207 22.9863 9.50468 22.9223C9.58729 22.8583 9.64656 22.7737 9.67484 22.6792C9.70318 22.5848 9.69928 22.485 9.66364 22.3925C9.62799 22.3001 9.56223 22.2194 9.47483 22.1607L8.0215 21.1897C7.90875 21.1144 7.76794 21.0809 7.62831 21.0961C7.48867 21.1113 7.36093 21.174 7.2716 21.2712L6.1206 22.5219C6.05621 22.5935 6.0157 22.68 6.00372 22.7713C5.99175 22.8626 6.00879 22.9551 6.05289 23.0381C6.09688 23.1212 6.16617 23.1916 6.2528 23.241C6.33943 23.2905 6.43989 23.3171 6.54265 23.3178ZM7.65885 19.812C7.80444 19.8887 7.97813 19.9107 8.14177 19.8729C8.30541 19.8352 8.44561 19.7408 8.53158 19.6107C8.8473 19.1298 9.30847 18.7385 9.86193 18.4819C10.4154 18.2253 11.0386 18.1139 11.6598 18.1606C12.2809 18.2072 12.8747 18.4099 13.3727 18.7454C13.8706 19.0808 14.2525 19.5354 14.4743 20.0566L13.8649 20.1219C13.7564 20.1334 13.6543 20.1738 13.5718 20.2378C13.4892 20.3018 13.43 20.3865 13.4017 20.4809C13.3735 20.5753 13.3775 20.6752 13.4133 20.7675C13.4491 20.8598 13.515 20.9405 13.6026 20.999L15.0085 21.9416C15.1213 22.0169 15.2621 22.0505 15.4017 22.0353C15.5414 22.0201 15.6691 21.9574 15.7584 21.8601L16.8754 20.6461C16.9448 20.5707 16.9874 20.4783 16.9976 20.381C17.0078 20.2837 16.9852 20.1859 16.9327 20.1002C16.8803 20.0144 16.8003 19.9447 16.7032 19.9001C16.6061 19.8554 16.4962 19.8378 16.3878 19.8495L15.7684 19.9164C15.5111 19.1533 15.0108 18.4739 14.3288 17.9612C13.6468 17.4484 12.8127 17.1246 11.9283 17.0294C10.1212 16.8351 8.35645 17.6161 7.43288 19.0196C7.38835 19.0846 7.35885 19.1569 7.34612 19.2323C7.33339 19.3077 7.33769 19.3846 7.35875 19.4585C7.37982 19.5324 7.41724 19.6018 7.46878 19.6625C7.52033 19.7232 7.58496 19.7741 7.65885 19.812V19.812Z" fill="#07170D"/>
</g>
<defs>
<linearGradient id="paint0_linear_586_7204" x1="10.1611" y1="-16.778" x2="44.813" y2="-0.391145" gradientUnits="userSpaceOnUse">
<stop stop-color="#0DBA48"/>
<stop offset="1" stop-color="#009B51"/>
</linearGradient>
<clipPath id="clip0_586_7204">
<rect width="60" height="60" fill="white"/>
</clipPath>
</defs>
</svg>
