<svg width="60" height="60" viewBox="0 0 60 60" fill="none" xmlns="http://www.w3.org/2000/svg">
<g id="svg-gobbler - 2023-04-11T005942.083">
<g id="Group">
<path id="Vector" d="M46.5277 22.9986V20.5277C46.5277 16.1443 44.7864 11.9404 41.6869 8.84084C38.5873 5.7413 34.3834 4 30 4C25.6166 4 21.4127 5.7413 18.3132 8.84084C15.2137 11.9404 13.4724 16.1443 13.4724 20.5277V22.9986C12.8103 23.1239 12.2125 23.476 11.7821 23.9945C11.3516 24.5129 11.1154 25.1652 11.114 25.839V53.1031C11.1152 53.8707 11.4206 54.6066 11.9634 55.1494C12.5062 55.6922 13.2421 55.9976 14.0097 55.9987H45.9904C46.758 55.9976 47.4939 55.6922 48.0366 55.1494C48.5794 54.6066 48.8849 53.8707 48.886 53.1031V25.839C48.8846 25.1652 48.6484 24.5129 48.218 23.9945C47.7875 23.476 47.1898 23.1239 46.5277 22.9986ZM15.0973 20.5277C15.0973 16.5752 16.6674 12.7846 19.4622 9.98984C22.257 7.19503 26.0476 5.62493 30 5.62493C33.9525 5.62493 37.7431 7.19503 40.5379 9.98984C43.3327 12.7846 44.9028 16.5752 44.9028 20.5277V22.9445H43.2627V20.5277C43.2631 18.1906 42.645 15.895 41.4709 13.8741C41.3625 13.6874 41.1843 13.5514 40.9755 13.496C40.7668 13.4407 40.5446 13.4705 40.3579 13.5789C40.1711 13.6874 40.0351 13.8656 39.9797 14.0743C39.9244 14.2831 39.9542 14.5053 40.0627 14.692C41.0926 16.4644 41.6349 18.4778 41.6345 20.5277V22.9445H18.3439L18.3612 20.5277C18.3592 18.1707 19.0733 15.8687 20.4089 13.9266C21.7445 11.9845 23.6385 10.494 25.8401 9.65241C28.0417 8.81082 30.4471 8.65791 32.7376 9.21392C35.028 9.76992 37.0956 11.0086 38.6663 12.7659C38.7363 12.8494 38.8223 12.9178 38.9193 12.9673C39.0163 13.0168 39.1222 13.0464 39.2309 13.0541C39.3395 13.0619 39.4485 13.0477 39.5516 13.0125C39.6546 12.9772 39.7495 12.9217 39.8306 12.849C39.9117 12.7764 39.9774 12.6882 40.0238 12.5897C40.0702 12.4912 40.0963 12.3843 40.1005 12.2755C40.1048 12.1667 40.0871 12.0582 40.0486 11.9563C40.0101 11.8545 39.9515 11.7614 39.8763 11.6827C38.0861 9.68194 35.7306 8.2719 33.1215 7.63911C30.5124 7.00631 27.7727 7.18058 25.2648 8.13886C22.7569 9.09714 20.5991 10.7943 19.0768 13.0057C17.5545 15.2171 16.7394 17.8386 16.7395 20.5233L16.7222 22.9456H15.0973V20.5277ZM47.2611 53.1031C47.2605 53.44 47.1264 53.7628 46.8883 54.001C46.6501 54.2392 46.3272 54.3732 45.9904 54.3738H14.0097C13.6728 54.3732 13.35 54.2392 13.1118 54.001C12.8736 53.7628 12.7395 53.44 12.739 53.1031V25.839C12.7395 25.5023 12.8736 25.1795 13.1118 24.9415C13.3501 24.7035 13.6729 24.5697 14.0097 24.5694H45.9904C46.3271 24.5697 46.65 24.7035 46.8882 24.9415C47.1264 25.1795 47.2605 25.5023 47.2611 25.839V53.1031Z" fill="#07170D"/>
<path id="Vector_2" d="M43.4553 26.3711H16.5444C16.0131 26.3717 15.5036 26.583 15.1279 26.9587C14.7522 27.3344 14.5409 27.8438 14.5403 28.3752V50.5706C14.5409 51.1019 14.7522 51.6113 15.1279 51.9871C15.5036 52.3628 16.0131 52.5741 16.5444 52.5747C16.7599 52.5747 16.9665 52.4891 17.1189 52.3367C17.2713 52.1843 17.3569 51.9777 17.3569 51.7622C17.3569 51.5467 17.2713 51.3401 17.1189 51.1877C16.9665 51.0353 16.7599 50.9497 16.5444 50.9497C16.4438 50.9497 16.3474 50.9098 16.2763 50.8387C16.2052 50.7676 16.1652 50.6711 16.1652 50.5706V28.3763C16.1652 28.2757 16.2052 28.1793 16.2763 28.1082C16.3474 28.037 16.4438 27.9971 16.5444 27.9971H43.4553C43.5559 27.9971 43.6523 28.037 43.7234 28.1082C43.7945 28.1793 43.8345 28.2757 43.8345 28.3763V50.5706C43.8345 50.6711 43.7945 50.7676 43.7234 50.8387C43.6523 50.9098 43.5559 50.9497 43.4553 50.9497H18.9579C18.7425 50.9497 18.5358 51.0353 18.3834 51.1877C18.2311 51.3401 18.1455 51.5467 18.1455 51.7622C18.1455 51.9777 18.2311 52.1843 18.3834 52.3367C18.5358 52.4891 18.7425 52.5747 18.9579 52.5747H43.4553C43.9867 52.5741 44.4961 52.3628 44.8718 51.9871C45.2475 51.6113 45.4588 51.1019 45.4594 50.5706V28.3763C45.4591 27.8447 45.2479 27.335 44.8722 26.9591C44.4964 26.5831 43.9869 26.3717 43.4553 26.3711Z" fill="#07170D"/>
<path id="Vector_3" d="M31.2449 39.6679C31.0417 39.7397 30.8753 39.8893 30.7823 40.0838C30.6894 40.2784 30.6775 40.5018 30.7493 40.7051C30.8212 40.9084 30.9708 41.0748 31.1653 41.1677C31.3598 41.2607 31.5833 41.2725 31.7866 41.2007C32.9628 40.7878 33.9595 39.9797 34.6066 38.9142C35.2538 37.8487 35.5114 36.5918 35.3355 35.3576C35.1596 34.1234 34.5611 32.9885 33.6421 32.1462C32.7231 31.3039 31.5404 30.8064 30.2956 30.7385C29.0508 30.6706 27.821 31.0365 26.8158 31.7738C25.8106 32.5112 25.0923 33.5743 24.7832 34.782C24.4741 35.9897 24.5935 37.2672 25.1209 38.3968C25.6483 39.5264 26.5512 40.4381 27.6755 40.9765V46.8457C27.6755 47.4634 27.9209 48.0558 28.3577 48.4926C28.7945 48.9294 29.3869 49.1748 30.0046 49.1748C30.6223 49.1748 31.2147 48.9294 31.6515 48.4926C32.0883 48.0558 32.3336 47.4634 32.3336 46.8457V42.9253C32.3336 42.7098 32.248 42.5032 32.0957 42.3508C31.9433 42.1984 31.7367 42.1128 31.5212 42.1128C31.3057 42.1128 31.0991 42.1984 30.9467 42.3508C30.7943 42.5032 30.7087 42.7098 30.7087 42.9253V46.8457C30.7087 47.0325 30.6345 47.2116 30.5025 47.3436C30.3704 47.4757 30.1913 47.5498 30.0046 47.5498C29.8178 47.5498 29.6387 47.4757 29.5067 47.3436C29.3746 47.2116 29.3005 47.0325 29.3005 46.8457V40.4338C29.3003 40.2658 29.2481 40.102 29.1511 39.9649C29.0541 39.8278 28.9171 39.724 28.7588 39.6679C27.9884 39.3993 27.3264 38.8869 26.8732 38.2085C26.42 37.53 26.2002 36.7224 26.2471 35.9078C26.294 35.0932 26.605 34.3161 27.1331 33.6941C27.6612 33.0722 28.3775 32.6392 29.1737 32.4608C29.7289 32.3398 30.3041 32.3446 30.8572 32.4747C31.4103 32.6048 31.9274 32.8569 32.3705 33.2126C32.891 33.6322 33.2897 34.1835 33.5252 34.8093C33.7607 35.435 33.8245 36.1124 33.7098 36.771C33.5952 37.4297 33.3064 38.0457 32.8733 38.5551C32.4403 39.0645 31.8788 39.4487 31.2471 39.6679H31.2449Z" fill="url(#paint0_linear_573_3142)"/>
</g>
</g>
<defs>
<linearGradient id="paint0_linear_573_3142" x1="26.9464" y1="17.7206" x2="37.1796" y2="19.6072" gradientUnits="userSpaceOnUse">
<stop stop-color="#0DBA48"/>
<stop offset="1" stop-color="#009B51"/>
</linearGradient>
</defs>
</svg>
