<svg width="60" height="60" viewBox="0 0 60 60" fill="none" xmlns="http://www.w3.org/2000/svg">
<g id="svg-gobbler - 2023-04-11T005939.226" clip-path="url(#clip0_573_3151)">
<g id="Group">
<path id="Vector" d="M29.9595 26.3903C30.2254 26.3903 30.4805 26.2847 30.6686 26.0966C30.8566 25.9085 30.9623 25.6535 30.9623 25.3875V20.0943C30.9623 19.8284 30.8566 19.5733 30.6686 19.3852C30.4805 19.1972 30.2254 19.0915 29.9595 19.0915H26.1342C25.8682 19.0915 25.6131 19.1972 25.4251 19.3852C25.237 19.5733 25.1313 19.8284 25.1313 20.0943C25.1313 20.3603 25.237 20.6154 25.4251 20.8034C25.6131 20.9915 25.8682 21.0972 26.1342 21.0972H28.9566V25.3875C28.9566 25.6535 29.0623 25.9085 29.2504 26.0966C29.4384 26.2847 29.6935 26.3903 29.9595 26.3903ZM44.2497 24.7082C44.5157 24.7082 44.7708 24.6026 44.9588 24.4145C45.1469 24.2264 45.2526 23.9714 45.2526 23.7054V12.5731C45.2526 12.3072 45.1469 12.0521 44.9588 11.864C44.7708 11.676 44.5157 11.5703 44.2497 11.5703H35.7257C35.4597 11.5703 35.2047 11.676 35.0166 11.864C34.8285 12.0521 34.7229 12.3072 34.7229 12.5731V27.466C34.7229 27.732 34.8285 27.987 35.0166 28.1751C35.2047 28.3632 35.4597 28.4688 35.7257 28.4688C35.9917 28.4688 36.2468 28.3632 36.4348 28.1751C36.6229 27.987 36.7285 27.732 36.7285 27.466V13.5761H43.2469V23.7055C43.2469 23.9715 43.3526 24.2265 43.5407 24.4145C43.7287 24.6026 43.9838 24.7082 44.2497 24.7082Z" fill="url(#paint0_linear_573_3151)"/>
<path id="Vector_2" d="M58.9987 35.4957L51.9976 29.2315C51.799 29.0565 51.5394 28.9671 51.2752 28.9828C51.011 28.9984 50.7637 29.1179 50.5872 29.3151C50.4107 29.5124 50.3193 29.7713 50.333 30.0357C50.3467 30.3 50.4643 30.5481 50.6602 30.7261L57.6613 36.9903C58.0882 37.3722 58.1116 38.0368 57.7018 38.4467L56.2204 39.9282C55.8086 40.3397 55.1442 40.3129 54.7639 39.8877L45.5816 29.625C48.9818 26.7493 50.9834 22.4832 50.9834 18.0032C50.9834 9.61835 44.1619 2.79688 35.777 2.79688C27.3921 2.79688 20.5705 9.61848 20.5705 18.0034C20.5705 27.4464 29.0836 34.5856 38.3702 32.9894C38.6323 32.9443 38.8658 32.7969 39.0193 32.5797C39.1728 32.3625 39.2337 32.0932 39.1886 31.8311C39.1435 31.569 38.9962 31.3355 38.779 31.182C38.5618 31.0285 38.2925 30.9676 38.0303 31.0127C29.9611 32.3998 22.5761 26.1961 22.5761 18.0034C22.5761 10.7245 28.498 4.80265 35.777 4.80265C43.0559 4.80265 48.9777 10.7245 48.9777 18.0034C48.9777 22.2131 46.943 26.2069 43.5341 28.6864C43.063 29.0289 42.9794 29.7042 43.3616 30.1502C43.4123 30.2093 53.0755 41.0087 53.2692 41.2252C54.4163 42.5072 56.4148 42.5702 57.6385 41.3464L59.1199 39.865C60.3397 38.6452 60.2844 36.6462 58.9987 35.4957Z" fill="url(#paint1_linear_573_3151)"/>
<path id="Vector_3" d="M48.3864 49.9291H45.2526V35.5458C45.2526 35.2799 45.1469 35.0248 44.9588 34.8367C44.7708 34.6487 44.5157 34.543 44.2497 34.543C43.9838 34.543 43.7287 34.6487 43.5406 34.8367C43.3526 35.0248 43.2469 35.2799 43.2469 35.5458V49.9291H36.7285V35.9824C36.7285 35.7165 36.6229 35.4614 36.4348 35.2733C36.2467 35.0853 35.9917 34.9796 35.7257 34.9796C35.4597 34.9796 35.2047 35.0853 35.0166 35.2733C34.8285 35.4614 34.7229 35.7165 34.7229 35.9824V49.929H30.9623V35.1576C30.9623 34.8916 30.8566 34.6366 30.6686 34.4485C30.4805 34.2604 30.2254 34.1548 29.9595 34.1548C29.6935 34.1548 29.4384 34.2604 29.2503 34.4485C29.0623 34.6366 28.9566 34.8916 28.9566 35.1576V49.9291H22.4383V29.7229C22.4383 29.457 22.3326 29.2019 22.1445 29.0138C21.9565 28.8257 21.7014 28.7201 21.4354 28.7201C21.1695 28.7201 20.9144 28.8257 20.7263 29.0138C20.5383 29.2019 20.4326 29.457 20.4326 29.7229V49.929H8.14798V28.6189H14.6663V45.7923C14.6663 46.0583 14.772 46.3134 14.9601 46.5014C15.1481 46.6895 15.4032 46.7952 15.6692 46.7952C15.9351 46.7952 16.1902 46.6895 16.3783 46.5014C16.5663 46.3134 16.672 46.0583 16.672 45.7923V27.6161C16.672 27.3501 16.5663 27.0951 16.3783 26.907C16.1902 26.7189 15.9351 26.6133 15.6692 26.6133H7.14515C6.87918 26.6133 6.62411 26.7189 6.43604 26.907C6.24798 27.0951 6.14232 27.3501 6.14232 27.6161V50.9318C6.14232 51.1978 6.24798 51.4529 6.43604 51.6409C6.62411 51.829 6.87918 51.9347 7.14515 51.9347H48.3864C48.9393 51.9347 49.3892 52.3845 49.3892 52.9375V54.191C49.3892 54.7439 48.9393 55.1938 48.3864 55.1938H3.00849C2.45555 55.1938 2.00566 54.7439 2.00566 54.191V52.9375C2.00566 52.7243 2.07147 52.5209 2.19595 52.3496C2.35107 52.1343 2.41456 51.8664 2.37252 51.6044C2.33048 51.3424 2.18634 51.1078 1.97165 50.9519C1.75697 50.7959 1.48925 50.7315 1.22712 50.7725C0.964994 50.8136 0.729827 50.9569 0.573124 51.171C0.199258 51.684 -0.0014832 52.3028 8.25094e-06 52.9376V54.1911C8.25094e-06 55.8501 1.34956 57.1996 3.00849 57.1996H48.3864C50.0453 57.1996 51.3949 55.8501 51.3949 54.1911V52.9376C51.3949 51.2787 50.0453 49.9291 48.3864 49.9291Z" fill="#07170D"/>
</g>
</g>
<defs>
<linearGradient id="paint0_linear_573_3151" x1="29.4853" y1="-0.349173" x2="46.8001" y2="6.15761" gradientUnits="userSpaceOnUse">
<stop stop-color="#0DBA48"/>
<stop offset="1" stop-color="#009B51"/>
</linearGradient>
<linearGradient id="paint1_linear_573_3151" x1="29.1025" y1="-25.0153" x2="64.3168" y2="-13.9016" gradientUnits="userSpaceOnUse">
<stop stop-color="#0DBA48"/>
<stop offset="1" stop-color="#009B51"/>
</linearGradient>
<clipPath id="clip0_573_3151">
<rect width="60" height="60" fill="white"/>
</clipPath>
</defs>
</svg>
