<svg width="60" height="60" viewBox="0 0 60 60" fill="none" xmlns="http://www.w3.org/2000/svg">
<g clip-path="url(#clip0_580_5244)">
<path d="M51.4037 56.9975L51.1355 57.1259C50.8972 57.2344 50.6257 57.245 50.3796 57.1555C50.1334 57.0661 49.9322 56.8836 49.8191 56.6474C49.706 56.4112 49.69 56.14 49.7747 55.8922C49.8593 55.6443 50.0378 55.4396 50.2718 55.3219L50.54 55.1935C53.0814 53.977 54.4442 51.1064 53.7804 48.368L51.8973 40.5996C51.6674 39.6499 51.2089 38.7707 50.5616 38.0386C49.9144 37.3065 49.098 36.7437 48.1835 36.3991L41.5418 33.8941C41.2936 33.8005 41.0928 33.6122 40.9835 33.3705C40.8742 33.1288 40.8654 32.8537 40.959 32.6055C41.0526 32.3573 41.241 32.1565 41.4827 32.0472C41.7243 31.938 41.9995 31.9291 42.2477 32.0228L48.8894 34.5278C50.1087 34.9871 51.1971 35.7375 52.0601 36.7137C52.9231 37.6898 53.5344 38.862 53.8409 40.1284L55.724 47.8968C56.609 51.5481 54.7922 55.3754 51.4037 56.9975ZM8.10316 40.5998C8.33304 39.65 8.79156 38.7708 9.43882 38.0387C10.0861 37.3066 10.9025 36.7438 11.8169 36.3993L24.2178 31.7221C32.3098 35.7489 41.7568 29.7438 41.7568 20.7009L41.7502 18.1224C41.7495 17.8572 41.6434 17.6031 41.4554 17.416C41.2674 17.229 41.0128 17.1243 40.7475 17.125C40.4823 17.1257 40.2282 17.2317 40.0412 17.4198C39.8542 17.6078 39.7495 17.8624 39.7502 18.1276L39.7568 20.7034C39.7568 26.33 35.243 30.9409 29.6947 30.982C24.0914 31.033 19.4784 26.4998 19.4784 20.8435L19.4793 18.0935C19.4794 17.8283 19.3741 17.5739 19.1867 17.3863C18.9992 17.1987 18.7449 17.0932 18.4797 17.0931C18.2144 17.093 17.9601 17.1983 17.7724 17.3858C17.5848 17.5732 17.4794 17.8275 17.4793 18.0928L17.4784 20.8431C17.4784 24.5889 19.1657 28.0549 22.1067 30.3808L11.1113 34.5279C9.89206 34.9873 8.80357 35.7377 7.94059 36.7138C7.0776 37.6899 6.46626 38.8622 6.15979 40.1285L4.27642 47.897C3.39129 51.5481 5.20817 55.3754 8.59667 56.9976L8.86491 57.126C8.98337 57.1827 9.11183 57.2155 9.24297 57.2226C9.37411 57.2297 9.50536 57.2109 9.62922 57.1672C9.75308 57.1235 9.86713 57.0559 9.96486 56.9682C10.0626 56.8805 10.1421 56.7743 10.1988 56.6559C10.2555 56.5374 10.2883 56.409 10.2954 56.2778C10.3025 56.1467 10.2836 56.0154 10.24 55.8916C10.1963 55.7677 10.1287 55.6537 10.041 55.5559C9.95324 55.4582 9.84712 55.3787 9.72867 55.322L9.46041 55.1936C6.91916 53.9771 5.55642 51.1065 6.22017 48.3681L8.10316 40.5998ZM25.1079 18.0931V19.7718C25.1079 20.037 25.2133 20.2913 25.4008 20.4789C25.5883 20.6664 25.8427 20.7718 26.1079 20.7718C26.3731 20.7718 26.6275 20.6664 26.815 20.4789C27.0026 20.2913 27.1079 20.037 27.1079 19.7718V18.0931C27.1079 17.8279 27.0026 17.5736 26.815 17.386C26.6275 17.1985 26.3731 17.0931 26.1079 17.0931C25.8427 17.0931 25.5883 17.1985 25.4008 17.386C25.2133 17.5736 25.1079 17.8279 25.1079 18.0931ZM32.1272 18.0931V19.7718C32.1272 20.037 32.2325 20.2913 32.4201 20.4789C32.6076 20.6664 32.8619 20.7718 33.1272 20.7718C33.3924 20.7718 33.6467 20.6664 33.8343 20.4789C34.0218 20.2913 34.1272 20.037 34.1272 19.7718V18.0931C34.1272 17.8279 34.0218 17.5736 33.8343 17.386C33.6467 17.1985 33.3924 17.0931 33.1272 17.0931C32.8619 17.0931 32.6076 17.1985 32.4201 17.386C32.2325 17.5736 32.1272 17.8279 32.1272 18.0931ZM39.3159 36H31.1053C30.8401 36 30.5857 36.1054 30.3982 36.2929C30.2106 36.4804 30.1053 36.7348 30.1053 37C30.1053 37.2652 30.2106 37.5196 30.3982 37.7071C30.5857 37.8946 30.8401 38 31.1053 38H39.3159C39.4973 38.0002 39.6713 38.0724 39.7995 38.2006C39.9278 38.3289 40 38.5028 40.0002 38.6843V57.3159C40 57.4973 39.9278 57.6712 39.7995 57.7995C39.6713 57.9278 39.4973 57.9999 39.3159 58.0001H20.6844C20.503 57.9999 20.3291 57.9278 20.2008 57.7995C20.0725 57.6712 20.0004 57.4973 20.0002 57.3159V38.6843C20.0004 38.5028 20.0725 38.3289 20.2008 38.2006C20.3291 38.0724 20.503 38.0002 20.6844 38H25.2634V42.8234C25.2634 44.5609 27.1394 45.651 28.6495 44.7884L29.8169 44.1211C29.8567 44.0985 29.9017 44.0866 29.9475 44.0866C29.9933 44.0866 30.0383 44.0985 30.0782 44.1211L31.2459 44.7884C32.7544 45.6504 34.6319 44.5625 34.6319 42.8234V40.921C34.6319 40.6558 34.5266 40.4014 34.339 40.2139C34.1515 40.0264 33.8971 39.921 33.6319 39.921C33.3667 39.921 33.1123 40.0264 32.9248 40.2139C32.7373 40.4014 32.6319 40.6558 32.6319 40.921V42.8234C32.6319 42.9486 32.5607 43.0163 32.5009 43.0509C32.3273 43.1516 32.3355 43.1074 31.0704 42.3845C30.378 41.9888 29.5177 41.9889 28.8248 42.3845L27.6573 43.0518C27.6173 43.075 27.5719 43.0872 27.5257 43.0872C27.4795 43.0872 27.4341 43.075 27.3941 43.0518C27.3542 43.0286 27.321 42.9953 27.2981 42.9552C27.2752 42.9151 27.2632 42.8696 27.2635 42.8234V37C27.2635 36.7348 27.1582 36.4804 26.9706 36.2929C26.7831 36.1054 26.5288 36 26.2635 36H20.6845C19.2043 36 18.0002 37.2041 18.0002 38.6843V57.3159C18.0002 58.796 19.2043 60.0001 20.6844 60.0001H39.316C40.7962 60.0001 42.0003 58.796 42.0003 57.3159V38.6843C42.0002 37.2041 40.796 36 39.3159 36ZM17.4829 6.001C17.4829 2.69213 20.175 0 23.4842 0H35.7555C39.0647 0 41.7568 2.69213 41.7568 6.00113C41.7568 7.81675 41.7502 10.3854 41.7502 10.7291C41.7502 13.4976 39.4978 15.75 36.7293 15.75H22.521C19.7525 15.75 17.5002 13.4976 17.5002 10.7291C17.5002 9.765 17.4822 8.6925 17.4829 6.001ZM39.7502 10H19.5002V10.7291C19.5002 12.3949 20.8553 13.75 22.521 13.75H36.7293C38.395 13.75 39.7502 12.3949 39.7502 10.7291V10ZM19.4823 8H39.7567V6.00113C39.7567 3.795 37.9618 2 35.7554 2H23.484C21.2778 2 19.4828 3.79488 19.4828 6.00113L19.4823 8Z" fill="white"/>
<path d="M39.3158 36H31.1051C30.8399 36 30.5856 36.1054 30.398 36.2929C30.2105 36.4804 30.1051 36.7348 30.1051 37C30.1051 37.2652 30.2105 37.5196 30.398 37.7071C30.5856 37.8946 30.8399 38 31.1051 38H39.3158C39.4972 38.0002 39.6711 38.0724 39.7994 38.2006C39.9276 38.3289 39.9998 38.5028 40 38.6842V57.3159C39.9998 57.4973 39.9276 57.6712 39.7994 57.7995C39.6711 57.9278 39.4972 57.9999 39.3158 58.0001H20.6843C20.5028 57.9999 20.3289 57.9278 20.2006 57.7995C20.0724 57.6712 20.0002 57.4973 20 57.3159V38.6842C20.0002 38.5028 20.0724 38.3289 20.2006 38.2006C20.3289 38.0724 20.5028 38.0002 20.6843 38H25.2633V42.8234C25.2633 44.5609 27.1393 45.651 28.6494 44.7884L29.8168 44.1211C29.8566 44.0985 29.9016 44.0866 29.9474 44.0866C29.9932 44.0866 30.0382 44.0985 30.078 44.1211L31.2458 44.7884C32.7543 45.6504 34.6317 44.5625 34.6317 42.8234V40.921C34.6317 40.6558 34.5264 40.4014 34.3389 40.2139C34.1513 40.0264 33.897 39.921 33.6317 39.921C33.3665 39.921 33.1122 40.0264 32.9246 40.2139C32.7371 40.4014 32.6317 40.6558 32.6317 40.921V42.8234C32.6317 42.9486 32.5605 43.0163 32.5008 43.0509C32.3271 43.1516 32.3354 43.1074 31.0703 42.3845C30.3779 41.9887 29.5175 41.9889 28.8246 42.3845L27.6571 43.0517C27.6172 43.075 27.5718 43.0872 27.5256 43.0872C27.4794 43.0872 27.434 43.075 27.394 43.0518C27.354 43.0286 27.3209 42.9953 27.2979 42.9552C27.275 42.9151 27.2631 42.8696 27.2634 42.8234V37C27.2634 36.7348 27.158 36.4804 26.9705 36.2929C26.7829 36.1054 26.5286 36 26.2634 36H20.6844C19.2041 36 18 37.2041 18 38.6842V57.3159C18 58.796 19.2041 60.0001 20.6843 60.0001H39.3159C40.796 60.0001 42.0001 58.796 42.0001 57.3159V38.6842C42 37.2041 40.7959 36 39.3158 36Z" fill="white"/>
</g>
<defs>
<clipPath id="clip0_580_5244">
<rect width="60" height="60" fill="white"/>
</clipPath>
</defs>
</svg>
