<svg width="60" height="60" viewBox="0 0 60 60" fill="none" xmlns="http://www.w3.org/2000/svg">
<path d="M34.6365 16.8766C33.3397 16.9404 33.4353 18.8148 34.6861 18.751H38.435C38.9736 18.751 39.3705 19.1479 39.3705 19.6829V44.0578C39.3705 45.3086 41.2485 45.3086 41.2485 44.0578V26.2524H52.4987C53.1365 26.2524 53.3172 26.9327 53.4767 27.4571L56.2511 36.7053V46.8748H52.3889C51.1672 45.6721 49.5216 44.9979 47.8073 44.9979C46.0929 44.9979 44.4473 45.6721 43.2257 46.8748H26.1997C24.9029 46.9421 24.9985 48.8166 26.2494 48.7528H41.8898C41.4823 49.6032 41.2449 50.5564 41.2449 51.5627C41.2449 55.1769 44.193 58.118 47.8073 58.118C51.0991 58.118 53.8381 55.673 54.2987 52.5017H57.1866C57.4356 52.5017 57.6745 52.4028 57.8506 52.2267C58.0266 52.0506 58.1256 51.8117 58.1256 51.5627V36.5636C58.1251 36.4722 58.1108 36.3814 58.0831 36.2943L55.1775 26.5854C54.7027 25.0016 53.6078 24.3744 52.4987 24.3744H41.2449V19.6829C41.2412 18.9389 40.944 18.2263 40.4178 17.7002C39.8917 17.174 39.1791 16.8768 38.435 16.873L34.6365 16.8766ZM44.0619 28.1197C43.8135 28.1197 43.5752 28.2182 43.3992 28.3935C43.2232 28.5688 43.1239 28.8068 43.1229 29.0552V34.6891C43.1229 35.2065 43.5481 35.6246 44.0619 35.6211H46.4856L48.0836 37.2191C48.2608 37.3963 48.4982 37.4955 48.7498 37.4955H53.2676C53.4132 37.495 53.5567 37.4606 53.6867 37.3949C53.8167 37.3292 53.9295 37.2341 54.0162 37.1171C54.1029 37.0001 54.1611 36.8644 54.1862 36.721C54.2113 36.5775 54.2025 36.4302 54.1605 36.2907L51.9105 28.793C51.8535 28.5998 51.736 28.4301 51.5752 28.3089C51.4144 28.1877 51.2189 28.1214 51.0176 28.1197H44.0619ZM44.9974 29.9977H50.3195L52.0097 35.6211H49.136L47.538 34.0265C47.4509 33.9382 47.3472 33.868 47.2329 33.8199C47.1186 33.7719 46.9958 33.747 46.8718 33.7466H45.0009L44.9974 29.9977ZM6.54464 30.9225C6.42132 30.9239 6.29949 30.9496 6.1861 30.9981C6.0727 31.0465 5.96997 31.1169 5.88376 31.2051C5.79755 31.2932 5.72956 31.3975 5.68366 31.512C5.63777 31.6265 5.61487 31.7488 5.61627 31.8722V51.5627C5.61627 52.0836 6.04148 52.5052 6.56235 52.5017H11.3211C11.7817 55.673 14.5101 58.1215 17.8055 58.1215C21.1008 58.1215 23.8363 55.673 24.297 52.5017H38.435C39.6858 52.5017 39.6858 50.6237 38.435 50.6237H24.297C24.0678 49.0643 23.2865 47.6389 22.0952 46.6069C20.9038 45.5749 19.3816 45.0048 17.8055 45.0004C16.0267 45.0004 14.4109 45.7197 13.2274 46.8784H7.49426V31.8686C7.49569 31.7435 7.4721 31.6194 7.42488 31.5035C7.37766 31.3877 7.30776 31.2824 7.2193 31.194C7.13083 31.1055 7.02558 31.0356 6.90972 30.9884C6.79386 30.9412 6.66974 30.9176 6.54464 30.919V30.9225ZM44.0619 39.3735C42.843 39.4018 42.843 41.2196 44.0619 41.2515H45.9328C47.1517 41.2196 47.1517 39.4018 45.9328 39.3735H44.0619ZM17.8055 46.8748C18.4218 46.8729 19.0324 46.9929 19.6022 47.2278C20.172 47.4627 20.6898 47.8078 21.1257 48.2435C21.5617 48.6791 21.9073 49.1966 22.1426 49.7663C22.3779 50.3359 22.4983 50.9464 22.4969 51.5627C22.4979 52.1787 22.3771 52.7889 22.1416 53.3581C21.9061 53.9273 21.5604 54.4444 21.1245 54.8796C20.6886 55.3149 20.171 55.6598 19.6014 55.8944C19.0318 56.1291 18.4215 56.2489 17.8055 56.247C17.1898 56.2489 16.5798 56.129 16.0107 55.8943C15.4415 55.6595 14.9243 55.3146 14.489 54.8792C14.0536 54.4439 13.7087 53.9267 13.4739 53.3575C13.2392 52.7884 13.1193 52.1784 13.1211 51.5627C13.1211 48.9619 15.2046 46.8748 17.8055 46.8748ZM47.8073 46.8748C48.4236 46.8729 49.0342 46.9929 49.604 47.2278C50.1738 47.4627 50.6916 47.8078 51.1275 48.2435C51.5635 48.6791 51.9091 49.1966 52.1444 49.7663C52.3797 50.3359 52.5001 50.9464 52.4987 51.5627C52.4996 52.1787 52.3789 52.7889 52.1434 53.3581C51.9078 53.9273 51.5622 54.4444 51.1263 54.8796C50.6903 55.3149 50.1727 55.6598 49.6032 55.8944C49.0336 56.1291 48.4233 56.2489 47.8073 56.247C47.1914 56.2494 46.5813 56.1298 46.0119 55.8952C45.4425 55.6607 44.9252 55.3157 44.4897 54.8803C44.0543 54.4448 43.7093 53.9275 43.4747 53.3581C43.2401 52.7887 43.1206 52.1785 43.1229 51.5627C43.1229 48.9619 45.2064 46.8748 47.8073 46.8748ZM7.49426 48.7528H11.888C11.6054 49.3454 11.4142 49.9774 11.3211 50.6273H7.49426V48.7528ZM17.8055 48.7528C17.0611 48.7556 16.348 49.0525 15.8217 49.5789C15.2953 50.1053 14.9984 50.8183 14.9956 51.5627C14.9956 53.1041 16.2641 54.3797 17.8055 54.3797C18.5512 54.375 19.265 54.0768 19.7923 53.5495C20.3195 53.0222 20.6178 52.3084 20.6225 51.5627C20.6169 50.818 20.3181 50.1054 19.7908 49.5795C19.2635 49.0535 18.5502 48.7565 17.8055 48.7528ZM47.8073 48.7528C47.0629 48.7556 46.3498 49.0525 45.8235 49.5789C45.2971 50.1053 45.0002 50.8183 44.9974 51.5627C44.9974 53.1041 46.2623 54.3797 47.8073 54.3797C48.5529 54.375 49.2668 54.0768 49.794 53.5495C50.3213 53.0222 50.6196 52.3084 50.6242 51.5627C50.6187 50.818 50.3199 50.1054 49.7926 49.5795C49.2653 49.0535 48.552 48.7565 47.8073 48.7528ZM53.7282 48.7528H56.2511V50.6273H54.3023C54.2074 49.9757 54.0138 49.346 53.7282 48.7528ZM17.8055 50.6273C18.337 50.6273 18.748 51.0312 18.748 51.5627C18.748 52.0907 18.3335 52.5017 17.8055 52.5017C17.6818 52.5036 17.559 52.4806 17.4444 52.4341C17.3298 52.3875 17.2258 52.3184 17.1385 52.2307C17.0512 52.1431 16.9824 52.0388 16.9363 51.924C16.8902 51.8093 16.8676 51.6864 16.87 51.5627C16.8681 51.4393 16.891 51.3168 16.9373 51.2025C16.9837 51.0881 17.0525 50.9842 17.1398 50.897C17.227 50.8097 17.3309 50.7409 17.4453 50.6946C17.5596 50.6482 17.6821 50.6253 17.8055 50.6273ZM47.8073 50.6273C48.3352 50.6273 48.7498 51.0312 48.7498 51.5627C48.7498 52.0942 48.3352 52.5017 47.8073 52.5017C47.6836 52.5036 47.5608 52.4806 47.4462 52.4341C47.3316 52.3875 47.2275 52.3184 47.1402 52.2307C47.0529 52.1431 46.9842 52.0388 46.9381 51.924C46.892 51.8093 46.8694 51.6864 46.8718 51.5627C46.8699 51.4393 46.8928 51.3168 46.9391 51.2025C46.9855 51.0881 47.0543 50.9842 47.1415 50.897C47.2288 50.8097 47.3327 50.7409 47.447 50.6946C47.5614 50.6482 47.6839 50.6253 47.8073 50.6273Z" fill="#07170D"/>
<path d="M16.87 1.87109C8.59972 1.87109 1.87793 8.60351 1.87793 16.8738C1.87793 25.144 8.60326 31.8729 16.8735 31.8729C19.1835 31.8707 21.4619 31.3355 23.5312 30.3087C25.6005 29.282 27.4049 27.7915 28.8039 25.9532C30.2029 24.115 31.1587 21.9787 31.5969 19.7106C32.0352 17.4425 31.944 15.1039 31.3305 12.8768C31.0364 11.6083 29.1336 12.1327 29.5234 13.3729C30.0652 15.3219 30.1486 17.3698 29.7672 19.3564C29.3858 21.343 28.5498 23.2144 27.3248 24.8242C26.0997 26.4339 24.5187 27.7383 22.7056 28.6354C20.8925 29.5324 18.8964 29.9977 16.8735 29.9949C15.1494 29.9972 13.4418 29.6595 11.8484 29.001C10.2551 28.3425 8.8072 27.3762 7.58776 26.1574C6.36833 24.9386 5.40125 23.4913 4.7419 21.8983C4.08256 20.3053 3.74389 18.5978 3.74529 16.8738C3.74342 15.1492 4.08172 13.4412 4.74082 11.8476C5.39991 10.254 6.36686 8.80598 7.5863 7.58655C8.80573 6.36711 10.2537 5.40016 11.8473 4.74107C13.441 4.08197 15.149 3.74368 16.8735 3.74554C20.7854 3.74554 24.4563 5.48888 26.9296 8.43697H24.3784C23.1276 8.43697 23.1276 10.315 24.3784 10.315H29.0556C29.1795 10.3154 29.3023 10.2914 29.4169 10.2442C29.5314 10.197 29.6355 10.1276 29.7232 10.0399C29.8108 9.95233 29.8802 9.84824 29.9274 9.73367C29.9746 9.6191 29.9986 9.49633 29.9982 9.37242V4.68808C29.9982 4.43904 29.8992 4.2002 29.7231 4.02411C29.547 3.84801 29.3082 3.74908 29.0592 3.74908C28.8101 3.74908 28.5713 3.84801 28.3952 4.02411C28.2191 4.2002 28.1202 4.43904 28.1202 4.68808V6.97001C26.7149 5.36929 24.9848 4.0863 23.0449 3.20649C21.105 2.32668 19 1.87378 16.87 1.87109ZM16.8735 8.44406C16.4058 8.46532 15.9345 8.7984 15.9345 9.37242V16.8738C15.9345 17.1218 16.0373 17.3627 16.2109 17.5399L19.9633 21.2923C20.8492 22.1782 22.1779 20.8459 21.2921 19.96L17.8125 16.4875V9.37242C17.8125 8.7169 17.3412 8.42634 16.8735 8.44406Z" fill="url(#paint0_linear_580_5257)"/>
<defs>
<linearGradient id="paint0_linear_580_5257" x1="8.3677" y1="-19.2909" x2="35.1546" y2="-10.8397" gradientUnits="userSpaceOnUse">
<stop stop-color="#0DBA48"/>
<stop offset="1" stop-color="#009B51"/>
</linearGradient>
</defs>
</svg>
